<svg width="92" height="92" viewBox="0 0 92 92" fill="none" xmlns="http://www.w3.org/2000/svg">
<path fill-rule="evenodd" clip-rule="evenodd" d="M74.158 28.9029C71.7508 25.6461 67.4909 25.4219 65.6619 25.7169C64.8323 12.9956 49.096 10.4283 45.3715 27.0437C42.3829 11.9703 32.1144 14.1949 28.961 16.5256C25.7042 18.9328 25.4799 23.1927 25.775 25.0217C13.0253 25.8532 10.4749 41.6582 27.2137 45.3369C11.9537 48.2819 14.1861 58.6155 16.5256 61.7807C18.9328 65.0375 23.1927 65.2617 25.0217 64.9667C25.8892 78.2681 43.0538 80.4684 45.7441 61.2463C48.0799 78.9353 59.2356 76.6051 62.5466 74.1578C65.8035 71.7506 66.0277 67.4907 65.7327 65.6617C78.5828 64.8237 81.0723 48.7754 63.8948 45.2619C78.688 42.2085 76.4755 32.0384 74.158 28.9029Z" fill="#E4EFFF"/>
<path d="M48.282 36.4971V53.4658H45.6804V39.0752H45.5867L41.532 41.7236V39.2627L45.7507 36.4971H48.282Z" fill="black"/>
</svg>
