<svg width="92" height="92" viewBox="0 0 92 92" fill="none" xmlns="http://www.w3.org/2000/svg">
<mask id="path-1-outside-1_633_9" maskUnits="userSpaceOnUse" x="-4.12662" y="-4.24264" width="98.9949" height="98.9949" fill="black">
<rect fill="white" x="-4.12662" y="-4.24264" width="98.9949" height="98.9949"/>
<path fill-rule="evenodd" clip-rule="evenodd" d="M74.158 28.9029C71.7508 25.6461 67.4909 25.4219 65.6619 25.7169C64.8323 12.9956 49.096 10.4283 45.3715 27.0437C42.3829 11.9703 32.1144 14.1949 28.961 16.5256C25.7042 18.9328 25.4799 23.1927 25.775 25.0217C13.0253 25.8532 10.4749 41.6582 27.2137 45.3369C11.9537 48.2819 14.1861 58.6155 16.5256 61.7807C18.9328 65.0375 23.1927 65.2617 25.0217 64.9667C25.8892 78.2681 43.0538 80.4684 45.7441 61.2463C48.0799 78.9353 59.2356 76.6051 62.5466 74.1578C65.8035 71.7506 66.0277 67.4907 65.7327 65.6617C78.5828 64.8237 81.0723 48.7754 63.8948 45.2619C78.688 42.2085 76.4755 32.0384 74.158 28.9029Z"/>
</mask>
<path d="M65.6619 25.7169L63.6661 25.847L63.8092 28.0415L65.9803 27.6913L65.6619 25.7169ZM74.158 28.9029L72.5497 30.0917L74.158 28.9029ZM45.3715 27.0437L43.4097 27.4327L47.3231 27.4812L45.3715 27.0437ZM28.961 16.5256L30.1498 18.1339L28.961 16.5256ZM25.775 25.0217L25.9051 27.0175L28.0996 26.8744L27.7494 24.7033L25.775 25.0217ZM27.2137 45.3369L27.5927 47.3007L27.643 43.3835L27.2137 45.3369ZM16.5256 61.7807L14.9172 62.9695L16.5256 61.7807ZM25.0217 64.9667L27.0175 64.8366L26.8744 62.6421L24.7033 62.9923L25.0217 64.9667ZM45.7441 61.2463L47.7269 60.9845L43.7634 60.9691L45.7441 61.2463ZM62.5466 74.1578L63.7354 75.7662L62.5466 74.1578ZM65.7327 65.6617L65.6025 63.6659L63.408 63.809L63.7582 65.9802L65.7327 65.6617ZM63.8948 45.2619L63.4905 43.3032L63.4941 47.2213L63.8948 45.2619ZM65.9803 27.6913C66.6354 27.5857 67.8721 27.5613 69.1766 27.9101C70.4596 28.2531 71.6838 28.9202 72.5497 30.0917L75.7664 27.7141C74.225 25.6287 72.1157 24.5554 70.2097 24.0458C68.3251 23.542 66.5174 23.553 65.3434 23.7424L65.9803 27.6913ZM47.3231 27.4812C49.0535 19.7614 53.3104 17.2669 56.5334 17.3778C59.8338 17.4915 63.3061 20.326 63.6661 25.847L67.6576 25.5867C67.1881 18.3865 62.3774 13.5767 56.6711 13.3802C50.8875 13.1811 45.414 17.7106 43.42 26.6063L47.3231 27.4812ZM30.1498 18.1339C31.3054 17.2798 34.0084 16.3516 36.6343 17.168C39.0474 17.9181 42.0064 20.3552 43.4097 27.4327L47.3334 26.6547C45.748 18.6588 42.0784 14.6715 37.8217 13.3483C33.7779 12.0912 29.77 13.4406 27.7722 14.9172L30.1498 18.1339ZM27.7494 24.7033C27.6438 24.0482 27.6194 22.8115 27.9682 21.507C28.3112 20.224 28.9783 18.9998 30.1498 18.1339L27.7722 14.9172C25.6868 16.4586 24.6134 18.568 24.1039 20.4739C23.6001 22.3585 23.6111 24.1662 23.8005 25.3402L27.7494 24.7033ZM27.643 43.3835C19.859 41.6728 17.3357 37.4044 17.4352 34.1731C17.537 30.8649 20.3718 27.3784 25.9051 27.0175L25.6448 23.026C18.4284 23.4966 13.6132 28.3283 13.4371 34.0501C13.2586 39.8488 17.8296 45.3223 26.7844 47.2903L27.643 43.3835ZM18.134 60.5919C17.276 59.4312 16.3452 56.7128 17.177 54.0785C17.9418 51.6564 20.4171 48.6855 27.5927 47.3007L26.8347 43.3731C18.7503 44.9333 14.7118 48.6016 13.3627 52.874C12.0806 56.934 13.4357 60.965 14.9172 62.9695L18.134 60.5919ZM24.7033 62.9923C24.0482 63.0979 22.8115 63.1223 21.507 62.7735C20.224 62.4305 18.9998 61.7634 18.134 60.5919L14.9172 62.9695C16.4586 65.0549 18.568 66.1282 20.474 66.6378C22.3585 67.1416 24.1663 67.1306 25.3402 66.9412L24.7033 62.9923ZM43.7634 60.9691C42.4924 70.0502 38.0134 73.1682 34.6192 73.3044C31.1612 73.4432 27.3939 70.6088 27.0175 64.8366L23.026 65.0969C23.517 72.626 28.7658 77.5425 34.7796 77.3012C40.8571 77.0573 46.3055 71.6645 47.7248 61.5235L43.7634 60.9691ZM61.3578 72.5495C60.1332 73.4546 57.2229 74.4179 54.4876 73.3827C51.9506 72.4225 48.843 69.4371 47.7269 60.9845L43.7613 61.5081C44.981 70.7446 48.6191 75.4386 53.0717 77.1237C57.326 78.7338 61.6489 77.3084 63.7354 75.7662L61.3578 72.5495ZM63.7582 65.9802C63.8638 66.6352 63.8882 67.8719 63.5394 69.1764C63.1964 70.4594 62.5293 71.6836 61.3578 72.5495L63.7354 75.7662C65.8208 74.2248 66.8942 72.1155 67.4037 70.2095C67.9076 68.3249 67.8965 66.5172 67.7071 65.3432L63.7582 65.9802ZM63.4941 47.2213C71.5068 48.8602 74.1327 53.1687 74.0744 56.4293C74.0148 59.7653 71.1793 63.3022 65.6025 63.6659L65.8628 67.6575C73.1362 67.1831 77.9705 62.2769 78.0738 56.5008C78.1784 50.6494 73.4603 45.177 64.2956 43.3024L63.4941 47.2213ZM72.5497 30.0917C73.398 31.2395 74.3221 33.9193 73.5291 36.5324C72.8009 38.932 70.4208 41.8727 63.4905 43.3032L64.2991 47.2206C72.1621 45.5976 76.0723 41.9266 77.3568 37.694C78.5765 33.6748 77.2355 29.7018 75.7664 27.7141L72.5497 30.0917Z" fill="#E4EFFF" mask="url(#path-1-outside-1_633_9)"/>
<path d="M48.282 36.4971V53.4658H45.6804V39.0752H45.5867L41.532 41.7236V39.2627L45.7507 36.4971H48.282Z" fill="#E4EFFF"/>
</svg>
