<svg id="Layer_1" data-name="Layer 1" xmlns="http://www.w3.org/2000/svg" viewBox="0 0 1980 609"><defs><style>.cls-1{fill:#eee;}</style></defs><path class="cls-1" d="M666,426.89v609H2646v-609Zm459.8,498h-32.64V856h-62.64c29.28,0,49.68,10.8,49.68,31.92,0,23.28-19.68,40.56-49.68,40.56-48.72,0-83.76-39.12-83.76-87.6s40.56-87.6,89.28-87.6c27.6,0,54.24,12,70.56,30.72l-25.2,19.68C1071.08,792.17,1054.28,785,1036,785c-31.2,0-56.64,25-56.64,55.92,0,32.16,21.6,55.92,51.12,55.92,13.44,0,22.56-6.72,22.56-17,0-11.28-9.36-17.52-22.56-17.52V825.53h95.28Zm137.83-48h-92.4c4.08,15.12,16.32,25,32.4,25.44,11.76.48,22.32-3.6,29.28-11.28l20.64,16.56c-11.76,12.72-30.48,20.88-49.92,20.88-36,0-65-27.6-65-63.6s29-63.6,65-63.6C1243.23,801.29,1267.47,834.17,1263.63,876.89Zm78.87-42.48h-27.36v50.4c0,10.08,5,15.6,13.68,15.6a27.51,27.51,0,0,0,13.68-3.36v27.84c-4.56,2.4-12.72,3.6-17.52,3.6-27.12,0-40.56-13.92-40.56-43.68v-50.4H1264.5V800.09c13.2,0,19.92-6.48,19.92-17.76v-8.64h30.72v8.64c0,12.24-10.56,20.4-29.52,22.56h56.88Zm108.18,90.48H1418v-168h32.64Zm132.66,0h-30.72v-73c0-14.64-7.2-23.76-19.44-23.76-12.48,0-23,11.52-23,26.16h-6v70.56h-31v-120h31v49.44c0-30,16.56-53,39.12-53,23.76,0,40.08,20.4,40.08,50.64Zm145.28,0H1696V787.13h-46.32V756.89h125v30.24h-46.08Zm83.09,3.6a63.6,63.6,0,1,1,63.6-63.6A63.4,63.4,0,0,1,1811.71,928.49Zm186-3.6H1967V875.45c0,30-16.56,53-39.12,53-24,0-40.32-20.4-40.32-50.64v-73h31v73c0,14.64,7.2,23.76,19.44,23.76,12.48,0,22.8-11.52,22.8-26.16H1967V804.89h30.72Zm76.54-26.16c10.08,0,19.2-4.32,24.72-11.52l23.76,19a63.6,63.6,0,1,1,0-82.56l-23.76,19c-5.52-7.2-14.64-11.52-24.72-11.52-19,0-32.64,14.88-32.64,33.84S2055.26,898.73,2074.22,898.73Zm169.15,26.16h-30.72v-73c0-14.64-7.2-23.76-19.44-23.76-12.48,0-23,11.52-23,26.16h-6v70.56h-31v-168h31v97.44c0-30,16.56-53,39.12-53,23.76,0,40.08,20.4,40.08,50.64Zm96.56,3.12a19.47,19.47,0,0,1-19.68-19.68,19.68,19.68,0,0,1,39.36,0A19.47,19.47,0,0,1,2339.93,928Z" transform="translate(-666 -426.89)"/><path class="cls-1" d="M1203.63,827.45c-16.08,0-28.56,10.32-32.64,25.92h62.88C1232,839.21,1220.91,827.45,1203.63,827.45Z" transform="translate(-666 -426.89)"/><path class="cls-1" d="M1811.71,830.81c-18.24,0-32.64,15.12-32.64,34.08s14.4,34.08,32.64,34.08,32.88-15.12,32.88-34.08S1830,830.81,1811.71,830.81Z" transform="translate(-666 -426.89)"/></svg>