<svg width="1200" height="630" viewBox="0 0 1200 630" fill="none" xmlns="http://www.w3.org/2000/svg">
<rect width="1200" height="630" fill="#EEEEEE"/>
<path d="M562.664 358.8C554.344 358.8 547.104 356.56 540.944 352.08C534.784 347.52 531.704 342.16 531.704 336C531.704 329.68 534.424 325.04 539.864 322.08C545.304 319.04 552.104 318.52 560.264 320.52C557.304 319.64 554.704 318.8 552.464 318C550.224 317.12 547.824 316 545.264 314.64C542.784 313.2 540.744 311.64 539.144 309.96C537.544 308.28 536.184 306.24 535.064 303.84C534.024 301.36 533.504 298.68 533.504 295.8C533.504 288.76 536.144 282.92 541.424 278.28C546.704 273.56 553.384 271.2 561.464 271.2C567.064 271.2 572.544 272.52 577.904 275.16C583.344 277.8 587.384 281.24 590.024 285.48L577.424 295.32C575.424 292.76 572.984 290.72 570.104 289.2C567.224 287.68 564.344 286.92 561.464 286.92C558.184 286.92 555.424 287.72 553.184 289.32C550.944 290.92 549.824 293.04 549.824 295.68C549.824 296.96 550.104 298.12 550.664 299.16C551.224 300.2 551.824 301.04 552.464 301.68C553.104 302.24 554.184 302.88 555.704 303.6C557.304 304.24 558.504 304.72 559.304 305.04C560.104 305.28 561.544 305.68 563.624 306.24C564.504 306.48 565.184 306.68 565.664 306.84C574.384 309.64 581.024 313.08 585.584 317.16C590.224 321.24 592.544 326.52 592.544 333C592.544 340.44 589.784 346.6 584.264 351.48C578.744 356.36 571.544 358.8 562.664 358.8ZM552.104 325.8C549.464 327.56 548.144 329.92 548.144 332.88C548.144 335.84 549.544 338.28 552.344 340.2C555.224 342.12 558.664 343.08 562.664 343.08C566.664 343.08 569.904 342.16 572.384 340.32C574.944 338.4 576.224 335.88 576.224 332.76C576.224 329.8 574.984 327.44 572.504 325.68C570.024 323.84 566.464 322.24 561.824 320.88L560.864 323.88C557.664 323.32 554.744 323.96 552.104 325.8Z" fill="#2D2D2D"/>
<path d="M623.656 357V322.08L595.096 273H613.336L631.696 305.52L650.056 273H668.296L639.976 321.96V357H623.656Z" fill="#2D2D2D"/>
</svg>
