<?xml version="1.0" encoding="utf-8"?>
<!-- Generator: Adobe Illustrator 24.2.0, SVG Export Plug-In . SVG Version: 6.00 Build 0)  -->
<svg version="1.1" id="Layer_1" xmlns="http://www.w3.org/2000/svg" xmlns:xlink="http://www.w3.org/1999/xlink" x="0px" y="0px"
	 viewBox="0 0 318 57" style="enable-background:new 0 0 318 57;" xml:space="preserve">
<style type="text/css">
	.st0{fill:#E4EFFF;}
</style>
<g>
	<path class="st0" d="M283.9,24.5c0-1.5-1-2.3-2.3-2.3c-1.4,0-2.4,0.8-2.4,2.3c0,1.6,1,2.3,2.4,2.3
		C282.9,26.9,283.9,26.1,283.9,24.5z"/>
	<rect x="56.3" y="22.4" class="st0" width="3.9" height="5.9"/>
	<rect x="30.1" y="34.2" class="st0" width="7.4" height="2"/>
	<path class="st0" d="M0,0v57h318V0H0z M289.8,17.7h3.8v15.4h-3.8V17.7z M112.1,19.1h15.4v3H116v1.7H127v2.9H116v1.9h11.7v2.9h-15.5
		V19.1z M100.3,18.1h3.5v12.7h-3.5v-4.9h-1.8v-3h1.8V18.1z M49.9,19.4h16.9v3H64v5.9h2.7v3H50v-3h2.6v-5.9h-2.7V19.4z M24.1,29.7
		V18.8h10.6v3h-6.8v1H34v2.9h-6.1v1.1c3.3,0,5.6-0.1,8.2-0.5l0.4,2.9c-3,0.5-5.8,0.6-10.4,0.6H24.1z M41.2,39.1H26.4v-7.9h14.8V39.1
		z M41.2,30.5h-3.8V17.7h3.8V30.5z M68.2,37H48.4v-3.1h19.8V37z M88.7,37.1H68.9v-3h8v-2.8h-5.9v-7.7h11.8v-1.7H71.1v-3h15.5v7.6
		H74.9v1.7h12.2v3h-6.4V34h8.1V37.1z M88.9,28c3-1.1,4-3.4,4-5.6v-0.2h-3.1v-3h9.6v3h-2.9v0.3c0,2.2,0.9,4.3,3.7,5.3l-1.9,2.9
		c-1.7-0.6-2.9-1.7-3.6-3.1c-0.8,1.5-2,2.7-3.9,3.4L88.9,28z M108.2,39.3h-3.8v-4.8H93v-3h15.2V39.3z M108.2,30.9h-3.6V17.6h3.6
		V30.9z M129.7,37h-19.8v-3h19.8V37z M133.6,35.1c-1.3,0-2.3-1-2.3-2.3c0-1.2,1-2.3,2.3-2.3c1.2,0,2.3,1,2.3,2.3
		C135.8,34.1,134.8,35.1,133.6,35.1z M133.6,26.5c-1.3,0-2.3-1-2.3-2.3c0-1.2,1-2.3,2.3-2.3c1.2,0,2.3,1,2.3,2.3
		C135.8,25.5,134.8,26.5,133.6,26.5z M157.6,30.9c0,3.8-2.9,6.3-7.3,6.3s-7.3-2.4-7.3-6.3V20h4.5v10.5c0,1.6,1.2,2.8,2.8,2.8
		c1.7,0,2.8-1.2,2.8-2.8V20h4.5V30.9z M170.4,37l-3-5.1h-0.1l-3,5.1h-5.1l5.2-8.5l-5.1-8.5h5l2.9,5.1h0.1l2.9-5.1h5l-5.1,8.5
		l5.3,8.5H170.4z M179.8,39.6h-3.8l5.5-20.3h3.8L179.8,39.6z M200.9,30.9c0,3.8-2.9,6.3-7.3,6.3s-7.3-2.4-7.3-6.3V20h4.5v10.5
		c0,1.6,1.2,2.8,2.8,2.8c1.7,0,2.8-1.2,2.8-2.8V20h4.5V30.9z M207.4,37h-4.5V20h4.5V37z M216.9,34.4h-2v-9.2h6.6v-2.8h-6.6v-3h10.4
		v8.8h-6.5v3.2c3.1,0,5.6-0.2,8.4-0.7l0.3,3C224.2,34.3,221,34.4,216.9,34.4z M232.1,39.4h-3.8V17.6h3.8V39.4z M237.5,34.4h-1.9
		V19.5h10.7v3h-6.9v8.7c3.6,0,5.8-0.1,8.2-0.5l0.3,3C245.1,34.3,242.4,34.4,237.5,34.4z M252.6,39.4h-3.8V17.6h3.8V39.4z M275,28.7
		h-2.9v10.6h-3.8v-7.5l-2.1,2.9c-2.4-1-3.9-3-4.9-5.3c-0.9,2.6-2.6,4.8-5,5.9l-2.2-3c3.9-1.8,5.2-5.8,5.2-9.3v-0.4h-4.3v-3h12.1v3
		h-4v0.4c0,3.2,1.2,7,5.1,8.7V17.6h3.8v8h2.9V28.7z M275.5,24.5c0-3.2,2.7-5.6,6.1-5.6s6.1,2.3,6.1,5.6c0,3.3-2.7,5.6-6.1,5.6
		S275.5,27.8,275.5,24.5z M294.1,39h-15.4v-7.5h3.8V36h11.6V39z"/>
</g>
</svg>
