<?xml version="1.0" encoding="utf-8"?>
<!-- Generator: Adobe Illustrator 24.2.0, SVG Export Plug-In . SVG Version: 6.00 Build 0)  -->
<svg version="1.1" id="Layer_1" xmlns="http://www.w3.org/2000/svg" xmlns:xlink="http://www.w3.org/1999/xlink" x="0px" y="0px"
	 viewBox="0 0 379 57" style="enable-background:new 0 0 379 57;" xml:space="preserve">
<style type="text/css">
	.st0{fill:#FDFBF4;}
</style>
<g>
	<path class="st0" d="M232.8,24.5c0-1.5-1-2.3-2.3-2.3c-1.4,0-2.4,0.8-2.4,2.3c0,1.6,1,2.3,2.4,2.3
		C231.7,26.9,232.8,26.1,232.8,24.5z"/>
	<rect x="254.4" y="21.8" class="st0" width="3.4" height="3.5"/>
	<path class="st0" d="M51.8,24.5c0-1.5-1-2.3-2.3-2.3c-1.4,0-2.4,0.8-2.4,2.3c0,1.6,1,2.3,2.4,2.3C50.8,26.9,51.8,26.1,51.8,24.5z"
		/>
	<rect x="76.5" y="22.4" class="st0" width="3.9" height="5.9"/>
	<rect x="301.7" y="21.8" class="st0" width="7.4" height="0.8"/>
	<polygon class="st0" points="280.9,31.6 282.2,31.5 282.2,22.3 280.9,22.3 	"/>
	<path class="st0" d="M347.5,33.6c-2.6,0-3.8,0.4-3.8,1.4c0,1,1.2,1.4,3.8,1.4c2.6,0,3.8-0.4,3.8-1.4C351.3,34,350,33.6,347.5,33.6z
		"/>
	<path class="st0" d="M0,0v57h379V0H0z M351.1,17.7h3.8v12.7h-3.8V17.7z M298.1,18h3.7v1.1h7.4V18h3.7v7.4h-14.8V18z M264.1,17.6
		h3.8v12.2h-3.8V17.6z M238.6,17.7h3.8v15.4h-3.8V17.7z M132.3,19.1h15.4v3h-11.6v1.7h11.1v2.9h-11.1v1.9h11.7v2.9h-15.5V19.1z
		 M120.5,18.1h3.5v12.7h-3.5v-4.9h-1.8v-3h1.8V18.1z M70.1,19.4h16.9v3h-2.8v5.9h2.7v3H70.2v-3h2.6v-5.9h-2.7V19.4z M57.7,17.7h3.8
		v15.4h-3.8V17.7z M24.4,35l-2.2-2.6c4-2.4,5.8-5.1,6.3-9.2h-5v-3h8.6C32.1,26.6,30.4,31.4,24.4,35z M41.4,39.3h-3.6V28.5h-1.3v9.9
		H33V18.2h3.5v7.3h1.3v-7.9h3.6V39.3z M43.4,24.5c0-3.2,2.7-5.6,6.1-5.6s6.1,2.3,6.1,5.6c0,3.3-2.7,5.6-6.1,5.6S43.4,27.8,43.4,24.5
		z M61.9,39H46.6v-7.5h3.8V36h11.6V39z M88.4,37H68.6v-3.1h19.8V37z M108.9,37.1H89.1v-3h8v-2.8h-5.9v-7.7h11.8v-1.7H91.3v-3h15.5
		v7.6H95.1v1.7h12.2v3h-6.4V34h8.1V37.1z M109.1,28c3-1.1,4-3.4,4-5.6v-0.2H110v-3h9.6v3h-2.9v0.3c0,2.2,0.9,4.3,3.7,5.3l-1.9,2.9
		c-1.7-0.6-2.9-1.7-3.6-3.1c-0.8,1.5-2,2.7-3.9,3.4L109.1,28z M128.4,39.3h-3.8v-4.8h-11.5v-3h15.2V39.3z M128.4,30.9h-3.6V17.6h3.6
		V30.9z M149.9,37h-19.8v-3h19.8V37z M153.8,35.1c-1.3,0-2.3-1-2.3-2.3c0-1.2,1-2.3,2.3-2.3c1.2,0,2.3,1,2.3,2.3
		C156,34.1,155,35.1,153.8,35.1z M153.8,26.5c-1.3,0-2.3-1-2.3-2.3c0-1.2,1-2.3,2.3-2.3c1.2,0,2.3,1,2.3,2.3
		C156,25.5,155,26.5,153.8,26.5z M165.7,34.4h-2v-9.2h6.6v-2.8h-6.6v-3h10.4v8.8h-6.5v3.2c3.1,0,5.6-0.2,8.4-0.7l0.3,3
		C173,34.3,169.9,34.4,165.7,34.4z M180.9,39.4h-3.8V17.6h3.8V39.4z M186.3,34.4h-1.9V19.5H195v3h-6.9v8.7c3.6,0,5.8-0.1,8.2-0.5
		l0.3,3C193.9,34.3,191.2,34.4,186.3,34.4z M201.4,39.4h-3.8V17.6h3.8V39.4z M223.8,28.7h-2.9v10.6h-3.8v-7.5l-2.1,2.9
		c-2.4-1-3.9-3-4.9-5.3c-0.9,2.6-2.6,4.8-5,5.9l-2.2-3c3.9-1.8,5.2-5.8,5.2-9.3v-0.4h-4.3v-3h12.1v3h-4v0.4c0,3.2,1.2,7,5.1,8.7
		V17.6h3.8v8h2.9V28.7z M224.3,24.5c0-3.2,2.7-5.6,6.1-5.6s6.1,2.3,6.1,5.6c0,3.3-2.7,5.6-6.1,5.6S224.3,27.8,224.3,24.5z M242.9,39
		h-15.4v-7.5h3.8V36h11.6V39z M250.7,18.9h10.8v9.3h-10.8V18.9z M267.8,39.3c-3.7-0.3-6.2-1.4-7.5-3c-1.3,1.5-3.7,2.7-7.5,3
		l-1.3-2.8c4.5-0.3,6.2-1.7,6.7-2.9h-5.8v-2.7h6v-1.6h3.8v1.6h6v2.7h-5.7c0.4,1.1,2.2,2.5,6.7,2.9L267.8,39.3z M275.4,34.7l-0.3-3
		l2.1,0v-9.3h-1.6v-3h12.1v3h-1.9v9c0.8,0,1.6-0.1,2.3-0.2l0.2,2.7C284,34.6,279.1,34.7,275.4,34.7z M293.6,39.3h-3.7v-11h-2.7v-3
		h2.7v-7.7h3.7V39.3z M313.5,39.2h-15.8v-6h11.5v-0.6h-11.5v-2.7H313v5.9h-11.6v0.7h12.1V39.2z M315.4,29h-19.8v-2.9h19.8V29z
		 M319.2,34.4h-2v-9.2h6.6v-2.8h-6.6v-3h10.4v8.8h-6.5v3.2c3.1,0,5.6-0.2,8.4-0.7l0.3,3C326.5,34.3,323.3,34.4,319.2,34.4z
		 M334.4,39.4h-3.8V17.6h3.8V39.4z M336.3,27.1c3.9-1.1,5-4,5-6.5v-2.1h3.9v2.1c0,2.4,1.1,4.9,4.9,6l-1.9,2.9c-2.4-0.7-4-2-4.9-3.8
		c-1,2-2.6,3.5-5.2,4.3L336.3,27.1z M347.5,39.3c-4.6,0-7.5-1.6-7.5-4.3c0-2.7,2.9-4.3,7.5-4.3c4.6,0,7.5,1.6,7.5,4.3
		C355,37.7,352.1,39.3,347.5,39.3z"/>
</g>
</svg>
