<svg width="1365" height="71" viewBox="0 0 1365 71" fill="none" xmlns="http://www.w3.org/2000/svg">
<path d="M31.1405 19.6758V21.0469H25.2518V22.7695H30.7011V24.0703H25.2518V25.8984C28.4071 25.8984 30.244 25.8457 32.371 25.4766L32.5468 26.8125C30.2616 27.1992 28.3104 27.252 24.8651 27.2344H23.5643V19.6758H31.1405ZM35.7284 18.7617V28.1309H34.0585V18.7617H35.7284ZM35.7284 28.8691V34.3008H25.3749V28.8691H35.7284ZM27.0272 30.1699V32.9473H34.0936V30.1699H27.0272ZM52.9922 19.7285V21.1172C52.9922 22.6113 52.9922 24.2285 52.5528 26.4785H54.8204V27.8496H48.4395V34.5117H46.752V27.8496H40.459V26.4785H50.8653C51.3399 24.2373 51.3399 22.585 51.3399 21.1172V21.0996H42.2168V19.7285H52.9922ZM60.5255 21.0996C60.5255 23.3145 61.9493 25.2832 64.34 26.0566L63.4259 27.3574C61.6945 26.7334 60.42 25.5205 59.7345 23.9473C59.0489 25.749 57.6778 27.1465 55.7794 27.832L54.8829 26.4961C57.3966 25.6348 58.8556 23.543 58.8732 21.1699V19.623H60.5255V21.0996ZM68.0665 18.7441V28.043H66.3966V23.3145H63.0743V21.9434H66.3966V18.7441H68.0665ZM62.7931 28.4824C66.0978 28.4824 68.1193 29.5723 68.1193 31.4883C68.1193 33.3867 66.0978 34.4766 62.7931 34.459C59.4884 34.4766 57.4493 33.3867 57.4669 31.4883C57.4493 29.5723 59.4884 28.4824 62.7931 28.4824ZM62.7931 29.7832C60.4903 29.7832 59.1193 30.3984 59.1193 31.4883C59.1193 32.543 60.4903 33.1406 62.7931 33.1406C65.0958 33.1406 66.4669 32.543 66.4669 31.4883C66.4669 30.3984 65.0958 29.7832 62.7931 29.7832Z" fill="#2D2D2D"/>
<path d="M165.115 18.7441V34.4941H163.498V18.7441H165.115ZM161.863 19.0781V33.7031H160.281V26.0566H157.047V24.668H160.281V19.0781H161.863ZM158.119 20.625V21.9961H153.777V29.3965C155.843 29.3789 157.231 29.291 158.857 28.9395L158.998 30.3457C157.188 30.7148 155.641 30.7852 153.18 30.7852H152.143V20.625H158.119ZM174.055 20.9766C174.055 23.543 176.797 25.9688 179.82 26.5137L179.047 27.9023C176.533 27.3574 174.213 25.7051 173.193 23.4902C172.156 25.6875 169.845 27.3398 167.322 27.9023L166.584 26.5137C169.572 25.9512 172.297 23.543 172.297 20.9766V19.7812H174.055V20.9766ZM180.471 31.0312V32.4199H166.057V31.0312H180.471ZM193.207 20.2734V22.1895C193.207 24.4922 193.207 26.6543 192.522 29.9238L190.869 29.7656C191.203 28.3242 191.379 27.0586 191.467 25.8809L182.01 26.3906L181.799 25.0195L191.555 24.6504C191.581 23.8066 191.581 22.998 191.59 22.1895V21.6445H182.238V20.2734H193.207ZM194.895 31.0137V32.3848H180.533V31.0137H194.895ZM211.403 18.7441V34.5293H209.733V18.7441H211.403ZM206.586 20.168V25.916H200.926V29.3613C203.475 29.3525 205.707 29.2383 208.344 28.7988L208.502 30.1699C205.707 30.6445 203.334 30.75 200.557 30.75H199.221V24.5801H204.881V21.5215H199.203V20.168H206.586ZM218.479 22.752C218.479 25.6348 220.096 28.5 222.504 29.5898L221.485 30.9258C219.692 30.0293 218.347 28.2451 217.653 26.0918C216.958 28.3594 215.579 30.2754 213.768 31.2246L212.713 29.8711C215.157 28.7109 216.791 25.6699 216.791 22.752V20.0625H218.479V22.752ZM225.932 18.7441V34.5293H224.28V25.3359H220.764V23.9824H224.28V18.7441H225.932ZM240.321 18.7441V34.4941H238.651V18.7441H240.321ZM233.202 23.8066C233.202 26.3203 234.872 28.8867 237.315 29.9238L236.401 31.207C234.59 30.416 233.14 28.7812 232.411 26.7949C231.699 28.8955 230.275 30.6445 228.438 31.4707L227.506 30.1875C229.95 29.0977 231.567 26.4434 231.567 23.8066V22.7695H227.981V21.4336H231.549V19.0605H233.202V21.4336H236.735V22.7695H233.202V23.8066Z" fill="#2D2D2D"/>
<path d="M339.71 2.74414V18.4941H338.11V2.74414H339.71ZM336.599 3.0957V17.6855H335.016V10.1445H333.048V8.65039H335.016V3.0957H336.599ZM333.47 4.67773V6.04883H332.257V13.0801C332.793 13.0449 333.311 12.9834 333.786 12.9219L333.909 14.1348C331.413 14.627 328.143 14.6973 326.104 14.6973L325.911 13.291L327.458 13.2734V6.04883H326.245V4.67773H333.47ZM328.97 13.2559C329.541 13.2383 330.13 13.2207 330.71 13.1855V6.04883H328.97V13.2559ZM354.978 15.1895V16.5605H340.563V15.1895H354.978ZM353.22 3.9043V8.82617H343.974V11.1289H353.589V12.4648H342.321V7.47266H351.567V5.25781H342.286V3.9043H353.22ZM369.454 15.1191V16.4902H355.04V15.1191H361.351V11.375H363.003V15.1191H369.454ZM363.038 4.94141C363.038 7.4375 365.78 9.77539 368.821 10.2852L368.101 11.6562C365.552 11.1465 363.205 9.57324 362.159 7.40234C361.122 9.56445 358.802 11.1641 356.271 11.6562L355.532 10.2852C358.556 9.77539 361.28 7.4375 361.28 4.94141V3.74609H363.038V4.94141ZM384.23 8.93164V10.3027H381.786V18.4766H380.116V2.74414H381.786V8.93164H384.23ZM371.767 4.27344V13.1328C373.964 13.1328 376.258 12.9482 378.763 12.4297L378.956 13.8359C376.267 14.3809 373.771 14.5215 371.415 14.5215H370.114V4.27344H371.767ZM308.181 28.752C308.164 31.5469 309.781 34.3945 312.136 35.5371L311.099 36.873C309.385 35.9854 308.058 34.2188 307.373 32.1094C306.661 34.3594 305.281 36.2402 303.488 37.1719L302.451 35.8184C304.877 34.6582 306.511 31.6348 306.511 28.752V26.0625H308.181V28.752ZM314.984 24.7441V31.0195H317.515V32.4434H314.984V40.4941H313.314V24.7441H314.984ZM331.553 32.4258V33.7793H317.191V32.4258H320.637V30.2988C319.424 29.8066 318.738 29.0156 318.738 27.9785C318.738 26.1152 320.9 25.0254 324.363 25.0254C327.808 25.0254 329.988 26.1152 329.988 27.9785C329.988 29.0156 329.294 29.8154 328.072 30.2988V32.4258H331.553ZM324.363 34.8516C327.756 34.8516 329.795 35.8535 329.795 37.6465C329.795 39.4746 327.756 40.459 324.363 40.459C320.935 40.459 318.896 39.4746 318.896 37.6465C318.896 35.8535 320.935 34.8516 324.363 34.8516ZM324.363 36.1348C321.955 36.1348 320.584 36.6797 320.584 37.6465C320.584 38.6309 321.955 39.1934 324.363 39.1758C326.736 39.1934 328.125 38.6309 328.125 37.6465C328.125 36.6797 326.736 36.1348 324.363 36.1348ZM324.363 26.3086C321.92 26.3086 320.443 26.9238 320.461 27.9785C320.443 29.0332 321.92 29.6309 324.363 29.6309C326.806 29.6309 328.265 29.0332 328.265 27.9785C328.265 26.9238 326.806 26.3086 324.363 26.3086ZM322.324 32.4258H326.42V30.7383C325.804 30.8438 325.11 30.8965 324.363 30.8965C323.625 30.8965 322.939 30.8438 322.324 30.7559V32.4258ZM337.152 29.3848C337.152 31.8809 338.787 34.6582 341.178 35.7832L340.228 37.084C338.462 36.2314 337.064 34.4561 336.361 32.3906C335.632 34.6494 334.155 36.5918 332.353 37.4883L331.369 36.1699C333.76 35.0273 335.5 32.0566 335.5 29.3848V27.7148H331.949V26.3262H340.58V27.7148H337.152V29.3848ZM343.937 24.7441V30.9844H346.469V32.3906H343.937V40.4941H342.267V24.7441H343.937ZM355.242 28.752C355.225 31.6348 356.965 34.5176 359.408 35.6074L358.406 36.9258C356.596 36.0645 355.163 34.2979 354.434 32.1445C353.695 34.4473 352.245 36.3545 350.356 37.2773L349.336 35.8711C351.814 34.7637 353.555 31.7578 353.555 28.752V26.0625H355.242V28.752ZM362.502 24.7441V40.5293H360.832V24.7441H362.502ZM378.649 30.9316V32.3027H376.205V40.4766H374.535V24.7441H376.205V30.9316H378.649ZM366.186 26.2734V35.1328C368.383 35.1328 370.677 34.9482 373.182 34.4297L373.375 35.8359C370.686 36.3809 368.19 36.5215 365.834 36.5215H364.533V26.2734H366.186ZM391.49 24.7441V40.5293H389.821V24.7441H391.49ZM386.674 26.168V31.916H381.014V35.3613C383.563 35.3525 385.795 35.2383 388.432 34.7988L388.59 36.1699C385.795 36.6445 383.422 36.75 380.645 36.75H379.309V30.5801H384.969V27.5215H379.291V26.168H386.674ZM400.061 25.6934C403.436 25.7109 405.879 27.3633 405.879 29.877C405.879 32.2412 403.831 33.7969 400.887 34.043V37.1367H407.303V38.5254H392.889V37.1367H399.235V34.043C396.308 33.7969 394.26 32.2412 394.26 29.877C394.26 27.3633 396.703 25.7109 400.061 25.6934ZM400.061 27.0645C397.635 27.0469 395.877 28.1719 395.877 29.877C395.877 31.6523 397.635 32.7422 400.061 32.7598C402.504 32.7422 404.262 31.6523 404.262 29.877C404.262 28.1719 402.504 27.0469 400.061 27.0645Z" fill="#2D2D2D"/>
<path d="M501.796 4.27344H503.729V12.6406C503.729 15.3125 501.725 17.2109 498.684 17.2109C495.608 17.2109 493.622 15.3125 493.622 12.6406V4.27344H495.556V12.4824C495.556 14.2051 496.751 15.4531 498.684 15.4531C500.6 15.4531 501.796 14.2051 501.796 12.4824V4.27344ZM506.604 4.27344L509.628 9.23047H509.733L512.774 4.27344H515.007L511.034 10.6367L515.042 17H512.774L509.733 12.0957H509.628L506.569 17H504.319L508.38 10.6367L504.337 4.27344H506.604ZM531.269 2.74414V18.5293H529.599V2.74414H531.269ZM520.774 4.0625V8.10547H525.011V4.0625H526.663V14.75H519.105V4.0625H520.774ZM520.774 13.3789H525.011V9.42383H520.774V13.3789ZM545.833 2.76172V14.293H544.163V8.36914H541.157V7.01562H544.163V2.76172H545.833ZM546.255 16.8066V18.1602H535.603V13.2559H537.273V16.8066H546.255ZM538.345 5.94336C538.345 7.91211 539.769 9.88086 542.142 10.6719L541.28 12.0078C539.514 11.3838 538.204 10.1182 537.519 8.5625C536.833 10.2939 535.453 11.6914 533.581 12.3594L532.72 11.0059C535.146 10.1797 536.64 8.10547 536.64 5.94336V5.32812H533.23V3.95703H541.72V5.32812H538.345V5.94336ZM475.671 39H473.615L478.185 26.2734H480.418L485.005 39H482.949L481.789 35.6426H476.832L475.671 39ZM477.394 34.0254H481.226L479.345 28.5938H479.257L477.394 34.0254ZM492.363 29.6309C492.24 28.4531 491.203 27.7676 489.744 27.7676C488.179 27.7676 487.195 28.5586 487.195 29.6484C487.195 30.8613 488.513 31.3184 489.515 31.5645L490.746 31.8984C492.381 32.2852 494.402 33.1816 494.42 35.4844C494.402 37.6289 492.697 39.2109 489.691 39.2109C486.843 39.2109 485.05 37.7871 484.927 35.4668H486.861C486.984 36.8555 488.197 37.5234 489.691 37.5234C491.308 37.5234 492.486 36.6973 492.504 35.4492C492.486 34.3418 491.449 33.8848 490.095 33.5332L488.584 33.1289C486.545 32.5664 485.261 31.5293 485.261 29.7539C485.261 27.5566 487.23 26.0977 489.797 26.0977C492.381 26.0977 494.191 27.5742 494.244 29.6309H492.363ZM500.881 31.8281V33.4453H495.238V31.8281H500.881ZM504.16 26.2734V39H502.226V26.2734H504.16ZM512.59 29.6309C512.467 28.4531 511.43 27.7676 509.971 27.7676C508.406 27.7676 507.422 28.5586 507.422 29.6484C507.422 30.8613 508.74 31.3184 509.742 31.5645L510.973 31.8984C512.607 32.2852 514.629 33.1816 514.646 35.4844C514.629 37.6289 512.924 39.2109 509.918 39.2109C507.07 39.2109 505.277 37.7871 505.154 35.4668H507.088C507.211 36.8555 508.424 37.5234 509.918 37.5234C511.535 37.5234 512.713 36.6973 512.73 35.4492C512.713 34.3418 511.676 33.8848 510.322 33.5332L508.81 33.1289C506.771 32.5664 505.488 31.5293 505.488 29.7539C505.488 27.5566 507.457 26.0977 510.023 26.0977C512.607 26.0977 514.418 27.5742 514.471 29.6309H512.59ZM518.322 27.9434V26.2734H528.184V27.9434H524.229V39H522.295V27.9434H518.322ZM539.584 32.6367C539.584 36.6973 537.141 39.1758 533.854 39.1758C530.531 39.1758 528.106 36.6973 528.106 32.6367C528.106 28.5586 530.531 26.0977 533.854 26.0977C537.141 26.0977 539.584 28.5586 539.584 32.6367ZM537.668 32.6367C537.668 29.543 536.033 27.873 533.854 27.873C531.656 27.873 530.022 29.543 530.022 32.6367C530.022 35.7305 531.656 37.4004 533.854 37.4004C536.033 37.4004 537.668 35.7305 537.668 32.6367ZM546.151 31.8281V33.4453H540.508V31.8281H546.151ZM547.496 39V26.2734H552.155C554.862 26.2734 556.18 27.7324 556.18 29.6133C556.18 31.1953 555.213 32.0039 554.035 32.3027V32.4258C555.301 32.4961 556.672 33.6035 556.672 35.5723C556.672 37.5234 555.336 39 552.366 39H547.496ZM552.19 37.3477C554.018 37.3477 554.756 36.5391 554.756 35.4844C554.756 34.2715 553.789 33.2871 552.26 33.2871H549.43V37.3477H552.19ZM551.996 31.7754C553.28 31.7754 554.282 30.9844 554.282 29.7715C554.282 28.7168 553.561 27.9258 552.032 27.9258H549.43V31.7754H551.996ZM557.666 39V26.2734H565.647V27.9434H559.6V31.793H565.225V33.4453H559.6V37.3301H565.717V39H557.666Z" fill="#2D2D2D"/>
<path d="M637.309 19.7461C639.734 19.7461 641.545 21.2754 641.545 23.4902C641.545 25.4414 640.139 26.8564 638.152 27.1641V29.6602C639.55 29.5986 640.947 29.4932 642.248 29.3262L642.371 30.5742C639.049 31.1543 635.375 31.1719 632.65 31.1543L632.387 29.7832C633.608 29.7744 635.015 29.7656 636.482 29.7305V27.1641C634.443 26.874 633.055 25.4502 633.072 23.4902C633.055 21.2754 634.83 19.7461 637.309 19.7461ZM637.309 21.1523C635.797 21.1699 634.689 22.084 634.689 23.4902C634.689 24.8965 635.797 25.8281 637.309 25.8105C638.803 25.8281 639.893 24.8965 639.91 23.4902C639.893 22.084 638.803 21.1699 637.309 21.1523ZM644.867 18.7441V25.1426H647.293V26.5488H644.867V34.4941H643.197V18.7441H644.867ZM660.1 18.7441V34.5293H658.43V18.7441H660.1ZM651.68 19.9219C654.018 19.9219 655.74 22.0664 655.74 25.4414C655.74 28.834 654.018 30.9785 651.68 30.9785C649.307 30.9785 647.602 28.834 647.602 25.4414C647.602 22.0664 649.307 19.9219 651.68 19.9219ZM651.68 21.416C650.221 21.416 649.219 22.9629 649.219 25.4414C649.219 27.9375 650.221 29.4844 651.68 29.4844C653.121 29.4844 654.123 27.9375 654.123 25.4414C654.123 22.9629 653.121 21.416 651.68 21.416ZM665.805 19.9219C667.941 19.9219 669.505 21.7324 669.76 24.6504H673.012V18.7441H674.664V34.5293H673.012V26.0039H669.778C669.593 29.0713 667.993 30.9785 665.805 30.9785C663.449 30.9785 661.797 28.834 661.815 25.4414C661.797 22.0664 663.449 19.9219 665.805 19.9219ZM665.805 21.416C664.381 21.416 663.397 22.9629 663.397 25.4414C663.397 27.9375 664.381 29.4844 665.805 29.4844C667.229 29.4844 668.213 27.9375 668.213 25.4414C668.213 22.9629 667.229 21.416 665.805 21.416ZM690.424 31.1191V32.5254H676.01V31.1191H690.424ZM689.106 20.2559V21.627H686.697V26.8828H689.053V28.2188H677.276V26.8828H679.631V21.627H677.24V20.2559H689.106ZM681.283 26.8828H685.063V21.627H681.283V26.8828ZM696.586 20.4316V26.0391H692.596V29.2734C694.31 29.2646 695.945 29.2031 697.887 28.8516L698.028 30.2227C695.848 30.6094 694.055 30.6621 692.069 30.6797H690.979V24.7031H694.987V21.7852H690.961V20.4316H696.586ZM704.004 18.7441V34.4941H702.405V18.7441H704.004ZM700.77 19.0957V33.6855H699.188V25.6699H697.325V24.3164H699.188V19.0957H700.77ZM718.024 18.7617V27.7266H716.354V18.7617H718.024ZM718.024 28.5176V34.3008H707.67V28.5176H718.024ZM709.323 29.8535V32.9473H716.389V29.8535H709.323ZM709.481 19.5527C711.889 19.5527 713.664 21.0645 713.664 23.2793C713.664 25.4414 711.889 26.9707 709.481 26.9707C707.073 26.9707 705.28 25.4414 705.28 23.2793C705.28 21.0645 707.073 19.5527 709.481 19.5527ZM709.481 20.959C707.987 20.959 706.914 21.873 706.914 23.2793C706.914 24.6328 707.987 25.5645 709.481 25.5645C710.957 25.5645 712.03 24.6328 712.03 23.2793C712.03 21.873 710.957 20.959 709.481 20.959Z" fill="#2D2D2D"/>
<path d="M791.578 20.9766C791.578 23.543 794.32 25.9688 797.344 26.5137L796.57 27.9023C794.057 27.3574 791.736 25.7051 790.717 23.4902C789.68 25.6875 787.368 27.3398 784.846 27.9023L784.107 26.5137C787.096 25.9512 789.82 23.543 789.82 20.9766V19.7812H791.578V20.9766ZM797.994 31.0312V32.4199H783.58V31.0312H797.994ZM806.143 20.1328V21.5039H800.412V24.5449H805.826V25.8809H800.412V29.4141C803.04 29.4053 804.983 29.291 807.268 28.9219L807.426 30.2754C805 30.6797 802.891 30.7676 799.99 30.7676H798.725V20.1328H806.143ZM810.326 18.7441V24.9492H812.858V26.3555H810.326V34.4941H808.656V18.7441H810.326ZM816.998 19.2715C819.371 19.2891 821.111 20.748 821.129 22.8047C821.111 24.8789 819.371 26.3203 816.998 26.3203C814.608 26.3203 812.85 24.8789 812.85 22.8047C812.85 20.748 814.608 19.2891 816.998 19.2715ZM816.998 20.6777C815.539 20.6602 814.467 21.5215 814.485 22.8047C814.467 24.1055 815.539 24.9668 816.998 24.9668C818.44 24.9668 819.512 24.1055 819.512 22.8047C819.512 21.5215 818.44 20.6602 816.998 20.6777ZM825.594 18.7441V26.7598H823.924V18.7441H825.594ZM825.594 27.4805V31.4531H816.91V32.9648H826.121V34.3008H815.293V30.2051H823.942V28.8164H815.24V27.4805H825.594ZM839.28 18.7441V25.0195H841.723V26.4082H839.28V34.4766H837.61V18.7441H839.28ZM835.166 20.3965C835.149 24.9492 833.145 29.0098 827.959 31.5762L827.028 30.2754C830.974 28.3066 833.118 25.459 833.461 21.7852H827.819V20.3965H835.166ZM854.53 18.7441V34.5293H852.86V18.7441H854.53ZM846.11 19.9219C848.448 19.9219 850.17 22.0664 850.17 25.4414C850.17 28.834 848.448 30.9785 846.11 30.9785C843.737 30.9785 842.032 28.834 842.032 25.4414C842.032 22.0664 843.737 19.9219 846.11 19.9219ZM846.11 21.416C844.651 21.416 843.649 22.9629 843.649 25.4414C843.649 27.9375 844.651 29.4844 846.11 29.4844C847.551 29.4844 848.553 27.9375 848.553 25.4414C848.553 22.9629 847.551 21.416 846.11 21.416ZM868.725 26.2148V27.5859H857.756V20.1504H868.584V21.5215H859.409V26.2148H868.725ZM870.377 31.0312V32.4199H855.963V31.0312H870.377Z" fill="#2D2D2D"/>
<path d="M948.994 31.1191V32.5254H934.58V31.1191H948.994ZM947.676 20.2559V21.627H945.268V26.8828H947.623V28.2188H935.846V26.8828H938.201V21.627H935.811V20.2559H947.676ZM939.854 26.8828H943.633V21.627H939.854V26.8828ZM963.471 31.207V32.6133H949.057V31.207H955.402V28.4473H950.815V23.4375H960.061V21.2227H950.779V19.8516H961.713V24.7734H952.467V27.0762H962.082V28.4473H957.055V31.207H963.471ZM976.313 26.8125V28.1484H971.549V31.2246H977.947V32.5957H963.533V31.2246H969.879V28.1484H965.344V19.957H976.154V21.3281H967.031V23.3496H975.82V24.668H967.031V26.8125H976.313ZM986.096 20.1328V21.5039H980.365V24.5449H985.78V25.8809H980.365V29.4141C982.993 29.4053 984.936 29.291 987.221 28.9219L987.379 30.2754C984.953 30.6797 982.844 30.7676 979.944 30.7676H978.678V20.1328H986.096ZM990.28 18.7441V24.9492H992.811V26.3555H990.28V34.4941H988.61V18.7441H990.28ZM1005.55 18.7441V27.1992H1003.88V18.7441H1005.55ZM996.881 27.9551V29.7305H1003.89V27.9551H1005.55V34.3008H995.246V27.9551H996.881ZM996.881 32.9297H1003.89V31.0488H996.881V32.9297ZM997.004 19.4648C999.412 19.4648 1001.19 20.959 1001.19 23.1211C1001.19 25.2832 999.412 26.7773 997.004 26.7598C994.596 26.7773 992.803 25.2832 992.803 23.1211C992.803 20.959 994.596 19.4648 997.004 19.4648ZM997.004 20.8711C995.51 20.8535 994.438 21.7852 994.438 23.1211C994.438 24.4746 995.51 25.3887 997.004 25.3887C998.481 25.3887 999.553 24.4746 999.553 23.1211C999.553 21.7852 998.481 20.8535 997.004 20.8711Z" fill="#2D2D2D"/>
<path d="M1118.81 19.4121V21.5566H1122.94V19.4121H1124.6V26.2852H1117.18V19.4121H1118.81ZM1118.81 24.9492H1122.94V22.8398H1118.81V24.9492ZM1128.94 18.7441V22.0488H1131.22V23.4023H1128.94V26.8477H1127.27V18.7441H1128.94ZM1128.94 27.5332V31.5059H1120.43V33H1129.48V34.3359H1118.8V30.2754H1127.29V28.8516H1118.76V27.5332H1128.94ZM1145.45 31.2598V32.6309H1131.04V31.2598H1134.91V27.7617H1132.31V26.4082H1134.66V21.5039H1132.27V20.1328H1144.14V21.5039H1141.73V26.4082H1144.08V27.7617H1141.5V31.2598H1145.45ZM1136.31 26.4082H1140.09V21.5039H1136.31V26.4082ZM1136.58 31.2598H1139.83V27.7617H1136.58V31.2598Z" fill="#2D2D2D"/>
<path d="M1259.39 7.74414V23.4941H1257.7V7.74414H1259.39ZM1255.65 9.36133V10.7324H1254.01V18.0449C1254.83 17.9922 1255.64 17.9219 1256.42 17.834L1256.51 19.0645C1253.1 19.6094 1249.35 19.6621 1246.45 19.6797L1246.26 18.291L1248.33 18.2734V10.7324H1246.68V9.36133H1255.65ZM1249.95 18.2383C1250.74 18.2207 1251.56 18.1943 1252.38 18.1504V10.7324H1249.95V18.2383ZM1273.53 15.2148V16.5859H1262.57V9.15039H1273.39V10.5215H1264.22V15.2148H1273.53ZM1275.19 20.0312V21.4199H1260.77V20.0312H1275.19ZM1277.5 8.74609V11.1543H1280.54V8.74609H1282.09V16.1816H1275.92V8.74609H1277.5ZM1277.5 14.8281H1280.54V12.4551H1277.5V14.8281ZM1288.68 7.76172V17.2188H1287.1V13.1406H1285.25V17.1133H1283.7V8.04297H1285.25V11.7695H1287.1V7.76172H1288.68ZM1288.68 18.0977V23.4941H1287.03V19.4512H1277.97V18.0977H1288.68ZM1301.11 9.13281C1301.09 11.2246 1303.66 13.1934 1306.75 13.5977L1306.1 14.9688C1303.53 14.5557 1301.26 13.2197 1300.25 11.3652C1299.21 13.2285 1296.95 14.5557 1294.39 14.9688L1293.73 13.5977C1296.82 13.1934 1299.35 11.2422 1299.37 9.13281V8.27148H1301.11V9.13281ZM1307.4 16.5156V17.8867H1301V23.4941H1299.37V17.8867H1293.04V16.5156H1307.4ZM1321.88 15.4258V16.7793H1307.52V15.4258H1310.96V13.2988C1309.75 12.8066 1309.06 12.0156 1309.06 10.9785C1309.06 9.11523 1311.23 8.02539 1314.69 8.02539C1318.13 8.02539 1320.31 9.11523 1320.31 10.9785C1320.31 12.0156 1319.62 12.8154 1318.4 13.2988V15.4258H1321.88ZM1314.69 17.8516C1318.08 17.8516 1320.12 18.8535 1320.12 20.6465C1320.12 22.4746 1318.08 23.459 1314.69 23.459C1311.26 23.459 1309.22 22.4746 1309.22 20.6465C1309.22 18.8535 1311.26 17.8516 1314.69 17.8516ZM1314.69 19.1348C1312.28 19.1348 1310.91 19.6797 1310.91 20.6465C1310.91 21.6309 1312.28 22.1934 1314.69 22.1758C1317.06 22.1934 1318.45 21.6309 1318.45 20.6465C1318.45 19.6797 1317.06 19.1348 1314.69 19.1348ZM1314.69 9.30859C1312.25 9.30859 1310.77 9.92383 1310.79 10.9785C1310.77 12.0332 1312.25 12.6309 1314.69 12.6309C1317.13 12.6309 1318.59 12.0332 1318.59 10.9785C1318.59 9.92383 1317.13 9.30859 1314.69 9.30859ZM1312.65 15.4258H1316.75V13.7383C1316.13 13.8438 1315.44 13.8965 1314.69 13.8965C1313.95 13.8965 1313.26 13.8438 1312.65 13.7559V15.4258ZM1338.86 9.48438V10.8555H1326.05V9.48438H1331.65V7.67383H1333.31V9.48438H1338.86ZM1339.72 17.9395V19.3105H1333.31V23.5117H1331.65V19.3105H1325.31V17.9395H1339.72ZM1332.48 11.6641C1335.75 11.6641 1337.72 12.5957 1337.72 14.3184C1337.72 16.0059 1335.75 16.9375 1332.48 16.9551C1329.19 16.9375 1327.22 16.0059 1327.24 14.3184C1327.22 12.5957 1329.19 11.6641 1332.48 11.6641ZM1332.48 12.9121C1330.21 12.9121 1328.96 13.4043 1328.96 14.3184C1328.96 15.1973 1330.21 15.6895 1332.48 15.6895C1334.73 15.6895 1335.98 15.1973 1336 14.3184C1335.98 13.4043 1334.73 12.9121 1332.48 12.9121ZM1264.02 42.1191V43.5254H1249.61V42.1191H1264.02ZM1262.71 31.2559V32.627H1260.3V37.8828H1262.65V39.2188H1250.88V37.8828H1253.23V32.627H1250.84V31.2559H1262.71ZM1254.88 37.8828H1258.66V32.627H1254.88V37.8828ZM1278.5 42.207V43.6133H1264.09V42.207H1270.43V39.4473H1265.84V34.4375H1275.09V32.2227H1265.81V30.8516H1276.74V35.7734H1267.5V38.0762H1277.11V39.4473H1272.08V42.207H1278.5ZM1288.9 30.0781V39.2363H1287.32V35.1055H1285.12V33.752H1287.32V30.0781H1288.9ZM1283.33 33.1191C1283.33 34.8242 1284.36 36.5996 1286.37 37.4258L1285.52 38.709C1284.09 38.1201 1283.11 37.0303 1282.55 35.7383C1281.99 37.1885 1280.95 38.4102 1279.42 39.0605L1278.53 37.7422C1280.62 36.8984 1281.71 34.9473 1281.71 33.1191V32.3457H1278.91V30.9922H1285.96V32.3457H1283.33V33.1191ZM1291.99 29.7441V39.3594H1290.41V29.7441H1291.99ZM1291.99 40.0098V45.4941H1290.34V41.3633H1281.29V40.0098H1291.99ZM1305.82 38.1289V39.4648H1294.85V31.0449H1305.66V32.3984H1296.54V34.5254H1305.33V35.8438H1296.54V38.1289H1305.82ZM1307.45 42.1367V43.5078H1293.04V42.1367H1307.45ZM1318.83 35.3516V37.4785H1325.19V38.8496H1310.83V37.4785H1317.18V35.3516H1318.83ZM1318 39.9922C1321.41 39.9922 1323.43 40.959 1323.43 42.7344C1323.43 44.4922 1321.41 45.4766 1318 45.459C1314.58 45.4766 1312.54 44.4922 1312.54 42.7344C1312.54 40.959 1314.58 39.9922 1318 39.9922ZM1318 41.2754C1315.58 41.2754 1314.22 41.7852 1314.22 42.7344C1314.22 43.6836 1315.58 44.1934 1318 44.1934C1320.39 44.1934 1321.76 43.6836 1321.76 42.7344C1321.76 41.7852 1320.39 41.2754 1318 41.2754ZM1323.91 30.4648V31.8008H1319.13C1319.37 33.3037 1321.6 34.5781 1324.45 34.8594L1323.86 36.1777C1321.11 35.8613 1318.86 34.7363 1318 33.0664C1317.14 34.7363 1314.89 35.8613 1312.17 36.1777L1311.57 34.8594C1314.41 34.5781 1316.64 33.3213 1316.88 31.8008H1312.15V30.4648H1323.91ZM1339.72 42.207V43.6133H1325.31V42.207H1329.25V39.4297H1327.07V34.4199H1336.31V32.2227H1327.03V30.8516H1337.96V35.7734H1328.72V38.0586H1338.33V39.4297H1335.94V42.207H1339.72ZM1330.86 42.207H1334.31V39.4297H1330.86V42.207Z" fill="#2D2D2D"/>
<circle cx="46" cy="66" r="5" fill="#2D2D2D"/>
<circle cx="197" cy="66" r="5" fill="#2D2D2D"/>
<circle cx="345" cy="66" r="5" fill="#2D2D2D"/>
<circle cx="510" cy="66" r="5" fill="#2D2D2D"/>
<circle cx="678" cy="66" r="5" fill="#2D2D2D"/>
<circle cx="829" cy="66" r="5" fill="#2D2D2D"/>
<circle cx="980" cy="66" r="5" fill="#2D2D2D"/>
<circle cx="1131" cy="66" r="5" fill="#2D2D2D"/>
<rect x="46" y="64" width="1255" height="4" fill="#2D2D2D"/>
<circle cx="1301" cy="66" r="5" fill="#2D2D2D"/>
</svg>
