<svg width="680" height="540" viewBox="0 0 680 540" fill="none" xmlns="http://www.w3.org/2000/svg">
<path d="M44.4189 84V68.4453H54.667V71.1094H47.6416V74.8906H54.001V77.5547H47.6416V84H44.4189ZM61.1123 84.2363C57.5889 84.2363 55.3975 81.8086 55.3975 78.1992C55.3975 74.5898 57.5889 72.1836 61.1123 72.1836C64.6357 72.1836 66.8486 74.5898 66.8486 78.1992C66.8486 81.8086 64.6357 84.2363 61.1123 84.2363ZM61.1338 81.7656C62.7666 81.7656 63.6045 80.2402 63.6045 78.1992C63.6045 76.1367 62.7666 74.6113 61.1338 74.6113C59.4795 74.6113 58.6201 76.1367 58.6201 78.1992C58.6201 80.2402 59.4795 81.7656 61.1338 81.7656ZM72.0264 77.2539V84H68.8467V72.334H71.876V74.375H72.0049C72.542 73.0215 73.7881 72.1836 75.5068 72.1836C77.9346 72.1836 79.5459 73.8379 79.5244 76.5664V84H76.3662V77.125C76.3662 75.6855 75.5713 74.8262 74.2607 74.8262C72.9287 74.8262 72.0264 75.707 72.0264 77.2539ZM88.1396 72.334V74.7188H85.9482V80.4121C85.9482 81.3359 86.3994 81.5723 87.0439 81.5938C87.3662 81.5938 87.9248 81.5723 88.3115 81.5293V84.043C87.9678 84.1074 87.4092 84.1504 86.6143 84.1504C84.3154 84.1504 82.7471 83.1191 82.7686 80.8633V74.7188H81.1572V72.334H82.7686V69.541H85.9482V72.334H88.1396Z" fill="#2D2D2D"/>
<path d="M58.0469 111.631H43.5273V110.031H49.7852V106.568H45.127V98.9043H56.377V106.568H51.7188V110.031H58.0469V111.631ZM47.043 105.039H54.4434V100.469H47.043V105.039ZM66.573 100.434H61.2468V105.479C62.5769 105.467 63.6989 105.429 64.613 105.364C65.5271 105.3 66.4441 105.18 67.364 105.004L67.5573 106.586C66.5261 106.768 65.4948 106.894 64.4636 106.964C63.4323 107.028 62.1316 107.066 60.5612 107.078H59.3132V98.8516H66.573V100.434ZM71.6706 109.258H69.7195V103.475H65.6062V101.928H69.7195V97.6914H71.6706V109.258ZM72.0749 113.318H61.2292V108.326H63.198V111.736H72.0749V113.318ZM85.6459 104.002H88.0893V105.619H85.6459V113.564H83.7123V97.6738H85.6459V104.002ZM82.4819 101.682H73.1127V100.117H76.8745V97.9023H78.8256V100.117H82.4819V101.682ZM77.8588 102.719C78.6147 102.719 79.2944 102.88 79.8979 103.202C80.5073 103.519 80.9848 103.961 81.3305 104.529C81.6762 105.098 81.8491 105.742 81.8491 106.463C81.8491 107.184 81.6762 107.828 81.3305 108.396C80.9848 108.959 80.5073 109.398 79.8979 109.715C79.2944 110.031 78.6147 110.189 77.8588 110.189C77.0912 110.189 76.4028 110.031 75.7934 109.715C75.184 109.398 74.7065 108.959 74.3608 108.396C74.0151 107.828 73.8452 107.184 73.851 106.463C73.8452 105.742 74.0151 105.098 74.3608 104.529C74.7065 103.961 75.184 103.519 75.7934 103.202C76.4028 102.88 77.0912 102.719 77.8588 102.719ZM77.8588 104.318C77.4428 104.318 77.0707 104.406 76.7426 104.582C76.4204 104.758 76.1684 105.01 75.9868 105.338C75.8051 105.66 75.7143 106.035 75.7143 106.463C75.7143 106.891 75.8051 107.266 75.9868 107.588C76.1684 107.904 76.4204 108.15 76.7426 108.326C77.0707 108.496 77.4428 108.578 77.8588 108.572C78.2631 108.578 78.6235 108.496 78.9399 108.326C79.2621 108.15 79.5141 107.904 79.6957 107.588C79.8832 107.266 79.9799 106.891 79.9858 106.463C79.9799 106.035 79.8832 105.66 79.6957 105.338C79.5141 105.016 79.2621 104.767 78.9399 104.591C78.6235 104.409 78.2631 104.318 77.8588 104.318ZM101.01 100.662V100.855C101.004 101.734 100.986 102.499 100.957 103.149C100.934 103.794 100.878 104.544 100.79 105.399C100.702 106.249 100.565 107.172 100.377 108.168L98.4084 107.957C98.5959 107.031 98.7336 106.158 98.8214 105.338C98.9093 104.512 98.965 103.779 98.9884 103.141C99.0177 102.502 99.0353 101.752 99.0412 100.891V100.697H89.549V99.1328H101.01V100.662ZM102.522 111.508H88.0373V109.908H93.381V104.389H95.3146V109.908H102.522V111.508ZM118.941 100.908H121.173V102.508H118.941V105.742H116.99V97.6738H118.941V100.908ZM118.941 110.541H110.451V111.824H119.539V113.371H108.517V109.1H117.043V107.922H108.482V106.41H118.941V110.541ZM111.084 98.4824C111.084 99.5605 110.966 100.507 110.732 101.321C110.498 102.13 110.126 102.865 109.616 103.527C109.112 104.189 108.441 104.822 107.603 105.426L106.302 104.195C106.9 103.814 107.392 103.428 107.779 103.035C108.171 102.643 108.485 102.206 108.719 101.726C108.954 101.245 109.115 100.691 109.203 100.064H106.83V98.4824H111.084ZM115.636 98.4824C115.63 99.6074 115.516 100.606 115.294 101.479C115.077 102.347 114.716 103.144 114.213 103.87C113.714 104.591 113.046 105.268 112.209 105.9L110.838 104.775C111.752 104.107 112.434 103.41 112.885 102.684C113.337 101.951 113.621 101.078 113.738 100.064H111.681V98.4824H115.636ZM135.746 105.637H121.262V104.072H125.287C125.522 103.252 125.686 102.505 125.78 101.831C125.873 101.157 125.929 100.51 125.947 99.8887H122.616V98.3066H127.871V99.0801C127.871 99.877 127.836 100.659 127.766 101.427C127.696 102.194 127.526 103.076 127.256 104.072H131.616C131.809 103.264 131.941 102.528 132.011 101.866C132.087 101.204 132.134 100.545 132.152 99.8887H128.838V98.3066H134.059V99.2207C134.047 99.8184 134.033 100.319 134.015 100.724C133.997 101.128 133.953 101.623 133.883 102.209C133.813 102.789 133.704 103.41 133.558 104.072H135.746V105.637ZM133.989 113.301H123.002V107.482H133.989V113.301ZM124.918 111.736H132.055V109.029H124.918V111.736ZM148.632 102.684H150.847V104.301H148.632V109.557H146.681V97.6914H148.632V102.684ZM145.538 101.014H136.116V99.4492H139.86V97.6738H141.812V99.4492H145.538V101.014ZM140.827 101.664C141.583 101.664 142.254 101.79 142.84 102.042C143.426 102.294 143.883 102.651 144.211 103.114C144.539 103.571 144.706 104.102 144.712 104.705C144.706 105.303 144.539 105.83 144.211 106.287C143.883 106.738 143.426 107.09 142.84 107.342C142.254 107.588 141.583 107.711 140.827 107.711C140.065 107.711 139.389 107.588 138.797 107.342C138.205 107.09 137.745 106.738 137.417 106.287C137.089 105.83 136.925 105.303 136.925 104.705C136.925 104.102 137.089 103.571 137.417 103.114C137.745 102.651 138.205 102.294 138.797 102.042C139.389 101.79 140.065 101.664 140.827 101.664ZM140.827 103.176C140.212 103.176 139.723 103.311 139.359 103.58C139.002 103.85 138.823 104.225 138.823 104.705C138.823 105.174 139.005 105.543 139.368 105.812C139.731 106.082 140.218 106.211 140.827 106.199C141.437 106.211 141.926 106.082 142.295 105.812C142.664 105.543 142.849 105.174 142.849 104.705C142.849 104.225 142.664 103.85 142.295 103.58C141.932 103.311 141.442 103.176 140.827 103.176ZM149.265 113.248H138.454V108.625H140.405V111.666H149.265V113.248ZM167.723 109.17H165.754V97.6914H167.723V109.17ZM168.163 113.248H157.211V108.01H159.18V111.666H168.163V113.248ZM159.057 98.7285C159.854 98.7285 160.578 98.9014 161.228 99.2471C161.878 99.5869 162.391 100.059 162.766 100.662C163.141 101.266 163.329 101.945 163.329 102.701C163.329 103.469 163.141 104.157 162.766 104.767C162.391 105.37 161.878 105.842 161.228 106.182C160.578 106.521 159.854 106.691 159.057 106.691C158.254 106.691 157.525 106.521 156.869 106.182C156.218 105.842 155.706 105.37 155.331 104.767C154.956 104.157 154.768 103.469 154.768 102.701C154.768 101.945 154.956 101.266 155.331 100.662C155.706 100.059 156.218 99.5869 156.869 99.2471C157.525 98.9014 158.254 98.7285 159.057 98.7285ZM159.057 100.434C158.606 100.434 158.199 100.527 157.835 100.715C157.472 100.902 157.188 101.169 156.983 101.515C156.778 101.86 156.678 102.256 156.684 102.701C156.678 103.158 156.778 103.56 156.983 103.905C157.188 104.251 157.472 104.518 157.835 104.705C158.199 104.893 158.606 104.986 159.057 104.986C159.497 104.986 159.895 104.893 160.252 104.705C160.61 104.518 160.891 104.251 161.096 103.905C161.307 103.56 161.413 103.158 161.413 102.701C161.413 102.256 161.307 101.86 161.096 101.515C160.891 101.169 160.61 100.902 160.252 100.715C159.895 100.527 159.497 100.434 159.057 100.434ZM174.948 100.205C174.948 100.879 175.092 101.523 175.379 102.139C175.666 102.754 176.091 103.299 176.654 103.773C177.216 104.248 177.896 104.611 178.693 104.863L177.638 106.393C176.8 106.105 176.073 105.687 175.458 105.136C174.843 104.585 174.36 103.935 174.008 103.185C173.651 104.046 173.15 104.79 172.505 105.417C171.866 106.044 171.099 106.516 170.202 106.832L169.148 105.303C169.98 105.01 170.683 104.597 171.257 104.063C171.831 103.53 172.262 102.918 172.549 102.227C172.842 101.535 172.991 100.803 172.997 100.029V98.5176H174.948V100.205ZM181.857 101.541H184.071V103.158H181.857V107.184H179.905V97.6738H181.857V101.541ZM176.689 107.535C177.779 107.529 178.722 107.646 179.519 107.887C180.316 108.121 180.928 108.464 181.356 108.915C181.789 109.366 182.009 109.902 182.015 110.523C182.009 111.156 181.792 111.698 181.364 112.149C180.937 112.606 180.321 112.952 179.519 113.187C178.722 113.427 177.779 113.547 176.689 113.547C175.581 113.547 174.623 113.427 173.815 113.187C173.012 112.952 172.394 112.606 171.96 112.149C171.527 111.698 171.31 111.156 171.31 110.523C171.31 109.902 171.527 109.366 171.96 108.915C172.394 108.464 173.015 108.121 173.823 107.887C174.632 107.646 175.587 107.529 176.689 107.535ZM176.689 109.064C175.599 109.064 174.755 109.193 174.157 109.451C173.56 109.703 173.261 110.061 173.261 110.523C173.261 111.01 173.557 111.379 174.149 111.631C174.74 111.877 175.587 112 176.689 112C177.79 112 178.631 111.877 179.211 111.631C179.791 111.379 180.081 111.01 180.081 110.523C180.081 110.055 179.788 109.694 179.202 109.442C178.616 109.19 177.779 109.064 176.689 109.064ZM191.385 97.9199C192.592 97.9199 193.62 98.0254 194.47 98.2363C195.325 98.4473 195.978 98.7578 196.43 99.168C196.881 99.5723 197.109 100.064 197.115 100.645C197.109 101.523 196.608 102.197 195.612 102.666C194.616 103.135 193.207 103.375 191.385 103.387C189.557 103.375 188.144 103.135 187.148 102.666C186.152 102.197 185.654 101.523 185.654 100.645C185.654 100.064 185.88 99.5723 186.331 99.168C186.782 98.7578 187.435 98.4473 188.291 98.2363C189.146 98.0254 190.178 97.9199 191.385 97.9199ZM191.385 99.3613C190.178 99.3613 189.261 99.4727 188.634 99.6953C188.007 99.9121 187.699 100.229 187.711 100.645C187.705 101.078 188.01 101.4 188.625 101.611C189.24 101.822 190.16 101.928 191.385 101.928C192.627 101.928 193.556 101.822 194.171 101.611C194.786 101.4 195.094 101.078 195.094 100.645C195.094 100.229 194.78 99.9121 194.153 99.6953C193.526 99.4727 192.603 99.3613 191.385 99.3613ZM198.644 105.795H184.16V104.23H198.644V105.795ZM196.834 110.752H187.799V111.93H197.273V113.424H185.883V109.363H194.918V108.309H185.865V106.867H196.834V110.752ZM217.033 108.115H210.722V113.547H208.788V108.115H202.548V106.533H217.033V108.115ZM215.697 100.117H210.924C210.965 100.697 211.214 101.257 211.671 101.796C212.128 102.329 212.755 102.786 213.552 103.167C214.349 103.548 215.257 103.803 216.277 103.932L215.574 105.461C214.226 105.273 213.045 104.887 212.032 104.301C211.024 103.715 210.277 102.988 209.79 102.121C209.304 102.982 208.557 103.709 207.549 104.301C206.541 104.887 205.372 105.273 204.042 105.461L203.304 103.932C204.318 103.803 205.22 103.548 206.011 103.167C206.808 102.786 207.435 102.329 207.892 101.796C208.355 101.257 208.61 100.697 208.657 100.117H203.884V98.5703H215.697V100.117ZM230.656 113.564H228.688V97.6738H230.656V113.564ZM225.91 99.3613C225.91 101.887 225.339 104.104 224.196 106.015C223.054 107.919 221.158 109.498 218.51 110.752L217.49 109.188C219.535 108.215 221.073 107.052 222.105 105.698C223.142 104.339 223.748 102.742 223.924 100.908H218.299V99.3613H225.91ZM240.959 98.377C241.755 98.3711 242.47 98.5088 243.103 98.79C243.736 99.0713 244.231 99.4668 244.588 99.9766C244.946 100.486 245.125 101.066 245.125 101.717C245.125 102.355 244.946 102.93 244.588 103.439C244.231 103.949 243.733 104.345 243.094 104.626C242.461 104.907 241.75 105.045 240.959 105.039C240.173 105.045 239.464 104.907 238.832 104.626C238.205 104.345 237.712 103.952 237.355 103.448C237.003 102.938 236.828 102.361 236.828 101.717C236.828 101.066 237.003 100.486 237.355 99.9766C237.712 99.4668 238.205 99.0713 238.832 98.79C239.459 98.5088 240.167 98.3711 240.959 98.377ZM240.959 99.959C240.525 99.9531 240.138 100.023 239.798 100.17C239.459 100.311 239.192 100.516 238.999 100.785C238.811 101.049 238.72 101.359 238.726 101.717C238.72 102.068 238.811 102.376 238.999 102.64C239.192 102.897 239.459 103.097 239.798 103.237C240.138 103.372 240.525 103.439 240.959 103.439C241.41 103.439 241.808 103.372 242.154 103.237C242.505 103.097 242.778 102.897 242.971 102.64C243.165 102.376 243.261 102.068 243.261 101.717C243.261 101.359 243.165 101.049 242.971 100.785C242.778 100.516 242.505 100.311 242.154 100.17C241.808 100.023 241.41 99.9531 240.959 99.959ZM249.062 113.547H247.128V97.6914H249.062V113.547ZM235.791 106.129C237.689 106.129 239.5 106.094 241.222 106.023C242.945 105.947 244.568 105.795 246.091 105.566L246.232 107.008C244.978 107.248 243.584 107.427 242.048 107.544V113.072H240.08V107.658C239.001 107.705 237.871 107.729 236.687 107.729C236.546 107.74 236.33 107.746 236.037 107.746L235.791 106.129ZM258.362 101.77H250.574V100.205H253.528V98.1309H255.461V100.205H258.362V101.77ZM254.494 102.613C255.162 102.613 255.757 102.771 256.279 103.088C256.806 103.398 257.216 103.835 257.509 104.397C257.808 104.96 257.957 105.596 257.957 106.305C257.957 107.025 257.808 107.67 257.509 108.238C257.216 108.807 256.806 109.252 256.279 109.574C255.757 109.891 255.162 110.049 254.494 110.049C253.832 110.049 253.238 109.891 252.71 109.574C252.183 109.252 251.77 108.807 251.471 108.238C251.172 107.67 251.026 107.025 251.031 106.305C251.026 105.596 251.172 104.96 251.471 104.397C251.77 103.835 252.183 103.398 252.71 103.088C253.238 102.771 253.832 102.613 254.494 102.613ZM254.494 104.23C254.149 104.23 253.844 104.318 253.58 104.494C253.317 104.664 253.112 104.907 252.965 105.224C252.819 105.534 252.748 105.895 252.754 106.305C252.748 106.727 252.819 107.096 252.965 107.412C253.112 107.729 253.317 107.972 253.58 108.142C253.844 108.306 254.149 108.385 254.494 108.379C254.834 108.385 255.136 108.306 255.4 108.142C255.663 107.972 255.868 107.729 256.015 107.412C256.161 107.096 256.235 106.727 256.235 106.305C256.235 105.895 256.161 105.534 256.015 105.224C255.868 104.907 255.663 104.664 255.4 104.494C255.136 104.318 254.834 104.23 254.494 104.23ZM264.268 113.564H262.405V105.795H260.858V112.844H259.03V98.0078H260.858V104.213H262.405V97.6738H264.268V113.564ZM283.517 111.648H268.998V110.014H283.517V111.648ZM282.252 100.715H279.931V105.777H282.199V107.324H270.246V105.777H272.478V100.715H270.193V99.1504H282.252V100.715ZM277.998 105.777V100.715H274.429V105.777H277.998ZM297.071 113.582H295.137V97.6738H297.071V113.582ZM292.184 105.021H286.717V108.221C288.059 108.209 289.289 108.162 290.409 108.08C291.534 107.998 292.682 107.857 293.854 107.658L294.03 109.258C292.77 109.48 291.531 109.63 290.312 109.706C289.093 109.782 287.69 109.82 286.102 109.82H284.713V103.475H290.198V100.645H284.696V99.0625H292.184V105.021ZM312.259 109.557H310.396V97.6914H312.259V109.557ZM309.13 109.17H307.267V103.633H305.474V102.068H307.267V97.9902H309.13V109.17ZM312.698 113.248H301.712V108.256H303.681V111.666H312.698V113.248ZM305.386 100.504H301.22V102.279H304.788V103.773H301.22V105.602C302.269 105.596 303.142 105.569 303.839 105.522C304.542 105.476 305.257 105.385 305.984 105.25L306.194 106.797C305.321 106.955 304.46 107.063 303.61 107.122C302.767 107.175 301.694 107.201 300.394 107.201H299.339V98.9219H305.386V100.504ZM325.953 103.703H328.396V105.303H325.953V113.582H324.002V97.6738H325.953V103.703ZM321.594 100.768H316.109V108.062C317.392 108.062 318.55 108.024 319.581 107.948C320.612 107.872 321.658 107.74 322.719 107.553L322.947 109.205C321.799 109.404 320.662 109.536 319.537 109.601C318.418 109.665 317.064 109.697 315.476 109.697H314.158V99.1855H321.594V100.768ZM341.247 106.691H330.102V99.0625H341.124V100.645H332.036V105.127H341.247V106.691ZM342.864 111.543H328.344V109.926H342.864V111.543ZM352.604 101.488C352.604 102.484 352.756 103.448 353.061 104.38C353.371 105.306 353.822 106.126 354.414 106.841C355.012 107.556 355.721 108.092 356.541 108.449L355.363 110.014C354.484 109.586 353.726 108.971 353.087 108.168C352.454 107.365 351.965 106.434 351.619 105.373C351.262 106.498 350.758 107.488 350.107 108.344C349.463 109.199 348.695 109.855 347.805 110.312L346.574 108.73C347.412 108.338 348.133 107.764 348.736 107.008C349.346 106.252 349.809 105.394 350.125 104.433C350.447 103.472 350.611 102.49 350.617 101.488V98.957H352.604V101.488ZM360.057 113.582H358.123V104.389H354.783V102.807H358.123V97.6738H360.057V113.582ZM366.421 102.525C366.421 103.369 366.538 104.187 366.772 104.978C367.012 105.763 367.373 106.478 367.853 107.122C368.34 107.761 368.94 108.273 369.655 108.66L368.565 110.102C367.85 109.721 367.238 109.199 366.728 108.537C366.218 107.875 365.817 107.113 365.524 106.252C365.231 107.189 364.827 108.021 364.311 108.748C363.801 109.469 363.186 110.043 362.466 110.471L361.323 108.994C362.044 108.578 362.647 108.027 363.134 107.342C363.626 106.65 363.989 105.892 364.223 105.065C364.458 104.239 364.575 103.393 364.575 102.525V102.033H361.868V100.451H364.575V98.2363H366.421V100.451H369.075V102.033H366.421V102.525ZM375.245 113.564H373.382V97.6738H375.245V113.564ZM372.01 112.791H370.165V105.391H368.091V103.773H370.165V97.9727H372.01V112.791ZM390.908 106.357H376.388V104.881H390.908V106.357ZM389.15 110.928H380.044V112.035H389.624V113.389H378.093V109.662H387.216V108.678H378.076V107.307H389.15V110.928ZM389.115 101.611H380.167V102.648H389.396V103.984H378.234V100.346H387.164V99.3789H378.181V98.0254H389.115V101.611ZM400.472 101.488C400.466 102.438 400.615 103.369 400.92 104.283C401.23 105.191 401.679 106.006 402.265 106.727C402.85 107.447 403.542 107.998 404.339 108.379L403.143 109.943C402.3 109.516 401.567 108.906 400.946 108.115C400.331 107.324 399.85 106.41 399.505 105.373C399.147 106.48 398.643 107.459 397.993 108.309C397.349 109.152 396.581 109.797 395.69 110.242L394.495 108.678C395.321 108.285 396.036 107.714 396.64 106.964C397.249 106.208 397.712 105.355 398.028 104.406C398.35 103.451 398.515 102.479 398.52 101.488V98.957H400.472V101.488ZM407.239 103.896H409.682V105.566H407.239V113.564H405.288V97.6738H407.239V103.896ZM424.115 106.885H409.63V105.32H413.005V103.308C412.402 103.05 411.936 102.722 411.608 102.323C411.286 101.925 411.125 101.471 411.125 100.961C411.125 100.334 411.356 99.7949 411.819 99.3438C412.288 98.8867 412.953 98.5381 413.814 98.2979C414.681 98.0576 415.695 97.9375 416.855 97.9375C418.015 97.9375 419.026 98.0576 419.887 98.2979C420.749 98.5381 421.411 98.8867 421.874 99.3438C422.342 99.7949 422.58 100.334 422.586 100.961C422.58 101.477 422.413 101.934 422.085 102.332C421.762 102.73 421.296 103.056 420.687 103.308V105.32H424.115V106.885ZM416.855 107.852C417.998 107.846 418.979 107.954 419.799 108.177C420.62 108.394 421.25 108.716 421.689 109.144C422.129 109.565 422.351 110.078 422.357 110.682C422.351 111.291 422.129 111.807 421.689 112.229C421.25 112.656 420.62 112.979 419.799 113.195C418.979 113.418 417.998 113.529 416.855 113.529C415.701 113.529 414.708 113.418 413.876 113.195C413.049 112.979 412.417 112.656 411.977 112.229C411.538 111.807 411.318 111.291 411.318 110.682C411.318 110.078 411.538 109.565 411.977 109.144C412.417 108.716 413.049 108.394 413.876 108.177C414.708 107.954 415.701 107.846 416.855 107.852ZM416.855 109.328C415.689 109.328 414.804 109.442 414.201 109.671C413.597 109.899 413.298 110.236 413.304 110.682C413.298 111.127 413.597 111.467 414.201 111.701C414.81 111.936 415.695 112.053 416.855 112.053C417.992 112.053 418.865 111.936 419.474 111.701C420.089 111.467 420.4 111.127 420.406 110.682C420.4 110.236 420.092 109.899 419.483 109.671C418.874 109.442 417.998 109.328 416.855 109.328ZM416.855 99.4492C415.671 99.4492 414.757 99.5811 414.113 99.8447C413.474 100.103 413.158 100.475 413.164 100.961C413.158 101.441 413.474 101.808 414.113 102.06C414.752 102.312 415.666 102.438 416.855 102.438C418.033 102.438 418.944 102.312 419.588 102.06C420.239 101.808 420.564 101.441 420.564 100.961C420.564 100.475 420.239 100.103 419.588 99.8447C418.944 99.5811 418.033 99.4492 416.855 99.4492ZM418.736 105.32V103.809C418.144 103.891 417.517 103.932 416.855 103.932C416.193 103.932 415.566 103.891 414.974 103.809V105.32H418.736ZM426.401 112.141C426.155 112.141 425.926 112.079 425.715 111.956C425.504 111.833 425.337 111.666 425.214 111.455C425.091 111.244 425.03 111.016 425.03 110.77C425.03 110.529 425.091 110.307 425.214 110.102C425.337 109.891 425.504 109.724 425.715 109.601C425.926 109.478 426.155 109.416 426.401 109.416C426.635 109.416 426.855 109.478 427.06 109.601C427.271 109.724 427.438 109.891 427.561 110.102C427.69 110.307 427.754 110.529 427.754 110.77C427.754 111.016 427.69 111.244 427.561 111.455C427.438 111.666 427.271 111.833 427.06 111.956C426.855 112.079 426.635 112.141 426.401 112.141Z" fill="#686868"/>
<path d="M59.7188 214.609H43.5859V212.793H59.7188V214.609ZM58.3125 202.461H55.7344V208.086H58.2539V209.805H44.9727V208.086H47.4531V202.461H44.9141V200.723H58.3125V202.461ZM53.5859 208.086V202.461H49.6211V208.086H53.5859ZM74.7781 216.758H72.6297V199.082H74.7781V216.758ZM69.3484 207.246H63.2742V210.801C64.7651 210.788 66.1323 210.736 67.3758 210.645C68.6258 210.553 69.9018 210.397 71.2039 210.176L71.3992 211.953C69.9995 212.201 68.6225 212.367 67.2684 212.451C65.9142 212.536 64.3549 212.578 62.5906 212.578H61.0477V205.527H67.1414V202.383H61.0281V200.625H69.3484V207.246ZM91.6539 212.285H89.5836V199.102H91.6539V212.285ZM88.1773 211.855H86.107V205.703H84.1148V203.965H86.107V199.434H88.1773V211.855ZM92.1422 216.387H79.9352V210.84H82.1227V214.629H92.1422V216.387ZM84.0172 202.227H79.3883V204.199H83.3531V205.859H79.3883V207.891C80.5536 207.884 81.5237 207.855 82.2984 207.803C83.0797 207.751 83.874 207.65 84.6813 207.5L84.9156 209.219C83.9456 209.395 82.9885 209.515 82.0445 209.58C81.107 209.639 79.9156 209.668 78.4703 209.668H77.2984V200.469H84.0172V202.227ZM106.87 205.781H109.584V207.559H106.87V216.758H104.702V199.082H106.87V205.781ZM102.026 202.52H95.932V210.625C97.3578 210.625 98.6436 210.583 99.7895 210.498C100.935 210.413 102.097 210.267 103.276 210.059L103.53 211.895C102.254 212.116 100.991 212.262 99.7406 212.334C98.4971 212.406 96.9932 212.441 95.2289 212.441H93.7641V200.762H102.026V202.52ZM123.863 209.102H111.48V200.625H123.726V202.383H113.628V207.363H123.863V209.102ZM125.659 214.492H109.527V212.695H125.659V214.492Z" fill="#2D2D2D"/>
<path d="M44.3086 221.859H49.6211C50.6758 221.859 51.5775 222.058 52.3262 222.455C53.0749 222.852 53.6413 223.406 54.0254 224.115C54.4095 224.818 54.6016 225.629 54.6016 226.547C54.6016 227.458 54.4062 228.269 54.0156 228.979C53.6315 229.682 53.0618 230.232 52.3066 230.629C51.5514 231.02 50.6432 231.215 49.582 231.215H46.8477V236H44.3086V221.859ZM49.2305 229.125C50.1549 229.125 50.8483 228.894 51.3105 228.432C51.7728 227.963 52.0039 227.335 52.0039 226.547C52.0039 225.753 51.7728 225.128 51.3105 224.672C50.8483 224.216 50.1549 223.988 49.2305 223.988H46.8477V229.125H49.2305ZM55.7352 225.395H58.157V227.152H58.2742C58.4565 226.553 58.7853 226.085 59.2605 225.746C59.7358 225.408 60.2794 225.238 60.8914 225.238C61.256 225.238 61.5555 225.258 61.7898 225.297V227.602C61.6792 227.562 61.5099 227.527 61.282 227.494C61.0542 227.462 60.8393 227.445 60.6375 227.445C60.1818 227.445 59.7716 227.543 59.407 227.738C59.0424 227.934 58.756 228.207 58.5477 228.559C58.3393 228.91 58.2352 229.307 58.2352 229.75V236H55.7352V225.395ZM66.8297 236.215C65.775 236.215 64.857 235.993 64.0758 235.551C63.301 235.102 62.7053 234.467 62.2887 233.646C61.8785 232.826 61.6734 231.866 61.6734 230.766C61.6734 229.678 61.8818 228.721 62.2984 227.895C62.7151 227.061 63.301 226.413 64.0562 225.951C64.818 225.489 65.6969 225.258 66.693 225.258C67.5914 225.258 68.4052 225.45 69.1344 225.834C69.8701 226.218 70.4527 226.814 70.8824 227.621C71.3186 228.422 71.5367 229.418 71.5367 230.609V231.391H64.1344C64.1409 231.983 64.2581 232.497 64.4859 232.934C64.7138 233.363 65.0296 233.692 65.4332 233.92C65.8368 234.148 66.3089 234.262 66.8492 234.262C67.3766 234.262 67.8258 234.161 68.1969 233.959C68.568 233.757 68.8349 233.493 68.9977 233.168H71.4391C71.2893 233.78 71.0061 234.317 70.5895 234.779C70.1728 235.235 69.6422 235.59 68.9977 235.844C68.3596 236.091 67.637 236.215 66.8297 236.215ZM69.1539 229.691C69.1474 229.21 69.0432 228.78 68.8414 228.402C68.6396 228.025 68.3564 227.729 67.9918 227.514C67.6272 227.299 67.2073 227.191 66.732 227.191C66.2437 227.191 65.8076 227.305 65.4234 227.533C65.0458 227.755 64.7464 228.057 64.525 228.441C64.3036 228.819 64.1767 229.236 64.1441 229.691H69.1539ZM77.9633 227.309H75.8734V232.816C75.8734 233.285 75.9711 233.607 76.1664 233.783C76.3682 233.959 76.6482 234.047 77.0063 234.047C77.3188 234.047 77.6833 234.034 78.1 234.008V236.039C77.7745 236.104 77.3057 236.137 76.6938 236.137C76.0492 236.137 75.4763 236.033 74.975 235.824C74.4802 235.609 74.0896 235.284 73.8031 234.848C73.5232 234.411 73.3865 233.871 73.393 233.227V227.309H71.8695V225.395H73.393V222.855H75.8734V225.395H77.9633V227.309ZM83.6672 236.215C82.6125 236.215 81.6945 235.993 80.9133 235.551C80.1385 235.102 79.5428 234.467 79.1262 233.646C78.716 232.826 78.5109 231.866 78.5109 230.766C78.5109 229.678 78.7193 228.721 79.1359 227.895C79.5526 227.061 80.1385 226.413 80.8937 225.951C81.6555 225.489 82.5344 225.258 83.5305 225.258C84.4289 225.258 85.2427 225.45 85.9719 225.834C86.7076 226.218 87.2902 226.814 87.7199 227.621C88.1561 228.422 88.3742 229.418 88.3742 230.609V231.391H80.9719C80.9784 231.983 81.0956 232.497 81.3234 232.934C81.5513 233.363 81.8671 233.692 82.2707 233.92C82.6743 234.148 83.1464 234.262 83.6867 234.262C84.2141 234.262 84.6633 234.161 85.0344 233.959C85.4055 233.757 85.6724 233.493 85.8352 233.168H88.2766C88.1268 233.78 87.8436 234.317 87.427 234.779C87.0103 235.235 86.4797 235.59 85.8352 235.844C85.1971 236.091 84.4745 236.215 83.6672 236.215ZM85.9914 229.691C85.9849 229.21 85.8807 228.78 85.6789 228.402C85.4771 228.025 85.1939 227.729 84.8293 227.514C84.4647 227.299 84.0448 227.191 83.5695 227.191C83.0812 227.191 82.6451 227.305 82.2609 227.533C81.8833 227.755 81.5839 228.057 81.3625 228.441C81.1411 228.819 81.0142 229.236 80.9816 229.691H85.9914ZM92.0078 236H89.5078V225.395H91.8906V227.191H92.0273C92.2747 226.579 92.6654 226.104 93.1992 225.766C93.7396 225.427 94.3971 225.258 95.1719 225.258C95.9076 225.258 96.5488 225.414 97.0957 225.727C97.6491 226.039 98.0723 226.495 98.3652 227.094C98.6647 227.693 98.8112 228.409 98.8047 229.242V236H96.3242V229.633C96.3242 228.917 96.1419 228.36 95.7773 227.963C95.4128 227.566 94.9049 227.367 94.2539 227.367C93.8112 227.367 93.4206 227.465 93.082 227.66C92.7435 227.849 92.4798 228.126 92.291 228.49C92.1022 228.848 92.0078 229.281 92.0078 229.789V236ZM104.333 236.195C103.493 236.195 102.741 235.98 102.077 235.551C101.419 235.115 100.902 234.483 100.524 233.656C100.147 232.829 99.9578 231.846 99.9578 230.707C99.9578 229.561 100.15 228.578 100.534 227.758C100.918 226.938 101.442 226.316 102.106 225.893C102.77 225.469 103.519 225.258 104.352 225.258C105.759 225.258 106.768 225.883 107.38 227.133H107.477V221.859H109.958V236H107.516V234.32H107.38C106.755 235.57 105.739 236.195 104.333 236.195ZM105.016 234.145C105.544 234.145 105.996 234.001 106.374 233.715C106.751 233.428 107.038 233.025 107.233 232.504C107.435 231.983 107.536 231.378 107.536 230.688C107.536 230.004 107.438 229.408 107.243 228.9C107.048 228.386 106.761 227.989 106.384 227.709C106.006 227.429 105.55 227.289 105.016 227.289C104.476 227.289 104.017 227.432 103.639 227.719C103.262 228.005 102.975 228.406 102.78 228.92C102.591 229.434 102.497 230.023 102.497 230.688C102.497 231.365 102.595 231.964 102.79 232.484C102.985 233.005 103.272 233.412 103.649 233.705C104.027 233.998 104.483 234.145 105.016 234.145ZM111.189 233.012C111.189 231.918 111.557 231.13 112.293 230.648C113.035 230.16 113.982 229.88 115.134 229.809C116.261 229.73 117.166 229.678 117.849 229.652V228.812C117.849 228.285 117.683 227.878 117.351 227.592C117.019 227.299 116.547 227.152 115.935 227.152C115.395 227.152 114.952 227.266 114.607 227.494C114.262 227.722 114.041 228.031 113.943 228.422H111.541C111.599 227.816 111.814 227.276 112.185 226.801C112.556 226.319 113.067 225.941 113.718 225.668C114.369 225.395 115.128 225.258 115.994 225.258C116.736 225.258 117.433 225.375 118.084 225.609C118.741 225.837 119.278 226.225 119.695 226.771C120.118 227.312 120.33 228.025 120.33 228.91V236H117.947V234.535H117.869C117.608 235.03 117.218 235.434 116.697 235.746C116.176 236.059 115.525 236.215 114.744 236.215C114.06 236.215 113.448 236.091 112.908 235.844C112.374 235.596 111.954 235.232 111.648 234.75C111.342 234.268 111.189 233.689 111.189 233.012ZM113.591 232.992C113.591 233.441 113.754 233.786 114.08 234.027C114.405 234.262 114.841 234.379 115.388 234.379C115.877 234.379 116.31 234.281 116.687 234.086C117.065 233.891 117.354 233.627 117.556 233.295C117.765 232.956 117.869 232.589 117.869 232.191L117.859 231.322L115.525 231.469C114.913 231.521 114.438 231.674 114.099 231.928C113.761 232.182 113.591 232.536 113.591 232.992ZM121.873 225.395H124.295V227.152H124.412C124.595 226.553 124.924 226.085 125.399 225.746C125.874 225.408 126.418 225.238 127.03 225.238C127.394 225.238 127.694 225.258 127.928 225.297V227.602C127.817 227.562 127.648 227.527 127.42 227.494C127.192 227.462 126.978 227.445 126.776 227.445C126.32 227.445 125.91 227.543 125.545 227.738C125.181 227.934 124.894 228.207 124.686 228.559C124.478 228.91 124.373 229.307 124.373 229.75V236H121.873V225.395ZM132.206 236.195C131.366 236.195 130.614 235.98 129.95 235.551C129.293 235.115 128.775 234.483 128.398 233.656C128.02 232.829 127.831 231.846 127.831 230.707C127.831 229.561 128.023 228.578 128.407 227.758C128.792 226.938 129.316 226.316 129.98 225.893C130.644 225.469 131.392 225.258 132.226 225.258C133.632 225.258 134.641 225.883 135.253 227.133H135.351V221.859H137.831V236H135.39V234.32H135.253C134.628 235.57 133.613 236.195 132.206 236.195ZM132.89 234.145C133.417 234.145 133.87 234.001 134.247 233.715C134.625 233.428 134.911 233.025 135.107 232.504C135.308 231.983 135.409 231.378 135.409 230.688C135.409 230.004 135.312 229.408 135.116 228.9C134.921 228.386 134.635 227.989 134.257 227.709C133.879 227.429 133.424 227.289 132.89 227.289C132.349 227.289 131.89 227.432 131.513 227.719C131.135 228.005 130.849 228.406 130.654 228.92C130.465 229.434 130.37 230.023 130.37 230.688C130.37 231.365 130.468 231.964 130.663 232.484C130.859 233.005 131.145 233.412 131.523 233.705C131.9 233.998 132.356 234.145 132.89 234.145Z" fill="#2D2D2D"/>
<path d="M236.832 205.48V226.398H244.977V231.027H236.832V257.922H231.266V205.48H236.832ZM223.121 210.988C223.062 226.164 216.383 239.699 199.098 248.254L195.992 243.918C209.146 237.355 216.295 227.863 217.438 215.617H198.629V210.988H223.121Z" fill="#2D2D2D"/>
<path d="M264.969 253H258.113L273.348 210.578H280.789L296.082 253H289.227L285.359 241.809H268.836L264.969 253ZM270.711 236.418H283.484L277.215 218.312H276.922L270.711 236.418ZM299.48 244.035C299.48 236.77 305.633 234.895 311.375 234.484C313.484 234.338 318.26 234.074 319.754 234.016L319.695 231.496C319.695 227.922 317.527 225.812 313.25 225.812C309.559 225.812 307.332 227.512 306.688 229.855H300.477C301.062 224.582 305.984 220.773 313.484 220.773C318.523 220.773 325.965 222.648 325.965 231.848V253H319.871V248.664H319.637C318.406 251.066 315.477 253.703 310.203 253.703C304.168 253.703 299.48 250.246 299.48 244.035ZM305.574 244.094C305.574 247.141 308.094 248.723 311.609 248.723C316.707 248.723 319.754 245.324 319.754 241.516V238.586L312.254 239.113C308.152 239.406 305.574 240.93 305.574 244.094Z" fill="#2D2D2D"/>
<path d="M391.191 215V200.859H394.121V206.719H400.254V200.859H403.203V215H400.254V209.141H394.121V215H391.191ZM410.332 215.215C407.09 215.215 405.098 213.105 405.098 209.746C405.098 206.465 407.109 204.258 410.215 204.258C413.008 204.258 415.195 206.016 415.195 209.629V210.449H407.949C407.949 212.051 408.906 213.047 410.391 213.047C411.367 213.047 412.07 212.617 412.363 211.973H415.117C414.707 213.926 412.949 215.215 410.332 215.215ZM407.949 208.633H412.461C412.461 207.344 411.562 206.426 410.273 206.426C408.945 206.426 407.998 207.412 407.949 208.633ZM416.504 212.031C416.504 209.668 418.418 208.887 420.449 208.77C421.211 208.721 422.637 208.652 423.086 208.633V207.773C423.066 206.895 422.461 206.367 421.387 206.367C420.41 206.367 419.785 206.816 419.629 207.539H416.875C417.051 205.703 418.652 204.258 421.465 204.258C423.77 204.258 425.957 205.293 425.957 207.852V215H423.223V213.535H423.145C422.617 214.512 421.621 215.195 420.039 215.195C418.008 215.195 416.504 214.141 416.504 212.031ZM419.277 211.953C419.277 212.773 419.941 213.203 420.859 213.203C422.168 213.203 423.105 212.324 423.086 211.211V210.43C422.646 210.449 421.416 210.518 420.918 210.566C419.922 210.664 419.277 211.133 419.277 211.953ZM432.07 215.176C429.648 215.176 427.754 213.242 427.754 209.707C427.754 206.074 429.727 204.258 432.07 204.258C433.848 204.258 434.688 205.312 435.078 206.172H435.176V200.859H438.066V215H435.215V213.301H435.078C434.668 214.18 433.789 215.176 432.07 215.176ZM432.969 212.871C434.414 212.871 435.234 211.602 435.234 209.688C435.234 207.773 434.414 206.562 432.969 206.562C431.504 206.562 430.723 207.832 430.723 209.688C430.723 211.562 431.504 212.871 432.969 212.871ZM443.281 200.859V215H440.391V200.859H443.281ZM445.527 215V204.395H448.418V215H445.527ZM446.973 203.008C446.094 203.008 445.391 202.344 445.391 201.543C445.391 200.723 446.094 200.059 446.973 200.059C447.832 200.059 448.535 200.723 448.535 201.543C448.535 202.344 447.832 203.008 446.973 203.008ZM453.555 208.867V215H450.664V204.395H453.418V206.25H453.535C454.023 205.02 455.156 204.258 456.719 204.258C458.926 204.258 460.391 205.762 460.371 208.242V215H457.5V208.75C457.5 207.441 456.777 206.66 455.586 206.66C454.375 206.66 453.555 207.461 453.555 208.867ZM467.422 215.215C464.18 215.215 462.188 213.105 462.188 209.746C462.188 206.465 464.199 204.258 467.305 204.258C470.098 204.258 472.285 206.016 472.285 209.629V210.449H465.039C465.039 212.051 465.996 213.047 467.48 213.047C468.457 213.047 469.16 212.617 469.453 211.973H472.207C471.797 213.926 470.039 215.215 467.422 215.215ZM465.039 208.633H469.551C469.551 207.344 468.652 206.426 467.363 206.426C466.035 206.426 465.088 207.412 465.039 208.633ZM478.223 203.281V200.859H489.805V203.281H485.469V215H482.559V203.281H478.223ZM494.824 215.215C491.582 215.215 489.59 213.105 489.59 209.746C489.59 206.465 491.602 204.258 494.707 204.258C497.5 204.258 499.688 206.016 499.688 209.629V210.449H492.441C492.441 212.051 493.398 213.047 494.883 213.047C495.859 213.047 496.562 212.617 496.855 211.973H499.609C499.199 213.926 497.441 215.215 494.824 215.215ZM492.441 208.633H496.953C496.953 207.344 496.055 206.426 494.766 206.426C493.438 206.426 492.49 207.412 492.441 208.633ZM503.73 204.395L505.703 208.125L507.715 204.395H510.703L507.598 209.688L510.781 215H507.812L505.703 211.309L503.633 215H500.625L503.789 209.688L500.742 204.395H503.73ZM517.93 204.395V206.562H515.938V211.738C515.938 212.578 516.348 212.793 516.934 212.812C517.227 212.812 517.734 212.793 518.086 212.754V215.039C517.773 215.098 517.266 215.137 516.543 215.137C514.453 215.137 513.027 214.199 513.047 212.148V206.562H511.582V204.395H513.047V201.855H515.938V204.395H517.93ZM530.938 208.027V210.332H524.492V208.027H530.938ZM538.008 215V200.859H540.938V206.719H547.07V200.859H550.02V215H547.07V209.141H540.938V215H538.008ZM558.418 200.859V215H555.469V203.652H555.391L552.148 205.684V203.086L555.645 200.859H558.418Z" fill="#2D2D2D"/>
<path d="M391.072 245V232.273H393.709V237.547H399.229V232.273H401.883V245H399.229V239.727H393.709V245H391.072ZM408.299 245.193C405.381 245.193 403.588 243.295 403.588 240.271C403.588 237.318 405.398 235.332 408.193 235.332C410.707 235.332 412.676 236.914 412.676 240.166V240.904H406.154C406.154 242.346 407.016 243.242 408.352 243.242C409.23 243.242 409.863 242.855 410.127 242.275H412.605C412.236 244.033 410.654 245.193 408.299 245.193ZM406.154 239.27H410.215C410.215 238.109 409.406 237.283 408.246 237.283C407.051 237.283 406.198 238.171 406.154 239.27ZM413.854 242.328C413.854 240.201 415.576 239.498 417.404 239.393C418.09 239.349 419.373 239.287 419.777 239.27V238.496C419.76 237.705 419.215 237.23 418.248 237.23C417.369 237.23 416.807 237.635 416.666 238.285H414.188C414.346 236.633 415.787 235.332 418.318 235.332C420.393 235.332 422.361 236.264 422.361 238.566V245H419.9V243.682H419.83C419.355 244.561 418.459 245.176 417.035 245.176C415.207 245.176 413.854 244.227 413.854 242.328ZM416.35 242.258C416.35 242.996 416.947 243.383 417.773 243.383C418.951 243.383 419.795 242.592 419.777 241.59V240.887C419.382 240.904 418.274 240.966 417.826 241.01C416.93 241.098 416.35 241.52 416.35 242.258ZM427.863 245.158C425.684 245.158 423.979 243.418 423.979 240.236C423.979 236.967 425.754 235.332 427.863 235.332C429.463 235.332 430.219 236.281 430.57 237.055H430.658V232.273H433.26V245H430.693V243.471H430.57C430.201 244.262 429.41 245.158 427.863 245.158ZM428.672 243.084C429.973 243.084 430.711 241.941 430.711 240.219C430.711 238.496 429.973 237.406 428.672 237.406C427.354 237.406 426.65 238.549 426.65 240.219C426.65 241.906 427.354 243.084 428.672 243.084ZM437.953 232.273V245H435.352V232.273H437.953ZM439.975 245V235.455H442.576V245H439.975ZM441.275 234.207C440.484 234.207 439.852 233.609 439.852 232.889C439.852 232.15 440.484 231.553 441.275 231.553C442.049 231.553 442.682 232.15 442.682 232.889C442.682 233.609 442.049 234.207 441.275 234.207ZM447.199 239.48V245H444.598V235.455H447.076V237.125H447.182C447.621 236.018 448.641 235.332 450.047 235.332C452.033 235.332 453.352 236.686 453.334 238.918V245H450.75V239.375C450.75 238.197 450.1 237.494 449.027 237.494C447.938 237.494 447.199 238.215 447.199 239.48ZM459.68 245.193C456.762 245.193 454.969 243.295 454.969 240.271C454.969 237.318 456.779 235.332 459.574 235.332C462.088 235.332 464.057 236.914 464.057 240.166V240.904H457.535C457.535 242.346 458.396 243.242 459.732 243.242C460.611 243.242 461.244 242.855 461.508 242.275H463.986C463.617 244.033 462.035 245.193 459.68 245.193ZM457.535 239.27H461.596C461.596 238.109 460.787 237.283 459.627 237.283C458.432 237.283 457.579 238.171 457.535 239.27ZM469.4 234.453V232.273H479.824V234.453H475.922V245H473.303V234.453H469.4ZM484.342 245.193C481.424 245.193 479.631 243.295 479.631 240.271C479.631 237.318 481.441 235.332 484.236 235.332C486.75 235.332 488.719 236.914 488.719 240.166V240.904H482.197C482.197 242.346 483.059 243.242 484.395 243.242C485.273 243.242 485.906 242.855 486.17 242.275H488.648C488.279 244.033 486.697 245.193 484.342 245.193ZM482.197 239.27H486.258C486.258 238.109 485.449 237.283 484.289 237.283C483.094 237.283 482.241 238.171 482.197 239.27ZM492.357 235.455L494.133 238.812L495.943 235.455H498.633L495.838 240.219L498.703 245H496.031L494.133 241.678L492.27 245H489.562L492.41 240.219L489.668 235.455H492.357ZM505.137 235.455V237.406H503.344V242.064C503.344 242.82 503.713 243.014 504.24 243.031C504.504 243.031 504.961 243.014 505.277 242.979V245.035C504.996 245.088 504.539 245.123 503.889 245.123C502.008 245.123 500.725 244.279 500.742 242.434V237.406H499.424V235.455H500.742V233.17H503.344V235.455H505.137ZM516.844 238.725V240.799H511.043V238.725H516.844ZM523.207 245V232.273H525.844V237.547H531.363V232.273H534.018V245H531.363V239.727H525.844V245H523.207ZM536.092 245L536.074 243.084L540.645 238.883C541.84 237.74 542.473 237.037 542.473 236.035C542.473 234.91 541.611 234.207 540.451 234.207C539.256 234.207 538.482 234.963 538.482 236.176H535.969C535.951 233.68 537.797 232.098 540.486 232.098C543.211 232.098 545.021 233.645 545.021 235.859C545.021 237.301 544.318 238.496 541.699 240.869L539.766 242.75V242.82H545.197V245H536.092Z" fill="#2D2D2D"/>
<path d="M390.953 272V260.688H393.297V265.375H398.203V260.688H400.562V272H398.203V267.312H393.297V272H390.953ZM406.266 272.172C403.672 272.172 402.078 270.484 402.078 267.797C402.078 265.172 403.688 263.406 406.172 263.406C408.406 263.406 410.156 264.812 410.156 267.703V268.359H404.359C404.359 269.641 405.125 270.438 406.312 270.438C407.094 270.438 407.656 270.094 407.891 269.578H410.094C409.766 271.141 408.359 272.172 406.266 272.172ZM404.359 266.906H407.969C407.969 265.875 407.25 265.141 406.219 265.141C405.156 265.141 404.398 265.93 404.359 266.906ZM411.203 269.625C411.203 267.734 412.734 267.109 414.359 267.016C414.969 266.977 416.109 266.922 416.469 266.906V266.219C416.453 265.516 415.969 265.094 415.109 265.094C414.328 265.094 413.828 265.453 413.703 266.031H411.5C411.641 264.562 412.922 263.406 415.172 263.406C417.016 263.406 418.766 264.234 418.766 266.281V272H416.578V270.828H416.516C416.094 271.609 415.297 272.156 414.031 272.156C412.406 272.156 411.203 271.312 411.203 269.625ZM413.422 269.562C413.422 270.219 413.953 270.562 414.688 270.562C415.734 270.562 416.484 269.859 416.469 268.969V268.344C416.117 268.359 415.133 268.414 414.734 268.453C413.938 268.531 413.422 268.906 413.422 269.562ZM423.656 272.141C421.719 272.141 420.203 270.594 420.203 267.766C420.203 264.859 421.781 263.406 423.656 263.406C425.078 263.406 425.75 264.25 426.062 264.938H426.141V260.688H428.453V272H426.172V270.641H426.062C425.734 271.344 425.031 272.141 423.656 272.141ZM424.375 270.297C425.531 270.297 426.188 269.281 426.188 267.75C426.188 266.219 425.531 265.25 424.375 265.25C423.203 265.25 422.578 266.266 422.578 267.75C422.578 269.25 423.203 270.297 424.375 270.297ZM432.625 260.688V272H430.312V260.688H432.625ZM434.422 272V263.516H436.734V272H434.422ZM435.578 262.406C434.875 262.406 434.312 261.875 434.312 261.234C434.312 260.578 434.875 260.047 435.578 260.047C436.266 260.047 436.828 260.578 436.828 261.234C436.828 261.875 436.266 262.406 435.578 262.406ZM440.844 267.094V272H438.531V263.516H440.734V265H440.828C441.219 264.016 442.125 263.406 443.375 263.406C445.141 263.406 446.312 264.609 446.297 266.594V272H444V267C444 265.953 443.422 265.328 442.469 265.328C441.5 265.328 440.844 265.969 440.844 267.094ZM451.938 272.172C449.344 272.172 447.75 270.484 447.75 267.797C447.75 265.172 449.359 263.406 451.844 263.406C454.078 263.406 455.828 264.812 455.828 267.703V268.359H450.031C450.031 269.641 450.797 270.438 451.984 270.438C452.766 270.438 453.328 270.094 453.562 269.578H455.766C455.438 271.141 454.031 272.172 451.938 272.172ZM450.031 266.906H453.641C453.641 265.875 452.922 265.141 451.891 265.141C450.828 265.141 450.07 265.93 450.031 266.906ZM460.578 262.625V260.688H469.844V262.625H466.375V272H464.047V262.625H460.578ZM473.859 272.172C471.266 272.172 469.672 270.484 469.672 267.797C469.672 265.172 471.281 263.406 473.766 263.406C476 263.406 477.75 264.812 477.75 267.703V268.359H471.953C471.953 269.641 472.719 270.438 473.906 270.438C474.688 270.438 475.25 270.094 475.484 269.578H477.688C477.359 271.141 475.953 272.172 473.859 272.172ZM471.953 266.906H475.562C475.562 265.875 474.844 265.141 473.812 265.141C472.75 265.141 471.992 265.93 471.953 266.906ZM480.984 263.516L482.562 266.5L484.172 263.516H486.562L484.078 267.75L486.625 272H484.25L482.562 269.047L480.906 272H478.5L481.031 267.75L478.594 263.516H480.984ZM492.344 263.516V265.25H490.75V269.391C490.75 270.062 491.078 270.234 491.547 270.25C491.781 270.25 492.188 270.234 492.469 270.203V272.031C492.219 272.078 491.812 272.109 491.234 272.109C489.562 272.109 488.422 271.359 488.438 269.719V265.25H487.266V263.516H488.438V261.484H490.75V263.516H492.344ZM502.75 266.422V268.266H497.594V266.422H502.75ZM508.406 272V260.688H510.75V265.375H515.656V260.688H518.016V272H515.656V267.312H510.75V272H508.406ZM524.047 272.156C521.562 272.156 519.781 270.781 519.734 268.812H522.109C522.156 269.656 522.969 270.219 524.062 270.219C525.188 270.219 526 269.578 525.984 268.672C526 267.75 525.172 267.094 523.844 267.094H522.797V265.359H523.844C524.953 265.359 525.734 264.75 525.734 263.859C525.734 263 525.078 262.406 524.078 262.406C523.078 262.406 522.25 262.969 522.219 263.828H519.969C520 261.875 521.766 260.531 524.078 260.531C526.438 260.531 528.016 261.922 528 263.719C528.016 264.984 527.125 265.891 525.859 266.109V266.203C527.516 266.406 528.438 267.422 528.422 268.828C528.438 270.766 526.594 272.156 524.047 272.156Z" fill="#2D2D2D"/>
<path d="M391.156 300V288.688H395.297C397.703 288.688 398.875 289.984 398.875 291.656C398.875 293.062 398.016 293.781 396.969 294.047V294.156C398.094 294.219 399.312 295.203 399.312 296.953C399.312 298.688 398.125 300 395.484 300H391.156ZM395.328 298.531C396.953 298.531 397.609 297.812 397.609 296.875C397.609 295.797 396.75 294.922 395.391 294.922H392.875V298.531H395.328ZM395.156 293.578C396.297 293.578 397.188 292.875 397.188 291.797C397.188 290.859 396.547 290.156 395.188 290.156H392.875V293.578H395.156ZM410.984 294.344C410.984 297.953 408.812 300.156 405.891 300.156C402.938 300.156 400.781 297.953 400.781 294.344C400.781 290.719 402.938 288.531 405.891 288.531C408.812 288.531 410.984 290.719 410.984 294.344ZM409.281 294.344C409.281 291.594 407.828 290.109 405.891 290.109C403.938 290.109 402.484 291.594 402.484 294.344C402.484 297.094 403.938 298.578 405.891 298.578C407.828 298.578 409.281 297.094 409.281 294.344ZM416.594 300H412.922V288.688H416.703C420.031 288.688 422.031 290.812 422.031 294.328C422.031 297.859 420.031 300 416.594 300ZM414.641 298.5H416.5C419.062 298.5 420.328 297 420.328 294.328C420.328 291.672 419.062 290.188 416.594 290.188H414.641V298.5ZM422.5 288.688H424.453L427.391 293.812H427.516L430.469 288.688H432.422L428.312 295.562V300H426.594V295.562L422.5 288.688ZM437.75 300V288.688H439.469V298.516H444.578V300H437.75ZM447.875 300H446.047L450.109 288.688H452.094L456.172 300H454.344L453.312 297.016H448.906L447.875 300ZM449.406 295.578H452.812L451.141 290.75H451.062L449.406 295.578ZM457.609 300V288.688H461.641C464.266 288.688 465.562 290.156 465.562 292.234C465.562 293.758 464.875 294.914 463.5 295.422L466 300H464.047L461.75 295.734H461.641H459.328V300H457.609ZM459.328 294.25H461.469C463.141 294.25 463.828 293.516 463.828 292.234C463.828 290.953 463.141 290.156 461.469 290.156H459.328V294.25ZM475.109 292.266C474.688 290.922 473.672 290.109 472.172 290.109C470.266 290.109 468.797 291.609 468.797 294.344C468.797 297.078 470.25 298.578 472.25 298.578C474.055 298.578 475.25 297.438 475.281 295.625H472.5V294.203H476.953V295.484C476.953 298.344 474.984 300.156 472.234 300.156C469.172 300.156 467.094 297.922 467.094 294.344C467.094 290.734 469.234 288.531 472.156 288.531C474.609 288.531 476.484 290.062 476.875 292.266H475.109ZM478.938 300V288.688H486.031V290.172H480.656V293.594H485.656V295.062H480.656V298.516H486.094V300H478.938Z" fill="#2D2D2D"/>
<path d="M391.012 329V319.102H394.635C396.74 319.102 397.766 320.236 397.766 321.699C397.766 322.93 397.014 323.559 396.098 323.791V323.887C397.082 323.941 398.148 324.803 398.148 326.334C398.148 327.852 397.109 329 394.799 329H391.012ZM394.662 327.715C396.084 327.715 396.658 327.086 396.658 326.266C396.658 325.322 395.906 324.557 394.717 324.557H392.516V327.715H394.662ZM394.512 323.381C395.51 323.381 396.289 322.766 396.289 321.822C396.289 321.002 395.729 320.387 394.539 320.387H392.516V323.381H394.512ZM402.783 329.15C400.678 329.15 399.311 327.619 399.311 325.322C399.311 323.012 400.678 321.48 402.783 321.48C404.875 321.48 406.242 323.012 406.242 325.322C406.242 327.619 404.875 329.15 402.783 329.15ZM402.783 327.934C404.123 327.934 404.766 326.744 404.766 325.322C404.766 323.9 404.123 322.684 402.783 322.684C401.416 322.684 400.773 323.9 400.773 325.322C400.773 326.744 401.416 327.934 402.783 327.934ZM410.453 329.15C408.662 329.15 407.35 327.701 407.35 325.309C407.35 322.889 408.676 321.48 410.467 321.48C411.848 321.48 412.354 322.314 412.613 322.779H412.682V319.102H414.145V329H412.723V327.838H412.613C412.34 328.33 411.807 329.15 410.453 329.15ZM410.781 327.906C412.025 327.906 412.723 326.84 412.723 325.281C412.723 323.736 412.039 322.725 410.781 322.725C409.482 322.725 408.84 323.818 408.84 325.281C408.84 326.771 409.51 327.906 410.781 327.906ZM416.947 331.789C416.646 331.789 416.359 331.775 416.168 331.748V330.531C416.332 330.545 416.619 330.559 416.824 330.559C417.275 330.559 417.658 330.518 418 329.588L418.178 329.096L415.457 321.576H417.016L418.889 327.332H418.971L420.844 321.576H422.416L419.354 329.984C418.93 331.16 418.164 331.789 416.947 331.789ZM427.146 319.102H428.979L432.109 326.771H432.232L435.363 319.102H437.195V329H435.76V321.85H435.664L432.766 328.986H431.576L428.664 321.836H428.582V329H427.146V319.102ZM442.295 329.15C440.107 329.15 438.768 327.646 438.768 325.336C438.768 323.053 440.135 321.48 442.199 321.48C443.895 321.48 445.494 322.533 445.494 325.213V325.732H440.217C440.258 327.141 441.085 327.947 442.309 327.947C443.143 327.947 443.676 327.592 443.922 327.141H445.398C445.07 328.344 443.922 329.15 442.295 329.15ZM440.23 324.639H444.059C444.059 323.504 443.334 322.684 442.213 322.684C441.044 322.684 440.285 323.586 440.23 324.639ZM449.719 329.15C447.928 329.15 446.615 327.701 446.615 325.309C446.615 322.889 447.941 321.48 449.732 321.48C451.113 321.48 451.619 322.314 451.879 322.779H451.947V319.102H453.41V329H451.988V327.838H451.879C451.605 328.33 451.072 329.15 449.719 329.15ZM450.047 327.906C451.291 327.906 451.988 326.84 451.988 325.281C451.988 323.736 451.305 322.725 450.047 322.725C448.748 322.725 448.105 323.818 448.105 325.281C448.105 326.771 448.775 327.906 450.047 327.906ZM455.311 329V321.576H456.773V329H455.311ZM456.049 320.428C455.543 320.428 455.119 320.045 455.119 319.566C455.119 319.088 455.543 318.705 456.049 318.705C456.541 318.705 456.965 319.088 456.965 319.566C456.965 320.045 456.541 320.428 456.049 320.428ZM463.268 325.91V321.576H464.717V329H463.295V327.715H463.213C462.871 328.508 462.105 329.096 460.998 329.096C459.562 329.096 458.551 328.139 458.551 326.293V321.576H460.014V326.115C460.014 327.127 460.629 327.77 461.518 327.77C462.324 327.77 463.268 327.182 463.268 325.91ZM466.494 329V321.576H467.902V322.793H467.984C468.299 321.959 469.023 321.48 470.008 321.48C470.992 321.48 471.689 321.973 472.004 322.793H472.086C472.441 321.986 473.234 321.48 474.314 321.48C475.654 321.48 476.611 322.328 476.611 324.023V329H475.148V324.16C475.148 323.162 474.52 322.738 473.754 322.738C472.811 322.738 472.277 323.381 472.277 324.27V329H470.828V324.078C470.828 323.271 470.268 322.738 469.475 322.738C468.654 322.738 467.957 323.422 467.957 324.42V329H466.494Z" fill="#2D2D2D"/>
<path d="M391.008 357V348.516H393.902C395.578 348.516 396.41 349.465 396.41 350.742C396.41 351.797 395.812 352.383 395.051 352.582V352.652C395.883 352.711 396.75 353.473 396.75 354.773C396.75 356.051 395.906 357 394.055 357H391.008ZM394.043 356.25C395.344 356.25 395.941 355.617 395.941 354.762C395.941 353.812 395.203 353.051 394.078 353.051H391.84V356.25H394.043ZM393.949 352.324C394.934 352.324 395.613 351.668 395.613 350.742C395.613 349.875 395.039 349.266 393.891 349.266H391.84V352.324H393.949ZM400.734 357.129C399.07 357.129 397.91 355.793 397.91 353.848C397.91 351.891 399.07 350.543 400.734 350.543C402.398 350.543 403.547 351.891 403.547 353.848C403.547 355.793 402.398 357.129 400.734 357.129ZM400.734 356.414C402.035 356.414 402.75 355.242 402.75 353.848C402.75 352.453 402.035 351.27 400.734 351.27C399.422 351.27 398.707 352.453 398.707 353.848C398.707 355.242 399.422 356.414 400.734 356.414ZM407.25 357.129C405.691 357.129 404.625 355.816 404.625 353.836C404.625 351.855 405.691 350.543 407.262 350.543C408.434 350.543 408.949 351.281 409.195 351.82H409.254V348.516H410.062V357H409.277V355.852H409.195C408.938 356.402 408.41 357.129 407.25 357.129ZM407.355 356.414C408.574 356.414 409.277 355.336 409.277 353.824C409.277 352.324 408.586 351.27 407.355 351.27C406.102 351.27 405.434 352.383 405.434 353.824C405.434 355.277 406.113 356.414 407.355 356.414ZM412.43 359.391C412.266 359.391 412.09 359.379 411.984 359.367L411.996 358.652L412.383 358.664C412.793 358.664 413.203 358.605 413.543 357.68L413.766 357.059L411.422 350.637H412.289L414.141 355.969H414.199L416.062 350.637H416.918L414.234 357.984C413.883 358.922 413.297 359.391 412.43 359.391ZM425.777 350.648C425.695 349.723 424.898 349.137 423.797 349.137C422.625 349.137 421.828 349.793 421.828 350.684C421.828 351.562 422.695 351.973 423.504 352.195L424.383 352.441C425.449 352.746 426.703 353.297 426.703 354.727C426.703 356.098 425.602 357.141 423.738 357.141C421.992 357.141 420.879 356.215 420.785 354.855H421.641C421.723 355.852 422.613 356.391 423.738 356.391C424.992 356.391 425.895 355.723 425.895 354.715C425.895 353.871 425.168 353.484 424.137 353.191L423.129 352.898C421.793 352.5 421.008 351.82 421.008 350.719C421.008 349.336 422.227 348.398 423.82 348.398C425.414 348.398 426.539 349.348 426.598 350.648H425.777ZM428.191 357V350.637H428.965V351.621H429.035C429.293 350.953 429.914 350.555 430.746 350.555C431.613 350.555 432.188 350.988 432.469 351.703H432.516C432.809 351 433.477 350.555 434.402 350.555C435.586 350.555 436.336 351.305 436.336 352.734V357H435.527V352.746C435.527 351.762 434.977 351.281 434.156 351.281C433.207 351.281 432.668 351.926 432.668 352.828V357H431.859V352.676C431.859 351.844 431.355 351.281 430.512 351.281C429.645 351.281 429 351.961 429 352.945V357H428.191ZM437.742 355.219C437.742 353.93 438.785 353.438 440.086 353.332C440.508 353.303 441.539 353.244 441.844 353.227V352.629C441.844 351.773 441.293 351.258 440.297 351.258C439.465 351.258 438.902 351.645 438.75 352.219H437.918C438.047 351.211 439.02 350.543 440.344 350.543C441.293 350.543 442.641 350.953 442.641 352.699V357H441.844V356.016H441.797C441.539 356.566 440.906 357.141 439.84 357.141C438.68 357.141 437.742 356.449 437.742 355.219ZM438.539 355.254C438.539 356.004 439.137 356.426 439.957 356.426C441.129 356.426 441.844 355.582 441.844 354.574V353.895L440.203 354.012C439.078 354.094 438.539 354.527 438.539 355.254ZM445.172 348.516V357H444.363V348.516H445.172ZM447.691 348.516V357H446.883V348.516H447.691Z" fill="#2D2D2D"/>
<path d="M396.727 375.188C396.48 374.016 395.473 373.383 394.359 373.383C392.824 373.383 391.629 374.566 391.629 376.758C391.629 378.949 392.824 380.133 394.359 380.133C395.473 380.133 396.469 379.5 396.727 378.34H397.781C397.477 380.074 396.082 381.117 394.359 381.117C392.18 381.117 390.609 379.441 390.609 376.758C390.609 374.074 392.18 372.398 394.359 372.398C396.07 372.398 397.465 373.43 397.781 375.188H396.727ZM398.824 379.195C398.824 377.73 400.113 377.402 401.215 377.32C401.619 377.291 402.65 377.238 402.938 377.227V376.711C402.938 375.902 402.457 375.434 401.496 375.434C400.688 375.434 400.207 375.809 400.066 376.289H399.012C399.141 375.27 400.137 374.555 401.543 374.555C402.375 374.555 403.934 374.801 403.934 376.805V381H402.938V380.133H402.891C402.68 380.566 402.094 381.152 400.992 381.152C399.785 381.152 398.824 380.438 398.824 379.195ZM399.832 379.242C399.832 379.91 400.395 380.25 401.168 380.25C402.305 380.25 402.938 379.488 402.938 378.691V378.047L401.332 378.164C400.418 378.223 399.832 378.551 399.832 379.242ZM405.551 383.391V374.637H406.523V375.645H406.641C406.852 375.305 407.25 374.555 408.48 374.555C410.074 374.555 411.188 375.82 411.188 377.836C411.188 379.852 410.074 381.129 408.492 381.129C407.273 381.129 406.852 380.379 406.641 380.027H406.559V383.391H405.551ZM406.535 377.812C406.535 379.242 407.18 380.227 408.352 380.227C409.559 380.227 410.18 379.172 410.18 377.812C410.18 376.488 409.57 375.457 408.352 375.457C407.156 375.457 406.535 376.406 406.535 377.812ZM415.277 374.637V375.48H413.941V379.172C413.941 379.992 414.34 380.121 414.773 380.121C414.961 380.121 415.219 380.109 415.371 380.098V381.035C415.219 381.059 414.961 381.082 414.668 381.082C413.824 381.082 412.922 380.555 412.922 379.43V375.48H411.961V374.637H412.922V373.113H413.941V374.637H415.277ZM416.578 381V374.637H417.586V381H416.578ZM417.082 373.582C416.695 373.582 416.379 373.289 416.379 372.914C416.379 372.539 416.695 372.246 417.082 372.246C417.469 372.246 417.797 372.539 417.797 372.914C417.797 373.289 417.469 373.582 417.082 373.582ZM421.793 381.129C420.059 381.129 418.887 379.828 418.887 377.848C418.887 375.867 420.059 374.555 421.793 374.555C423.516 374.555 424.676 375.867 424.676 377.848C424.676 379.828 423.516 381.129 421.793 381.129ZM421.793 380.238C423.07 380.238 423.668 379.113 423.668 377.848C423.668 376.582 423.07 375.445 421.793 375.445C420.492 375.445 419.895 376.582 419.895 377.848C419.895 379.113 420.492 380.238 421.793 380.238ZM427.008 377.18V381H426V374.637H426.973V375.633H427.055C427.359 374.988 427.945 374.555 428.918 374.555C430.207 374.555 431.062 375.34 431.062 376.957V381H430.055V377.027C430.055 376.043 429.516 375.457 428.613 375.457C427.688 375.457 427.008 376.078 427.008 377.18Z" fill="#2D2D2D"/>
</svg>
