<svg width="659" height="55" viewBox="0 0 659 55" fill="none" xmlns="http://www.w3.org/2000/svg">
<rect width="659" height="55" fill="#2D2D2D"/>
<path d="M167.609 18.7031V21.1406H160.906V30.6094C164.012 30.5742 166.25 30.4336 168.758 29.9766L169.062 32.3906C166.133 32.9531 163.555 33.0703 159.617 33.0469H157.883V18.7031H167.609ZM174.898 16.8281V38.2031H171.922V26.6484H166.555V24.2109H171.922V16.8281H174.898ZM191.023 22.6406C191 25.8984 192.734 29.6484 196.25 31.2656L194.586 33.6094C192.207 32.5195 190.508 30.3398 189.57 27.7734C188.609 30.5977 186.863 32.9883 184.391 34.1484L182.656 31.7812C186.219 30.1172 188 26.1562 188.023 22.6406V21.3281H183.5V18.8906H195.312V21.3281H191.023V22.6406ZM199.977 16.8281V24.9609H203.117V27.4688H199.977V38.1562H196.977V16.8281H199.977ZM210.734 22.1953C210.734 25.6406 211.695 29.2031 214.602 31.0781L212.984 33.3984C211.145 32.2852 209.973 30.457 209.305 28.2656C208.531 30.6797 207.254 32.6953 205.32 33.8672L203.492 31.6641C206.656 29.6953 207.828 25.9453 207.828 22.3359V18.6562H210.734V22.1953ZM222.383 16.8281V38.1562H219.523V16.8281H222.383ZM217.906 17.1328V37.1719H215.117V26.4609H212.352V24.0234H215.117V17.1328H217.906ZM241.555 16.8516V23.3906H244.438V25.8281H241.555V32.7656H238.555V16.8516H241.555ZM237.289 19.0781V21.4453H224.633V19.0781H229.484V16.8047H232.461V19.0781H237.289ZM230.961 22.1953C234.055 22.1953 236.211 23.8594 236.211 26.3203C236.211 28.7812 234.055 30.3984 230.961 30.3984C227.844 30.3984 225.664 28.7812 225.664 26.3203C225.664 23.8594 227.844 22.1953 230.961 22.1953ZM230.961 24.4688C229.531 24.4922 228.57 25.1484 228.594 26.3203C228.57 27.4922 229.531 28.125 230.961 28.125C232.391 28.125 233.375 27.4922 233.375 26.3203C233.375 25.1484 232.391 24.4922 230.961 24.4688ZM242.328 35.3906V37.7812H227.727V31.5469H230.703V35.3906H242.328ZM262.133 19.6406C262.133 22.7578 264.898 26.1094 269.727 26.9297L268.414 29.4141C264.699 28.6758 261.934 26.5898 260.562 23.8359C259.145 26.5664 256.379 28.6641 252.688 29.4141L251.398 26.9297C256.133 26.0859 258.922 22.7344 258.945 19.6406V18.0938H262.133V19.6406ZM270.43 33.0703V35.5312H250.906V33.0703H270.43ZM282.594 18.5859V21.0234H275.516V24.5391H282.289V26.8828H275.516V30.9141C278.574 30.8906 281.059 30.7617 283.906 30.3047L284.188 32.7188C280.93 33.2109 278.023 33.3047 274.297 33.3047H272.492V18.5859H282.594ZM288.477 16.8281V24.9141H291.617V27.4219H288.477V38.1562H285.477V16.8281H288.477ZM298.461 17.4609C301.695 17.4609 304.156 19.4766 304.156 22.3359C304.156 25.1484 301.695 27.1875 298.461 27.1875C295.156 27.1875 292.719 25.1484 292.719 22.3359C292.719 19.4766 295.156 17.4609 298.461 17.4609ZM298.461 19.8984C296.82 19.8984 295.602 20.7891 295.625 22.3359C295.602 23.8594 296.82 24.7734 298.461 24.7734C300.078 24.7734 301.273 23.8594 301.273 22.3359C301.273 20.7891 300.078 19.8984 298.461 19.8984ZM310.25 16.8281V27.5156H307.25V16.8281H310.25ZM310.25 28.4062V34.1953H298.906V35.5781H310.836V37.9219H295.977V32.0156H307.273V30.7031H295.93V28.4062H310.25ZM335.492 16.8281V25.0078H338.516V27.4688H335.492V38.1094H332.492V16.8281H335.492ZM329.797 19.0078C329.773 25.3828 327.289 30.9141 320.117 34.4297L318.43 32.1328C323.48 29.6016 326.188 26.2031 326.75 21.4453H319.648V19.0078H329.797ZM357.266 16.8281V38.2031H354.242V16.8281H357.266ZM345.688 18.3281C348.898 18.3281 351.289 21.2812 351.289 25.9219C351.289 30.6094 348.898 33.5391 345.688 33.5391C342.406 33.5391 340.016 30.6094 340.039 25.9219C340.016 21.2812 342.406 18.3281 345.688 18.3281ZM345.688 21.0234C344.023 21.0234 342.922 22.7578 342.922 25.9219C342.922 29.1094 344.023 30.8203 345.688 30.8203C347.305 30.8203 348.406 29.1094 348.406 25.9219C348.406 22.7578 347.305 21.0234 345.688 21.0234ZM377.539 26.6953V29.0859H362.445V18.6094H377.375V21.0234H365.398V26.6953H377.539ZM379.672 33.0938V35.5547H360.148V33.0938H379.672ZM405.945 33.2344V35.6719H386.422V33.2344H394.648V29.2969H388.484V18.1875H391.484V21.4922H400.789V18.1875H403.766V29.2969H397.625V33.2344H405.945ZM391.484 26.9062H400.789V23.8828H391.484V26.9062ZM425.141 16.8281V38.2031H422.164V26.9531H418.719V24.5156H422.164V16.8281H425.141ZM417.523 18.6094V26.6016H410.891V30.7734C413.832 30.75 416.328 30.6445 419.07 30.1641L419.305 32.6016C416.141 33.1172 413.234 33.2344 409.672 33.2344H407.914V24.2344H414.617V21.0234H407.867V18.6094H417.523ZM444.734 16.8281V25.0078H447.758V27.4688H444.734V38.1094H441.734V16.8281H444.734ZM439.039 19.0078C439.016 25.3828 436.531 30.9141 429.359 34.4297L427.672 32.1328C432.723 29.6016 435.43 26.2031 435.992 21.4453H428.891V19.0078H439.039ZM466.578 16.8281V38.1562H463.555V16.8281H466.578ZM460.18 19.0547C460.18 25.5234 457.906 30.8906 450.289 34.5L448.719 32.1094C454.227 29.5078 456.652 26.1328 457.133 21.3984H449.867V19.0547H460.18Z" fill="#EEEEEE"/>
<path d="M495 23.9L486.1 32.8C485.916 32.9833 485.683 33.075 485.4 33.075C485.116 33.075 484.883 32.9833 484.7 32.8C484.516 32.6167 484.425 32.3833 484.425 32.1C484.425 31.8167 484.516 31.5833 484.7 31.4L493.6 22.5H486C485.716 22.5 485.479 22.4042 485.287 22.2125C485.096 22.0208 485 21.7833 485 21.5C485 21.2167 485.096 20.9792 485.287 20.7875C485.479 20.5958 485.716 20.5 486 20.5H496C496.283 20.5 496.521 20.5958 496.712 20.7875C496.904 20.9792 497 21.2167 497 21.5V31.5C497 31.7833 496.904 32.0208 496.712 32.2125C496.521 32.4042 496.283 32.5 496 32.5C495.716 32.5 495.479 32.4042 495.287 32.2125C495.096 32.0208 495 31.7833 495 31.5V23.9Z" fill="#EEEEEE"/>
</svg>
