<svg width="680" height="407" viewBox="0 0 680 407" fill="none" xmlns="http://www.w3.org/2000/svg">
<path d="M47.1611 73.8594C46.9033 72.1406 45.5713 71.0879 43.7666 71.0879C41.3389 71.0879 39.749 72.957 39.749 76.2227C39.749 79.5742 41.3604 81.3574 43.7451 81.3574C45.5283 81.3574 46.8389 80.3691 47.1611 78.6934L50.4268 78.7148C50.0615 81.5938 47.6553 84.2148 43.7021 84.2148C39.5342 84.2148 36.4619 81.293 36.4619 76.2227C36.4619 71.1523 39.5986 68.2305 43.7021 68.2305C47.29 68.2305 49.9971 70.293 50.4268 73.8594H47.1611ZM57.8604 84.2363C54.3369 84.2363 52.1455 81.8086 52.1455 78.1992C52.1455 74.5898 54.3369 72.1836 57.8604 72.1836C61.3838 72.1836 63.5967 74.5898 63.5967 78.1992C63.5967 81.8086 61.3838 84.2363 57.8604 84.2363ZM57.8818 81.7656C59.5146 81.7656 60.3525 80.2402 60.3525 78.1992C60.3525 76.1367 59.5146 74.6113 57.8818 74.6113C56.2275 74.6113 55.3682 76.1367 55.3682 78.1992C55.3682 80.2402 56.2275 81.7656 57.8818 81.7656ZM68.7744 68.4453V84H65.5947V68.4453H68.7744ZM76.4873 84.2363C72.9639 84.2363 70.7725 81.8086 70.7725 78.1992C70.7725 74.5898 72.9639 72.1836 76.4873 72.1836C80.0107 72.1836 82.2236 74.5898 82.2236 78.1992C82.2236 81.8086 80.0107 84.2363 76.4873 84.2363ZM76.5088 81.7656C78.1416 81.7656 78.9795 80.2402 78.9795 78.1992C78.9795 76.1367 78.1416 74.6113 76.5088 74.6113C74.8545 74.6113 73.9951 76.1367 73.9951 78.1992C73.9951 80.2402 74.8545 81.7656 76.5088 81.7656ZM84.2217 84V72.334H87.2939V74.3535H87.4229C87.8525 72.9141 88.9268 72.1621 90.2373 72.1621C90.5596 72.1621 90.9678 72.2051 91.2471 72.2695V75.1055C90.9463 75.0195 90.3447 74.9336 89.8936 74.9336C88.4541 74.9336 87.4014 75.9434 87.4014 77.3613V84H84.2217Z" fill="#2D2D2D"/>
<path d="M48.7637 109.293H46.7949V97.6914H48.7637V109.293ZM49.2031 113.248H38.252V108.186H40.2207V111.666H49.2031V113.248ZM41.4512 100.117C41.4512 100.867 41.5947 101.582 41.8818 102.262C42.1748 102.941 42.6084 103.545 43.1826 104.072C43.7568 104.594 44.4512 104.992 45.2656 105.268L44.2637 106.814C43.373 106.504 42.6055 106.047 41.9609 105.443C41.3164 104.84 40.8154 104.125 40.458 103.299C40.0947 104.189 39.582 104.963 38.9199 105.619C38.2637 106.275 37.4785 106.768 36.5645 107.096L35.5449 105.549C36.3828 105.256 37.0918 104.831 37.6719 104.274C38.2578 103.712 38.6973 103.073 38.9902 102.358C39.2832 101.644 39.4297 100.896 39.4297 100.117V98.5703H41.4512V100.117ZM59.6628 103.633H53.5105V105.215H60.0495V106.744H56.657V108.941C58.1511 108.883 59.4987 108.789 60.6999 108.66L60.8581 110.084C59.5105 110.301 58.1159 110.453 56.6745 110.541C55.239 110.623 53.7507 110.664 52.2097 110.664C51.8581 110.664 51.5945 110.658 51.4187 110.646H50.6804L50.4343 109.029H51.7878C53.0652 109.029 54.032 109.021 54.6882 109.003V106.744H51.5417V102.191H57.7292V100.645H51.5241V99.0977H59.6628V103.633ZM63.6003 113.582H61.6491V97.6738H63.6003V113.582ZM77.7338 101.295H79.9487V102.895H77.7338V106.604H75.7827V97.6738H77.7338V101.295ZM73.3217 98.6406C73.3159 100.006 73.02 101.233 72.434 102.323C71.8539 103.413 71.0073 104.345 69.894 105.118C68.7866 105.886 67.4389 106.48 65.851 106.902L65.0776 105.338C66.894 104.869 68.3237 104.192 69.3666 103.308C70.4096 102.417 71.019 101.389 71.1948 100.223H65.8334V98.6406H73.3217ZM77.7338 113.354H67.4506V107.236H77.7338V113.354ZM69.4018 111.807H75.8002V108.836H69.4018V111.807ZM87.2619 97.9199C88.4689 97.9199 89.4972 98.0254 90.3468 98.2363C91.2023 98.4473 91.8556 98.7578 92.3068 99.168C92.758 99.5723 92.9865 100.064 92.9923 100.645C92.9865 101.523 92.4855 102.197 91.4894 102.666C90.4933 103.135 89.0841 103.375 87.2619 103.387C85.4338 103.375 84.0216 103.135 83.0255 102.666C82.0295 102.197 81.5314 101.523 81.5314 100.645C81.5314 100.064 81.757 99.5723 82.2082 99.168C82.6593 98.7578 83.3127 98.4473 84.1681 98.2363C85.0236 98.0254 86.0548 97.9199 87.2619 97.9199ZM87.2619 99.3613C86.0548 99.3613 85.1379 99.4727 84.5109 99.6953C83.8839 99.9121 83.5763 100.229 83.588 100.645C83.5822 101.078 83.8869 101.4 84.5021 101.611C85.1173 101.822 86.0373 101.928 87.2619 101.928C88.5041 101.928 89.4328 101.822 90.048 101.611C90.6632 101.4 90.9709 101.078 90.9709 100.645C90.9709 100.229 90.6574 99.9121 90.0304 99.6953C89.4035 99.4727 88.4806 99.3613 87.2619 99.3613ZM94.5216 105.795H80.0373V104.23H94.5216V105.795ZM92.7111 110.752H83.6759V111.93H93.1505V113.424H81.7599V109.363H90.7951V108.309H81.7423V106.867H92.7111V110.752ZM112.91 108.115H106.599V113.547H104.666V108.115H98.4254V106.533H112.91V108.115ZM111.574 100.117H106.801C106.842 100.697 107.091 101.257 107.548 101.796C108.005 102.329 108.632 102.786 109.429 103.167C110.226 103.548 111.134 103.803 112.154 103.932L111.451 105.461C110.103 105.273 108.922 104.887 107.909 104.301C106.901 103.715 106.154 102.988 105.668 102.121C105.181 102.982 104.434 103.709 103.426 104.301C102.419 104.887 101.25 105.273 99.9195 105.461L99.1813 103.932C100.195 103.803 101.097 103.548 101.888 103.167C102.685 102.786 103.312 102.329 103.769 101.796C104.232 101.257 104.487 100.697 104.534 100.117H99.7613V98.5703H111.574V100.117ZM126.129 103.721H115.125V98.2539H117.059V102.174H126.129V103.721ZM127.764 107.113H113.244V105.566H127.764V107.113ZM126.235 113.195H114.985V108.52H116.936V111.613H126.235V113.195ZM140.72 100.82H139.191V107.975C140.135 107.893 140.838 107.822 141.301 107.764L141.388 109.17C139.918 109.422 138.371 109.592 136.748 109.68C135.131 109.762 133.437 109.803 131.668 109.803L131.439 108.203L133.355 108.186V100.82H131.844V99.2207H140.72V100.82ZM144.095 103.826H146.539V105.426H144.095V113.564H142.144V97.6738H144.095V103.826ZM135.254 108.159C135.687 108.147 136.373 108.124 137.31 108.089V100.82H135.254V108.159ZM159.02 101.488H161.252V103.105H159.02V107.236H157.069V97.6914H159.02V101.488ZM154.344 103.229H149.053V104.898C150.477 104.887 151.69 104.849 152.692 104.784C153.7 104.714 154.725 104.594 155.768 104.424L155.979 105.988C154.895 106.176 153.823 106.308 152.762 106.384C151.707 106.46 150.465 106.498 149.036 106.498H148.403H147.102V101.752H152.428V100.205H147.084V98.6582H154.344V103.229ZM153.834 107.588C154.924 107.594 155.868 107.717 156.665 107.957C157.467 108.197 158.085 108.543 158.519 108.994C158.953 109.439 159.172 109.973 159.178 110.594C159.172 111.209 158.953 111.736 158.519 112.176C158.085 112.615 157.467 112.949 156.665 113.178C155.868 113.412 154.924 113.529 153.834 113.529C152.727 113.529 151.769 113.412 150.96 113.178C150.152 112.949 149.531 112.615 149.097 112.176C148.669 111.736 148.456 111.209 148.456 110.594C148.456 109.973 148.669 109.439 149.097 108.994C149.531 108.543 150.152 108.197 150.96 107.957C151.769 107.717 152.727 107.594 153.834 107.588ZM153.834 109.117C152.721 109.117 151.863 109.246 151.259 109.504C150.662 109.756 150.366 110.119 150.372 110.594C150.366 111.068 150.662 111.432 151.259 111.684C151.863 111.93 152.721 112.053 153.834 112.053C154.936 112.053 155.78 111.93 156.366 111.684C156.952 111.432 157.245 111.068 157.245 110.594C157.245 110.119 156.949 109.756 156.357 109.504C155.771 109.246 154.93 109.117 153.834 109.117ZM168.548 97.9199C169.755 97.9199 170.783 98.0254 171.633 98.2363C172.488 98.4473 173.142 98.7578 173.593 99.168C174.044 99.5723 174.273 100.064 174.279 100.645C174.273 101.523 173.772 102.197 172.776 102.666C171.779 103.135 170.37 103.375 168.548 103.387C166.72 103.375 165.308 103.135 164.312 102.666C163.316 102.197 162.818 101.523 162.818 100.645C162.818 100.064 163.043 99.5723 163.494 99.168C163.946 98.7578 164.599 98.4473 165.454 98.2363C166.31 98.0254 167.341 97.9199 168.548 97.9199ZM168.548 99.3613C167.341 99.3613 166.424 99.4727 165.797 99.6953C165.17 99.9121 164.863 100.229 164.874 100.645C164.868 101.078 165.173 101.4 165.788 101.611C166.404 101.822 167.323 101.928 168.548 101.928C169.79 101.928 170.719 101.822 171.334 101.611C171.949 101.4 172.257 101.078 172.257 100.645C172.257 100.229 171.944 99.9121 171.317 99.6953C170.69 99.4727 169.767 99.3613 168.548 99.3613ZM175.808 105.795H161.323V104.23H175.808V105.795ZM173.997 110.752H164.962V111.93H174.437V113.424H163.046V109.363H172.081V108.309H163.029V106.867H173.997V110.752ZM185.389 101.488C185.383 102.438 185.533 103.369 185.838 104.283C186.148 105.191 186.596 106.006 187.182 106.727C187.768 107.447 188.46 107.998 189.256 108.379L188.061 109.943C187.217 109.516 186.485 108.906 185.864 108.115C185.249 107.324 184.768 106.41 184.423 105.373C184.065 106.48 183.561 107.459 182.911 108.309C182.266 109.152 181.499 109.797 180.608 110.242L179.413 108.678C180.239 108.285 180.954 107.714 181.557 106.964C182.167 106.208 182.63 105.355 182.946 104.406C183.268 103.451 183.432 102.479 183.438 101.488V98.957H185.389V101.488ZM192.157 103.896H194.6V105.566H192.157V113.564H190.206V97.6738H192.157V103.896ZM209.033 106.885H194.548V105.32H197.923V103.308C197.32 103.05 196.854 102.722 196.526 102.323C196.203 101.925 196.042 101.471 196.042 100.961C196.042 100.334 196.274 99.7949 196.737 99.3438C197.205 98.8867 197.87 98.5381 198.732 98.2979C199.599 98.0576 200.613 97.9375 201.773 97.9375C202.933 97.9375 203.944 98.0576 204.805 98.2979C205.666 98.5381 206.328 98.8867 206.791 99.3438C207.26 99.7949 207.497 100.334 207.503 100.961C207.497 101.477 207.33 101.934 207.002 102.332C206.68 102.73 206.214 103.056 205.605 103.308V105.32H209.033V106.885ZM201.773 107.852C202.915 107.846 203.897 107.954 204.717 108.177C205.537 108.394 206.167 108.716 206.607 109.144C207.046 109.565 207.269 110.078 207.275 110.682C207.269 111.291 207.046 111.807 206.607 112.229C206.167 112.656 205.537 112.979 204.717 113.195C203.897 113.418 202.915 113.529 201.773 113.529C200.619 113.529 199.625 113.418 198.793 113.195C197.967 112.979 197.334 112.656 196.895 112.229C196.455 111.807 196.236 111.291 196.236 110.682C196.236 110.078 196.455 109.565 196.895 109.144C197.334 108.716 197.967 108.394 198.793 108.177C199.625 107.954 200.619 107.846 201.773 107.852ZM201.773 109.328C200.607 109.328 199.722 109.442 199.119 109.671C198.515 109.899 198.216 110.236 198.222 110.682C198.216 111.127 198.515 111.467 199.119 111.701C199.728 111.936 200.613 112.053 201.773 112.053C202.91 112.053 203.783 111.936 204.392 111.701C205.007 111.467 205.318 111.127 205.324 110.682C205.318 110.236 205.01 109.899 204.401 109.671C203.791 109.442 202.915 109.328 201.773 109.328ZM201.773 99.4492C200.589 99.4492 199.675 99.5811 199.031 99.8447C198.392 100.103 198.076 100.475 198.081 100.961C198.076 101.441 198.392 101.808 199.031 102.06C199.669 102.312 200.583 102.438 201.773 102.438C202.951 102.438 203.862 102.312 204.506 102.06C205.157 101.808 205.482 101.441 205.482 100.961C205.482 100.475 205.157 100.103 204.506 99.8447C203.862 99.5811 202.951 99.4492 201.773 99.4492ZM203.654 105.32V103.809C203.062 103.891 202.435 103.932 201.773 103.932C201.111 103.932 200.484 103.891 199.892 103.809V105.32H203.654ZM211.318 112.141C211.072 112.141 210.844 112.079 210.633 111.956C210.422 111.833 210.255 111.666 210.132 111.455C210.009 111.244 209.947 111.016 209.947 110.77C209.947 110.529 210.009 110.307 210.132 110.102C210.255 109.891 210.422 109.724 210.633 109.601C210.844 109.478 211.072 109.416 211.318 109.416C211.553 109.416 211.773 109.478 211.978 109.601C212.189 109.724 212.356 109.891 212.479 110.102C212.607 110.307 212.672 110.529 212.672 110.77C212.672 111.016 212.607 111.244 212.479 111.455C212.356 111.666 212.189 111.833 211.978 111.956C211.773 112.079 211.553 112.141 211.318 112.141ZM48.0605 123.332H50.2754V124.949H48.0605V130.293H46.1094V118.674H48.0605V123.332ZM48.6934 134.248H37.8828V129.08H39.834V132.666H48.6934V134.248ZM39.9922 119.729C40.7891 119.729 41.5127 119.901 42.1631 120.247C42.8135 120.587 43.3262 121.062 43.7012 121.671C44.082 122.28 44.2754 122.969 44.2812 123.736C44.2754 124.492 44.082 125.175 43.7012 125.784C43.3262 126.388 42.8105 126.862 42.1543 127.208C41.5039 127.554 40.7832 127.727 39.9922 127.727C39.1953 127.727 38.4688 127.554 37.8125 127.208C37.1562 126.862 36.6377 126.388 36.2568 125.784C35.8818 125.175 35.6973 124.492 35.7031 123.736C35.6973 122.975 35.8818 122.289 36.2568 121.68C36.6377 121.064 37.1562 120.587 37.8125 120.247C38.4688 119.901 39.1953 119.729 39.9922 119.729ZM39.9922 121.434C39.5469 121.434 39.1426 121.53 38.7793 121.724C38.416 121.911 38.1289 122.181 37.918 122.532C37.7129 122.878 37.6133 123.279 37.6191 123.736C37.6133 124.182 37.7129 124.577 37.918 124.923C38.1289 125.269 38.416 125.535 38.7793 125.723C39.1426 125.91 39.5469 126.004 39.9922 126.004C40.4375 126.004 40.8389 125.91 41.1963 125.723C41.5596 125.535 41.8438 125.269 42.0488 124.923C42.2598 124.577 42.3652 124.182 42.3652 123.736C42.3652 123.279 42.2598 122.878 42.0488 122.532C41.8438 122.181 41.5596 121.911 41.1963 121.724C40.8389 121.53 40.4375 121.434 39.9922 121.434ZM63.6706 128.113H61.7195V124.229H59.0124V122.629H61.7195V118.674H63.6706V128.113ZM58.2917 128.518C59.4109 128.518 60.3777 128.638 61.1921 128.878C62.0124 129.112 62.6394 129.458 63.073 129.915C63.5066 130.366 63.7234 130.908 63.7234 131.541C63.7234 132.174 63.5066 132.716 63.073 133.167C62.6394 133.624 62.0124 133.97 61.1921 134.204C60.3777 134.444 59.4109 134.564 58.2917 134.564C57.1784 134.564 56.2146 134.444 55.4001 134.204C54.5857 133.97 53.9616 133.624 53.528 133.167C53.1003 132.716 52.8894 132.174 52.8952 131.541C52.8894 130.908 53.1003 130.366 53.528 129.915C53.9616 129.458 54.5857 129.112 55.4001 128.878C56.2146 128.638 57.1784 128.518 58.2917 128.518ZM58.2917 130.012C57.1784 130.012 56.323 130.144 55.7253 130.407C55.1277 130.665 54.8288 131.043 54.8288 131.541C54.8288 132.033 55.1277 132.408 55.7253 132.666C56.323 132.924 57.1784 133.053 58.2917 133.053C59.405 133.053 60.2634 132.924 60.8669 132.666C61.4704 132.408 61.7722 132.033 61.7722 131.541C61.7722 131.043 61.4704 130.665 60.8669 130.407C60.2634 130.144 59.405 130.012 58.2917 130.012ZM56.1999 121.398C56.1999 122.055 56.3435 122.693 56.6306 123.314C56.9177 123.93 57.3425 124.483 57.905 124.976C58.4675 125.462 59.1472 125.84 59.9441 126.109L58.9597 127.656C58.0984 127.363 57.3513 126.933 56.7185 126.364C56.0915 125.79 55.5993 125.122 55.2419 124.36C54.8845 125.222 54.3747 125.975 53.7126 126.619C53.0505 127.258 52.2566 127.744 51.3308 128.078L50.3112 126.531C51.1374 126.25 51.8435 125.843 52.4294 125.31C53.0154 124.771 53.4577 124.164 53.7566 123.49C54.0612 122.816 54.2136 122.125 54.2136 121.416V121.293H50.9089V119.711H59.487V121.293H56.1999V121.398ZM77.7338 122.295H79.9487V123.895H77.7338V127.604H75.7827V118.674H77.7338V122.295ZM73.3217 119.641C73.3159 121.006 73.02 122.233 72.434 123.323C71.8539 124.413 71.0073 125.345 69.894 126.118C68.7866 126.886 67.4389 127.48 65.851 127.902L65.0776 126.338C66.894 125.869 68.3237 125.192 69.3666 124.308C70.4096 123.417 71.019 122.389 71.1948 121.223H65.8334V119.641H73.3217ZM77.7338 134.354H67.4506V128.236H77.7338V134.354ZM69.4018 132.807H75.8002V129.836H69.4018V132.807ZM87.2619 118.92C88.4689 118.92 89.4972 119.025 90.3468 119.236C91.2023 119.447 91.8556 119.758 92.3068 120.168C92.758 120.572 92.9865 121.064 92.9923 121.645C92.9865 122.523 92.4855 123.197 91.4894 123.666C90.4933 124.135 89.0841 124.375 87.2619 124.387C85.4338 124.375 84.0216 124.135 83.0255 123.666C82.0295 123.197 81.5314 122.523 81.5314 121.645C81.5314 121.064 81.757 120.572 82.2082 120.168C82.6593 119.758 83.3127 119.447 84.1681 119.236C85.0236 119.025 86.0548 118.92 87.2619 118.92ZM87.2619 120.361C86.0548 120.361 85.1379 120.473 84.5109 120.695C83.8839 120.912 83.5763 121.229 83.588 121.645C83.5822 122.078 83.8869 122.4 84.5021 122.611C85.1173 122.822 86.0373 122.928 87.2619 122.928C88.5041 122.928 89.4328 122.822 90.048 122.611C90.6632 122.4 90.9709 122.078 90.9709 121.645C90.9709 121.229 90.6574 120.912 90.0304 120.695C89.4035 120.473 88.4806 120.361 87.2619 120.361ZM94.5216 126.795H80.0373V125.23H94.5216V126.795ZM92.7111 131.752H83.6759V132.93H93.1505V134.424H81.7599V130.363H90.7951V129.309H81.7423V127.867H92.7111V131.752ZM103.611 119.377C104.408 119.371 105.123 119.509 105.755 119.79C106.388 120.071 106.883 120.467 107.241 120.977C107.598 121.486 107.777 122.066 107.777 122.717C107.777 123.355 107.598 123.93 107.241 124.439C106.883 124.949 106.385 125.345 105.747 125.626C105.114 125.907 104.402 126.045 103.611 126.039C102.826 126.045 102.117 125.907 101.484 125.626C100.857 125.345 100.365 124.952 100.007 124.448C99.6559 123.938 99.4801 123.361 99.4801 122.717C99.4801 122.066 99.6559 121.486 100.007 120.977C100.365 120.467 100.857 120.071 101.484 119.79C102.111 119.509 102.82 119.371 103.611 119.377ZM103.611 120.959C103.177 120.953 102.791 121.023 102.451 121.17C102.111 121.311 101.844 121.516 101.651 121.785C101.463 122.049 101.373 122.359 101.379 122.717C101.373 123.068 101.463 123.376 101.651 123.64C101.844 123.897 102.111 124.097 102.451 124.237C102.791 124.372 103.177 124.439 103.611 124.439C104.062 124.439 104.461 124.372 104.806 124.237C105.158 124.097 105.43 123.897 105.624 123.64C105.817 123.376 105.914 123.068 105.914 122.717C105.914 122.359 105.817 122.049 105.624 121.785C105.43 121.516 105.158 121.311 104.806 121.17C104.461 121.023 104.062 120.953 103.611 120.959ZM111.714 134.547H109.781V118.691H111.714V134.547ZM98.443 127.129C100.341 127.129 102.152 127.094 103.875 127.023C105.597 126.947 107.22 126.795 108.744 126.566L108.884 128.008C107.63 128.248 106.236 128.427 104.701 128.544V134.072H102.732V128.658C101.654 128.705 100.523 128.729 99.3395 128.729C99.1988 128.74 98.982 128.746 98.6891 128.746L98.443 127.129ZM121.014 122.77H113.227V121.205H116.18V119.131H118.114V121.205H121.014V122.77ZM117.147 123.613C117.815 123.613 118.409 123.771 118.931 124.088C119.458 124.398 119.868 124.835 120.161 125.397C120.46 125.96 120.61 126.596 120.61 127.305C120.61 128.025 120.46 128.67 120.161 129.238C119.868 129.807 119.458 130.252 118.931 130.574C118.409 130.891 117.815 131.049 117.147 131.049C116.485 131.049 115.89 130.891 115.363 130.574C114.835 130.252 114.422 129.807 114.123 129.238C113.825 128.67 113.678 128.025 113.684 127.305C113.678 126.596 113.825 125.96 114.123 125.397C114.422 124.835 114.835 124.398 115.363 124.088C115.89 123.771 116.485 123.613 117.147 123.613ZM117.147 125.23C116.801 125.23 116.496 125.318 116.233 125.494C115.969 125.664 115.764 125.907 115.618 126.224C115.471 126.534 115.401 126.895 115.407 127.305C115.401 127.727 115.471 128.096 115.618 128.412C115.764 128.729 115.969 128.972 116.233 129.142C116.496 129.306 116.801 129.385 117.147 129.379C117.487 129.385 117.788 129.306 118.052 129.142C118.316 128.972 118.521 128.729 118.667 128.412C118.814 128.096 118.887 127.727 118.887 127.305C118.887 126.895 118.814 126.534 118.667 126.224C118.521 125.907 118.316 125.664 118.052 125.494C117.788 125.318 117.487 125.23 117.147 125.23ZM126.92 134.564H125.057V126.795H123.51V133.844H121.682V119.008H123.51V125.213H125.057V118.674H126.92V134.564ZM134.129 121.557H137.838V119.447H139.771V126.514H132.195V119.447H134.129V121.557ZM137.838 124.967V123.016H134.129V124.967H137.838ZM144.183 121.961H146.398V123.578H144.183V127.129H142.232V118.674H144.183V121.961ZM138.453 131.752H135.095V132.93C136.25 132.924 137.126 132.9 137.723 132.859C138.321 132.818 138.904 132.73 139.472 132.596L139.666 134.055C138.98 134.189 138.271 134.277 137.539 134.318C136.812 134.365 135.699 134.389 134.199 134.389H133.179V130.381H136.554V129.326H133.144V127.85H138.453V131.752ZM144.183 134.477H142.25V129.396H139.138V127.85H144.183V134.477ZM160.971 128.447H146.487V126.883H160.971V128.447ZM159.336 134.248H148.28V129.625H150.231V132.666H159.336V134.248ZM153.711 119.184C154.86 119.184 155.865 119.312 156.726 119.57C157.587 119.828 158.252 120.2 158.721 120.687C159.196 121.167 159.436 121.738 159.442 122.4C159.436 123.068 159.196 123.648 158.721 124.141C158.252 124.627 157.587 125.002 156.726 125.266C155.865 125.523 154.86 125.652 153.711 125.652C152.563 125.652 151.555 125.523 150.688 125.266C149.827 125.002 149.159 124.627 148.684 124.141C148.215 123.648 147.981 123.068 147.981 122.4C147.981 121.738 148.215 121.167 148.684 120.687C149.159 120.2 149.827 119.828 150.688 119.57C151.555 119.312 152.563 119.184 153.711 119.184ZM153.711 120.748C152.551 120.748 151.643 120.895 150.987 121.188C150.336 121.475 150.014 121.879 150.02 122.4C150.014 122.752 150.158 123.054 150.451 123.306C150.749 123.558 151.174 123.748 151.725 123.877C152.282 124 152.944 124.059 153.711 124.053C154.877 124.064 155.786 123.927 156.436 123.64C157.092 123.347 157.42 122.934 157.42 122.4C157.42 121.873 157.092 121.466 156.436 121.179C155.786 120.892 154.877 120.748 153.711 120.748ZM178.111 134.564H176.16V118.674H178.111V134.564ZM165.648 130.152C166.205 130.146 166.806 130.141 167.45 130.135C168.095 130.123 168.66 130.111 169.146 130.1V128.641C168.549 128.547 168.027 128.368 167.582 128.104C167.143 127.841 166.8 127.51 166.554 127.111C166.313 126.707 166.193 126.256 166.193 125.758C166.193 125.166 166.357 124.645 166.685 124.193C167.014 123.742 167.471 123.394 168.057 123.147C168.648 122.896 169.328 122.77 170.096 122.77C170.869 122.77 171.555 122.896 172.152 123.147C172.75 123.394 173.216 123.742 173.55 124.193C173.884 124.645 174.051 125.166 174.051 125.758C174.051 126.25 173.928 126.695 173.682 127.094C173.441 127.492 173.099 127.826 172.653 128.096C172.208 128.359 171.689 128.538 171.098 128.632V130.029C172.574 129.965 173.951 129.848 175.228 129.678L175.369 131.137C173.816 131.4 172.223 131.573 170.588 131.655C168.953 131.731 167.166 131.77 165.226 131.77L164.945 130.152H165.648ZM174.947 122.049H165.279V120.502H169.146V118.727H171.098V120.502H174.947V122.049ZM170.096 124.264C169.48 124.275 168.985 124.413 168.61 124.677C168.235 124.94 168.051 125.301 168.057 125.758C168.051 126.057 168.133 126.317 168.303 126.54C168.478 126.757 168.722 126.924 169.032 127.041C169.343 127.152 169.697 127.205 170.096 127.199C170.723 127.211 171.224 127.088 171.599 126.83C171.979 126.566 172.17 126.209 172.17 125.758C172.17 125.301 171.982 124.94 171.607 124.677C171.232 124.413 170.728 124.275 170.096 124.264ZM184.669 121.557C184.669 122.166 184.78 122.752 185.003 123.314C185.231 123.877 185.577 124.384 186.04 124.835C186.503 125.286 187.071 125.646 187.745 125.916L186.69 127.41C186.01 127.135 185.422 126.751 184.923 126.259C184.431 125.767 184.039 125.192 183.746 124.536C183.441 125.28 183.025 125.937 182.498 126.505C181.97 127.073 181.34 127.516 180.608 127.832L179.571 126.32C180.268 126.01 180.857 125.6 181.338 125.09C181.818 124.574 182.178 124.012 182.419 123.402C182.659 122.793 182.782 122.178 182.788 121.557V119.623H184.669V121.557ZM193.299 128.307H191.436V124.264H189.854V128.219H188.026V118.955H189.854V122.646H191.436V118.691H193.299V128.307ZM193.299 134.564H191.348V130.627H182.419V129.062H193.299V134.564ZM203.425 121.451C203.425 122.494 203.399 123.481 203.346 124.413C203.299 125.339 203.179 126.402 202.986 127.604L201.052 127.445C201.222 126.367 201.333 125.395 201.386 124.527C201.445 123.66 201.477 122.781 201.483 121.891H195.251V120.326H203.425V121.451ZM199.417 129.555C201.222 129.484 202.822 129.361 204.216 129.186L204.322 130.645C201.872 131.031 198.872 131.225 195.322 131.225H194.601L194.408 129.66C195.779 129.648 196.804 129.634 197.484 129.616V124.861H199.417V129.555ZM207.011 125.143H209.314V126.795H207.011V134.564H205.042V118.674H207.011V125.143ZM225.382 125.002H227.825V126.619H225.382V134.564H223.448V118.674H225.382V125.002ZM222.218 122.682H212.848V121.117H216.61V118.902H218.561V121.117H222.218V122.682ZM217.595 123.719C218.35 123.719 219.03 123.88 219.634 124.202C220.243 124.519 220.721 124.961 221.066 125.529C221.412 126.098 221.585 126.742 221.585 127.463C221.585 128.184 221.412 128.828 221.066 129.396C220.721 129.959 220.243 130.398 219.634 130.715C219.03 131.031 218.35 131.189 217.595 131.189C216.827 131.189 216.138 131.031 215.529 130.715C214.92 130.398 214.442 129.959 214.096 129.396C213.751 128.828 213.581 128.184 213.587 127.463C213.581 126.742 213.751 126.098 214.096 125.529C214.442 124.961 214.92 124.519 215.529 124.202C216.138 123.88 216.827 123.719 217.595 123.719ZM217.595 125.318C217.179 125.318 216.806 125.406 216.478 125.582C216.156 125.758 215.904 126.01 215.722 126.338C215.541 126.66 215.45 127.035 215.45 127.463C215.45 127.891 215.541 128.266 215.722 128.588C215.904 128.904 216.156 129.15 216.478 129.326C216.806 129.496 217.179 129.578 217.595 129.572C217.999 129.578 218.359 129.496 218.676 129.326C218.998 129.15 219.25 128.904 219.431 128.588C219.619 128.266 219.716 127.891 219.721 127.463C219.716 127.035 219.619 126.66 219.431 126.338C219.25 126.016 218.998 125.767 218.676 125.591C218.359 125.409 217.999 125.318 217.595 125.318ZM242.486 122.998H240.306V125.213H242.486V126.83H240.306V130.293H238.355V118.674H240.306V121.381H242.486V122.998ZM240.939 134.248H230.128V129.08H232.08V132.666H240.939V134.248ZM232.238 119.729C233.035 119.729 233.758 119.901 234.409 120.247C235.059 120.587 235.572 121.062 235.947 121.671C236.328 122.28 236.521 122.969 236.527 123.736C236.521 124.492 236.328 125.175 235.947 125.784C235.572 126.388 235.056 126.862 234.4 127.208C233.75 127.554 233.029 127.727 232.238 127.727C231.441 127.727 230.714 127.554 230.058 127.208C229.402 126.862 228.883 126.388 228.502 125.784C228.127 125.175 227.943 124.492 227.949 123.736C227.943 122.975 228.127 122.289 228.502 121.68C228.883 121.064 229.402 120.587 230.058 120.247C230.714 119.901 231.441 119.729 232.238 119.729ZM232.238 121.434C231.792 121.434 231.388 121.53 231.025 121.724C230.662 121.911 230.375 122.181 230.164 122.532C229.959 122.878 229.859 123.279 229.865 123.736C229.859 124.182 229.959 124.577 230.164 124.923C230.375 125.269 230.662 125.535 231.025 125.723C231.388 125.91 231.792 126.004 232.238 126.004C232.683 126.004 233.084 125.91 233.442 125.723C233.805 125.535 234.089 125.269 234.294 124.923C234.505 124.577 234.611 124.182 234.611 123.736C234.611 123.279 234.505 122.878 234.294 122.532C234.089 122.181 233.805 121.911 233.442 121.724C233.084 121.53 232.683 121.434 232.238 121.434ZM247.567 121.557C247.567 122.166 247.678 122.752 247.901 123.314C248.129 123.877 248.475 124.384 248.938 124.835C249.401 125.286 249.969 125.646 250.643 125.916L249.588 127.41C248.908 127.135 248.32 126.751 247.822 126.259C247.329 125.767 246.937 125.192 246.644 124.536C246.339 125.28 245.923 125.937 245.396 126.505C244.868 127.073 244.239 127.516 243.506 127.832L242.469 126.32C243.166 126.01 243.755 125.6 244.236 125.09C244.716 124.574 245.076 124.012 245.317 123.402C245.557 122.793 245.68 122.178 245.686 121.557V119.623H247.567V121.557ZM256.197 128.307H254.334V124.264H252.752V128.219H250.924V118.955H252.752V122.646H254.334V118.691H256.197V128.307ZM256.197 134.564H254.246V130.627H245.317V129.062H256.197V134.564ZM264.671 118.92C265.878 118.92 266.906 119.025 267.756 119.236C268.611 119.447 269.265 119.758 269.716 120.168C270.167 120.572 270.395 121.064 270.401 121.645C270.395 122.523 269.894 123.197 268.898 123.666C267.902 124.135 266.493 124.375 264.671 124.387C262.843 124.375 261.431 124.135 260.435 123.666C259.438 123.197 258.94 122.523 258.94 121.645C258.94 121.064 259.166 120.572 259.617 120.168C260.068 119.758 260.722 119.447 261.577 119.236C262.433 119.025 263.464 118.92 264.671 118.92ZM264.671 120.361C263.464 120.361 262.547 120.473 261.92 120.695C261.293 120.912 260.985 121.229 260.997 121.645C260.991 122.078 261.296 122.4 261.911 122.611C262.526 122.822 263.446 122.928 264.671 122.928C265.913 122.928 266.842 122.822 267.457 122.611C268.072 122.4 268.38 122.078 268.38 121.645C268.38 121.229 268.066 120.912 267.439 120.695C266.812 120.473 265.89 120.361 264.671 120.361ZM271.931 126.795H257.446V125.23H271.931V126.795ZM270.12 131.752H261.085V132.93H270.56V134.424H259.169V130.363H268.204V129.309H259.151V127.867H270.12V131.752ZM281.512 122.488C281.506 123.438 281.656 124.369 281.96 125.283C282.271 126.191 282.719 127.006 283.305 127.727C283.891 128.447 284.582 128.998 285.379 129.379L284.184 130.943C283.34 130.516 282.608 129.906 281.987 129.115C281.371 128.324 280.891 127.41 280.545 126.373C280.188 127.48 279.684 128.459 279.034 129.309C278.389 130.152 277.621 130.797 276.731 131.242L275.536 129.678C276.362 129.285 277.077 128.714 277.68 127.964C278.289 127.208 278.752 126.355 279.069 125.406C279.391 124.451 279.555 123.479 279.561 122.488V119.957H281.512V122.488ZM288.28 124.896H290.723V126.566H288.28V134.564H286.329V118.674H288.28V124.896ZM305.155 127.885H290.671V126.32H294.046V124.308C293.443 124.05 292.977 123.722 292.649 123.323C292.326 122.925 292.165 122.471 292.165 121.961C292.165 121.334 292.397 120.795 292.859 120.344C293.328 119.887 293.993 119.538 294.855 119.298C295.722 119.058 296.735 118.938 297.896 118.938C299.056 118.938 300.067 119.058 300.928 119.298C301.789 119.538 302.451 119.887 302.914 120.344C303.383 120.795 303.62 121.334 303.626 121.961C303.62 122.477 303.453 122.934 303.125 123.332C302.803 123.73 302.337 124.056 301.728 124.308V126.32H305.155V127.885ZM297.896 128.852C299.038 128.846 300.02 128.954 300.84 129.177C301.66 129.394 302.29 129.716 302.73 130.144C303.169 130.565 303.392 131.078 303.398 131.682C303.392 132.291 303.169 132.807 302.73 133.229C302.29 133.656 301.66 133.979 300.84 134.195C300.02 134.418 299.038 134.529 297.896 134.529C296.741 134.529 295.748 134.418 294.916 134.195C294.09 133.979 293.457 133.656 293.018 133.229C292.578 132.807 292.359 132.291 292.359 131.682C292.359 131.078 292.578 130.565 293.018 130.144C293.457 129.716 294.09 129.394 294.916 129.177C295.748 128.954 296.741 128.846 297.896 128.852ZM297.896 130.328C296.73 130.328 295.845 130.442 295.241 130.671C294.638 130.899 294.339 131.236 294.345 131.682C294.339 132.127 294.638 132.467 295.241 132.701C295.851 132.936 296.735 133.053 297.896 133.053C299.032 133.053 299.905 132.936 300.515 132.701C301.13 132.467 301.441 132.127 301.446 131.682C301.441 131.236 301.133 130.899 300.524 130.671C299.914 130.442 299.038 130.328 297.896 130.328ZM297.896 120.449C296.712 120.449 295.798 120.581 295.153 120.845C294.515 121.103 294.198 121.475 294.204 121.961C294.198 122.441 294.515 122.808 295.153 123.06C295.792 123.312 296.706 123.438 297.896 123.438C299.073 123.438 299.984 123.312 300.629 123.06C301.279 122.808 301.605 122.441 301.605 121.961C301.605 121.475 301.279 121.103 300.629 120.845C299.984 120.581 299.073 120.449 297.896 120.449ZM299.776 126.32V124.809C299.185 124.891 298.558 124.932 297.896 124.932C297.234 124.932 296.607 124.891 296.015 124.809V126.32H299.776ZM313.26 122.77H305.473V121.205H308.426V119.131H310.359V121.205H313.26V122.77ZM309.392 123.613C310.06 123.613 310.655 123.771 311.177 124.088C311.704 124.398 312.114 124.835 312.407 125.397C312.706 125.96 312.855 126.596 312.855 127.305C312.855 128.025 312.706 128.67 312.407 129.238C312.114 129.807 311.704 130.252 311.177 130.574C310.655 130.891 310.06 131.049 309.392 131.049C308.73 131.049 308.136 130.891 307.608 130.574C307.081 130.252 306.668 129.807 306.369 129.238C306.07 128.67 305.924 128.025 305.93 127.305C305.924 126.596 306.07 125.96 306.369 125.397C306.668 124.835 307.081 124.398 307.608 124.088C308.136 123.771 308.73 123.613 309.392 123.613ZM309.392 125.23C309.047 125.23 308.742 125.318 308.478 125.494C308.215 125.664 308.01 125.907 307.863 126.224C307.717 126.534 307.646 126.895 307.652 127.305C307.646 127.727 307.717 128.096 307.863 128.412C308.01 128.729 308.215 128.972 308.478 129.142C308.742 129.306 309.047 129.385 309.392 129.379C309.732 129.385 310.034 129.306 310.298 129.142C310.561 128.972 310.766 128.729 310.913 128.412C311.059 128.096 311.133 127.727 311.133 127.305C311.133 126.895 311.059 126.534 310.913 126.224C310.766 125.907 310.561 125.664 310.298 125.494C310.034 125.318 309.732 125.23 309.392 125.23ZM319.166 134.564H317.303V126.795H315.756V133.844H313.928V119.008H315.756V125.213H317.303V118.674H319.166V134.564ZM336.341 124.879H338.697V126.514H336.341V134.529H334.39V118.674H336.341V124.879ZM332.14 120.326C332.14 125.541 329.732 129.332 324.915 131.699L323.808 130.188C325.741 129.227 327.233 128.063 328.282 126.698C329.336 125.333 329.963 123.748 330.162 121.943H324.669V120.326H332.14ZM353.217 128.008H338.732V126.443H344.99V124.861H340.508V119.324H351.477V120.871H342.459V123.279H351.617V124.861H346.941V126.443H353.217V128.008ZM351.477 134.617H349.543V130.82H340.332V129.256H351.477V134.617ZM359.387 120.959C359.382 121.691 359.519 122.383 359.801 123.033C360.082 123.684 360.504 124.258 361.066 124.756C361.634 125.248 362.323 125.623 363.132 125.881L362.077 127.41C361.221 127.111 360.489 126.684 359.88 126.127C359.276 125.57 358.801 124.908 358.456 124.141C358.098 125.025 357.586 125.793 356.918 126.443C356.25 127.088 355.444 127.574 354.501 127.902L353.464 126.32C354.319 126.039 355.043 125.632 355.634 125.099C356.226 124.565 356.672 123.95 356.97 123.253C357.269 122.556 357.419 121.82 357.419 121.047V119.535H359.387V120.959ZM366.876 128.025H364.925V123.35H361.76V121.75H364.925V118.674H366.876V128.025ZM361.497 128.447C362.616 128.447 363.583 128.567 364.397 128.808C365.217 129.048 365.844 129.399 366.278 129.862C366.712 130.319 366.928 130.867 366.928 131.506C366.928 132.145 366.712 132.692 366.278 133.149C365.844 133.606 365.22 133.952 364.406 134.187C363.592 134.427 362.622 134.547 361.497 134.547C360.378 134.547 359.411 134.427 358.596 134.187C357.788 133.952 357.167 133.606 356.733 133.149C356.305 132.692 356.094 132.145 356.1 131.506C356.094 130.867 356.305 130.319 356.733 129.862C357.167 129.399 357.791 129.048 358.605 128.808C359.42 128.567 360.384 128.447 361.497 128.447ZM361.497 129.959C360.384 129.959 359.528 130.094 358.93 130.363C358.333 130.627 358.034 131.008 358.034 131.506C358.034 131.992 358.333 132.367 358.93 132.631C359.534 132.889 360.389 133.018 361.497 133.018C362.604 133.018 363.46 132.886 364.063 132.622C364.673 132.358 364.977 131.986 364.977 131.506C364.977 131.008 364.676 130.627 364.072 130.363C363.468 130.094 362.61 129.959 361.497 129.959ZM375.63 118.92C376.837 118.92 377.866 119.025 378.715 119.236C379.571 119.447 380.224 119.758 380.675 120.168C381.126 120.572 381.355 121.064 381.361 121.645C381.355 122.523 380.854 123.197 379.858 123.666C378.862 124.135 377.453 124.375 375.63 124.387C373.802 124.375 372.39 124.135 371.394 123.666C370.398 123.197 369.9 122.523 369.9 121.645C369.9 121.064 370.125 120.572 370.577 120.168C371.028 119.758 371.681 119.447 372.537 119.236C373.392 119.025 374.423 118.92 375.63 118.92ZM375.63 120.361C374.423 120.361 373.506 120.473 372.879 120.695C372.252 120.912 371.945 121.229 371.956 121.645C371.951 122.078 372.255 122.4 372.871 122.611C373.486 122.822 374.406 122.928 375.63 122.928C376.872 122.928 377.801 122.822 378.416 122.611C379.032 122.4 379.339 122.078 379.339 121.645C379.339 121.229 379.026 120.912 378.399 120.695C377.772 120.473 376.849 120.361 375.63 120.361ZM382.89 126.795H368.406V125.23H382.89V126.795ZM381.08 131.752H372.044V132.93H381.519V134.424H370.128V130.363H379.164V129.309H370.111V127.867H381.08V131.752ZM399.538 120.52C399.538 121.357 399.517 122.128 399.476 122.831C399.441 123.534 399.348 124.328 399.195 125.213H401.313V126.795H386.794V125.213H397.226C397.367 124.41 397.461 123.678 397.508 123.016C397.555 122.354 397.581 121.668 397.587 120.959H388.587V119.395H399.538V120.52ZM399.608 134.582H397.657V130.363H388.323V128.816H399.608V134.582ZM415.306 134.564H413.443V126.461H411.65V133.756H409.857V118.973H411.65V124.896H413.443V118.674H415.306V134.564ZM408.064 122.137H404.091V129.203C405.017 129.191 405.852 129.156 406.596 129.098C407.34 129.039 408.093 128.939 408.855 128.799L408.996 130.398C408.117 130.574 407.25 130.691 406.394 130.75C405.539 130.809 404.472 130.844 403.195 130.855H402.123V120.555H408.064V122.137ZM429.035 125.23H431.268V126.865H429.035V134.564H427.067V118.674H429.035V125.23ZM416.274 130.152C418.008 130.152 419.362 130.141 420.334 130.117V128.632C419.76 128.532 419.256 128.351 418.823 128.087C418.395 127.823 418.064 127.492 417.829 127.094C417.595 126.689 417.481 126.244 417.487 125.758C417.481 125.166 417.639 124.645 417.961 124.193C418.284 123.742 418.738 123.394 419.324 123.147C419.909 122.896 420.58 122.77 421.336 122.77C422.08 122.77 422.742 122.896 423.323 123.147C423.909 123.394 424.366 123.742 424.694 124.193C425.028 124.645 425.198 125.166 425.203 125.758C425.198 126.25 425.075 126.695 424.834 127.094C424.594 127.492 424.254 127.826 423.815 128.096C423.381 128.359 422.877 128.538 422.303 128.632V130.047C423.821 129.965 425.127 129.848 426.223 129.695L426.346 131.119C424.834 131.389 423.287 131.564 421.705 131.646C420.123 131.729 418.407 131.77 416.555 131.77L416.274 130.152ZM426.047 122.049H416.573V120.502H420.334V118.744H422.303V120.502H426.047V122.049ZM421.336 124.264C420.721 124.275 420.232 124.413 419.868 124.677C419.511 124.935 419.332 125.295 419.332 125.758C419.332 126.215 419.514 126.572 419.877 126.83C420.241 127.088 420.727 127.211 421.336 127.199C421.94 127.211 422.42 127.088 422.778 126.83C423.141 126.566 423.323 126.209 423.323 125.758C423.323 125.301 423.141 124.94 422.778 124.677C422.42 124.413 421.94 124.275 421.336 124.264ZM433.237 133.141C432.991 133.141 432.763 133.079 432.552 132.956C432.341 132.833 432.174 132.666 432.051 132.455C431.928 132.244 431.866 132.016 431.866 131.77C431.866 131.529 431.928 131.307 432.051 131.102C432.174 130.891 432.341 130.724 432.552 130.601C432.763 130.478 432.991 130.416 433.237 130.416C433.472 130.416 433.691 130.478 433.897 130.601C434.107 130.724 434.274 130.891 434.397 131.102C434.526 131.307 434.591 131.529 434.591 131.77C434.591 132.016 434.526 132.244 434.397 132.455C434.274 132.666 434.107 132.833 433.897 132.956C433.691 133.079 433.472 133.141 433.237 133.141Z" fill="#686868"/>
<path d="M39.4336 200.859L43.6328 211.133H43.8086L48.0078 200.859H51.1328V215H48.6914V205.273H48.5547L44.6289 214.961H42.8125L38.8867 205.234H38.7695V215H36.3086V200.859H39.4336ZM52.3445 212.012C52.3445 210.918 52.7124 210.13 53.448 209.648C54.1902 209.16 55.1375 208.88 56.2898 208.809C57.4161 208.73 58.3211 208.678 59.0047 208.652V207.812C59.0047 207.285 58.8387 206.878 58.5066 206.592C58.1746 206.299 57.7026 206.152 57.0906 206.152C56.5503 206.152 56.1076 206.266 55.7625 206.494C55.4174 206.722 55.1961 207.031 55.0984 207.422H52.6961C52.7547 206.816 52.9695 206.276 53.3406 205.801C53.7117 205.319 54.2228 204.941 54.8738 204.668C55.5249 204.395 56.2833 204.258 57.1492 204.258C57.8914 204.258 58.588 204.375 59.2391 204.609C59.8966 204.837 60.4337 205.225 60.8504 205.771C61.2736 206.312 61.4852 207.025 61.4852 207.91V215H59.1023V213.535H59.0242C58.7638 214.03 58.3732 214.434 57.8523 214.746C57.3315 215.059 56.6805 215.215 55.8992 215.215C55.2156 215.215 54.6036 215.091 54.0633 214.844C53.5294 214.596 53.1095 214.232 52.8035 213.75C52.4975 213.268 52.3445 212.689 52.3445 212.012ZM54.7469 211.992C54.7469 212.441 54.9096 212.786 55.2352 213.027C55.5607 213.262 55.9969 213.379 56.5438 213.379C57.032 213.379 57.465 213.281 57.8426 213.086C58.2202 212.891 58.5099 212.627 58.7117 212.295C58.9201 211.956 59.0242 211.589 59.0242 211.191L59.0145 210.322L56.6805 210.469C56.0685 210.521 55.5932 210.674 55.2547 210.928C54.9161 211.182 54.7469 211.536 54.7469 211.992ZM63.0289 204.395H65.5289V215H63.0289V204.395ZM64.2984 202.891C64.0445 202.891 63.8036 202.832 63.5758 202.715C63.3544 202.591 63.1786 202.425 63.0484 202.217C62.9182 202.002 62.8531 201.771 62.8531 201.523C62.8531 201.283 62.9182 201.058 63.0484 200.85C63.1786 200.641 63.3544 200.479 63.5758 200.361C63.8036 200.238 64.0445 200.176 64.2984 200.176C64.5589 200.176 64.7997 200.238 65.0211 200.361C65.2424 200.479 65.4182 200.641 65.5484 200.85C65.6786 201.058 65.7437 201.283 65.7437 201.523C65.7437 201.771 65.6786 202.002 65.5484 202.217C65.4182 202.425 65.2424 202.591 65.0211 202.715C64.7997 202.832 64.5589 202.891 64.2984 202.891ZM69.6117 215H67.1117V204.395H69.4945V206.191H69.6313C69.8786 205.579 70.2693 205.104 70.8031 204.766C71.3435 204.427 72.001 204.258 72.7758 204.258C73.5115 204.258 74.1527 204.414 74.6996 204.727C75.253 205.039 75.6762 205.495 75.9691 206.094C76.2686 206.693 76.4151 207.409 76.4086 208.242V215H73.9281V208.633C73.9281 207.917 73.7458 207.36 73.3813 206.963C73.0167 206.566 72.5089 206.367 71.8578 206.367C71.4151 206.367 71.0245 206.465 70.6859 206.66C70.3474 206.849 70.0837 207.126 69.8949 207.49C69.7061 207.848 69.6117 208.281 69.6117 208.789V215ZM91.5859 205.625C91.4883 205.072 91.2832 204.593 90.9707 204.189C90.6582 203.786 90.2611 203.48 89.7793 203.271C89.304 203.057 88.7799 202.949 88.207 202.949C87.4258 202.949 86.7389 203.145 86.1465 203.535C85.554 203.919 85.0918 204.486 84.7598 205.234C84.4277 205.983 84.2617 206.882 84.2617 207.93C84.2617 208.984 84.4277 209.886 84.7598 210.635C85.0918 211.383 85.554 211.95 86.1465 212.334C86.7454 212.718 87.4323 212.91 88.207 212.91C88.7669 212.91 89.2812 212.809 89.75 212.607C90.2253 212.399 90.6224 212.1 90.9414 211.709C91.2604 211.318 91.4753 210.853 91.5859 210.312H94.1445C94.0143 211.224 93.6855 212.051 93.1582 212.793C92.6374 213.535 91.9473 214.121 91.0879 214.551C90.2285 214.98 89.2552 215.195 88.168 215.195C86.9245 215.195 85.8112 214.906 84.8281 214.326C83.8516 213.74 83.0866 212.9 82.5332 211.807C81.9798 210.706 81.7031 209.414 81.7031 207.93C81.7031 206.439 81.9798 205.146 82.5332 204.053C83.0931 202.959 83.8613 202.122 84.8379 201.543C85.821 200.957 86.931 200.664 88.168 200.664C89.2096 200.664 90.1569 200.863 91.0098 201.26C91.8626 201.65 92.5625 202.22 93.1094 202.969C93.6562 203.711 94.0013 204.596 94.1445 205.625H91.5859ZM100.044 215.215C99.0281 215.215 98.1362 214.987 97.368 214.531C96.5997 214.076 96.0073 213.438 95.5906 212.617C95.174 211.79 94.9656 210.833 94.9656 209.746C94.9656 208.652 95.174 207.692 95.5906 206.865C96.0073 206.038 96.5997 205.397 97.368 204.941C98.1362 204.486 99.0281 204.258 100.044 204.258C101.066 204.258 101.961 204.486 102.729 204.941C103.498 205.397 104.087 206.038 104.497 206.865C104.914 207.692 105.122 208.652 105.122 209.746C105.122 210.833 104.914 211.79 104.497 212.617C104.08 213.444 103.488 214.085 102.72 214.541C101.958 214.99 101.066 215.215 100.044 215.215ZM100.063 213.223C100.61 213.223 101.072 213.07 101.45 212.764C101.834 212.458 102.121 212.041 102.309 211.514C102.505 210.986 102.602 210.391 102.602 209.727C102.602 209.069 102.505 208.477 102.309 207.949C102.121 207.415 101.834 206.995 101.45 206.689C101.072 206.383 100.61 206.23 100.063 206.23C99.5034 206.23 99.0281 206.383 98.6375 206.689C98.2534 206.995 97.9637 207.412 97.7684 207.939C97.5796 208.467 97.4852 209.062 97.4852 209.727C97.4852 210.391 97.5796 210.986 97.7684 211.514C97.9637 212.041 98.2534 212.458 98.6375 212.764C99.0281 213.07 99.5034 213.223 100.063 213.223ZM108.755 215H106.255V200.859H108.755V215ZM114.967 215.215C113.952 215.215 113.06 214.987 112.291 214.531C111.523 214.076 110.931 213.438 110.514 212.617C110.097 211.79 109.889 210.833 109.889 209.746C109.889 208.652 110.097 207.692 110.514 206.865C110.931 206.038 111.523 205.397 112.291 204.941C113.06 204.486 113.952 204.258 114.967 204.258C115.989 204.258 116.885 204.486 117.653 204.941C118.421 205.397 119.01 206.038 119.42 206.865C119.837 207.692 120.045 208.652 120.045 209.746C120.045 210.833 119.837 211.79 119.42 212.617C119.004 213.444 118.411 214.085 117.643 214.541C116.881 214.99 115.989 215.215 114.967 215.215ZM114.987 213.223C115.534 213.223 115.996 213.07 116.373 212.764C116.758 212.458 117.044 212.041 117.233 211.514C117.428 210.986 117.526 210.391 117.526 209.727C117.526 209.069 117.428 208.477 117.233 207.949C117.044 207.415 116.758 206.995 116.373 206.689C115.996 206.383 115.534 206.23 114.987 206.23C114.427 206.23 113.952 206.383 113.561 206.689C113.177 206.995 112.887 207.412 112.692 207.939C112.503 208.467 112.409 209.062 112.409 209.727C112.409 210.391 112.503 210.986 112.692 211.514C112.887 212.041 113.177 212.458 113.561 212.764C113.952 213.07 114.427 213.223 114.987 213.223ZM121.179 204.395H123.601V206.152H123.718C123.9 205.553 124.229 205.085 124.704 204.746C125.18 204.408 125.723 204.238 126.335 204.238C126.7 204.238 126.999 204.258 127.234 204.297V206.602C127.123 206.562 126.954 206.527 126.726 206.494C126.498 206.462 126.283 206.445 126.081 206.445C125.626 206.445 125.215 206.543 124.851 206.738C124.486 206.934 124.2 207.207 123.991 207.559C123.783 207.91 123.679 208.307 123.679 208.75V215H121.179V204.395Z" fill="#2D2D2D"/>
<path d="M286.004 204.746C285.945 204.147 285.675 203.678 285.193 203.34C284.718 203.001 284.096 202.832 283.328 202.832C282.807 202.832 282.352 202.91 281.961 203.066C281.57 203.223 281.271 203.441 281.062 203.721C280.854 204.001 280.75 204.316 280.75 204.668C280.75 205.208 280.975 205.628 281.424 205.928C281.873 206.221 282.456 206.452 283.172 206.621L284.5 206.973C285.717 207.253 286.71 207.718 287.479 208.369C288.253 209.014 288.641 209.902 288.641 211.035C288.641 211.862 288.429 212.591 288.006 213.223C287.583 213.854 286.967 214.346 286.16 214.697C285.359 215.042 284.402 215.215 283.289 215.215C282.189 215.215 281.235 215.046 280.428 214.707C279.62 214.362 278.989 213.864 278.533 213.213C278.084 212.555 277.84 211.764 277.801 210.84H280.301C280.359 211.556 280.659 212.103 281.199 212.48C281.746 212.858 282.436 213.047 283.27 213.047C283.823 213.047 284.314 212.962 284.744 212.793C285.174 212.624 285.506 212.386 285.74 212.08C285.981 211.768 286.102 211.413 286.102 211.016C286.102 210.501 285.887 210.101 285.457 209.814C285.034 209.521 284.396 209.264 283.543 209.043L281.941 208.633C279.428 207.975 278.172 206.706 278.172 204.824C278.172 204.004 278.396 203.281 278.846 202.656C279.295 202.025 279.913 201.536 280.701 201.191C281.495 200.84 282.384 200.664 283.367 200.664C284.357 200.664 285.232 200.84 285.994 201.191C286.762 201.536 287.358 202.018 287.781 202.637C288.211 203.255 288.432 203.958 288.445 204.746H286.004ZM296.61 204.395H299.091V215H296.688V213.125H296.571C296.317 213.737 295.914 214.225 295.36 214.59C294.813 214.954 294.156 215.137 293.387 215.137C292.691 215.137 292.076 214.98 291.542 214.668C291.008 214.355 290.591 213.9 290.292 213.301C289.992 212.702 289.839 211.986 289.833 211.152V204.395H292.333V210.762C292.333 211.204 292.414 211.595 292.577 211.934C292.746 212.266 292.981 212.523 293.28 212.705C293.586 212.881 293.941 212.969 294.345 212.969C294.722 212.969 295.083 212.878 295.429 212.695C295.78 212.507 296.063 212.23 296.278 211.865C296.499 211.501 296.61 211.061 296.61 210.547V204.395ZM300.791 200.859H303.291V206.133H303.388C303.655 205.605 304.02 205.163 304.482 204.805C304.944 204.44 305.589 204.258 306.416 204.258C307.249 204.258 307.998 204.469 308.662 204.893C309.326 205.316 309.85 205.938 310.234 206.758C310.618 207.578 310.81 208.561 310.81 209.707C310.81 210.846 310.621 211.829 310.244 212.656C309.866 213.483 309.345 214.115 308.681 214.551C308.017 214.98 307.268 215.195 306.435 215.195C305.029 215.195 304.013 214.57 303.388 213.32H303.232V215H300.791V200.859ZM303.232 209.688C303.232 210.378 303.33 210.983 303.525 211.504C303.72 212.025 304.004 212.428 304.375 212.715C304.752 213.001 305.205 213.145 305.732 213.145C306.272 213.145 306.731 212.998 307.109 212.705C307.493 212.412 307.783 212.005 307.978 211.484C308.173 210.964 308.271 210.365 308.271 209.688C308.271 209.023 308.173 208.434 307.978 207.92C307.789 207.406 307.503 207.005 307.119 206.719C306.741 206.432 306.279 206.289 305.732 206.289C305.205 206.289 304.752 206.429 304.375 206.709C304.004 206.989 303.72 207.386 303.525 207.9C303.33 208.408 303.232 209.004 303.232 209.688ZM325.558 205.625C325.46 205.072 325.255 204.593 324.943 204.189C324.63 203.786 324.233 203.48 323.751 203.271C323.276 203.057 322.752 202.949 322.179 202.949C321.398 202.949 320.711 203.145 320.118 203.535C319.526 203.919 319.064 204.486 318.732 205.234C318.4 205.983 318.234 206.882 318.234 207.93C318.234 208.984 318.4 209.886 318.732 210.635C319.064 211.383 319.526 211.95 320.118 212.334C320.717 212.718 321.404 212.91 322.179 212.91C322.739 212.91 323.253 212.809 323.722 212.607C324.197 212.399 324.594 212.1 324.913 211.709C325.232 211.318 325.447 210.853 325.558 210.312H328.116C327.986 211.224 327.657 212.051 327.13 212.793C326.609 213.535 325.919 214.121 325.06 214.551C324.2 214.98 323.227 215.195 322.14 215.195C320.896 215.195 319.783 214.906 318.8 214.326C317.823 213.74 317.058 212.9 316.505 211.807C315.952 210.706 315.675 209.414 315.675 207.93C315.675 206.439 315.952 205.146 316.505 204.053C317.065 202.959 317.833 202.122 318.81 201.543C319.793 200.957 320.903 200.664 322.14 200.664C323.182 200.664 324.129 200.863 324.982 201.26C325.835 201.65 326.534 202.22 327.081 202.969C327.628 203.711 327.973 204.596 328.116 205.625H325.558ZM334.016 215.215C333 215.215 332.108 214.987 331.34 214.531C330.572 214.076 329.979 213.438 329.562 212.617C329.146 211.79 328.938 210.833 328.938 209.746C328.938 208.652 329.146 207.692 329.562 206.865C329.979 206.038 330.572 205.397 331.34 204.941C332.108 204.486 333 204.258 334.016 204.258C335.038 204.258 335.933 204.486 336.701 204.941C337.469 205.397 338.059 206.038 338.469 206.865C338.885 207.692 339.094 208.652 339.094 209.746C339.094 210.833 338.885 211.79 338.469 212.617C338.052 213.444 337.46 214.085 336.691 214.541C335.93 214.99 335.038 215.215 334.016 215.215ZM334.035 213.223C334.582 213.223 335.044 213.07 335.422 212.764C335.806 212.458 336.092 212.041 336.281 211.514C336.477 210.986 336.574 210.391 336.574 209.727C336.574 209.069 336.477 208.477 336.281 207.949C336.092 207.415 335.806 206.995 335.422 206.689C335.044 206.383 334.582 206.23 334.035 206.23C333.475 206.23 333 206.383 332.609 206.689C332.225 206.995 331.936 207.412 331.74 207.939C331.551 208.467 331.457 209.062 331.457 209.727C331.457 210.391 331.551 210.986 331.74 211.514C331.936 212.041 332.225 212.458 332.609 212.764C333 213.07 333.475 213.223 334.035 213.223ZM342.727 215H340.227V200.859H342.727V215ZM348.939 215.215C347.923 215.215 347.032 214.987 346.263 214.531C345.495 214.076 344.903 213.438 344.486 212.617C344.069 211.79 343.861 210.833 343.861 209.746C343.861 208.652 344.069 207.692 344.486 206.865C344.903 206.038 345.495 205.397 346.263 204.941C347.032 204.486 347.923 204.258 348.939 204.258C349.961 204.258 350.856 204.486 351.625 204.941C352.393 205.397 352.982 206.038 353.392 206.865C353.809 207.692 354.017 208.652 354.017 209.746C354.017 210.833 353.809 211.79 353.392 212.617C352.976 213.444 352.383 214.085 351.615 214.541C350.853 214.99 349.961 215.215 348.939 215.215ZM348.959 213.223C349.505 213.223 349.968 213.07 350.345 212.764C350.729 212.458 351.016 212.041 351.205 211.514C351.4 210.986 351.498 210.391 351.498 209.727C351.498 209.069 351.4 208.477 351.205 207.949C351.016 207.415 350.729 206.995 350.345 206.689C349.968 206.383 349.505 206.23 348.959 206.23C348.399 206.23 347.923 206.383 347.533 206.689C347.149 206.995 346.859 207.412 346.664 207.939C346.475 208.467 346.38 209.062 346.38 209.727C346.38 210.391 346.475 210.986 346.664 211.514C346.859 212.041 347.149 212.458 347.533 212.764C347.923 213.07 348.399 213.223 348.959 213.223ZM355.151 204.395H357.573V206.152H357.69C357.872 205.553 358.201 205.085 358.676 204.746C359.151 204.408 359.695 204.238 360.307 204.238C360.672 204.238 360.971 204.258 361.205 204.297V206.602C361.095 206.562 360.926 206.527 360.698 206.494C360.47 206.462 360.255 206.445 360.053 206.445C359.597 206.445 359.187 206.543 358.823 206.738C358.458 206.934 358.172 207.207 357.963 207.559C357.755 207.91 357.651 208.307 357.651 208.75V215H355.151V204.395Z" fill="#2D2D2D"/>
<rect x="277.5" y="236.5" width="59" height="59" rx="11.5" fill="#D8E7FB"/>
<rect x="277.5" y="236.5" width="59" height="59" rx="11.5" stroke="white"/>
<rect x="345.5" y="256.5" width="39" height="39" rx="7.5" fill="#E3EFFF"/>
<rect x="345.5" y="256.5" width="39" height="39" rx="7.5" stroke="white"/>
<rect x="35" y="236" width="60" height="60" rx="12" fill="#3F68E8"/>
<rect x="103" y="256" width="40" height="40" rx="8" fill="#0E1241"/>
<path d="M35.6836 325.859H46.9531V327.988H42.5977V340H40.0586V327.988H35.6836V325.859ZM51.1922 340.215C50.1375 340.215 49.2195 339.993 48.4383 339.551C47.6635 339.102 47.0678 338.467 46.6512 337.646C46.241 336.826 46.0359 335.866 46.0359 334.766C46.0359 333.678 46.2443 332.721 46.6609 331.895C47.0776 331.061 47.6635 330.413 48.4187 329.951C49.1805 329.489 50.0594 329.258 51.0555 329.258C51.9539 329.258 52.7677 329.45 53.4969 329.834C54.2326 330.218 54.8152 330.814 55.2449 331.621C55.6811 332.422 55.8992 333.418 55.8992 334.609V335.391H48.4969C48.5034 335.983 48.6206 336.497 48.8484 336.934C49.0763 337.363 49.3921 337.692 49.7957 337.92C50.1993 338.148 50.6714 338.262 51.2117 338.262C51.7391 338.262 52.1883 338.161 52.5594 337.959C52.9305 337.757 53.1974 337.493 53.3602 337.168H55.8016C55.6518 337.78 55.3686 338.317 54.952 338.779C54.5353 339.235 54.0047 339.59 53.3602 339.844C52.7221 340.091 51.9995 340.215 51.1922 340.215ZM53.5164 333.691C53.5099 333.21 53.4057 332.78 53.2039 332.402C53.0021 332.025 52.7189 331.729 52.3543 331.514C51.9897 331.299 51.5698 331.191 51.0945 331.191C50.6062 331.191 50.1701 331.305 49.7859 331.533C49.4083 331.755 49.1089 332.057 48.8875 332.441C48.6661 332.819 48.5392 333.236 48.5066 333.691H53.5164ZM60.9977 333.32L63.1852 329.395H65.8219L62.6187 334.688L65.8805 340H63.2633L60.9977 336.172L58.7906 340H56.1344L59.3766 334.688L56.2125 329.395H58.8492L60.9977 333.32ZM72.0727 331.309H69.9828V336.816C69.9828 337.285 70.0805 337.607 70.2758 337.783C70.4776 337.959 70.7576 338.047 71.1156 338.047C71.4281 338.047 71.7927 338.034 72.2094 338.008V340.039C71.8839 340.104 71.4151 340.137 70.8031 340.137C70.1586 340.137 69.5857 340.033 69.0844 339.824C68.5896 339.609 68.199 339.284 67.9125 338.848C67.6326 338.411 67.4958 337.871 67.5023 337.227V331.309H65.9789V329.395H67.5023V326.855H69.9828V329.395H72.0727V331.309ZM86.7812 330.625C86.6836 330.072 86.4785 329.593 86.166 329.189C85.8535 328.786 85.4564 328.48 84.9746 328.271C84.4993 328.057 83.9753 327.949 83.4023 327.949C82.6211 327.949 81.9342 328.145 81.3418 328.535C80.7493 328.919 80.2871 329.486 79.9551 330.234C79.623 330.983 79.457 331.882 79.457 332.93C79.457 333.984 79.623 334.886 79.9551 335.635C80.2871 336.383 80.7493 336.95 81.3418 337.334C81.9408 337.718 82.6276 337.91 83.4023 337.91C83.9622 337.91 84.4766 337.809 84.9453 337.607C85.4206 337.399 85.8177 337.1 86.1367 336.709C86.4557 336.318 86.6706 335.853 86.7812 335.312H89.3398C89.2096 336.224 88.8809 337.051 88.3535 337.793C87.8327 338.535 87.1426 339.121 86.2832 339.551C85.4238 339.98 84.4505 340.195 83.3633 340.195C82.1198 340.195 81.0065 339.906 80.0234 339.326C79.0469 338.74 78.2819 337.9 77.7285 336.807C77.1751 335.706 76.8984 334.414 76.8984 332.93C76.8984 331.439 77.1751 330.146 77.7285 329.053C78.2884 327.959 79.0566 327.122 80.0332 326.543C81.0163 325.957 82.1263 325.664 83.3633 325.664C84.4049 325.664 85.3522 325.863 86.2051 326.26C87.0579 326.65 87.7578 327.22 88.3047 327.969C88.8516 328.711 89.1966 329.596 89.3398 330.625H86.7812ZM95.2391 340.215C94.2234 340.215 93.3315 339.987 92.5633 339.531C91.7951 339.076 91.2026 338.438 90.7859 337.617C90.3693 336.79 90.1609 335.833 90.1609 334.746C90.1609 333.652 90.3693 332.692 90.7859 331.865C91.2026 331.038 91.7951 330.397 92.5633 329.941C93.3315 329.486 94.2234 329.258 95.2391 329.258C96.2612 329.258 97.1564 329.486 97.9246 329.941C98.6928 330.397 99.282 331.038 99.6922 331.865C100.109 332.692 100.317 333.652 100.317 334.746C100.317 335.833 100.109 336.79 99.6922 337.617C99.2755 338.444 98.6831 339.085 97.9148 339.541C97.1531 339.99 96.2612 340.215 95.2391 340.215ZM95.2586 338.223C95.8055 338.223 96.2677 338.07 96.6453 337.764C97.0294 337.458 97.3159 337.041 97.5047 336.514C97.7 335.986 97.7977 335.391 97.7977 334.727C97.7977 334.069 97.7 333.477 97.5047 332.949C97.3159 332.415 97.0294 331.995 96.6453 331.689C96.2677 331.383 95.8055 331.23 95.2586 331.23C94.6987 331.23 94.2234 331.383 93.8328 331.689C93.4487 331.995 93.159 332.412 92.9637 332.939C92.7749 333.467 92.6805 334.062 92.6805 334.727C92.6805 335.391 92.7749 335.986 92.9637 336.514C93.159 337.041 93.4487 337.458 93.8328 337.764C94.2234 338.07 94.6987 338.223 95.2586 338.223ZM103.951 340H101.451V325.859H103.951V340ZM110.162 340.215C109.147 340.215 108.255 339.987 107.487 339.531C106.718 339.076 106.126 338.438 105.709 337.617C105.293 336.79 105.084 335.833 105.084 334.746C105.084 333.652 105.293 332.692 105.709 331.865C106.126 331.038 106.718 330.397 107.487 329.941C108.255 329.486 109.147 329.258 110.162 329.258C111.185 329.258 112.08 329.486 112.848 329.941C113.616 330.397 114.205 331.038 114.616 331.865C115.032 332.692 115.241 333.652 115.241 334.746C115.241 335.833 115.032 336.79 114.616 337.617C114.199 338.444 113.607 339.085 112.838 339.541C112.077 339.99 111.185 340.215 110.162 340.215ZM110.182 338.223C110.729 338.223 111.191 338.07 111.569 337.764C111.953 337.458 112.239 337.041 112.428 336.514C112.623 335.986 112.721 335.391 112.721 334.727C112.721 334.069 112.623 333.477 112.428 332.949C112.239 332.415 111.953 331.995 111.569 331.689C111.191 331.383 110.729 331.23 110.182 331.23C109.622 331.23 109.147 331.383 108.756 331.689C108.372 331.995 108.082 332.412 107.887 332.939C107.698 333.467 107.604 334.062 107.604 334.727C107.604 335.391 107.698 335.986 107.887 336.514C108.082 337.041 108.372 337.458 108.756 337.764C109.147 338.07 109.622 338.223 110.182 338.223ZM116.374 329.395H118.796V331.152H118.913C119.096 330.553 119.424 330.085 119.9 329.746C120.375 329.408 120.918 329.238 121.53 329.238C121.895 329.238 122.195 329.258 122.429 329.297V331.602C122.318 331.562 122.149 331.527 121.921 331.494C121.693 331.462 121.478 331.445 121.277 331.445C120.821 331.445 120.411 331.543 120.046 331.738C119.682 331.934 119.395 332.207 119.187 332.559C118.978 332.91 118.874 333.307 118.874 333.75V340H116.374V329.395Z" fill="#2D2D2D"/>
<rect x="35" y="361" width="40" height="40" rx="8" fill="#020202"/>
<rect x="79" y="361" width="40" height="40" rx="8" fill="#555555"/>
<rect x="123" y="361" width="40" height="40" rx="8" fill="#666666"/>
<rect x="167" y="361" width="40" height="40" rx="8" fill="#7B7B7B"/>
<path d="M287.781 330.371C287.553 329.609 287.15 329.017 286.57 328.594C285.997 328.164 285.288 327.949 284.441 327.949C283.673 327.949 282.993 328.145 282.4 328.535C281.808 328.919 281.346 329.486 281.014 330.234C280.682 330.983 280.516 331.875 280.516 332.91C280.516 333.965 280.682 334.87 281.014 335.625C281.346 336.374 281.811 336.943 282.41 337.334C283.009 337.718 283.706 337.91 284.5 337.91C285.203 337.91 285.818 337.777 286.346 337.51C286.873 337.236 287.283 336.852 287.576 336.357C287.869 335.856 288.022 335.273 288.035 334.609H284.754V332.598H290.496V334.297C290.496 335.488 290.239 336.53 289.725 337.422C289.217 338.307 288.51 338.991 287.605 339.473C286.701 339.954 285.665 340.195 284.5 340.195C283.204 340.195 282.062 339.902 281.072 339.316C280.083 338.724 279.314 337.881 278.768 336.787C278.227 335.693 277.957 334.408 277.957 332.93C277.957 331.452 278.234 330.166 278.787 329.072C279.347 327.972 280.115 327.129 281.092 326.543C282.075 325.957 283.185 325.664 284.422 325.664C285.451 325.664 286.391 325.863 287.244 326.26C288.097 326.657 288.797 327.214 289.344 327.93C289.891 328.639 290.236 329.453 290.379 330.371H287.781ZM291.884 329.395H294.305V331.152H294.423C294.605 330.553 294.934 330.085 295.409 329.746C295.884 329.408 296.428 329.238 297.04 329.238C297.404 329.238 297.704 329.258 297.938 329.297V331.602C297.828 331.562 297.658 331.527 297.43 331.494C297.203 331.462 296.988 331.445 296.786 331.445C296.33 331.445 295.92 331.543 295.555 331.738C295.191 331.934 294.904 332.207 294.696 332.559C294.488 332.91 294.384 333.307 294.384 333.75V340H291.884V329.395ZM297.939 337.012C297.939 335.918 298.307 335.13 299.043 334.648C299.785 334.16 300.732 333.88 301.884 333.809C303.011 333.73 303.916 333.678 304.599 333.652V332.812C304.599 332.285 304.433 331.878 304.101 331.592C303.769 331.299 303.297 331.152 302.685 331.152C302.145 331.152 301.702 331.266 301.357 331.494C301.012 331.722 300.791 332.031 300.693 332.422H298.291C298.349 331.816 298.564 331.276 298.935 330.801C299.306 330.319 299.817 329.941 300.468 329.668C301.119 329.395 301.878 329.258 302.744 329.258C303.486 329.258 304.183 329.375 304.834 329.609C305.491 329.837 306.028 330.225 306.445 330.771C306.868 331.312 307.08 332.025 307.08 332.91V340H304.697V338.535H304.619C304.358 339.03 303.968 339.434 303.447 339.746C302.926 340.059 302.275 340.215 301.494 340.215C300.81 340.215 300.198 340.091 299.658 339.844C299.124 339.596 298.704 339.232 298.398 338.75C298.092 338.268 297.939 337.689 297.939 337.012ZM300.341 336.992C300.341 337.441 300.504 337.786 300.83 338.027C301.155 338.262 301.591 338.379 302.138 338.379C302.627 338.379 303.06 338.281 303.437 338.086C303.815 337.891 304.104 337.627 304.306 337.295C304.515 336.956 304.619 336.589 304.619 336.191L304.609 335.322L302.275 335.469C301.663 335.521 301.188 335.674 300.849 335.928C300.511 336.182 300.341 336.536 300.341 336.992ZM309.737 343.984C309.19 343.984 308.76 343.965 308.448 343.926V341.934C308.864 341.96 309.216 341.973 309.502 341.973C309.75 341.973 309.955 341.95 310.118 341.904C310.287 341.859 310.45 341.748 310.606 341.572C310.762 341.403 310.909 341.139 311.045 340.781L311.26 340.215L307.393 329.395H310.03L312.491 337.402H312.608L315.069 329.395H317.705L313.448 341.289C313.135 342.174 312.679 342.845 312.08 343.301C311.482 343.757 310.7 343.984 309.737 343.984ZM330.227 329.746C330.168 329.147 329.898 328.678 329.416 328.34C328.941 328.001 328.319 327.832 327.551 327.832C327.03 327.832 326.574 327.91 326.184 328.066C325.793 328.223 325.493 328.441 325.285 328.721C325.077 329.001 324.973 329.316 324.973 329.668C324.973 330.208 325.197 330.628 325.646 330.928C326.096 331.221 326.678 331.452 327.395 331.621L328.723 331.973C329.94 332.253 330.933 332.718 331.701 333.369C332.476 334.014 332.863 334.902 332.863 336.035C332.863 336.862 332.652 337.591 332.229 338.223C331.805 338.854 331.19 339.346 330.383 339.697C329.582 340.042 328.625 340.215 327.512 340.215C326.411 340.215 325.458 340.046 324.65 339.707C323.843 339.362 323.212 338.864 322.756 338.213C322.307 337.555 322.062 336.764 322.023 335.84H324.523C324.582 336.556 324.882 337.103 325.422 337.48C325.969 337.858 326.659 338.047 327.492 338.047C328.046 338.047 328.537 337.962 328.967 337.793C329.396 337.624 329.729 337.386 329.963 337.08C330.204 336.768 330.324 336.413 330.324 336.016C330.324 335.501 330.109 335.101 329.68 334.814C329.257 334.521 328.618 334.264 327.766 334.043L326.164 333.633C323.651 332.975 322.395 331.706 322.395 329.824C322.395 329.004 322.619 328.281 323.068 327.656C323.518 327.025 324.136 326.536 324.924 326.191C325.718 325.84 326.607 325.664 327.59 325.664C328.579 325.664 329.455 325.84 330.217 326.191C330.985 326.536 331.581 327.018 332.004 327.637C332.434 328.255 332.655 328.958 332.668 329.746H330.227ZM338.684 340.215C337.649 340.215 336.748 339.984 335.979 339.521C335.218 339.059 334.632 338.415 334.221 337.588C333.811 336.761 333.606 335.814 333.606 334.746C333.606 333.672 333.815 332.721 334.231 331.895C334.648 331.061 335.237 330.413 335.999 329.951C336.767 329.489 337.662 329.258 338.684 329.258C339.537 329.258 340.296 329.414 340.96 329.727C341.63 330.039 342.161 330.482 342.552 331.055C342.949 331.628 343.177 332.292 343.235 333.047H340.852C340.748 332.513 340.511 332.08 340.139 331.748C339.768 331.416 339.29 331.25 338.704 331.25C338.19 331.25 337.737 331.39 337.346 331.67C336.962 331.943 336.663 332.34 336.448 332.861C336.233 333.376 336.126 333.984 336.126 334.688C336.126 335.41 336.23 336.035 336.438 336.562C336.653 337.083 336.953 337.484 337.337 337.764C337.727 338.044 338.183 338.184 338.704 338.184C339.264 338.184 339.736 338.027 340.12 337.715C340.504 337.402 340.748 336.96 340.852 336.387H343.235C343.17 337.135 342.942 337.799 342.552 338.379C342.167 338.958 341.643 339.411 340.979 339.736C340.315 340.055 339.55 340.215 338.684 340.215ZM343.822 337.012C343.822 335.918 344.19 335.13 344.925 334.648C345.668 334.16 346.615 333.88 347.767 333.809C348.893 333.73 349.798 333.678 350.482 333.652V332.812C350.482 332.285 350.316 331.878 349.984 331.592C349.652 331.299 349.18 331.152 348.568 331.152C348.028 331.152 347.585 331.266 347.24 331.494C346.895 331.722 346.673 332.031 346.576 332.422H344.173C344.232 331.816 344.447 331.276 344.818 330.801C345.189 330.319 345.7 329.941 346.351 329.668C347.002 329.395 347.761 329.258 348.627 329.258C349.369 329.258 350.065 329.375 350.716 329.609C351.374 329.837 351.911 330.225 352.328 330.771C352.751 331.312 352.963 332.025 352.963 332.91V340H350.58V338.535H350.502C350.241 339.03 349.851 339.434 349.33 339.746C348.809 340.059 348.158 340.215 347.377 340.215C346.693 340.215 346.081 340.091 345.541 339.844C345.007 339.596 344.587 339.232 344.281 338.75C343.975 338.268 343.822 337.689 343.822 337.012ZM346.224 336.992C346.224 337.441 346.387 337.786 346.713 338.027C347.038 338.262 347.474 338.379 348.021 338.379C348.509 338.379 348.942 338.281 349.32 338.086C349.698 337.891 349.987 337.627 350.189 337.295C350.397 336.956 350.502 336.589 350.502 336.191L350.492 335.322L348.158 335.469C347.546 335.521 347.071 335.674 346.732 335.928C346.393 336.182 346.224 336.536 346.224 336.992ZM357.006 340H354.506V325.859H357.006V340ZM363.296 340.215C362.241 340.215 361.323 339.993 360.542 339.551C359.767 339.102 359.172 338.467 358.755 337.646C358.345 336.826 358.14 335.866 358.14 334.766C358.14 333.678 358.348 332.721 358.765 331.895C359.182 331.061 359.767 330.413 360.523 329.951C361.284 329.489 362.163 329.258 363.159 329.258C364.058 329.258 364.872 329.45 365.601 329.834C366.336 330.218 366.919 330.814 367.349 331.621C367.785 332.422 368.003 333.418 368.003 334.609V335.391H360.601C360.607 335.983 360.724 336.497 360.952 336.934C361.18 337.363 361.496 337.692 361.9 337.92C362.303 338.148 362.775 338.262 363.316 338.262C363.843 338.262 364.292 338.161 364.663 337.959C365.034 337.757 365.301 337.493 365.464 337.168H367.905C367.756 337.78 367.473 338.317 367.056 338.779C366.639 339.235 366.109 339.59 365.464 339.844C364.826 340.091 364.103 340.215 363.296 340.215ZM365.62 333.691C365.614 333.21 365.51 332.78 365.308 332.402C365.106 332.025 364.823 331.729 364.458 331.514C364.094 331.299 363.674 331.191 363.198 331.191C362.71 331.191 362.274 331.305 361.89 331.533C361.512 331.755 361.213 332.057 360.991 332.441C360.77 332.819 360.643 333.236 360.611 333.691H365.62Z" fill="#2D2D2D"/>
<rect x="277.5" y="361.5" width="39" height="39" rx="7.5" fill="#ADAEC4"/>
<rect x="277.5" y="361.5" width="39" height="39" rx="7.5" stroke="white"/>
<rect x="321.5" y="361.5" width="39" height="39" rx="7.5" fill="#D9D9D9"/>
<rect x="321.5" y="361.5" width="39" height="39" rx="7.5" stroke="#F5F5F6"/>
<rect x="365.5" y="361.5" width="39" height="39" rx="7.5" fill="#F0F0F0"/>
<rect x="365.5" y="361.5" width="39" height="39" rx="7.5" stroke="#F5F5F6"/>
<rect x="409.5" y="361.5" width="39" height="39" rx="7.5" fill="#F5F5F6"/>
<rect x="409.5" y="361.5" width="39" height="39" rx="7.5" stroke="#F5F5F6"/>
<rect x="453.5" y="361.5" width="39" height="39" rx="7.5" fill="#F5F5F6"/>
<rect x="453.5" y="361.5" width="39" height="39" rx="7.5" stroke="#F5F5F6"/>
<path d="M294.906 290H293.07V284.344H294.961C296.625 284.344 297.625 285.406 297.625 287.164C297.625 288.93 296.625 290 294.906 290ZM293.93 289.25H294.859C296.141 289.25 296.773 288.5 296.773 287.164C296.773 285.836 296.141 285.094 294.906 285.094H293.93V289.25ZM300.492 290.078C299.266 290.078 298.406 289.414 298.414 288.492C298.406 287.766 298.93 287.172 299.594 287.07V287.039C299.016 286.906 298.625 286.391 298.625 285.773C298.625 284.906 299.414 284.266 300.492 284.266C301.562 284.266 302.344 284.906 302.352 285.773C302.344 286.391 301.953 286.906 301.383 287.039V287.07C302.039 287.172 302.562 287.766 302.57 288.492C302.562 289.414 301.703 290.078 300.492 290.078ZM300.492 289.367C301.227 289.367 301.695 288.984 301.695 288.43C301.695 287.844 301.188 287.422 300.492 287.422C299.789 287.422 299.273 287.844 299.289 288.43C299.273 288.984 299.742 289.367 300.492 289.367ZM300.492 286.742C301.086 286.742 301.508 286.383 301.508 285.852C301.508 285.328 301.094 284.969 300.492 284.969C299.867 284.969 299.461 285.32 299.461 285.852C299.461 286.383 299.891 286.742 300.492 286.742ZM303.539 290V284.344H307.086V285.086H304.398V286.797H306.898V287.531H304.398V289.258H307.117V290H303.539ZM308.258 290L310.781 285.125V285.078H307.867V284.344H311.672V285.109L309.156 290H308.258ZM312.617 290V284.344H316.125V285.086H313.477V286.797H315.875V287.531H313.477V290H312.617ZM317.086 290V284.344H319.156C320.359 284.344 320.945 284.992 320.945 285.828C320.945 286.531 320.516 286.891 319.992 287.023V287.078C320.555 287.109 321.164 287.602 321.164 288.477C321.164 289.344 320.57 290 319.25 290H317.086ZM319.172 289.266C319.984 289.266 320.312 288.906 320.312 288.438C320.312 287.898 319.883 287.461 319.203 287.461H317.945V289.266H319.172ZM319.086 286.789C319.656 286.789 320.102 286.438 320.102 285.898C320.102 285.43 319.781 285.078 319.102 285.078H317.945V286.789H319.086Z" fill="#FEFEFE"/>
<path d="M52.5391 290.078C51.3672 290.078 50.5312 289.445 50.5 288.523H51.375C51.4062 289.023 51.8984 289.336 52.5312 289.336C53.2109 289.336 53.7109 288.961 53.7109 288.414C53.7109 287.859 53.2422 287.453 52.4375 287.453H51.9531V286.75H52.4375C53.0781 286.75 53.5312 286.391 53.5312 285.852C53.5312 285.336 53.1484 284.984 52.5469 284.984C51.9766 284.984 51.4766 285.297 51.4531 285.812H50.625C50.6484 284.891 51.5 284.266 52.5547 284.266C53.6641 284.266 54.3672 284.969 54.3594 285.805C54.3672 286.445 53.9688 286.914 53.3594 287.062V287.102C54.1328 287.211 54.5781 287.727 54.5781 288.445C54.5781 289.391 53.7109 290.078 52.5391 290.078ZM55.6016 290V284.344H59.1094V285.086H56.4609V286.797H58.8594V287.531H56.4609V290H55.6016ZM62.0391 290.078C60.9922 290.07 59.8984 289.453 59.8984 287.359C59.8984 285.391 60.75 284.266 62.1094 284.266C63.1484 284.266 63.875 284.914 64.0078 285.812H63.1562C63.0469 285.352 62.6797 285.016 62.1094 285.016C61.2344 285.016 60.7266 285.781 60.7266 287.055H60.7891C61.0938 286.578 61.625 286.289 62.2422 286.289C63.25 286.289 64.0625 287.062 64.0625 288.148C64.0625 289.242 63.2578 290.086 62.0391 290.078ZM62.0312 289.359C62.7188 289.359 63.2266 288.828 63.2266 288.164C63.2266 287.516 62.7344 286.992 62.0547 286.992C61.3594 286.992 60.8359 287.539 60.8281 288.172C60.8359 288.797 61.3359 289.359 62.0312 289.359ZM66.9531 290.078C65.7266 290.078 64.8672 289.414 64.875 288.492C64.8672 287.766 65.3906 287.172 66.0547 287.07V287.039C65.4766 286.906 65.0859 286.391 65.0859 285.773C65.0859 284.906 65.875 284.266 66.9531 284.266C68.0234 284.266 68.8047 284.906 68.8125 285.773C68.8047 286.391 68.4141 286.906 67.8438 287.039V287.07C68.5 287.172 69.0234 287.766 69.0312 288.492C69.0234 289.414 68.1641 290.078 66.9531 290.078ZM66.9531 289.367C67.6875 289.367 68.1562 288.984 68.1562 288.43C68.1562 287.844 67.6484 287.422 66.9531 287.422C66.25 287.422 65.7344 287.844 65.75 288.43C65.7344 288.984 66.2031 289.367 66.9531 289.367ZM66.9531 286.742C67.5469 286.742 67.9688 286.383 67.9688 285.852C67.9688 285.328 67.5547 284.969 66.9531 284.969C66.3281 284.969 65.9219 285.32 65.9219 285.852C65.9219 286.383 66.3516 286.742 66.9531 286.742ZM70 290V284.344H73.5469V285.086H70.8594V286.797H73.3594V287.531H70.8594V289.258H73.5781V290H70ZM76.5 290.078C75.2734 290.078 74.4141 289.414 74.4219 288.492C74.4141 287.766 74.9375 287.172 75.6016 287.07V287.039C75.0234 286.906 74.6328 286.391 74.6328 285.773C74.6328 284.906 75.4219 284.266 76.5 284.266C77.5703 284.266 78.3516 284.906 78.3594 285.773C78.3516 286.391 77.9609 286.906 77.3906 287.039V287.07C78.0469 287.172 78.5703 287.766 78.5781 288.492C78.5703 289.414 77.7109 290.078 76.5 290.078ZM76.5 289.367C77.2344 289.367 77.7031 288.984 77.7031 288.43C77.7031 287.844 77.1953 287.422 76.5 287.422C75.7969 287.422 75.2812 287.844 75.2969 288.43C75.2812 288.984 75.75 289.367 76.5 289.367ZM76.5 286.742C77.0938 286.742 77.5156 286.383 77.5156 285.852C77.5156 285.328 77.1016 284.969 76.5 284.969C75.875 284.969 75.4688 285.32 75.4688 285.852C75.4688 286.383 75.8984 286.742 76.5 286.742Z" fill="#FEFEFE"/>
<path d="M111.797 290.078C110.484 290.078 109.719 289.023 109.719 287.172C109.719 285.336 110.5 284.266 111.797 284.266C113.094 284.266 113.875 285.336 113.875 287.172C113.875 289.023 113.102 290.078 111.797 290.078ZM111.797 289.336C112.562 289.336 113.016 288.586 113.016 287.172C113.016 285.766 112.555 284.992 111.797 284.992C111.039 284.992 110.578 285.766 110.578 287.172C110.578 288.586 111.031 289.336 111.797 289.336ZM114.844 290V284.344H118.391V285.086H115.703V286.797H118.203V287.531H115.703V289.258H118.422V290H114.844ZM121.516 284.344V290H120.648V285.203H120.617L119.266 286.086V285.266L120.672 284.344H121.516ZM122.953 290V289.375L124.914 287.398C125.531 286.75 125.844 286.391 125.844 285.898C125.844 285.344 125.391 284.984 124.797 284.984C124.172 284.984 123.766 285.383 123.766 285.984H122.953C122.945 284.953 123.734 284.266 124.812 284.266C125.906 284.266 126.656 284.953 126.664 285.875C126.656 286.508 126.359 287.008 125.297 288.055L124.148 289.219V289.266H126.758V290H122.953ZM127.461 288.898V288.203L129.961 284.344H131.023V288.172H131.797V288.898H131.023V290H130.211V288.898H127.461ZM128.367 288.172H130.211V285.367H130.148L128.367 288.125V288.172ZM134.734 284.344V290H133.867V285.203H133.836L132.484 286.086V285.266L133.891 284.344H134.734Z" fill="#FEFEFE"/>
<path d="M351.777 290V284.344H355.324V285.086H352.637V286.797H355.137V287.531H352.637V289.258H355.355V290H351.777ZM358.309 290.078C357.137 290.078 356.301 289.445 356.27 288.523H357.145C357.176 289.023 357.668 289.336 358.301 289.336C358.98 289.336 359.48 288.961 359.48 288.414C359.48 287.859 359.012 287.453 358.207 287.453H357.723V286.75H358.207C358.848 286.75 359.301 286.391 359.301 285.852C359.301 285.336 358.918 284.984 358.316 284.984C357.746 284.984 357.246 285.297 357.223 285.812H356.395C356.418 284.891 357.27 284.266 358.324 284.266C359.434 284.266 360.137 284.969 360.129 285.805C360.137 286.445 359.738 286.914 359.129 287.062V287.102C359.902 287.211 360.348 287.727 360.348 288.445C360.348 289.391 359.48 290.078 358.309 290.078ZM361.371 290V284.344H364.918V285.086H362.23V286.797H364.73V287.531H362.23V289.258H364.949V290H361.371ZM365.973 290V284.344H369.48V285.086H366.832V286.797H369.23V287.531H366.832V290H365.973ZM370.441 290V284.344H373.949V285.086H371.301V286.797H373.699V287.531H371.301V290H370.441ZM374.91 290V284.344H378.418V285.086H375.77V286.797H378.168V287.531H375.77V290H374.91Z" fill="#FEFEFE"/>
<path d="M86.8672 396.078C85.7969 396.078 84.9922 395.422 84.9531 394.523H85.7891C85.8359 395.008 86.2969 395.359 86.8672 395.359C87.5547 395.359 88.0469 394.859 88.0469 394.188C88.0469 393.5 87.5391 393 86.8281 392.992C86.375 392.992 86.0312 393.141 85.8359 393.492H85.0234L85.3906 390.344H88.5938V391.078H86.1016L85.9141 392.664H85.9688C86.2031 392.438 86.6016 392.281 87.0312 392.281C88.0938 392.281 88.8828 393.07 88.8828 394.164C88.8828 395.281 88.0469 396.078 86.8672 396.078ZM91.7188 396.078C90.6484 396.078 89.8438 395.422 89.8047 394.523H90.6406C90.6875 395.008 91.1484 395.359 91.7188 395.359C92.4062 395.359 92.8984 394.859 92.8984 394.188C92.8984 393.5 92.3906 393 91.6797 392.992C91.2266 392.992 90.8828 393.141 90.6875 393.492H89.875L90.2422 390.344H93.4453V391.078H90.9531L90.7656 392.664H90.8203C91.0547 392.438 91.4531 392.281 91.8828 392.281C92.9453 392.281 93.7344 393.07 93.7344 394.164C93.7344 395.281 92.8984 396.078 91.7188 396.078ZM96.5703 396.078C95.5 396.078 94.6953 395.422 94.6562 394.523H95.4922C95.5391 395.008 96 395.359 96.5703 395.359C97.2578 395.359 97.75 394.859 97.75 394.188C97.75 393.5 97.2422 393 96.5312 392.992C96.0781 392.992 95.7344 393.141 95.5391 393.492H94.7266L95.0938 390.344H98.2969V391.078H95.8047L95.6172 392.664H95.6719C95.9062 392.438 96.3047 392.281 96.7344 392.281C97.7969 392.281 98.5859 393.07 98.5859 394.164C98.5859 395.281 97.75 396.078 96.5703 396.078ZM101.422 396.078C100.352 396.078 99.5469 395.422 99.5078 394.523H100.344C100.391 395.008 100.852 395.359 101.422 395.359C102.109 395.359 102.602 394.859 102.602 394.188C102.602 393.5 102.094 393 101.383 392.992C100.93 392.992 100.586 393.141 100.391 393.492H99.5781L99.9453 390.344H103.148V391.078H100.656L100.469 392.664H100.523C100.758 392.438 101.156 392.281 101.586 392.281C102.648 392.281 103.438 393.07 103.438 394.164C103.438 395.281 102.602 396.078 101.422 396.078ZM106.273 396.078C105.203 396.078 104.398 395.422 104.359 394.523H105.195C105.242 395.008 105.703 395.359 106.273 395.359C106.961 395.359 107.453 394.859 107.453 394.188C107.453 393.5 106.945 393 106.234 392.992C105.781 392.992 105.438 393.141 105.242 393.492H104.43L104.797 390.344H108V391.078H105.508L105.32 392.664H105.375C105.609 392.438 106.008 392.281 106.438 392.281C107.5 392.281 108.289 393.07 108.289 394.164C108.289 395.281 107.453 396.078 106.273 396.078ZM111.125 396.078C110.055 396.078 109.25 395.422 109.211 394.523H110.047C110.094 395.008 110.555 395.359 111.125 395.359C111.812 395.359 112.305 394.859 112.305 394.188C112.305 393.5 111.797 393 111.086 392.992C110.633 392.992 110.289 393.141 110.094 393.492H109.281L109.648 390.344H112.852V391.078H110.359L110.172 392.664H110.227C110.461 392.438 110.859 392.281 111.289 392.281C112.352 392.281 113.141 393.07 113.141 394.164C113.141 395.281 112.305 396.078 111.125 396.078Z" fill="#FEFEFE"/>
<path d="M130.594 396.078C129.547 396.07 128.453 395.453 128.453 393.359C128.453 391.391 129.305 390.266 130.664 390.266C131.703 390.266 132.43 390.914 132.562 391.812H131.711C131.602 391.352 131.234 391.016 130.664 391.016C129.789 391.016 129.281 391.781 129.281 393.055H129.344C129.648 392.578 130.18 392.289 130.797 392.289C131.805 392.289 132.617 393.062 132.617 394.148C132.617 395.242 131.812 396.086 130.594 396.078ZM130.586 395.359C131.273 395.359 131.781 394.828 131.781 394.164C131.781 393.516 131.289 392.992 130.609 392.992C129.914 392.992 129.391 393.539 129.383 394.172C129.391 394.797 129.891 395.359 130.586 395.359ZM135.578 396.078C134.531 396.07 133.438 395.453 133.438 393.359C133.438 391.391 134.289 390.266 135.648 390.266C136.688 390.266 137.414 390.914 137.547 391.812H136.695C136.586 391.352 136.219 391.016 135.648 391.016C134.773 391.016 134.266 391.781 134.266 393.055H134.328C134.633 392.578 135.164 392.289 135.781 392.289C136.789 392.289 137.602 393.062 137.602 394.148C137.602 395.242 136.797 396.086 135.578 396.078ZM135.57 395.359C136.258 395.359 136.766 394.828 136.766 394.164C136.766 393.516 136.273 392.992 135.594 392.992C134.898 392.992 134.375 393.539 134.367 394.172C134.375 394.797 134.875 395.359 135.57 395.359ZM140.562 396.078C139.516 396.07 138.422 395.453 138.422 393.359C138.422 391.391 139.273 390.266 140.633 390.266C141.672 390.266 142.398 390.914 142.531 391.812H141.68C141.57 391.352 141.203 391.016 140.633 391.016C139.758 391.016 139.25 391.781 139.25 393.055H139.312C139.617 392.578 140.148 392.289 140.766 392.289C141.773 392.289 142.586 393.062 142.586 394.148C142.586 395.242 141.781 396.086 140.562 396.078ZM140.555 395.359C141.242 395.359 141.75 394.828 141.75 394.164C141.75 393.516 141.258 392.992 140.578 392.992C139.883 392.992 139.359 393.539 139.352 394.172C139.359 394.797 139.859 395.359 140.555 395.359ZM145.547 396.078C144.5 396.07 143.406 395.453 143.406 393.359C143.406 391.391 144.258 390.266 145.617 390.266C146.656 390.266 147.383 390.914 147.516 391.812H146.664C146.555 391.352 146.188 391.016 145.617 391.016C144.742 391.016 144.234 391.781 144.234 393.055H144.297C144.602 392.578 145.133 392.289 145.75 392.289C146.758 392.289 147.57 393.062 147.57 394.148C147.57 395.242 146.766 396.086 145.547 396.078ZM145.539 395.359C146.227 395.359 146.734 394.828 146.734 394.164C146.734 393.516 146.242 392.992 145.562 392.992C144.867 392.992 144.344 393.539 144.336 394.172C144.344 394.797 144.844 395.359 145.539 395.359ZM150.531 396.078C149.484 396.07 148.391 395.453 148.391 393.359C148.391 391.391 149.242 390.266 150.602 390.266C151.641 390.266 152.367 390.914 152.5 391.812H151.648C151.539 391.352 151.172 391.016 150.602 391.016C149.727 391.016 149.219 391.781 149.219 393.055H149.281C149.586 392.578 150.117 392.289 150.734 392.289C151.742 392.289 152.555 393.062 152.555 394.148C152.555 395.242 151.75 396.086 150.531 396.078ZM150.523 395.359C151.211 395.359 151.719 394.828 151.719 394.164C151.719 393.516 151.227 392.992 150.547 392.992C149.852 392.992 149.328 393.539 149.32 394.172C149.328 394.797 149.828 395.359 150.523 395.359ZM155.516 396.078C154.469 396.07 153.375 395.453 153.375 393.359C153.375 391.391 154.227 390.266 155.586 390.266C156.625 390.266 157.352 390.914 157.484 391.812H156.633C156.523 391.352 156.156 391.016 155.586 391.016C154.711 391.016 154.203 391.781 154.203 393.055H154.266C154.57 392.578 155.102 392.289 155.719 392.289C156.727 392.289 157.539 393.062 157.539 394.148C157.539 395.242 156.734 396.086 155.516 396.078ZM155.508 395.359C156.195 395.359 156.703 394.828 156.703 394.164C156.703 393.516 156.211 392.992 155.531 392.992C154.836 392.992 154.312 393.539 154.305 394.172C154.312 394.797 154.812 395.359 155.508 395.359Z" fill="#FEFEFE"/>
<path d="M172.98 396L175.504 391.125V391.078H172.59V390.344H176.395V391.109L173.879 396H172.98ZM177.34 396V390.344H179.41C180.613 390.344 181.199 390.992 181.199 391.828C181.199 392.531 180.77 392.891 180.246 393.023V393.078C180.809 393.109 181.418 393.602 181.418 394.477C181.418 395.344 180.824 396 179.504 396H177.34ZM179.426 395.266C180.238 395.266 180.566 394.906 180.566 394.438C180.566 393.898 180.137 393.461 179.457 393.461H178.199V395.266H179.426ZM179.34 392.789C179.91 392.789 180.355 392.438 180.355 391.898C180.355 391.43 180.035 391.078 179.355 391.078H178.199V392.789H179.34ZM182.457 396L184.98 391.125V391.078H182.066V390.344H185.871V391.109L183.355 396H182.457ZM186.816 396V390.344H188.887C190.09 390.344 190.676 390.992 190.676 391.828C190.676 392.531 190.246 392.891 189.723 393.023V393.078C190.285 393.109 190.895 393.602 190.895 394.477C190.895 395.344 190.301 396 188.98 396H186.816ZM188.902 395.266C189.715 395.266 190.043 394.906 190.043 394.438C190.043 393.898 189.613 393.461 188.934 393.461H187.676V395.266H188.902ZM188.816 392.789C189.387 392.789 189.832 392.438 189.832 391.898C189.832 391.43 189.512 391.078 188.832 391.078H187.676V392.789H188.816ZM191.934 396L194.457 391.125V391.078H191.543V390.344H195.348V391.109L192.832 396H191.934ZM196.293 396V390.344H198.363C199.566 390.344 200.152 390.992 200.152 391.828C200.152 392.531 199.723 392.891 199.199 393.023V393.078C199.762 393.109 200.371 393.602 200.371 394.477C200.371 395.344 199.777 396 198.457 396H196.293ZM198.379 395.266C199.191 395.266 199.52 394.906 199.52 394.438C199.52 393.898 199.09 393.461 198.41 393.461H197.152V395.266H198.379ZM198.293 392.789C198.863 392.789 199.309 392.438 199.309 391.898C199.309 391.43 198.988 391.078 198.309 391.078H197.152V392.789H198.293Z" fill="#FEFEFE"/>
<path d="M282.441 396H281.527L283.559 390.344H284.551L286.59 396H285.676L285.16 394.508H282.957L282.441 396ZM283.207 393.789H284.91L284.074 391.375H284.035L283.207 393.789ZM289.145 396H287.309V390.344H289.199C290.863 390.344 291.863 391.406 291.863 393.164C291.863 394.93 290.863 396 289.145 396ZM288.168 395.25H289.098C290.379 395.25 291.012 394.5 291.012 393.164C291.012 391.836 290.379 391.094 289.145 391.094H288.168V395.25ZM293.027 396H292.113L294.145 390.344H295.137L297.176 396H296.262L295.746 394.508H293.543L293.027 396ZM293.793 393.789H295.496L294.66 391.375H294.621L293.793 393.789ZM297.895 396V390.344H301.441V391.086H298.754V392.797H301.254V393.531H298.754V395.258H301.473V396H297.895ZM306.324 392.188C306.184 391.461 305.582 391.055 304.863 391.055C303.887 391.055 303.16 391.805 303.16 393.172C303.16 394.547 303.895 395.289 304.863 395.289C305.574 395.289 306.176 394.891 306.324 394.172L307.191 394.18C307.012 395.297 306.098 396.078 304.855 396.078C303.379 396.078 302.309 394.977 302.309 393.172C302.309 391.359 303.387 390.266 304.855 390.266C306.051 390.266 306.996 390.969 307.191 392.188H306.324ZM307.918 394.898V394.203L310.418 390.344H311.48V394.172H312.254V394.898H311.48V396H310.668V394.898H307.918ZM308.824 394.172H310.668V391.367H310.605L308.824 394.125V394.172Z" fill="#FEFEFE"/>
<path d="M459.973 396V390.344H463.48V391.086H460.832V392.797H463.23V393.531H460.832V396H459.973ZM464.441 396V390.344H467.988V391.086H465.301V392.797H467.801V393.531H465.301V395.258H468.02V396H464.441ZM469.043 396V390.344H472.551V391.086H469.902V392.797H472.301V393.531H469.902V396H469.043ZM473.512 396V390.344H477.059V391.086H474.371V392.797H476.871V393.531H474.371V395.258H477.09V396H473.512ZM478.113 396V390.344H481.621V391.086H478.973V392.797H481.371V393.531H478.973V396H478.113ZM482.582 396V390.344H486.129V391.086H483.441V392.797H485.941V393.531H483.441V395.258H486.16V396H482.582Z" fill="#7B7B7B"/>
<path d="M41.9258 396.078C40.6133 396.078 39.8477 395.023 39.8477 393.172C39.8477 391.336 40.6289 390.266 41.9258 390.266C43.2227 390.266 44.0039 391.336 44.0039 393.172C44.0039 395.023 43.2305 396.078 41.9258 396.078ZM41.9258 395.336C42.6914 395.336 43.1445 394.586 43.1445 393.172C43.1445 391.766 42.6836 390.992 41.9258 390.992C41.168 390.992 40.707 391.766 40.707 393.172C40.707 394.586 41.1602 395.336 41.9258 395.336ZM44.8945 396V395.375L46.8555 393.398C47.4727 392.75 47.7852 392.391 47.7852 391.898C47.7852 391.344 47.332 390.984 46.7383 390.984C46.1133 390.984 45.707 391.383 45.707 391.984H44.8945C44.8867 390.953 45.6758 390.266 46.7539 390.266C47.8477 390.266 48.5977 390.953 48.6055 391.875C48.5977 392.508 48.3008 393.008 47.2383 394.055L46.0898 395.219V395.266H48.6992V396H44.8945ZM51.6211 396.078C50.3086 396.078 49.543 395.023 49.543 393.172C49.543 391.336 50.3242 390.266 51.6211 390.266C52.918 390.266 53.6992 391.336 53.6992 393.172C53.6992 395.023 52.9258 396.078 51.6211 396.078ZM51.6211 395.336C52.3867 395.336 52.8398 394.586 52.8398 393.172C52.8398 391.766 52.3789 390.992 51.6211 390.992C50.8633 390.992 50.4023 391.766 50.4023 393.172C50.4023 394.586 50.8555 395.336 51.6211 395.336ZM54.5898 396V395.375L56.5508 393.398C57.168 392.75 57.4805 392.391 57.4805 391.898C57.4805 391.344 57.0273 390.984 56.4336 390.984C55.8086 390.984 55.4023 391.383 55.4023 391.984H54.5898C54.582 390.953 55.3711 390.266 56.4492 390.266C57.543 390.266 58.293 390.953 58.3008 391.875C58.293 392.508 57.9961 393.008 56.9336 394.055L55.7852 395.219V395.266H58.3945V396H54.5898ZM61.3164 396.078C60.0039 396.078 59.2383 395.023 59.2383 393.172C59.2383 391.336 60.0195 390.266 61.3164 390.266C62.6133 390.266 63.3945 391.336 63.3945 393.172C63.3945 395.023 62.6211 396.078 61.3164 396.078ZM61.3164 395.336C62.082 395.336 62.5352 394.586 62.5352 393.172C62.5352 391.766 62.0742 390.992 61.3164 390.992C60.5586 390.992 60.0977 391.766 60.0977 393.172C60.0977 394.586 60.5508 395.336 61.3164 395.336ZM64.2852 396V395.375L66.2461 393.398C66.8633 392.75 67.1758 392.391 67.1758 391.898C67.1758 391.344 66.7227 390.984 66.1289 390.984C65.5039 390.984 65.0977 391.383 65.0977 391.984H64.2852C64.2773 390.953 65.0664 390.266 66.1445 390.266C67.2383 390.266 67.9883 390.953 67.9961 391.875C67.9883 392.508 67.6914 393.008 66.6289 394.055L65.4805 395.219V395.266H68.0898V396H64.2852Z" fill="#FEFEFE"/>
<path d="M327.652 396H325.816V390.344H327.707C329.371 390.344 330.371 391.406 330.371 393.164C330.371 394.93 329.371 396 327.652 396ZM326.676 395.25H327.605C328.887 395.25 329.52 394.5 329.52 393.164C329.52 391.836 328.887 391.094 327.652 391.094H326.676V395.25ZM333.207 390.266C334.246 390.273 335.34 390.898 335.34 392.969C335.34 394.953 334.488 396.078 333.129 396.078C332.09 396.078 331.355 395.438 331.223 394.516H332.074C332.191 394.992 332.559 395.328 333.129 395.328C334.004 395.328 334.512 394.562 334.52 393.273H334.449C334.145 393.75 333.613 394.039 333.004 394.039C331.988 394.039 331.176 393.266 331.176 392.18C331.176 391.102 331.98 390.258 333.207 390.266ZM333.207 390.984C332.52 390.984 332.012 391.516 332.012 392.164C332.012 392.82 332.504 393.336 333.191 393.336C333.871 393.336 334.402 392.781 334.402 392.156C334.402 391.547 333.902 390.984 333.207 390.984ZM338.16 396H336.324V390.344H338.215C339.879 390.344 340.879 391.406 340.879 393.164C340.879 394.93 339.879 396 338.16 396ZM337.184 395.25H338.113C339.395 395.25 340.027 394.5 340.027 393.164C340.027 391.836 339.395 391.094 338.16 391.094H337.184V395.25ZM343.715 390.266C344.754 390.273 345.848 390.898 345.848 392.969C345.848 394.953 344.996 396.078 343.637 396.078C342.598 396.078 341.863 395.438 341.73 394.516H342.582C342.699 394.992 343.066 395.328 343.637 395.328C344.512 395.328 345.02 394.562 345.027 393.273H344.957C344.652 393.75 344.121 394.039 343.512 394.039C342.496 394.039 341.684 393.266 341.684 392.18C341.684 391.102 342.488 390.258 343.715 390.266ZM343.715 390.984C343.027 390.984 342.52 391.516 342.52 392.164C342.52 392.82 343.012 393.336 343.699 393.336C344.379 393.336 344.91 392.781 344.91 392.156C344.91 391.547 344.41 390.984 343.715 390.984ZM348.668 396H346.832V390.344H348.723C350.387 390.344 351.387 391.406 351.387 393.164C351.387 394.93 350.387 396 348.668 396ZM347.691 395.25H348.621C349.902 395.25 350.535 394.5 350.535 393.164C350.535 391.836 349.902 391.094 348.668 391.094H347.691V395.25ZM354.223 390.266C355.262 390.273 356.355 390.898 356.355 392.969C356.355 394.953 355.504 396.078 354.145 396.078C353.105 396.078 352.371 395.438 352.238 394.516H353.09C353.207 394.992 353.574 395.328 354.145 395.328C355.02 395.328 355.527 394.562 355.535 393.273H355.465C355.16 393.75 354.629 394.039 354.02 394.039C353.004 394.039 352.191 393.266 352.191 392.18C352.191 391.102 352.996 390.258 354.223 390.266ZM354.223 390.984C353.535 390.984 353.027 391.516 353.027 392.164C353.027 392.82 353.52 393.336 354.207 393.336C354.887 393.336 355.418 392.781 355.418 392.156C355.418 391.547 354.918 390.984 354.223 390.984Z" fill="#FEFEFE"/>
<path d="M370.969 396V390.344H374.477V391.086H371.828V392.797H374.227V393.531H371.828V396H370.969ZM377.328 396.078C376.016 396.078 375.25 395.023 375.25 393.172C375.25 391.336 376.031 390.266 377.328 390.266C378.625 390.266 379.406 391.336 379.406 393.172C379.406 395.023 378.633 396.078 377.328 396.078ZM377.328 395.336C378.094 395.336 378.547 394.586 378.547 393.172C378.547 391.766 378.086 390.992 377.328 390.992C376.57 390.992 376.109 391.766 376.109 393.172C376.109 394.586 376.562 395.336 377.328 395.336ZM380.375 396V390.344H383.883V391.086H381.234V392.797H383.633V393.531H381.234V396H380.375ZM386.734 396.078C385.422 396.078 384.656 395.023 384.656 393.172C384.656 391.336 385.438 390.266 386.734 390.266C388.031 390.266 388.812 391.336 388.812 393.172C388.812 395.023 388.039 396.078 386.734 396.078ZM386.734 395.336C387.5 395.336 387.953 394.586 387.953 393.172C387.953 391.766 387.492 390.992 386.734 390.992C385.977 390.992 385.516 391.766 385.516 393.172C385.516 394.586 385.969 395.336 386.734 395.336ZM389.781 396V390.344H393.289V391.086H390.641V392.797H393.039V393.531H390.641V396H389.781ZM396.141 396.078C394.828 396.078 394.062 395.023 394.062 393.172C394.062 391.336 394.844 390.266 396.141 390.266C397.438 390.266 398.219 391.336 398.219 393.172C398.219 395.023 397.445 396.078 396.141 396.078ZM396.141 395.336C396.906 395.336 397.359 394.586 397.359 393.172C397.359 391.766 396.898 390.992 396.141 390.992C395.383 390.992 394.922 391.766 394.922 393.172C394.922 394.586 395.375 395.336 396.141 395.336Z" fill="#7B7B7B"/>
<path d="M415.031 396V390.344H418.539V391.086H415.891V392.797H418.289V393.531H415.891V396H415.031ZM421.344 396.078C420.273 396.078 419.469 395.422 419.43 394.523H420.266C420.312 395.008 420.773 395.359 421.344 395.359C422.031 395.359 422.523 394.859 422.523 394.188C422.523 393.5 422.016 393 421.305 392.992C420.852 392.992 420.508 393.141 420.312 393.492H419.5L419.867 390.344H423.07V391.078H420.578L420.391 392.664H420.445C420.68 392.438 421.078 392.281 421.508 392.281C422.57 392.281 423.359 393.07 423.359 394.164C423.359 395.281 422.523 396.078 421.344 396.078ZM424.352 396V390.344H427.859V391.086H425.211V392.797H427.609V393.531H425.211V396H424.352ZM430.664 396.078C429.594 396.078 428.789 395.422 428.75 394.523H429.586C429.633 395.008 430.094 395.359 430.664 395.359C431.352 395.359 431.844 394.859 431.844 394.188C431.844 393.5 431.336 393 430.625 392.992C430.172 392.992 429.828 393.141 429.633 393.492H428.82L429.188 390.344H432.391V391.078H429.898L429.711 392.664H429.766C430 392.438 430.398 392.281 430.828 392.281C431.891 392.281 432.68 393.07 432.68 394.164C432.68 395.281 431.844 396.078 430.664 396.078ZM433.672 396V390.344H437.18V391.086H434.531V392.797H436.93V393.531H434.531V396H433.672ZM440.109 396.078C439.062 396.07 437.969 395.453 437.969 393.359C437.969 391.391 438.82 390.266 440.18 390.266C441.219 390.266 441.945 390.914 442.078 391.812H441.227C441.117 391.352 440.75 391.016 440.18 391.016C439.305 391.016 438.797 391.781 438.797 393.055H438.859C439.164 392.578 439.695 392.289 440.312 392.289C441.32 392.289 442.133 393.062 442.133 394.148C442.133 395.242 441.328 396.086 440.109 396.078ZM440.102 395.359C440.789 395.359 441.297 394.828 441.297 394.164C441.297 393.516 440.805 392.992 440.125 392.992C439.43 392.992 438.906 393.539 438.898 394.172C438.906 394.797 439.406 395.359 440.102 395.359Z" fill="#7B7B7B"/>
</svg>
