<svg id="Layer_1" data-name="Layer 1" xmlns="http://www.w3.org/2000/svg" viewBox="0 0 303 55"><defs><style>.cls-1{fill:#e4efff;}</style></defs><path class="cls-1" d="M178.31,23.39a2.9,2.9,0,0,0-5.79,0,2.9,2.9,0,0,0,5.79,0Z"/><rect class="cls-1" x="203.02" y="20.9" width="4.45" height="6.47"/><path class="cls-1" d="M0,0V55H303V0ZM260.06,18.21H275v2.41H263.11v2.25H274.5v2.34H263.11v2.44h12.05V30h-15.1Zm-11.79-1.15h2.84V29.53h-2.84V24.32h-2.36V21.91h2.36Zm-51.21,1.45h16.36V20.9h-3v6.47h2.91v2.34H197.16V27.37H200V20.9h-3Zm-12.93-1.85h3V32h-3ZM39.75,29.86c0,3.72-2.81,6.18-7,6.18s-7-2.46-7-6.18v-11h3.52V29.57A3.28,3.28,0,0,0,32.72,33a3.27,3.27,0,0,0,3.49-3.38V18.84h3.54Zm13.22,6L49.45,30h-.11l-3.52,5.84h-4l5.32-8.49-5.23-8.48h4l3.47,5.84h.11L53,18.84h4l-5.18,8.48,5.3,8.49Zm13.41,2.55h-3L68.86,18h3Zm26.69-8.5c0,3.72-2.81,6.18-7,6.18s-7-2.46-7-6.18v-11h3.52V29.57a3.49,3.49,0,0,0,7,0V18.84h3.54Zm6.38,6H95.93v-17h3.52ZM110.11,33h-1.92V24.28h7.08V20.83h-7.11V18.42h10.15v8.22h-7v3.92a56.37,56.37,0,0,0,9.14-.7l.26,2.41A59.06,59.06,0,0,1,110.11,33Zm14.81,5h-3V16.64h3Zm6-5.08h-1.85V18.51h10.38V21h-7.38v9.44a47.3,47.3,0,0,0,8.86-.58l.28,2.46A52.61,52.61,0,0,1,130.92,32.93ZM145.64,38h-3V16.64h3ZM160,33.42a10,10,0,0,1-5-5.84A10.56,10.56,0,0,1,149.77,34L148,31.59c3.56-1.66,5.35-5.63,5.37-9.14V21.14h-4.52V18.7h11.81v2.44H156.4v1.31a9.45,9.45,0,0,0,5.23,8.62Zm8.53-6.14h-3.14V38h-3V16.64h3v8.13h3.14Zm1.1-3.89c0-3.12,2.56-5.37,5.84-5.37s5.84,2.25,5.84,5.37-2.56,5.41-5.84,5.41S169.59,26.57,169.59,23.39Zm18.1,14.2H172.83V30.44h3V35.2h11.84Zm27.37-2.11H195.54V33h19.52Zm20.74.12H216.28V33.14h8.23V29.93h-6V22.75H230.6V20.41H218.51V18h15V25.1h-12v2.39h12.52v2.44h-6.57v3.21h8.32Zm.92-8.49a6.09,6.09,0,0,0,4.12-5.9v-.64h-3.39V18.18h9.49v2.39h-3.19v.66a5.71,5.71,0,0,0,3.87,5.53l-1.5,2.3a6.77,6.77,0,0,1-3.78-3.52,7.32,7.32,0,0,1-4.05,3.94ZM255.35,38h-3V32.79H240.61V30.42h14.74Zm0-8.32h-2.83v-13h2.83Zm21.94,5.84H257.77V33h19.52Z"/></svg>