<?xml version="1.0" standalone="no"?>
<!DOCTYPE svg PUBLIC "-//W3C//DTD SVG 20010904//EN"
 "http://www.w3.org/TR/2001/REC-SVG-20010904/DTD/svg10.dtd">
<svg version="1.0" xmlns="http://www.w3.org/2000/svg"
 width="1000.000000pt" height="1000.000000pt" viewBox="0 0 1000.000000 1000.000000"
 preserveAspectRatio="xMidYMid meet">
<metadata>
Created by potrace 1.14, written by Peter Selinger 2001-2017
</metadata>
<g transform="translate(0.000000,1000.000000) scale(0.100000,-0.100000)"
fill="#000000" stroke="none">
<path d="M4730 9811 c-100 -31 -271 -190 -422 -391 -168 -227 -323 -457 -373
-555 -136 -269 -206 -749 -177 -1220 l10 -160 -97 -100 c-118 -122 -190 -211
-282 -352 -229 -350 -369 -813 -369 -1222 l0 -111 -68 -34 c-82 -41 -174 -110
-231 -171 -54 -59 -118 -158 -133 -206 -9 -31 -17 -39 -42 -44 -186 -37 -346
-156 -475 -352 -212 -321 -226 -629 -43 -908 60 -91 186 -216 289 -289 72 -50
82 -60 73 -76 -16 -30 -22 -30 -111 -14 -101 20 -282 14 -374 -11 -93 -25
-253 -108 -327 -169 -124 -103 -211 -230 -264 -384 -107 -311 -30 -646 200
-877 96 -96 181 -154 291 -196 114 -44 194 -59 325 -59 l116 0 19 -32 c61
-106 214 -278 335 -378 59 -49 258 -184 283 -193 5 -1 -3 -23 -18 -47 -42 -66
-83 -173 -101 -263 -55 -269 76 -545 360 -759 68 -51 84 -59 110 -54 70 14
248 182 343 323 98 146 154 340 138 476 -6 54 -5 58 12 54 104 -30 475 -39
608 -15 l70 13 68 -57 c399 -332 978 -205 1214 267 60 118 85 218 91 359 9
243 -50 429 -194 608 -30 37 -54 69 -54 71 0 3 26 8 58 12 518 62 967 388
1067 776 19 71 21 202 6 272 -14 58 -60 149 -99 196 l-29 34 101 51 c84 42
115 64 187 136 96 95 131 156 156 273 22 109 -1 256 -58 370 l-20 38 79 117
c131 196 218 373 285 577 123 377 149 779 74 1153 -13 62 -20 112 -17 112 3 0
57 -22 121 -49 241 -102 463 -160 775 -202 328 -43 533 -42 716 5 242 62 414
219 459 421 10 44 10 64 0 97 -46 154 -265 282 -609 355 -118 25 -144 27 -377
28 -234 0 -261 -2 -415 -29 -147 -27 -187 -30 -370 -30 -169 0 -225 4 -322 22
-98 19 -283 71 -292 83 -147 204 -279 349 -419 464 -88 72 -92 85 -30 85 25 0
45 -11 88 -50 61 -55 70 -57 138 -34 46 16 47 17 47 59 0 106 -63 209 -148
242 -96 37 -245 13 -355 -57 l-46 -29 -126 60 c-69 34 -125 62 -125 63 0 2 9
38 20 81 54 212 -5 428 -125 455 -61 14 -165 -20 -209 -69 -17 -19 -18 -23 -4
-38 9 -10 23 -33 32 -51 18 -35 89 -303 82 -309 -2 -3 -21 1 -43 7 -33 10 -44
22 -82 88 -92 161 -170 272 -197 283 -34 12 -105 3 -161 -22 -38 -16 -43 -21
-43 -51 0 -62 89 -171 177 -216 31 -16 21 -17 -230 -17 -229 0 -276 -3 -378
-22 -94 -18 -262 -63 -373 -100 -16 -5 -15 -1 7 34 80 127 191 382 265 613
142 441 217 972 160 1142 -28 83 -112 125 -198 99z m810 -1946 c646 -108 1183
-511 1466 -1100 143 -298 205 -569 206 -900 1 -188 -11 -304 -48 -473 -66
-298 -216 -617 -400 -853 -54 -67 -55 -88 -10 -177 70 -139 84 -253 44 -359
-52 -141 -247 -268 -499 -327 -437 -101 -1124 -51 -1698 125 -86 26 -122 25
-151 -6 -27 -29 -29 -78 -5 -105 15 -16 11 -20 -47 -58 -155 -101 -317 -158
-423 -149 -70 5 -109 23 -156 69 -91 91 -92 163 -5 247 l35 34 73 -21 c94 -28
119 -28 148 3 28 30 31 77 6 104 -10 11 -75 38 -144 61 -239 78 -526 234 -719
392 -306 249 -511 578 -490 784 15 147 195 337 379 399 79 27 79 29 83 237 6
352 69 623 215 923 312 643 900 1069 1600 1161 131 17 408 11 540 -11z m-2976
-2830 c34 -221 234 -523 501 -754 l59 -51 -61 -62 c-59 -59 -62 -60 -92 -50
-20 7 -40 8 -54 3 -12 -5 -103 -90 -201 -190 l-179 -180 -60 36 c-98 59 -206
152 -268 230 -195 245 -195 498 1 789 93 137 189 221 297 260 52 18 50 19 57
-31z m3795 -1545 c58 -29 119 -104 137 -169 21 -70 14 -184 -16 -263 -45 -122
-164 -268 -299 -367 -137 -102 -370 -196 -556 -226 l-40 -6 -1 218 c-1 351
-26 583 -65 583 -6 0 -9 37 -7 100 l3 99 285 5 c227 4 305 8 385 24 131 25
130 25 174 2z m-4064 -55 c33 -8 98 -34 145 -57 166 -81 309 -261 356 -448 22
-85 22 -245 0 -330 -9 -36 -35 -103 -58 -150 -33 -68 -58 -102 -127 -171 -71
-71 -102 -94 -181 -133 -352 -173 -757 -34 -930 319 -228 467 132 1016 650
990 47 -3 112 -11 145 -20z m1067 -520 c170 -29 348 -107 484 -211 138 -105
296 -295 447 -536 16 -26 15 -29 -28 -115 -70 -141 -90 -230 -90 -408 0 -168
16 -243 80 -383 20 -41 32 -78 29 -81 -3 -3 -96 -6 -207 -6 -166 1 -226 5
-332 24 -417 74 -759 209 -1001 396 -90 69 -210 191 -275 278 l-59 79 94 47
c227 114 375 295 448 548 19 65 23 103 23 225 l0 147 25 4 c66 10 285 6 362
-8z m1756 -590 c181 -43 341 -177 429 -362 46 -95 62 -159 70 -273 20 -312
-161 -599 -443 -702 -81 -30 -255 -37 -344 -14 -186 48 -339 177 -426 361 -53
112 -68 183 -67 320 1 209 62 356 207 501 87 87 185 144 288 170 73 17 210 17
286 -1z m-1957 -1141 c47 -18 151 -51 230 -72 138 -38 144 -41 150 -68 11 -49
10 -183 -2 -230 -11 -43 -12 -44 -23 -22 -17 35 -50 34 -76 -1 -12 -17 -25
-31 -29 -31 -5 0 -39 47 -77 105 -65 100 -96 127 -123 111 -5 -3 -33 -50 -62
-104 -29 -53 -54 -92 -56 -87 -3 6 -19 51 -36 100 -29 80 -35 90 -58 93 -21 2
-31 -4 -49 -32 -12 -20 -24 -36 -27 -36 -13 0 7 101 32 162 40 99 82 162 103
153 9 -4 56 -23 103 -41z"/>
<path d="M3874 5516 c-144 -63 -212 -324 -108 -415 59 -52 131 -37 201 43 149
170 80 447 -93 372z"/>
<path d="M4483 4811 c-52 -24 -77 -68 -70 -123 23 -168 314 -252 397 -115 24
39 25 66 5 115 -23 53 -52 81 -120 113 -73 35 -148 38 -212 10z"/>
<path d="M5683 4809 c-24 -11 -57 -37 -74 -57 -62 -71 -103 -196 -85 -266 10
-40 54 -85 91 -92 128 -24 284 173 261 329 -15 97 -97 134 -193 86z"/>
<path d="M1920 3272 c-22 -10 -42 -32 -54 -55 -37 -77 17 -157 108 -157 53 0
106 52 106 104 0 51 -23 90 -64 110 -43 20 -53 20 -96 -2z"/>
<path d="M2239 3085 c-70 -38 -49 -144 37 -185 55 -27 104 -21 134 17 26 34
25 72 -2 113 -42 61 -115 85 -169 55z"/>
<path d="M1631 3018 c-14 -7 -30 -26 -36 -43 -48 -122 171 -219 222 -98 12 31
12 38 -4 71 -10 19 -30 44 -44 55 -34 24 -106 32 -138 15z"/>
<path d="M2045 2472 c-99 -47 -125 -138 -60 -210 75 -84 214 -80 288 7 31 37
36 94 12 141 -35 67 -160 100 -240 62z"/>
<path d="M4753 2175 c-13 -9 -28 -33 -34 -55 -10 -33 -9 -47 5 -85 31 -80 117
-112 164 -62 86 91 -36 272 -135 202z"/>
<path d="M5112 2164 c-34 -24 -55 -72 -48 -112 10 -67 84 -114 142 -92 91 35
111 142 36 200 -30 24 -98 26 -130 4z"/>
<path d="M5231 1793 c-12 -14 -24 -37 -27 -50 -18 -71 43 -163 109 -163 95 0
121 164 35 224 -37 26 -93 21 -117 -11z"/>
<path d="M4665 1536 c-43 -19 -66 -49 -72 -94 -16 -116 92 -223 213 -209 121
13 149 153 50 252 -39 38 -99 66 -142 65 -11 -1 -32 -7 -49 -14z"/>
</g>
</svg>
