<svg width="790" height="262" viewBox="0 0 790 262" fill="none" xmlns="http://www.w3.org/2000/svg">
<path d="M46.709 53.8594C46.4512 52.1406 45.1191 51.0879 43.3145 51.0879C40.8867 51.0879 39.2969 52.957 39.2969 56.2227C39.2969 59.5742 40.9082 61.3574 43.293 61.3574C45.0762 61.3574 46.3867 60.3691 46.709 58.6934L49.9746 58.7148C49.6094 61.5938 47.2031 64.2148 43.25 64.2148C39.082 64.2148 36.0098 61.293 36.0098 56.2227C36.0098 51.1523 39.1465 48.2305 43.25 48.2305C46.8379 48.2305 49.5449 50.293 49.9746 53.8594H46.709ZM57.4082 64.2363C53.8848 64.2363 51.6934 61.8086 51.6934 58.1992C51.6934 54.5898 53.8848 52.1836 57.4082 52.1836C60.9316 52.1836 63.1445 54.5898 63.1445 58.1992C63.1445 61.8086 60.9316 64.2363 57.4082 64.2363ZM57.4297 61.7656C59.0625 61.7656 59.9004 60.2402 59.9004 58.1992C59.9004 56.1367 59.0625 54.6113 57.4297 54.6113C55.7754 54.6113 54.916 56.1367 54.916 58.1992C54.916 60.2402 55.7754 61.7656 57.4297 61.7656ZM68.3223 48.4453V64H65.1426V48.4453H68.3223ZM76.0352 64.2363C72.5117 64.2363 70.3203 61.8086 70.3203 58.1992C70.3203 54.5898 72.5117 52.1836 76.0352 52.1836C79.5586 52.1836 81.7715 54.5898 81.7715 58.1992C81.7715 61.8086 79.5586 64.2363 76.0352 64.2363ZM76.0566 61.7656C77.6895 61.7656 78.5273 60.2402 78.5273 58.1992C78.5273 56.1367 77.6895 54.6113 76.0566 54.6113C74.4023 54.6113 73.543 56.1367 73.543 58.1992C73.543 60.2402 74.4023 61.7656 76.0566 61.7656ZM83.7695 64V52.334H86.8418V54.3535H86.9707C87.4004 52.9141 88.4746 52.1621 89.7852 52.1621C90.1074 52.1621 90.5156 52.2051 90.7949 52.2695V55.1055C90.4941 55.0195 89.8926 54.9336 89.4414 54.9336C88.002 54.9336 86.9492 55.9434 86.9492 57.3613V64H83.7695Z" fill="#2D2D2D"/>
<path d="M48.4473 80.5215V80.9258C48.4414 81.7695 48.4238 82.5049 48.3945 83.1318C48.3652 83.7588 48.3008 84.4912 48.2012 85.3291C48.1016 86.1611 47.9492 87.0605 47.7441 88.0273L45.8281 87.834C46.0742 86.6855 46.2559 85.543 46.373 84.4062L37.0039 84.9336L36.7227 83.2637L46.4785 82.9121C46.502 82.3789 46.5195 81.6289 46.5312 80.6621H37.2148V79.0801H48.4473V80.5215ZM50.0117 91.6133H35.5273V89.9961H40.8711V86.0762H42.8047V89.9961H50.0117V91.6133ZM62.8972 81.4883H65.112V83.123H62.8972V86.9902H60.946V77.6738H62.8972V81.4883ZM62.8972 93.582H60.946V89.3633H52.3152V87.8164H62.8972V93.582ZM58.1511 80.3633H52.9655V84.4238C54.53 84.418 55.7839 84.3828 56.7273 84.3184C57.6706 84.248 58.5964 84.1191 59.5046 83.9316L59.7155 85.4785C58.7312 85.6953 57.7175 85.8389 56.6745 85.9092C55.6316 85.9736 54.1784 86.0059 52.3152 86.0059H51.032V78.7812H58.1511V80.3633ZM70.351 78.7812C71.1772 78.7754 71.9213 78.9365 72.5834 79.2646C73.2514 79.5869 73.7729 80.041 74.1479 80.627C74.5287 81.2129 74.7221 81.875 74.728 82.6133C74.7221 83.3574 74.5287 84.0225 74.1479 84.6084C73.7729 85.1943 73.2543 85.6514 72.5922 85.9795C71.9301 86.3018 71.183 86.4629 70.351 86.4629C69.5248 86.4629 68.7807 86.2988 68.1186 85.9707C67.4565 85.6426 66.935 85.1885 66.5541 84.6084C66.1791 84.0225 65.9916 83.3574 65.9916 82.6133C65.9916 81.875 66.1791 81.2129 66.5541 80.627C66.935 80.041 67.4565 79.5869 68.1186 79.2646C68.7866 78.9365 69.5307 78.7754 70.351 78.7812ZM70.351 80.4688C69.8881 80.4688 69.4721 80.5566 69.103 80.7324C68.7338 80.9082 68.4438 81.1602 68.2329 81.4883C68.0278 81.8105 67.9252 82.1855 67.9252 82.6133C67.9252 83.0469 68.0278 83.4277 68.2329 83.7559C68.4438 84.0781 68.7338 84.3271 69.103 84.5029C69.4721 84.6729 69.8881 84.7578 70.351 84.7578C70.8198 84.7578 71.2387 84.6729 71.6079 84.5029C71.9829 84.3271 72.2758 84.0781 72.4868 83.7559C72.7036 83.4277 72.812 83.0469 72.812 82.6133C72.812 82.1855 72.7036 81.8105 72.4868 81.4883C72.2758 81.1602 71.9829 80.9082 71.6079 80.7324C71.2387 80.5566 70.8198 80.4688 70.351 80.4688ZM78.437 93.582H76.4858V77.6738H78.437V93.582ZM65.2709 88.6602C67.2162 88.6602 69.0327 88.6279 70.7202 88.5635C72.4135 88.4932 74.019 88.3496 75.5366 88.1328L75.6948 89.5566C74.1245 89.8613 72.5278 90.0547 70.9047 90.1367C69.2875 90.2188 67.4916 90.2598 65.517 90.2598L65.2709 88.6602ZM96.8954 87.1133H94.9442V83.2285H92.2372V81.6289H94.9442V77.6738H96.8954V87.1133ZM91.5165 87.5176C92.6356 87.5176 93.6024 87.6377 94.4169 87.8779C95.2372 88.1123 95.8641 88.458 96.2977 88.915C96.7313 89.3662 96.9481 89.9082 96.9481 90.541C96.9481 91.1738 96.7313 91.7158 96.2977 92.167C95.8641 92.624 95.2372 92.9697 94.4169 93.2041C93.6024 93.4443 92.6356 93.5645 91.5165 93.5645C90.4032 93.5645 89.4393 93.4443 88.6249 93.2041C87.8104 92.9697 87.1864 92.624 86.7528 92.167C86.3251 91.7158 86.1141 91.1738 86.12 90.541C86.1141 89.9082 86.3251 89.3662 86.7528 88.915C87.1864 88.458 87.8104 88.1123 88.6249 87.8779C89.4393 87.6377 90.4032 87.5176 91.5165 87.5176ZM91.5165 89.0117C90.4032 89.0117 89.5477 89.1436 88.9501 89.4072C88.3524 89.665 88.0536 90.043 88.0536 90.541C88.0536 91.0332 88.3524 91.4082 88.9501 91.666C89.5477 91.9238 90.4032 92.0527 91.5165 92.0527C92.6298 92.0527 93.4882 91.9238 94.0917 91.666C94.6952 91.4082 94.997 91.0332 94.997 90.541C94.997 90.043 94.6952 89.665 94.0917 89.4072C93.4882 89.1436 92.6298 89.0117 91.5165 89.0117ZM89.4247 80.3984C89.4247 81.0547 89.5682 81.6934 89.8554 82.3145C90.1425 82.9297 90.5673 83.4834 91.1298 83.9756C91.6923 84.4619 92.372 84.8398 93.1688 85.1094L92.1845 86.6562C91.3231 86.3633 90.5761 85.9326 89.9432 85.3643C89.3163 84.79 88.8241 84.1221 88.4667 83.3604C88.1093 84.2217 87.5995 84.9746 86.9374 85.6191C86.2753 86.2578 85.4813 86.7441 84.5555 87.0781L83.536 85.5312C84.3622 85.25 85.0682 84.8428 85.6542 84.3096C86.2401 83.7705 86.6825 83.1641 86.9813 82.4902C87.286 81.8164 87.4384 81.125 87.4384 80.416V80.293H84.1337V78.7109H92.7118V80.293H89.4247V80.3984ZM103.277 82.5254C103.277 83.3691 103.394 84.1865 103.629 84.9775C103.869 85.7627 104.229 86.4775 104.71 87.1221C105.196 87.7607 105.796 88.2734 106.511 88.6602L105.421 90.1016C104.707 89.7207 104.094 89.1992 103.585 88.5371C103.075 87.875 102.673 87.1133 102.38 86.252C102.088 87.1895 101.683 88.0215 101.168 88.748C100.658 89.4688 100.043 90.043 99.3219 90.4707L98.1793 88.9941C98.9 88.5781 99.5035 88.0273 99.9898 87.3418C100.482 86.6504 100.845 85.8916 101.08 85.0654C101.314 84.2393 101.431 83.3926 101.431 82.5254V82.0332H98.7242V80.4512H101.431V78.2363H103.277V80.4512H105.931V82.0332H103.277V82.5254ZM112.101 93.5645H110.238V77.6738H112.101V93.5645ZM108.867 92.791H107.021V85.3906H104.947V83.7734H107.021V77.9727H108.867V92.791ZM119.08 79.959C119.075 80.6914 119.212 81.3828 119.493 82.0332C119.775 82.6836 120.197 83.2578 120.759 83.7559C121.327 84.248 122.016 84.623 122.825 84.8809L121.77 86.4102C120.914 86.1113 120.182 85.6836 119.573 85.127C118.969 84.5703 118.494 83.9082 118.149 83.1406C117.791 84.0254 117.279 84.793 116.611 85.4434C115.943 86.0879 115.137 86.5742 114.194 86.9023L113.157 85.3203C114.012 85.0391 114.736 84.6318 115.327 84.0986C115.919 83.5654 116.365 82.9502 116.663 82.2529C116.962 81.5557 117.112 80.8203 117.112 80.0469V78.5352H119.08V79.959ZM126.569 87.0254H124.618V82.3496H121.453V80.75H124.618V77.6738H126.569V87.0254ZM121.19 87.4473C122.309 87.4473 123.276 87.5674 124.09 87.8076C124.91 88.0479 125.537 88.3994 125.971 88.8623C126.405 89.3193 126.621 89.8672 126.621 90.5059C126.621 91.1445 126.405 91.6924 125.971 92.1494C125.537 92.6064 124.913 92.9521 124.099 93.1865C123.284 93.4268 122.315 93.5469 121.19 93.5469C120.071 93.5469 119.104 93.4268 118.289 93.1865C117.481 92.9521 116.86 92.6064 116.426 92.1494C115.998 91.6924 115.787 91.1445 115.793 90.5059C115.787 89.8672 115.998 89.3193 116.426 88.8623C116.86 88.3994 117.484 88.0479 118.298 87.8076C119.113 87.5674 120.076 87.4473 121.19 87.4473ZM121.19 88.959C120.076 88.959 119.221 89.0938 118.623 89.3633C118.026 89.627 117.727 90.0078 117.727 90.5059C117.727 90.9922 118.026 91.3672 118.623 91.6309C119.227 91.8887 120.082 92.0176 121.19 92.0176C122.297 92.0176 123.153 91.8857 123.756 91.6221C124.366 91.3584 124.67 90.9863 124.67 90.5059C124.67 90.0078 124.368 89.627 123.765 89.3633C123.161 89.0938 122.303 88.959 121.19 88.959ZM135.323 77.9199C136.53 77.9199 137.559 78.0254 138.408 78.2363C139.264 78.4473 139.917 78.7578 140.368 79.168C140.819 79.5723 141.048 80.0645 141.054 80.6445C141.048 81.5234 140.547 82.1973 139.551 82.666C138.555 83.1348 137.146 83.375 135.323 83.3867C133.495 83.375 132.083 83.1348 131.087 82.666C130.091 82.1973 129.593 81.5234 129.593 80.6445C129.593 80.0645 129.818 79.5723 130.27 79.168C130.721 78.7578 131.374 78.4473 132.23 78.2363C133.085 78.0254 134.116 77.9199 135.323 77.9199ZM135.323 79.3613C134.116 79.3613 133.199 79.4727 132.572 79.6953C131.945 79.9121 131.638 80.2285 131.649 80.6445C131.644 81.0781 131.948 81.4004 132.564 81.6113C133.179 81.8223 134.099 81.9277 135.323 81.9277C136.565 81.9277 137.494 81.8223 138.109 81.6113C138.725 81.4004 139.032 81.0781 139.032 80.6445C139.032 80.2285 138.719 79.9121 138.092 79.6953C137.465 79.4727 136.542 79.3613 135.323 79.3613ZM142.583 85.7949H128.099V84.2305H142.583V85.7949ZM140.772 90.752H131.737V91.9297H141.212V93.4238H129.821V89.3633H138.856V88.3086H129.804V86.8672H140.772V90.752ZM161.288 85.4082H158.932V93.5293H156.981V77.6738H158.932V83.8086H161.288V85.4082ZM148.983 87.9922C151.391 87.9512 153.647 87.7109 155.75 87.2715L155.961 88.9238C153.647 89.3809 151.122 89.6094 148.385 89.6094H147.049V79.2207H148.983V87.9922ZM169.48 80.6445H163.96V83.4746H169.198V85.0215H163.96V88.291C165.29 88.2793 166.456 88.2412 167.458 88.1768C168.46 88.1123 169.486 87.9922 170.534 87.8164L170.71 89.3984C169.55 89.5801 168.404 89.7061 167.274 89.7764C166.149 89.8408 164.821 89.873 163.292 89.873H161.974V79.0449H169.48V80.6445ZM173.769 83.8262H176.212V85.4609H173.769V93.5645H171.818V77.6738H173.769V83.8262ZM189.801 93.5645H187.92V85.5312H186.162V92.7559H184.334V77.9727H186.162V83.9316H187.92V77.6738H189.801V93.5645ZM178.814 87.8867C180.42 87.8574 181.932 87.6992 183.35 87.4121L183.543 89.1172C182.535 89.2988 181.574 89.4277 180.66 89.5039C179.746 89.5742 178.826 89.6094 177.9 89.6094H176.846V79.502H178.814V87.8867ZM203.864 83.7207H192.86V78.2539H194.794V82.1738H203.864V83.7207ZM205.499 87.1133H190.979V85.5664H205.499V87.1133ZM203.969 93.1953H192.719V88.5195H194.671V91.6133H203.969V93.1953ZM222.305 86.2344H217.611V90.084H223.904V91.666H209.385V90.084H215.643V86.2344H211.055V78.9395H213.059V84.6523H222.305V86.2344ZM236.755 82.3672H238.987V84.002H236.755V89.3809H234.804V77.6914H236.755V82.3672ZM237.405 93.248H226.647V88.4492H228.634V91.666H237.405V93.248ZM232.079 83.5098H226.788V85.4609C228.188 85.4492 229.392 85.4082 230.4 85.3379C231.414 85.2617 232.448 85.1328 233.503 84.9512L233.714 86.5508C232.595 86.75 231.481 86.8818 230.374 86.9463C229.266 87.0107 227.854 87.043 226.137 87.043H224.837V82.0332H230.163V80.2754H224.819V78.6758H232.079V83.5098ZM244.015 80.5566C244.015 81.166 244.126 81.752 244.349 82.3145C244.578 82.877 244.923 83.3838 245.386 83.835C245.849 84.2861 246.417 84.6465 247.091 84.916L246.037 86.4102C245.357 86.1348 244.768 85.751 244.27 85.2588C243.778 84.7666 243.385 84.1924 243.092 83.5361C242.788 84.2803 242.372 84.9365 241.844 85.5049C241.317 86.0732 240.687 86.5156 239.955 86.832L238.917 85.3203C239.615 85.0098 240.204 84.5996 240.684 84.0898C241.165 83.5742 241.525 83.0117 241.765 82.4023C242.005 81.793 242.128 81.1777 242.134 80.5566V78.623H244.015V80.5566ZM252.646 87.3066H250.783V83.2637H249.201V87.2188H247.373V77.9551H249.201V81.6465H250.783V77.6914H252.646V87.3066ZM252.646 93.5645H250.695V89.627H241.765V88.0625H252.646V93.5645ZM261.119 77.9199C262.326 77.9199 263.355 78.0254 264.204 78.2363C265.06 78.4473 265.713 78.7578 266.164 79.168C266.615 79.5723 266.844 80.0645 266.85 80.6445C266.844 81.5234 266.343 82.1973 265.347 82.666C264.351 83.1348 262.942 83.375 261.119 83.3867C259.291 83.375 257.879 83.1348 256.883 82.666C255.887 82.1973 255.389 81.5234 255.389 80.6445C255.389 80.0645 255.614 79.5723 256.066 79.168C256.517 78.7578 257.17 78.4473 258.026 78.2363C258.881 78.0254 259.912 77.9199 261.119 77.9199ZM261.119 79.3613C259.912 79.3613 258.995 79.4727 258.368 79.6953C257.741 79.9121 257.434 80.2285 257.446 80.6445C257.44 81.0781 257.744 81.4004 258.36 81.6113C258.975 81.8223 259.895 81.9277 261.119 81.9277C262.362 81.9277 263.29 81.8223 263.906 81.6113C264.521 81.4004 264.828 81.0781 264.828 80.6445C264.828 80.2285 264.515 79.9121 263.888 79.6953C263.261 79.4727 262.338 79.3613 261.119 79.3613ZM268.379 85.7949H253.895V84.2305H268.379V85.7949ZM266.569 90.752H257.533V91.9297H267.008V93.4238H255.617V89.3633H264.653V88.3086H255.6V86.8672H266.569V90.752ZM279.015 83.5273H280.861V77.9551H282.724V92.791H280.861V85.1094H279.015V89.4688H272.775V79.3965H279.015V83.5273ZM274.603 87.9219H277.187V80.9434H274.603V87.9219ZM285.994 93.5645H284.113V77.6738H285.994V93.5645ZM300.356 89.1699H298.387V77.6914H300.356V89.1699ZM300.795 93.248H289.844V88.0098H291.813V91.666H300.795V93.248ZM291.69 78.7285C292.487 78.7285 293.21 78.9014 293.861 79.2471C294.511 79.5869 295.024 80.0586 295.399 80.6621C295.774 81.2656 295.961 81.9453 295.961 82.7012C295.961 83.4688 295.774 84.1572 295.399 84.7666C295.024 85.3701 294.511 85.8418 293.861 86.1816C293.21 86.5215 292.487 86.6914 291.69 86.6914C290.887 86.6914 290.158 86.5215 289.501 86.1816C288.851 85.8418 288.338 85.3701 287.963 84.7666C287.588 84.1572 287.401 83.4688 287.401 82.7012C287.401 81.9453 287.588 81.2656 287.963 80.6621C288.338 80.0586 288.851 79.5869 289.501 79.2471C290.158 78.9014 290.887 78.7285 291.69 78.7285ZM291.69 80.4336C291.239 80.4336 290.831 80.5273 290.468 80.7148C290.105 80.9023 289.821 81.1689 289.616 81.5146C289.411 81.8604 289.311 82.2559 289.317 82.7012C289.311 83.1582 289.411 83.5596 289.616 83.9053C289.821 84.251 290.105 84.5176 290.468 84.7051C290.831 84.8926 291.239 84.9863 291.69 84.9863C292.129 84.9863 292.528 84.8926 292.885 84.7051C293.243 84.5176 293.524 84.251 293.729 83.9053C293.94 83.5596 294.045 83.1582 294.045 82.7012C294.045 82.2559 293.94 81.8604 293.729 81.5146C293.524 81.1689 293.243 80.9023 292.885 80.7148C292.528 80.5273 292.129 80.4336 291.69 80.4336ZM313.805 78.3945C313.799 79.8008 313.541 81.0254 313.031 82.0684C312.521 83.1055 311.733 83.9814 310.667 84.6963C309.606 85.4053 308.238 85.9648 306.562 86.375L305.859 84.8809C308.121 84.3535 309.723 83.5449 310.667 82.4551L306.176 82.7891L305.877 81.2949L311.467 81.084C311.59 80.7383 311.675 80.3516 311.722 79.9238H306.685V78.3945H313.805ZM318.814 85.7773H316.863V82.8242H313.84V81.2246H316.863V77.6738H318.814V85.7773ZM318.814 90.541H310.289V91.8242H319.236V93.3711H308.373V89.1172H316.881V87.9395H308.355V86.4102H318.814V90.541ZM333.651 93.582H331.7V85.127H328.975V83.5273H331.7V77.6738H333.651V93.582ZM328.061 84.8809H322.858V88.2207C324.165 88.2148 325.307 88.1797 326.286 88.1152C327.27 88.0508 328.26 87.9277 329.256 87.7461L329.415 89.3457C328.295 89.5449 327.185 89.6797 326.084 89.75C324.982 89.8203 323.684 89.8555 322.19 89.8555H320.924V83.2988H326.145V80.6445H320.872V79.0625H328.061V84.8809ZM349.7 91.7188H335.181V90.1016H341.439V87.5176H336.904V82.3145H346.044V80.3457H336.868V78.7637H347.978V83.8613H338.855V85.918H348.347V87.5176H343.372V90.1016H349.7V91.7188ZM359.247 81.4883C359.241 82.4375 359.39 83.3691 359.695 84.2832C360.006 85.1914 360.454 86.0059 361.04 86.7266C361.626 87.4473 362.317 87.998 363.114 88.3789L361.919 89.9434C361.075 89.5156 360.342 88.9062 359.721 88.1152C359.106 87.3242 358.626 86.4102 358.28 85.373C357.923 86.4805 357.419 87.459 356.768 88.3086C356.124 89.1523 355.356 89.7969 354.466 90.2422L353.27 88.6777C354.096 88.2852 354.811 87.7139 355.415 86.9639C356.024 86.208 356.487 85.3555 356.803 84.4062C357.126 83.4512 357.29 82.4785 357.296 81.4883V78.957H359.247V81.4883ZM366.014 83.8965H368.458V85.5664H366.014V93.5645H364.063V77.6738H366.014V83.8965ZM382.89 86.8848H368.406V85.3203H371.781V83.3076C371.177 83.0498 370.711 82.7217 370.383 82.3232C370.061 81.9248 369.9 81.4707 369.9 80.9609C369.9 80.334 370.131 79.7949 370.594 79.3438C371.063 78.8867 371.728 78.5381 372.589 78.2979C373.456 78.0576 374.47 77.9375 375.63 77.9375C376.79 77.9375 377.801 78.0576 378.663 78.2979C379.524 78.5381 380.186 78.8867 380.649 79.3438C381.118 79.7949 381.355 80.334 381.361 80.9609C381.355 81.4766 381.188 81.9336 380.86 82.332C380.538 82.7305 380.072 83.0557 379.462 83.3076V85.3203H382.89V86.8848ZM375.63 87.8516C376.773 87.8457 377.754 87.9541 378.575 88.1768C379.395 88.3936 380.025 88.7158 380.464 89.1436C380.904 89.5654 381.126 90.0781 381.132 90.6816C381.126 91.291 380.904 91.8066 380.464 92.2285C380.025 92.6562 379.395 92.9785 378.575 93.1953C377.754 93.418 376.773 93.5293 375.63 93.5293C374.476 93.5293 373.483 93.418 372.651 93.1953C371.825 92.9785 371.192 92.6562 370.752 92.2285C370.313 91.8066 370.093 91.291 370.093 90.6816C370.093 90.0781 370.313 89.5654 370.752 89.1436C371.192 88.7158 371.825 88.3936 372.651 88.1768C373.483 87.9541 374.476 87.8457 375.63 87.8516ZM375.63 89.3281C374.464 89.3281 373.58 89.4424 372.976 89.6709C372.372 89.8994 372.074 90.2363 372.08 90.6816C372.074 91.127 372.372 91.4668 372.976 91.7012C373.585 91.9355 374.47 92.0527 375.63 92.0527C376.767 92.0527 377.64 91.9355 378.249 91.7012C378.865 91.4668 379.175 91.127 379.181 90.6816C379.175 90.2363 378.868 89.8994 378.258 89.6709C377.649 89.4424 376.773 89.3281 375.63 89.3281ZM375.63 79.4492C374.447 79.4492 373.533 79.5811 372.888 79.8447C372.249 80.1025 371.933 80.4746 371.939 80.9609C371.933 81.4414 372.249 81.8076 372.888 82.0596C373.527 82.3115 374.441 82.4375 375.63 82.4375C376.808 82.4375 377.719 82.3115 378.364 82.0596C379.014 81.8076 379.339 81.4414 379.339 80.9609C379.339 80.4746 379.014 80.1025 378.364 79.8447C377.719 79.5811 376.808 79.4492 375.63 79.4492ZM377.511 85.3203V83.8086C376.919 83.8906 376.292 83.9316 375.63 83.9316C374.968 83.9316 374.341 83.8906 373.749 83.8086V85.3203H377.511ZM395.688 84.002H398.131V85.6191H395.688V93.5645H393.754V77.6738H395.688V84.002ZM392.524 81.6816H383.154V80.1172H386.916V77.9023H388.867V80.1172H392.524V81.6816ZM387.901 82.7188C388.656 82.7188 389.336 82.8799 389.94 83.2021C390.549 83.5186 391.027 83.9609 391.372 84.5293C391.718 85.0977 391.891 85.7422 391.891 86.4629C391.891 87.1836 391.718 87.8281 391.372 88.3965C391.027 88.959 390.549 89.3984 389.94 89.7148C389.336 90.0312 388.656 90.1895 387.901 90.1895C387.133 90.1895 386.444 90.0312 385.835 89.7148C385.226 89.3984 384.748 88.959 384.402 88.3965C384.057 87.8281 383.887 87.1836 383.893 86.4629C383.887 85.7422 384.057 85.0977 384.402 84.5293C384.748 83.9609 385.226 83.5186 385.835 83.2021C386.444 82.8799 387.133 82.7188 387.901 82.7188ZM387.901 84.3184C387.485 84.3184 387.112 84.4062 386.784 84.582C386.462 84.7578 386.21 85.0098 386.028 85.3379C385.847 85.6602 385.756 86.0352 385.756 86.4629C385.756 86.8906 385.847 87.2656 386.028 87.5879C386.21 87.9043 386.462 88.1504 386.784 88.3262C387.112 88.4961 387.485 88.5781 387.901 88.5723C388.305 88.5781 388.665 88.4961 388.982 88.3262C389.304 88.1504 389.556 87.9043 389.737 87.5879C389.925 87.2656 390.022 86.8906 390.027 86.4629C390.022 86.0352 389.925 85.6602 389.737 85.3379C389.556 85.0156 389.304 84.7666 388.982 84.5908C388.665 84.4092 388.305 84.3184 387.901 84.3184ZM403.897 88.0098C403.886 88.707 404.044 89.3779 404.372 90.0225C404.706 90.6611 405.201 91.1973 405.857 91.6309C406.508 91.1797 407.003 90.626 407.343 89.9697C407.682 89.3076 407.858 88.6543 407.87 88.0098V87.1836H409.786V88.0098C409.786 88.5723 409.897 89.1113 410.12 89.627C410.349 90.1367 410.694 90.5908 411.157 90.9893C411.62 91.3877 412.194 91.6953 412.88 91.9121L411.895 93.3535C411.145 93.0898 410.51 92.7178 409.988 92.2373C409.473 91.7568 409.074 91.1914 408.793 90.541C408.517 91.2031 408.134 91.792 407.641 92.3076C407.155 92.8232 406.563 93.2188 405.866 93.4941C405.157 93.2305 404.557 92.8496 404.064 92.3516C403.578 91.8535 403.2 91.2705 402.931 90.6025C402.632 91.2295 402.227 91.7803 401.718 92.2549C401.208 92.7295 400.599 93.0957 399.89 93.3535L398.94 91.9121C399.602 91.6836 400.162 91.3643 400.619 90.9541C401.076 90.5439 401.419 90.084 401.647 89.5742C401.876 89.0645 401.993 88.543 401.999 88.0098V87.1836H403.897V88.0098ZM402.491 78.4824C403.112 78.4824 403.692 78.5908 404.231 78.8076C404.77 79.0186 405.23 79.3203 405.611 79.7129H409.434V77.6738H411.386V86.6387H409.434V84.8105H405.655C405.274 85.209 404.808 85.5195 404.258 85.7422C403.713 85.9648 403.124 86.0762 402.491 86.0762C401.7 86.0762 400.982 85.915 400.338 85.5928C399.699 85.2646 399.198 84.8135 398.835 84.2393C398.472 83.665 398.29 83.0176 398.29 82.2969C398.29 81.5703 398.472 80.917 398.835 80.3369C399.198 79.7568 399.699 79.3027 400.338 78.9746C400.982 78.6465 401.7 78.4824 402.491 78.4824ZM402.491 80.1172C402.046 80.1172 401.647 80.208 401.296 80.3896C400.944 80.5713 400.669 80.8262 400.47 81.1543C400.27 81.4824 400.171 81.8633 400.171 82.2969C400.171 82.7305 400.27 83.1084 400.47 83.4307C400.669 83.7529 400.944 84.002 401.296 84.1777C401.647 84.3535 402.046 84.4414 402.491 84.4414C402.925 84.4414 403.314 84.3535 403.66 84.1777C404.006 84.002 404.278 83.7529 404.477 83.4307C404.677 83.1025 404.776 82.7246 404.776 82.2969C404.776 81.8633 404.677 81.4824 404.477 81.1543C404.278 80.8262 404.006 80.5713 403.66 80.3896C403.314 80.208 402.925 80.1172 402.491 80.1172ZM406.516 81.2773C406.61 81.6172 406.657 81.957 406.657 82.2969C406.657 82.6074 406.616 82.918 406.534 83.2285H409.434V81.2773H406.516ZM420.14 78.5703C421.254 78.5703 422.261 78.7578 423.164 79.1328C424.066 79.502 424.775 80.0264 425.291 80.7061C425.806 81.3857 426.064 82.168 426.064 83.0527C426.064 83.9492 425.806 84.7402 425.291 85.4258C424.775 86.1055 424.066 86.6328 423.164 87.0078C422.267 87.3828 421.259 87.5703 420.14 87.5703C419.027 87.5703 418.022 87.3828 417.126 87.0078C416.229 86.6328 415.523 86.1055 415.007 85.4258C414.498 84.7402 414.246 83.9492 414.252 83.0527C414.246 82.168 414.498 81.3857 415.007 80.7061C415.523 80.0264 416.229 79.502 417.126 79.1328C418.022 78.7578 419.027 78.5703 420.14 78.5703ZM420.14 80.1523C419.379 80.1465 418.693 80.2637 418.084 80.5039C417.474 80.7441 416.997 81.0869 416.651 81.5322C416.305 81.9717 416.132 82.4785 416.132 83.0527C416.132 83.6387 416.305 84.1543 416.651 84.5996C416.997 85.0391 417.471 85.3789 418.075 85.6191C418.684 85.8535 419.373 85.9707 420.14 85.9707C420.914 85.9707 421.602 85.8535 422.206 85.6191C422.815 85.3789 423.29 85.0391 423.629 84.5996C423.975 84.1543 424.148 83.6387 424.148 83.0527C424.148 82.4785 423.975 81.9717 423.629 81.5322C423.29 81.0869 422.815 80.7441 422.206 80.5039C421.596 80.2637 420.908 80.1465 420.14 80.1523ZM427.435 91.5605H412.916V89.9609H427.435V91.5605ZM435.838 81.3477H439.143V77.6738H441.076V93.582H439.143V87.2363H435.838V89.6445H428.35V79.1504H435.838V81.3477ZM430.301 88.0977H433.922V80.6797H430.301V88.0977ZM439.143 85.6719V82.9297H435.838V85.6719H439.143ZM444.206 95.6738H442.536L443.45 90.752H445.683L444.206 95.6738ZM463.684 93.5645H461.821V85.4609H460.028V92.7559H458.235V77.9727H460.028V83.8965H461.821V77.6738H463.684V93.5645ZM456.442 81.1367H452.469V88.2031C453.395 88.1914 454.23 88.1562 454.974 88.0977C455.718 88.0391 456.471 87.9395 457.233 87.7988L457.374 89.3984C456.495 89.5742 455.627 89.6914 454.772 89.75C453.916 89.8086 452.85 89.8438 451.573 89.8555H450.5V79.5547H456.442V81.1367ZM478.064 93.582H476.095V77.6738H478.064V93.582ZM467.64 82.9473H471.489V78.9746H473.423V89.8379H465.689V78.9746H467.64V82.9473ZM471.489 88.2383V84.4766H467.64V88.2383H471.489ZM494.184 86.3574H479.664V84.8809H494.184V86.3574ZM492.426 90.9277H483.32V92.0352H492.9V93.3887H481.369V89.6621H490.492V88.6777H481.351V87.3066H492.426V90.9277ZM492.391 81.6113H483.443V82.6484H492.672V83.9844H481.51V80.3457H490.439V79.3789H481.457V78.0254H492.391V81.6113ZM503.255 78.377C504.052 78.3711 504.767 78.5088 505.4 78.79C506.033 79.0713 506.528 79.4668 506.885 79.9766C507.243 80.4863 507.421 81.0664 507.421 81.7168C507.421 82.3555 507.243 82.9297 506.885 83.4395C506.528 83.9492 506.03 84.3447 505.391 84.626C504.758 84.9072 504.046 85.0449 503.255 85.0391C502.47 85.0449 501.761 84.9072 501.128 84.626C500.501 84.3447 500.009 83.9521 499.652 83.4482C499.3 82.9385 499.124 82.3613 499.124 81.7168C499.124 81.0664 499.3 80.4863 499.652 79.9766C500.009 79.4668 500.501 79.0713 501.128 78.79C501.755 78.5088 502.464 78.3711 503.255 78.377ZM503.255 79.959C502.822 79.9531 502.435 80.0234 502.095 80.1699C501.755 80.3105 501.489 80.5156 501.295 80.7852C501.108 81.0488 501.017 81.3594 501.023 81.7168C501.017 82.0684 501.108 82.376 501.295 82.6396C501.489 82.8975 501.755 83.0967 502.095 83.2373C502.435 83.3721 502.822 83.4395 503.255 83.4395C503.706 83.4395 504.105 83.3721 504.451 83.2373C504.802 83.0967 505.075 82.8975 505.268 82.6396C505.461 82.376 505.558 82.0684 505.558 81.7168C505.558 81.3594 505.461 81.0488 505.268 80.7852C505.075 80.5156 504.802 80.3105 504.451 80.1699C504.105 80.0234 503.706 79.9531 503.255 79.959ZM511.359 93.5469H509.425V77.6914H511.359V93.5469ZM498.087 86.1289C499.986 86.1289 501.796 86.0938 503.519 86.0234C505.242 85.9473 506.865 85.7949 508.388 85.5664L508.529 87.0078C507.275 87.248 505.88 87.4268 504.345 87.5439V93.0723H502.376V87.6582C501.298 87.7051 500.167 87.7285 498.984 87.7285C498.843 87.7402 498.626 87.7461 498.333 87.7461L498.087 86.1289ZM520.658 81.7695H512.871V80.2051H515.824V78.1309H517.758V80.2051H520.658V81.7695ZM516.791 82.6133C517.459 82.6133 518.054 82.7715 518.575 83.0879C519.103 83.3984 519.513 83.835 519.806 84.3975C520.105 84.96 520.254 85.5957 520.254 86.3047C520.254 87.0254 520.105 87.6699 519.806 88.2383C519.513 88.8066 519.103 89.252 518.575 89.5742C518.054 89.8906 517.459 90.0488 516.791 90.0488C516.129 90.0488 515.534 89.8906 515.007 89.5742C514.48 89.252 514.066 88.8066 513.768 88.2383C513.469 87.6699 513.322 87.0254 513.328 86.3047C513.322 85.5957 513.469 84.96 513.768 84.3975C514.066 83.835 514.48 83.3984 515.007 83.0879C515.534 82.7715 516.129 82.6133 516.791 82.6133ZM516.791 84.2305C516.445 84.2305 516.141 84.3184 515.877 84.4941C515.613 84.6641 515.408 84.9072 515.262 85.2236C515.115 85.5342 515.045 85.8945 515.051 86.3047C515.045 86.7266 515.115 87.0957 515.262 87.4121C515.408 87.7285 515.613 87.9717 515.877 88.1416C516.141 88.3057 516.445 88.3848 516.791 88.3789C517.131 88.3848 517.433 88.3057 517.696 88.1416C517.96 87.9717 518.165 87.7285 518.312 87.4121C518.458 87.0957 518.531 86.7266 518.531 86.3047C518.531 85.8945 518.458 85.5342 518.312 85.2236C518.165 84.9072 517.96 84.6641 517.696 84.4941C517.433 84.3184 517.131 84.2305 516.791 84.2305ZM526.565 93.5645H524.701V85.7949H523.154V92.8438H521.326V78.0078H523.154V84.2129H524.701V77.6738H526.565V93.5645ZM537.174 88.7129H534.432L533.896 92H532.156L532.692 88.7129H530.908L531.189 86.9902H532.982L533.421 84.2832H531.646L531.927 82.5605H533.711L534.248 79.2734H535.988L535.452 82.5605H538.194L538.73 79.2734H540.453L539.917 82.5605H541.718L541.419 84.2832H539.626L539.187 86.9902H540.98L540.699 88.7129H538.897L538.361 92H536.638L537.174 88.7129ZM537.464 86.9902L537.904 84.2832H535.162L534.722 86.9902H537.464ZM546.887 92.1758C545.867 92.1758 544.991 91.9209 544.259 91.4111C543.532 90.8955 542.973 90.1484 542.58 89.1699C542.194 88.1914 542 87.0137 542 85.6367C542 84.2656 542.194 83.0908 542.58 82.1123C542.973 81.1279 543.535 80.3809 544.268 79.8711C545 79.3555 545.873 79.0977 546.887 79.0977C547.895 79.0977 548.765 79.3555 549.497 79.8711C550.236 80.3809 550.798 81.1279 551.185 82.1123C551.577 83.0908 551.774 84.2656 551.774 85.6367C551.774 87.0137 551.577 88.1914 551.185 89.1699C550.798 90.1484 550.239 90.8955 549.506 91.4111C548.78 91.9209 547.906 92.1758 546.887 92.1758ZM546.887 90.2598C547.426 90.2598 547.886 90.0869 548.267 89.7412C548.654 89.3896 548.949 88.8711 549.155 88.1855C549.365 87.4941 549.471 86.6445 549.471 85.6367C549.471 84.6406 549.365 83.7969 549.155 83.1055C548.949 82.4082 548.654 81.8838 548.267 81.5322C547.88 81.1748 547.42 80.9961 546.887 80.9961C546.354 80.9961 545.894 81.1748 545.507 81.5322C545.12 81.8838 544.822 82.4082 544.611 83.1055C544.406 83.7969 544.303 84.6406 544.303 85.6367C544.303 86.6445 544.406 87.4941 544.611 88.1855C544.822 88.8711 545.117 89.3896 545.498 89.7412C545.885 90.0869 546.348 90.2598 546.887 90.2598ZM557.663 92.1758C556.643 92.1758 555.768 91.9209 555.035 91.4111C554.309 90.8955 553.749 90.1484 553.356 89.1699C552.97 88.1914 552.776 87.0137 552.776 85.6367C552.776 84.2656 552.97 83.0908 553.356 82.1123C553.749 81.1279 554.311 80.3809 555.044 79.8711C555.776 79.3555 556.649 79.0977 557.663 79.0977C558.671 79.0977 559.541 79.3555 560.273 79.8711C561.012 80.3809 561.574 81.1279 561.961 82.1123C562.353 83.0908 562.55 84.2656 562.55 85.6367C562.55 87.0137 562.353 88.1914 561.961 89.1699C561.574 90.1484 561.015 90.8955 560.282 91.4111C559.556 91.9209 558.683 92.1758 557.663 92.1758ZM557.663 90.2598C558.202 90.2598 558.662 90.0869 559.043 89.7412C559.43 89.3896 559.726 88.8711 559.931 88.1855C560.142 87.4941 560.247 86.6445 560.247 85.6367C560.247 84.6406 560.142 83.7969 559.931 83.1055C559.726 82.4082 559.43 81.8838 559.043 81.5322C558.656 81.1748 558.196 80.9961 557.663 80.9961C557.13 80.9961 556.67 81.1748 556.283 81.5322C555.896 81.8838 555.598 82.4082 555.387 83.1055C555.182 83.7969 555.079 84.6406 555.079 85.6367C555.079 86.6445 555.182 87.4941 555.387 88.1855C555.598 88.8711 555.893 89.3896 556.274 89.7412C556.661 90.0869 557.124 90.2598 557.663 90.2598ZM568.439 92.1758C567.42 92.1758 566.544 91.9209 565.811 91.4111C565.085 90.8955 564.525 90.1484 564.133 89.1699C563.746 88.1914 563.552 87.0137 563.552 85.6367C563.552 84.2656 563.746 83.0908 564.133 82.1123C564.525 81.1279 565.088 80.3809 565.82 79.8711C566.552 79.3555 567.425 79.0977 568.439 79.0977C569.447 79.0977 570.317 79.3555 571.049 79.8711C571.788 80.3809 572.35 81.1279 572.737 82.1123C573.13 83.0908 573.326 84.2656 573.326 85.6367C573.326 87.0137 573.13 88.1914 572.737 89.1699C572.35 90.1484 571.791 90.8955 571.058 91.4111C570.332 91.9209 569.459 92.1758 568.439 92.1758ZM568.439 90.2598C568.978 90.2598 569.438 90.0869 569.819 89.7412C570.206 89.3896 570.502 88.8711 570.707 88.1855C570.918 87.4941 571.023 86.6445 571.023 85.6367C571.023 84.6406 570.918 83.7969 570.707 83.1055C570.502 82.4082 570.206 81.8838 569.819 81.5322C569.432 81.1748 568.972 80.9961 568.439 80.9961C567.906 80.9961 567.446 81.1748 567.059 81.5322C566.673 81.8838 566.374 82.4082 566.163 83.1055C565.958 83.7969 565.855 84.6406 565.855 85.6367C565.855 86.6445 565.958 87.4941 566.163 88.1855C566.374 88.8711 566.67 89.3896 567.05 89.7412C567.437 90.0869 567.9 90.2598 568.439 90.2598ZM579.215 92.1758C578.196 92.1758 577.32 91.9209 576.587 91.4111C575.861 90.8955 575.301 90.1484 574.909 89.1699C574.522 88.1914 574.328 87.0137 574.328 85.6367C574.328 84.2656 574.522 83.0908 574.909 82.1123C575.301 81.1279 575.864 80.3809 576.596 79.8711C577.328 79.3555 578.202 79.0977 579.215 79.0977C580.223 79.0977 581.093 79.3555 581.826 79.8711C582.564 80.3809 583.126 81.1279 583.513 82.1123C583.906 83.0908 584.102 84.2656 584.102 85.6367C584.102 87.0137 583.906 88.1914 583.513 89.1699C583.126 90.1484 582.567 90.8955 581.834 91.4111C581.108 91.9209 580.235 92.1758 579.215 92.1758ZM579.215 90.2598C579.754 90.2598 580.214 90.0869 580.595 89.7412C580.982 89.3896 581.278 88.8711 581.483 88.1855C581.694 87.4941 581.799 86.6445 581.799 85.6367C581.799 84.6406 581.694 83.7969 581.483 83.1055C581.278 82.4082 580.982 81.8838 580.595 81.5322C580.208 81.1748 579.748 80.9961 579.215 80.9961C578.682 80.9961 578.222 81.1748 577.835 81.5322C577.449 81.8838 577.15 82.4082 576.939 83.1055C576.734 83.7969 576.631 84.6406 576.631 85.6367C576.631 86.6445 576.734 87.4941 576.939 88.1855C577.15 88.8711 577.446 89.3896 577.827 89.7412C578.213 90.0869 578.676 90.2598 579.215 90.2598ZM589.991 92.1758C588.972 92.1758 588.096 91.9209 587.363 91.4111C586.637 90.8955 586.077 90.1484 585.685 89.1699C585.298 88.1914 585.105 87.0137 585.105 85.6367C585.105 84.2656 585.298 83.0908 585.685 82.1123C586.077 81.1279 586.64 80.3809 587.372 79.8711C588.105 79.3555 588.978 79.0977 589.991 79.0977C590.999 79.0977 591.869 79.3555 592.602 79.8711C593.34 80.3809 593.902 81.1279 594.289 82.1123C594.682 83.0908 594.878 84.2656 594.878 85.6367C594.878 87.0137 594.682 88.1914 594.289 89.1699C593.902 90.1484 593.343 90.8955 592.61 91.4111C591.884 91.9209 591.011 92.1758 589.991 92.1758ZM589.991 90.2598C590.53 90.2598 590.99 90.0869 591.371 89.7412C591.758 89.3896 592.054 88.8711 592.259 88.1855C592.47 87.4941 592.575 86.6445 592.575 85.6367C592.575 84.6406 592.47 83.7969 592.259 83.1055C592.054 82.4082 591.758 81.8838 591.371 81.5322C590.984 81.1748 590.525 80.9961 589.991 80.9961C589.458 80.9961 588.998 81.1748 588.611 81.5322C588.225 81.8838 587.926 82.4082 587.715 83.1055C587.51 83.7969 587.407 84.6406 587.407 85.6367C587.407 86.6445 587.51 87.4941 587.715 88.1855C587.926 88.8711 588.222 89.3896 588.603 89.7412C588.989 90.0869 589.452 90.2598 589.991 90.2598ZM600.767 92.1758C599.748 92.1758 598.872 91.9209 598.139 91.4111C597.413 90.8955 596.853 90.1484 596.461 89.1699C596.074 88.1914 595.881 87.0137 595.881 85.6367C595.881 84.2656 596.074 83.0908 596.461 82.1123C596.853 81.1279 597.416 80.3809 598.148 79.8711C598.881 79.3555 599.754 79.0977 600.767 79.0977C601.775 79.0977 602.645 79.3555 603.378 79.8711C604.116 80.3809 604.679 81.1279 605.065 82.1123C605.458 83.0908 605.654 84.2656 605.654 85.6367C605.654 87.0137 605.458 88.1914 605.065 89.1699C604.679 90.1484 604.119 90.8955 603.387 91.4111C602.66 91.9209 601.787 92.1758 600.767 92.1758ZM600.767 90.2598C601.306 90.2598 601.766 90.0869 602.147 89.7412C602.534 89.3896 602.83 88.8711 603.035 88.1855C603.246 87.4941 603.351 86.6445 603.351 85.6367C603.351 84.6406 603.246 83.7969 603.035 83.1055C602.83 82.4082 602.534 81.8838 602.147 81.5322C601.761 81.1748 601.301 80.9961 600.767 80.9961C600.234 80.9961 599.774 81.1748 599.388 81.5322C599.001 81.8838 598.702 82.4082 598.491 83.1055C598.286 83.7969 598.183 84.6406 598.183 85.6367C598.183 86.6445 598.286 87.4941 598.491 88.1855C598.702 88.8711 598.998 89.3896 599.379 89.7412C599.765 90.0869 600.228 90.2598 600.767 90.2598ZM615.2 80.4512C615.2 81.4941 615.173 82.4814 615.121 83.4131C615.074 84.3389 614.954 85.4023 614.76 86.6035L612.827 86.4453C612.997 85.3672 613.108 84.3945 613.161 83.5273C613.219 82.6602 613.252 81.7812 613.257 80.8906H607.026V79.3262H615.2V80.4512ZM611.192 88.5547C612.997 88.4844 614.596 88.3613 615.991 88.1855L616.096 89.6445C613.647 90.0312 610.647 90.2246 607.096 90.2246H606.376L606.182 88.6602C607.553 88.6484 608.579 88.6338 609.258 88.6162V83.8613H611.192V88.5547ZM618.786 84.1426H621.088V85.7949H618.786V93.5645H616.817V77.6738H618.786V84.1426ZM630.591 88.7129H627.849L627.312 92H625.572L626.108 88.7129H624.324L624.605 86.9902H626.398L626.838 84.2832H625.062L625.344 82.5605H627.128L627.664 79.2734H629.404L628.868 82.5605H631.61L632.146 79.2734H633.869L633.333 82.5605H635.135L634.836 84.2832H633.043L632.604 86.9902H634.396L634.115 88.7129H632.313L631.777 92H630.055L630.591 88.7129ZM630.881 86.9902L631.32 84.2832H628.578L628.139 86.9902H630.881ZM635.733 79.2734H643.889V81.1895H638.018V84.6699H643.327V86.5859H638.018V92H635.733V79.2734ZM645.103 79.2734H653.259V81.1895H647.388V84.6699H652.697V86.5859H647.388V92H645.103V79.2734ZM654.473 79.2734H662.629V81.1895H656.758V84.6699H662.067V86.5859H656.758V92H654.473V79.2734ZM663.843 79.2734H671.999V81.1895H666.128V84.6699H671.436V86.5859H666.128V92H663.843V79.2734ZM673.213 79.2734H681.369V81.1895H675.498V84.6699H680.806V86.5859H675.498V92H673.213V79.2734ZM682.582 79.2734H690.739V81.1895H684.867V84.6699H690.176V86.5859H684.867V92H682.582V79.2734ZM705.804 86.3574H691.284V84.8809H705.804V86.3574ZM704.046 90.9277H694.94V92.0352H704.521V93.3887H692.989V89.6621H702.112V88.6777H692.972V87.3066H704.046V90.9277ZM704.011 81.6113H695.064V82.6484H704.292V83.9844H693.13V80.3457H702.06V79.3789H693.077V78.0254H704.011V81.6113ZM715.526 80.3984C715.526 81.0547 715.669 81.6934 715.957 82.3145C716.244 82.9297 716.668 83.4834 717.231 83.9756C717.793 84.4619 718.473 84.8398 719.27 85.1094L718.286 86.6211C717.418 86.3398 716.668 85.915 716.036 85.3467C715.409 84.7783 714.917 84.1133 714.559 83.3516C714.202 84.2012 713.692 84.9424 713.03 85.5752C712.368 86.2021 711.577 86.668 710.657 86.9727L709.655 85.4258C710.475 85.1562 711.175 84.7637 711.755 84.248C712.341 83.7266 712.784 83.1348 713.083 82.4727C713.387 81.8047 713.54 81.1191 713.54 80.416V80.2051H710.235V78.6406H718.813V80.2051H715.526V80.3984ZM722.997 93.5645H721.045V89.4688H712.168V87.9043H722.997V93.5645ZM722.997 87.1484H721.045V83.2109H718.338V81.6113H721.045V77.6738H722.997V87.1484ZM739.011 86.8848H724.527V85.3203H727.902V83.3076C727.298 83.0498 726.832 82.7217 726.504 82.3232C726.182 81.9248 726.021 81.4707 726.021 80.9609C726.021 80.334 726.252 79.7949 726.715 79.3438C727.184 78.8867 727.849 78.5381 728.71 78.2979C729.577 78.0576 730.591 77.9375 731.751 77.9375C732.911 77.9375 733.922 78.0576 734.783 78.2979C735.645 78.5381 736.307 78.8867 736.77 79.3438C737.238 79.7949 737.476 80.334 737.482 80.9609C737.476 81.4766 737.309 81.9336 736.981 82.332C736.658 82.7305 736.193 83.0557 735.583 83.3076V85.3203H739.011V86.8848ZM731.751 87.8516C732.894 87.8457 733.875 87.9541 734.695 88.1768C735.516 88.3936 736.146 88.7158 736.585 89.1436C737.025 89.5654 737.247 90.0781 737.253 90.6816C737.247 91.291 737.025 91.8066 736.585 92.2285C736.146 92.6562 735.516 92.9785 734.695 93.1953C733.875 93.418 732.894 93.5293 731.751 93.5293C730.597 93.5293 729.604 93.418 728.772 93.1953C727.945 92.9785 727.313 92.6562 726.873 92.2285C726.434 91.8066 726.214 91.291 726.214 90.6816C726.214 90.0781 726.434 89.5654 726.873 89.1436C727.313 88.7158 727.945 88.3936 728.772 88.1768C729.604 87.9541 730.597 87.8457 731.751 87.8516ZM731.751 89.3281C730.585 89.3281 729.7 89.4424 729.097 89.6709C728.493 89.8994 728.195 90.2363 728.2 90.6816C728.195 91.127 728.493 91.4668 729.097 91.7012C729.706 91.9355 730.591 92.0527 731.751 92.0527C732.888 92.0527 733.761 91.9355 734.37 91.7012C734.986 91.4668 735.296 91.127 735.302 90.6816C735.296 90.2363 734.988 89.8994 734.379 89.6709C733.77 89.4424 732.894 89.3281 731.751 89.3281ZM731.751 79.4492C730.568 79.4492 729.654 79.5811 729.009 79.8447C728.37 80.1025 728.054 80.4746 728.06 80.9609C728.054 81.4414 728.37 81.8076 729.009 82.0596C729.648 82.3115 730.562 82.4375 731.751 82.4375C732.929 82.4375 733.84 82.3115 734.485 82.0596C735.135 81.8076 735.46 81.4414 735.46 80.9609C735.46 80.4746 735.135 80.1025 734.485 79.8447C733.84 79.5811 732.929 79.4492 731.751 79.4492ZM733.632 85.3203V83.8086C733.04 83.8906 732.413 83.9316 731.751 83.9316C731.089 83.9316 730.462 83.8906 729.87 83.8086V85.3203H733.632ZM751.896 81.6992H754.111V83.334H751.896V87.2539H749.945V77.6738H751.896V81.6992ZM751.896 93.3711H741.631V88.0098H751.896V93.3711ZM743.564 91.7891H749.963V89.5566H743.564V91.7891ZM748.803 80.7676H739.381V79.2031H743.125V77.5684H745.076V79.2031H748.803V80.7676ZM744.092 81.3477C744.848 81.3477 745.518 81.4678 746.104 81.708C746.69 81.9482 747.147 82.2852 747.476 82.7188C747.804 83.1465 747.971 83.6387 747.977 84.1953C747.971 84.7578 747.804 85.2559 747.476 85.6895C747.153 86.1172 746.699 86.4512 746.113 86.6914C745.527 86.9258 744.853 87.043 744.092 87.043C743.324 87.043 742.644 86.9258 742.053 86.6914C741.467 86.4512 741.01 86.1172 740.682 85.6895C740.353 85.2559 740.189 84.7578 740.189 84.1953C740.189 83.6387 740.353 83.1465 740.682 82.7188C741.01 82.2852 741.47 81.9482 742.061 81.708C742.653 81.4678 743.33 81.3477 744.092 81.3477ZM744.092 82.8242C743.482 82.8242 742.996 82.9473 742.633 83.1934C742.269 83.4336 742.088 83.7676 742.088 84.1953C742.088 84.6289 742.267 84.9688 742.624 85.2148C742.987 85.4609 743.477 85.584 744.092 85.584C744.707 85.584 745.196 85.4609 745.56 85.2148C745.929 84.9688 746.113 84.6289 746.113 84.1953C746.113 83.7676 745.929 83.4336 745.56 83.1934C745.196 82.9473 744.707 82.8242 744.092 82.8242Z" fill="#686868"/>
<path d="M39.4336 136.859L43.6328 147.133H43.8086L48.0078 136.859H51.1328V151H48.6914V141.273H48.5547L44.6289 150.961H42.8125L38.8867 141.234H38.7695V151H36.3086V136.859H39.4336ZM52.3445 148.012C52.3445 146.918 52.7124 146.13 53.448 145.648C54.1902 145.16 55.1375 144.88 56.2898 144.809C57.4161 144.73 58.3211 144.678 59.0047 144.652V143.812C59.0047 143.285 58.8387 142.878 58.5066 142.592C58.1746 142.299 57.7026 142.152 57.0906 142.152C56.5503 142.152 56.1076 142.266 55.7625 142.494C55.4174 142.722 55.1961 143.031 55.0984 143.422H52.6961C52.7547 142.816 52.9695 142.276 53.3406 141.801C53.7117 141.319 54.2228 140.941 54.8738 140.668C55.5249 140.395 56.2833 140.258 57.1492 140.258C57.8914 140.258 58.588 140.375 59.2391 140.609C59.8966 140.837 60.4337 141.225 60.8504 141.771C61.2736 142.312 61.4852 143.025 61.4852 143.91V151H59.1023V149.535H59.0242C58.7638 150.03 58.3732 150.434 57.8523 150.746C57.3315 151.059 56.6805 151.215 55.8992 151.215C55.2156 151.215 54.6036 151.091 54.0633 150.844C53.5294 150.596 53.1095 150.232 52.8035 149.75C52.4975 149.268 52.3445 148.689 52.3445 148.012ZM54.7469 147.992C54.7469 148.441 54.9096 148.786 55.2352 149.027C55.5607 149.262 55.9969 149.379 56.5438 149.379C57.032 149.379 57.465 149.281 57.8426 149.086C58.2202 148.891 58.5099 148.627 58.7117 148.295C58.9201 147.956 59.0242 147.589 59.0242 147.191L59.0145 146.322L56.6805 146.469C56.0685 146.521 55.5932 146.674 55.2547 146.928C54.9161 147.182 54.7469 147.536 54.7469 147.992ZM63.0289 140.395H65.5289V151H63.0289V140.395ZM64.2984 138.891C64.0445 138.891 63.8036 138.832 63.5758 138.715C63.3544 138.591 63.1786 138.425 63.0484 138.217C62.9182 138.002 62.8531 137.771 62.8531 137.523C62.8531 137.283 62.9182 137.058 63.0484 136.85C63.1786 136.641 63.3544 136.479 63.5758 136.361C63.8036 136.238 64.0445 136.176 64.2984 136.176C64.5589 136.176 64.7997 136.238 65.0211 136.361C65.2424 136.479 65.4182 136.641 65.5484 136.85C65.6786 137.058 65.7437 137.283 65.7437 137.523C65.7437 137.771 65.6786 138.002 65.5484 138.217C65.4182 138.425 65.2424 138.591 65.0211 138.715C64.7997 138.832 64.5589 138.891 64.2984 138.891ZM69.6117 151H67.1117V140.395H69.4945V142.191H69.6313C69.8786 141.579 70.2693 141.104 70.8031 140.766C71.3435 140.427 72.001 140.258 72.7758 140.258C73.5115 140.258 74.1527 140.414 74.6996 140.727C75.253 141.039 75.6762 141.495 75.9691 142.094C76.2686 142.693 76.4151 143.409 76.4086 144.242V151H73.9281V144.633C73.9281 143.917 73.7458 143.36 73.3813 142.963C73.0167 142.566 72.5089 142.367 71.8578 142.367C71.4151 142.367 71.0245 142.465 70.6859 142.66C70.3474 142.849 70.0837 143.126 69.8949 143.49C69.7061 143.848 69.6117 144.281 69.6117 144.789V151ZM91.5859 141.625C91.4883 141.072 91.2832 140.593 90.9707 140.189C90.6582 139.786 90.2611 139.48 89.7793 139.271C89.304 139.057 88.7799 138.949 88.207 138.949C87.4258 138.949 86.7389 139.145 86.1465 139.535C85.554 139.919 85.0918 140.486 84.7598 141.234C84.4277 141.983 84.2617 142.882 84.2617 143.93C84.2617 144.984 84.4277 145.886 84.7598 146.635C85.0918 147.383 85.554 147.95 86.1465 148.334C86.7454 148.718 87.4323 148.91 88.207 148.91C88.7669 148.91 89.2812 148.809 89.75 148.607C90.2253 148.399 90.6224 148.1 90.9414 147.709C91.2604 147.318 91.4753 146.853 91.5859 146.312H94.1445C94.0143 147.224 93.6855 148.051 93.1582 148.793C92.6374 149.535 91.9473 150.121 91.0879 150.551C90.2285 150.98 89.2552 151.195 88.168 151.195C86.9245 151.195 85.8112 150.906 84.8281 150.326C83.8516 149.74 83.0866 148.9 82.5332 147.807C81.9798 146.706 81.7031 145.414 81.7031 143.93C81.7031 142.439 81.9798 141.146 82.5332 140.053C83.0931 138.959 83.8613 138.122 84.8379 137.543C85.821 136.957 86.931 136.664 88.168 136.664C89.2096 136.664 90.1569 136.863 91.0098 137.26C91.8626 137.65 92.5625 138.22 93.1094 138.969C93.6562 139.711 94.0013 140.596 94.1445 141.625H91.5859ZM100.044 151.215C99.0281 151.215 98.1362 150.987 97.368 150.531C96.5997 150.076 96.0073 149.438 95.5906 148.617C95.174 147.79 94.9656 146.833 94.9656 145.746C94.9656 144.652 95.174 143.692 95.5906 142.865C96.0073 142.038 96.5997 141.397 97.368 140.941C98.1362 140.486 99.0281 140.258 100.044 140.258C101.066 140.258 101.961 140.486 102.729 140.941C103.498 141.397 104.087 142.038 104.497 142.865C104.914 143.692 105.122 144.652 105.122 145.746C105.122 146.833 104.914 147.79 104.497 148.617C104.08 149.444 103.488 150.085 102.72 150.541C101.958 150.99 101.066 151.215 100.044 151.215ZM100.063 149.223C100.61 149.223 101.072 149.07 101.45 148.764C101.834 148.458 102.121 148.041 102.309 147.514C102.505 146.986 102.602 146.391 102.602 145.727C102.602 145.069 102.505 144.477 102.309 143.949C102.121 143.415 101.834 142.995 101.45 142.689C101.072 142.383 100.61 142.23 100.063 142.23C99.5034 142.23 99.0281 142.383 98.6375 142.689C98.2534 142.995 97.9637 143.412 97.7684 143.939C97.5796 144.467 97.4852 145.062 97.4852 145.727C97.4852 146.391 97.5796 146.986 97.7684 147.514C97.9637 148.041 98.2534 148.458 98.6375 148.764C99.0281 149.07 99.5034 149.223 100.063 149.223ZM108.755 151H106.255V136.859H108.755V151ZM114.967 151.215C113.952 151.215 113.06 150.987 112.291 150.531C111.523 150.076 110.931 149.438 110.514 148.617C110.097 147.79 109.889 146.833 109.889 145.746C109.889 144.652 110.097 143.692 110.514 142.865C110.931 142.038 111.523 141.397 112.291 140.941C113.06 140.486 113.952 140.258 114.967 140.258C115.989 140.258 116.885 140.486 117.653 140.941C118.421 141.397 119.01 142.038 119.42 142.865C119.837 143.692 120.045 144.652 120.045 145.746C120.045 146.833 119.837 147.79 119.42 148.617C119.004 149.444 118.411 150.085 117.643 150.541C116.881 150.99 115.989 151.215 114.967 151.215ZM114.987 149.223C115.534 149.223 115.996 149.07 116.373 148.764C116.758 148.458 117.044 148.041 117.233 147.514C117.428 146.986 117.526 146.391 117.526 145.727C117.526 145.069 117.428 144.477 117.233 143.949C117.044 143.415 116.758 142.995 116.373 142.689C115.996 142.383 115.534 142.23 114.987 142.23C114.427 142.23 113.952 142.383 113.561 142.689C113.177 142.995 112.887 143.412 112.692 143.939C112.503 144.467 112.409 145.062 112.409 145.727C112.409 146.391 112.503 146.986 112.692 147.514C112.887 148.041 113.177 148.458 113.561 148.764C113.952 149.07 114.427 149.223 114.987 149.223ZM121.179 140.395H123.601V142.152H123.718C123.9 141.553 124.229 141.085 124.704 140.746C125.18 140.408 125.723 140.238 126.335 140.238C126.7 140.238 126.999 140.258 127.234 140.297V142.602C127.123 142.562 126.954 142.527 126.726 142.494C126.498 142.462 126.283 142.445 126.081 142.445C125.626 142.445 125.215 142.543 124.851 142.738C124.486 142.934 124.2 143.207 123.991 143.559C123.783 143.91 123.679 144.307 123.679 144.75V151H121.179V140.395Z" fill="#2D2D2D"/>
<path d="M277.684 136.859H288.953V138.988H284.598V151H282.059V138.988H277.684V136.859ZM293.192 151.215C292.137 151.215 291.22 150.993 290.438 150.551C289.664 150.102 289.068 149.467 288.651 148.646C288.241 147.826 288.036 146.866 288.036 145.766C288.036 144.678 288.244 143.721 288.661 142.895C289.078 142.061 289.664 141.413 290.419 140.951C291.18 140.489 292.059 140.258 293.055 140.258C293.954 140.258 294.768 140.45 295.497 140.834C296.233 141.218 296.815 141.814 297.245 142.621C297.681 143.422 297.899 144.418 297.899 145.609V146.391H290.497C290.503 146.983 290.621 147.497 290.848 147.934C291.076 148.363 291.392 148.692 291.796 148.92C292.199 149.148 292.671 149.262 293.212 149.262C293.739 149.262 294.188 149.161 294.559 148.959C294.93 148.757 295.197 148.493 295.36 148.168H297.802C297.652 148.78 297.369 149.317 296.952 149.779C296.535 150.235 296.005 150.59 295.36 150.844C294.722 151.091 293.999 151.215 293.192 151.215ZM295.516 144.691C295.51 144.21 295.406 143.78 295.204 143.402C295.002 143.025 294.719 142.729 294.354 142.514C293.99 142.299 293.57 142.191 293.095 142.191C292.606 142.191 292.17 142.305 291.786 142.533C291.408 142.755 291.109 143.057 290.887 143.441C290.666 143.819 290.539 144.236 290.507 144.691H295.516ZM302.998 144.32L305.185 140.395H307.822L304.619 145.688L307.88 151H305.263L302.998 147.172L300.791 151H298.134L301.377 145.688L298.212 140.395H300.849L302.998 144.32ZM314.073 142.309H311.983V147.816C311.983 148.285 312.08 148.607 312.276 148.783C312.478 148.959 312.758 149.047 313.116 149.047C313.428 149.047 313.793 149.034 314.209 149.008V151.039C313.884 151.104 313.415 151.137 312.803 151.137C312.159 151.137 311.586 151.033 311.084 150.824C310.59 150.609 310.199 150.284 309.913 149.848C309.633 149.411 309.496 148.871 309.502 148.227V142.309H307.979V140.395H309.502V137.855H311.983V140.395H314.073V142.309ZM328.781 141.625C328.684 141.072 328.479 140.593 328.166 140.189C327.854 139.786 327.456 139.48 326.975 139.271C326.499 139.057 325.975 138.949 325.402 138.949C324.621 138.949 323.934 139.145 323.342 139.535C322.749 139.919 322.287 140.486 321.955 141.234C321.623 141.983 321.457 142.882 321.457 143.93C321.457 144.984 321.623 145.886 321.955 146.635C322.287 147.383 322.749 147.95 323.342 148.334C323.941 148.718 324.628 148.91 325.402 148.91C325.962 148.91 326.477 148.809 326.945 148.607C327.421 148.399 327.818 148.1 328.137 147.709C328.456 147.318 328.671 146.853 328.781 146.312H331.34C331.21 147.224 330.881 148.051 330.354 148.793C329.833 149.535 329.143 150.121 328.283 150.551C327.424 150.98 326.451 151.195 325.363 151.195C324.12 151.195 323.007 150.906 322.023 150.326C321.047 149.74 320.282 148.9 319.729 147.807C319.175 146.706 318.898 145.414 318.898 143.93C318.898 142.439 319.175 141.146 319.729 140.053C320.288 138.959 321.057 138.122 322.033 137.543C323.016 136.957 324.126 136.664 325.363 136.664C326.405 136.664 327.352 136.863 328.205 137.26C329.058 137.65 329.758 138.22 330.305 138.969C330.852 139.711 331.197 140.596 331.34 141.625H328.781ZM337.239 151.215C336.223 151.215 335.332 150.987 334.563 150.531C333.795 150.076 333.203 149.438 332.786 148.617C332.369 147.79 332.161 146.833 332.161 145.746C332.161 144.652 332.369 143.692 332.786 142.865C333.203 142.038 333.795 141.397 334.563 140.941C335.332 140.486 336.223 140.258 337.239 140.258C338.261 140.258 339.156 140.486 339.925 140.941C340.693 141.397 341.282 142.038 341.692 142.865C342.109 143.692 342.317 144.652 342.317 145.746C342.317 146.833 342.109 147.79 341.692 148.617C341.276 149.444 340.683 150.085 339.915 150.541C339.153 150.99 338.261 151.215 337.239 151.215ZM337.259 149.223C337.805 149.223 338.268 149.07 338.645 148.764C339.029 148.458 339.316 148.041 339.505 147.514C339.7 146.986 339.798 146.391 339.798 145.727C339.798 145.069 339.7 144.477 339.505 143.949C339.316 143.415 339.029 142.995 338.645 142.689C338.268 142.383 337.805 142.23 337.259 142.23C336.699 142.23 336.223 142.383 335.833 142.689C335.449 142.995 335.159 143.412 334.964 143.939C334.775 144.467 334.68 145.062 334.68 145.727C334.68 146.391 334.775 146.986 334.964 147.514C335.159 148.041 335.449 148.458 335.833 148.764C336.223 149.07 336.699 149.223 337.259 149.223ZM345.951 151H343.451V136.859H345.951V151ZM352.162 151.215C351.147 151.215 350.255 150.987 349.487 150.531C348.718 150.076 348.126 149.438 347.709 148.617C347.293 147.79 347.084 146.833 347.084 145.746C347.084 144.652 347.293 143.692 347.709 142.865C348.126 142.038 348.718 141.397 349.487 140.941C350.255 140.486 351.147 140.258 352.162 140.258C353.185 140.258 354.08 140.486 354.848 140.941C355.616 141.397 356.205 142.038 356.616 142.865C357.032 143.692 357.241 144.652 357.241 145.746C357.241 146.833 357.032 147.79 356.616 148.617C356.199 149.444 355.607 150.085 354.838 150.541C354.077 150.99 353.185 151.215 352.162 151.215ZM352.182 149.223C352.729 149.223 353.191 149.07 353.569 148.764C353.953 148.458 354.239 148.041 354.428 147.514C354.623 146.986 354.721 146.391 354.721 145.727C354.721 145.069 354.623 144.477 354.428 143.949C354.239 143.415 353.953 142.995 353.569 142.689C353.191 142.383 352.729 142.23 352.182 142.23C351.622 142.23 351.147 142.383 350.756 142.689C350.372 142.995 350.082 143.412 349.887 143.939C349.698 144.467 349.604 145.062 349.604 145.727C349.604 146.391 349.698 146.986 349.887 147.514C350.082 148.041 350.372 148.458 350.756 148.764C351.147 149.07 351.622 149.223 352.182 149.223ZM358.374 140.395H360.796V142.152H360.913C361.096 141.553 361.424 141.085 361.9 140.746C362.375 140.408 362.918 140.238 363.53 140.238C363.895 140.238 364.195 140.258 364.429 140.297V142.602C364.318 142.562 364.149 142.527 363.921 142.494C363.693 142.462 363.478 142.445 363.277 142.445C362.821 142.445 362.411 142.543 362.046 142.738C361.682 142.934 361.395 143.207 361.187 143.559C360.978 143.91 360.874 144.307 360.874 144.75V151H358.374V140.395Z" fill="#2D2D2D"/>
<rect x="277" y="172" width="60" height="60" rx="12" fill="black"/>
<path d="M469.781 141.371C469.553 140.609 469.15 140.017 468.57 139.594C467.997 139.164 467.288 138.949 466.441 138.949C465.673 138.949 464.993 139.145 464.4 139.535C463.808 139.919 463.346 140.486 463.014 141.234C462.682 141.983 462.516 142.875 462.516 143.91C462.516 144.965 462.682 145.87 463.014 146.625C463.346 147.374 463.811 147.943 464.41 148.334C465.009 148.718 465.706 148.91 466.5 148.91C467.203 148.91 467.818 148.777 468.346 148.51C468.873 148.236 469.283 147.852 469.576 147.357C469.869 146.856 470.022 146.273 470.035 145.609H466.754V143.598H472.496V145.297C472.496 146.488 472.239 147.53 471.725 148.422C471.217 149.307 470.51 149.991 469.605 150.473C468.701 150.954 467.665 151.195 466.5 151.195C465.204 151.195 464.062 150.902 463.072 150.316C462.083 149.724 461.314 148.881 460.768 147.787C460.227 146.693 459.957 145.408 459.957 143.93C459.957 142.452 460.234 141.166 460.787 140.072C461.347 138.972 462.115 138.129 463.092 137.543C464.075 136.957 465.185 136.664 466.422 136.664C467.451 136.664 468.391 136.863 469.244 137.26C470.097 137.657 470.797 138.214 471.344 138.93C471.891 139.639 472.236 140.453 472.379 141.371H469.781ZM473.884 140.395H476.305V142.152H476.423C476.605 141.553 476.934 141.085 477.409 140.746C477.884 140.408 478.428 140.238 479.04 140.238C479.404 140.238 479.704 140.258 479.938 140.297V142.602C479.828 142.562 479.658 142.527 479.43 142.494C479.203 142.462 478.988 142.445 478.786 142.445C478.33 142.445 477.92 142.543 477.555 142.738C477.191 142.934 476.904 143.207 476.696 143.559C476.488 143.91 476.384 144.307 476.384 144.75V151H473.884V140.395ZM479.939 148.012C479.939 146.918 480.307 146.13 481.043 145.648C481.785 145.16 482.732 144.88 483.884 144.809C485.011 144.73 485.916 144.678 486.599 144.652V143.812C486.599 143.285 486.433 142.878 486.101 142.592C485.769 142.299 485.297 142.152 484.685 142.152C484.145 142.152 483.702 142.266 483.357 142.494C483.012 142.722 482.791 143.031 482.693 143.422H480.291C480.349 142.816 480.564 142.276 480.935 141.801C481.306 141.319 481.817 140.941 482.468 140.668C483.119 140.395 483.878 140.258 484.744 140.258C485.486 140.258 486.183 140.375 486.834 140.609C487.491 140.837 488.028 141.225 488.445 141.771C488.868 142.312 489.08 143.025 489.08 143.91V151H486.697V149.535H486.619C486.358 150.03 485.968 150.434 485.447 150.746C484.926 151.059 484.275 151.215 483.494 151.215C482.81 151.215 482.198 151.091 481.658 150.844C481.124 150.596 480.704 150.232 480.398 149.75C480.092 149.268 479.939 148.689 479.939 148.012ZM482.341 147.992C482.341 148.441 482.504 148.786 482.83 149.027C483.155 149.262 483.591 149.379 484.138 149.379C484.627 149.379 485.06 149.281 485.437 149.086C485.815 148.891 486.104 148.627 486.306 148.295C486.515 147.956 486.619 147.589 486.619 147.191L486.609 146.322L484.275 146.469C483.663 146.521 483.188 146.674 482.849 146.928C482.511 147.182 482.341 147.536 482.341 147.992ZM491.737 154.984C491.19 154.984 490.76 154.965 490.448 154.926V152.934C490.864 152.96 491.216 152.973 491.502 152.973C491.75 152.973 491.955 152.95 492.118 152.904C492.287 152.859 492.45 152.748 492.606 152.572C492.762 152.403 492.909 152.139 493.045 151.781L493.26 151.215L489.393 140.395H492.03L494.491 148.402H494.608L497.069 140.395H499.705L495.448 152.289C495.135 153.174 494.679 153.845 494.08 154.301C493.482 154.757 492.7 154.984 491.737 154.984ZM512.227 140.746C512.168 140.147 511.898 139.678 511.416 139.34C510.941 139.001 510.319 138.832 509.551 138.832C509.03 138.832 508.574 138.91 508.184 139.066C507.793 139.223 507.493 139.441 507.285 139.721C507.077 140.001 506.973 140.316 506.973 140.668C506.973 141.208 507.197 141.628 507.646 141.928C508.096 142.221 508.678 142.452 509.395 142.621L510.723 142.973C511.94 143.253 512.933 143.718 513.701 144.369C514.476 145.014 514.863 145.902 514.863 147.035C514.863 147.862 514.652 148.591 514.229 149.223C513.805 149.854 513.19 150.346 512.383 150.697C511.582 151.042 510.625 151.215 509.512 151.215C508.411 151.215 507.458 151.046 506.65 150.707C505.843 150.362 505.212 149.864 504.756 149.213C504.307 148.555 504.062 147.764 504.023 146.84H506.523C506.582 147.556 506.882 148.103 507.422 148.48C507.969 148.858 508.659 149.047 509.492 149.047C510.046 149.047 510.537 148.962 510.967 148.793C511.396 148.624 511.729 148.386 511.963 148.08C512.204 147.768 512.324 147.413 512.324 147.016C512.324 146.501 512.109 146.101 511.68 145.814C511.257 145.521 510.618 145.264 509.766 145.043L508.164 144.633C505.651 143.975 504.395 142.706 504.395 140.824C504.395 140.004 504.619 139.281 505.068 138.656C505.518 138.025 506.136 137.536 506.924 137.191C507.718 136.84 508.607 136.664 509.59 136.664C510.579 136.664 511.455 136.84 512.217 137.191C512.985 137.536 513.581 138.018 514.004 138.637C514.434 139.255 514.655 139.958 514.668 140.746H512.227ZM520.684 151.215C519.649 151.215 518.748 150.984 517.979 150.521C517.218 150.059 516.632 149.415 516.221 148.588C515.811 147.761 515.606 146.814 515.606 145.746C515.606 144.672 515.815 143.721 516.231 142.895C516.648 142.061 517.237 141.413 517.999 140.951C518.767 140.489 519.662 140.258 520.684 140.258C521.537 140.258 522.296 140.414 522.96 140.727C523.63 141.039 524.161 141.482 524.552 142.055C524.949 142.628 525.177 143.292 525.235 144.047H522.852C522.748 143.513 522.511 143.08 522.139 142.748C521.768 142.416 521.29 142.25 520.704 142.25C520.19 142.25 519.737 142.39 519.346 142.67C518.962 142.943 518.663 143.34 518.448 143.861C518.233 144.376 518.126 144.984 518.126 145.688C518.126 146.41 518.23 147.035 518.438 147.562C518.653 148.083 518.953 148.484 519.337 148.764C519.727 149.044 520.183 149.184 520.704 149.184C521.264 149.184 521.736 149.027 522.12 148.715C522.504 148.402 522.748 147.96 522.852 147.387H525.235C525.17 148.135 524.942 148.799 524.552 149.379C524.167 149.958 523.643 150.411 522.979 150.736C522.315 151.055 521.55 151.215 520.684 151.215ZM525.822 148.012C525.822 146.918 526.19 146.13 526.925 145.648C527.668 145.16 528.615 144.88 529.767 144.809C530.893 144.73 531.798 144.678 532.482 144.652V143.812C532.482 143.285 532.316 142.878 531.984 142.592C531.652 142.299 531.18 142.152 530.568 142.152C530.028 142.152 529.585 142.266 529.24 142.494C528.895 142.722 528.673 143.031 528.576 143.422H526.173C526.232 142.816 526.447 142.276 526.818 141.801C527.189 141.319 527.7 140.941 528.351 140.668C529.002 140.395 529.761 140.258 530.627 140.258C531.369 140.258 532.065 140.375 532.716 140.609C533.374 140.837 533.911 141.225 534.328 141.771C534.751 142.312 534.963 143.025 534.963 143.91V151H532.58V149.535H532.502C532.241 150.03 531.851 150.434 531.33 150.746C530.809 151.059 530.158 151.215 529.377 151.215C528.693 151.215 528.081 151.091 527.541 150.844C527.007 150.596 526.587 150.232 526.281 149.75C525.975 149.268 525.822 148.689 525.822 148.012ZM528.224 147.992C528.224 148.441 528.387 148.786 528.713 149.027C529.038 149.262 529.474 149.379 530.021 149.379C530.509 149.379 530.942 149.281 531.32 149.086C531.698 148.891 531.987 148.627 532.189 148.295C532.397 147.956 532.502 147.589 532.502 147.191L532.492 146.322L530.158 146.469C529.546 146.521 529.071 146.674 528.732 146.928C528.393 147.182 528.224 147.536 528.224 147.992ZM539.006 151H536.506V136.859H539.006V151ZM545.296 151.215C544.241 151.215 543.323 150.993 542.542 150.551C541.767 150.102 541.172 149.467 540.755 148.646C540.345 147.826 540.14 146.866 540.14 145.766C540.14 144.678 540.348 143.721 540.765 142.895C541.182 142.061 541.767 141.413 542.523 140.951C543.284 140.489 544.163 140.258 545.159 140.258C546.058 140.258 546.872 140.45 547.601 140.834C548.336 141.218 548.919 141.814 549.349 142.621C549.785 143.422 550.003 144.418 550.003 145.609V146.391H542.601C542.607 146.983 542.724 147.497 542.952 147.934C543.18 148.363 543.496 148.692 543.9 148.92C544.303 149.148 544.775 149.262 545.316 149.262C545.843 149.262 546.292 149.161 546.663 148.959C547.034 148.757 547.301 148.493 547.464 148.168H549.905C549.756 148.78 549.473 149.317 549.056 149.779C548.639 150.235 548.109 150.59 547.464 150.844C546.826 151.091 546.103 151.215 545.296 151.215ZM547.62 144.691C547.614 144.21 547.51 143.78 547.308 143.402C547.106 143.025 546.823 142.729 546.458 142.514C546.094 142.299 545.674 142.191 545.198 142.191C544.71 142.191 544.274 142.305 543.89 142.533C543.512 142.755 543.213 143.057 542.991 143.441C542.77 143.819 542.643 144.236 542.611 144.691H547.62Z" fill="#2D2D2D"/>
<rect x="459" y="172" width="60" height="60" rx="12" fill="white"/>
<rect x="35" y="172" width="60" height="60" rx="12" fill="#FFB700"/>
<path d="M51.9961 226V220.344H55.5039V221.086H52.8555V222.797H55.2539V223.531H52.8555V226H51.9961ZM56.4648 226V220.344H59.9727V221.086H57.3242V222.797H59.7227V223.531H57.3242V226H56.4648ZM60.9336 226V220.344H63.0039C64.207 220.344 64.793 220.992 64.793 221.828C64.793 222.531 64.3633 222.891 63.8398 223.023V223.078C64.4023 223.109 65.0117 223.602 65.0117 224.477C65.0117 225.344 64.418 226 63.0977 226H60.9336ZM63.0195 225.266C63.832 225.266 64.1602 224.906 64.1602 224.438C64.1602 223.898 63.7305 223.461 63.0508 223.461H61.793V225.266H63.0195ZM62.9336 222.789C63.5039 222.789 63.9492 222.438 63.9492 221.898C63.9492 221.43 63.6289 221.078 62.9492 221.078H61.793V222.789H62.9336ZM66.0508 226L68.5742 221.125V221.078H65.6602V220.344H69.4648V221.109L66.9492 226H66.0508ZM72.1758 226.078C70.8633 226.078 70.0977 225.023 70.0977 223.172C70.0977 221.336 70.8789 220.266 72.1758 220.266C73.4727 220.266 74.2539 221.336 74.2539 223.172C74.2539 225.023 73.4805 226.078 72.1758 226.078ZM72.1758 225.336C72.9414 225.336 73.3945 224.586 73.3945 223.172C73.3945 221.766 72.9336 220.992 72.1758 220.992C71.418 220.992 70.957 221.766 70.957 223.172C70.957 224.586 71.4102 225.336 72.1758 225.336ZM77.1133 226.078C75.8008 226.078 75.0352 225.023 75.0352 223.172C75.0352 221.336 75.8164 220.266 77.1133 220.266C78.4102 220.266 79.1914 221.336 79.1914 223.172C79.1914 225.023 78.418 226.078 77.1133 226.078ZM77.1133 225.336C77.8789 225.336 78.332 224.586 78.332 223.172C78.332 221.766 77.8711 220.992 77.1133 220.992C76.3555 220.992 75.8945 221.766 75.8945 223.172C75.8945 224.586 76.3477 225.336 77.1133 225.336Z" fill="black"/>
<path d="M293.656 226.078C292.344 226.078 291.578 225.023 291.578 223.172C291.578 221.336 292.359 220.266 293.656 220.266C294.953 220.266 295.734 221.336 295.734 223.172C295.734 225.023 294.961 226.078 293.656 226.078ZM293.656 225.336C294.422 225.336 294.875 224.586 294.875 223.172C294.875 221.766 294.414 220.992 293.656 220.992C292.898 220.992 292.438 221.766 292.438 223.172C292.438 224.586 292.891 225.336 293.656 225.336ZM298.594 226.078C297.281 226.078 296.516 225.023 296.516 223.172C296.516 221.336 297.297 220.266 298.594 220.266C299.891 220.266 300.672 221.336 300.672 223.172C300.672 225.023 299.898 226.078 298.594 226.078ZM298.594 225.336C299.359 225.336 299.812 224.586 299.812 223.172C299.812 221.766 299.352 220.992 298.594 220.992C297.836 220.992 297.375 221.766 297.375 223.172C297.375 224.586 297.828 225.336 298.594 225.336ZM303.531 226.078C302.219 226.078 301.453 225.023 301.453 223.172C301.453 221.336 302.234 220.266 303.531 220.266C304.828 220.266 305.609 221.336 305.609 223.172C305.609 225.023 304.836 226.078 303.531 226.078ZM303.531 225.336C304.297 225.336 304.75 224.586 304.75 223.172C304.75 221.766 304.289 220.992 303.531 220.992C302.773 220.992 302.312 221.766 302.312 223.172C302.312 224.586 302.766 225.336 303.531 225.336ZM308.469 226.078C307.156 226.078 306.391 225.023 306.391 223.172C306.391 221.336 307.172 220.266 308.469 220.266C309.766 220.266 310.547 221.336 310.547 223.172C310.547 225.023 309.773 226.078 308.469 226.078ZM308.469 225.336C309.234 225.336 309.688 224.586 309.688 223.172C309.688 221.766 309.227 220.992 308.469 220.992C307.711 220.992 307.25 221.766 307.25 223.172C307.25 224.586 307.703 225.336 308.469 225.336ZM313.406 226.078C312.094 226.078 311.328 225.023 311.328 223.172C311.328 221.336 312.109 220.266 313.406 220.266C314.703 220.266 315.484 221.336 315.484 223.172C315.484 225.023 314.711 226.078 313.406 226.078ZM313.406 225.336C314.172 225.336 314.625 224.586 314.625 223.172C314.625 221.766 314.164 220.992 313.406 220.992C312.648 220.992 312.188 221.766 312.188 223.172C312.188 224.586 312.641 225.336 313.406 225.336ZM318.344 226.078C317.031 226.078 316.266 225.023 316.266 223.172C316.266 221.336 317.047 220.266 318.344 220.266C319.641 220.266 320.422 221.336 320.422 223.172C320.422 225.023 319.648 226.078 318.344 226.078ZM318.344 225.336C319.109 225.336 319.562 224.586 319.562 223.172C319.562 221.766 319.102 220.992 318.344 220.992C317.586 220.992 317.125 221.766 317.125 223.172C317.125 224.586 317.578 225.336 318.344 225.336Z" fill="white"/>
<path d="M475.672 226V220.344H479.18V221.086H476.531V222.797H478.93V223.531H476.531V226H475.672ZM480.141 226V220.344H483.648V221.086H481V222.797H483.398V223.531H481V226H480.141ZM484.609 226V220.344H488.117V221.086H485.469V222.797H487.867V223.531H485.469V226H484.609ZM489.078 226V220.344H492.586V221.086H489.938V222.797H492.336V223.531H489.938V226H489.078ZM493.547 226V220.344H497.055V221.086H494.406V222.797H496.805V223.531H494.406V226H493.547ZM498.016 226V220.344H501.523V221.086H498.875V222.797H501.273V223.531H498.875V226H498.016Z" fill="black"/>
<rect x="99" y="192" width="40" height="40" rx="8" fill="#ED0000"/>
<rect x="143" y="192" width="40" height="40" rx="8" fill="#28AAF1"/>
<path d="M149.77 227V226.375L151.73 224.398C152.348 223.75 152.66 223.391 152.66 222.898C152.66 222.344 152.207 221.984 151.613 221.984C150.988 221.984 150.582 222.383 150.582 222.984H149.77C149.762 221.953 150.551 221.266 151.629 221.266C152.723 221.266 153.473 221.953 153.48 222.875C153.473 223.508 153.176 224.008 152.113 225.055L150.965 226.219V226.266H153.574V227H149.77ZM156.504 227.078C155.277 227.078 154.418 226.414 154.426 225.492C154.418 224.766 154.941 224.172 155.605 224.07V224.039C155.027 223.906 154.637 223.391 154.637 222.773C154.637 221.906 155.426 221.266 156.504 221.266C157.574 221.266 158.355 221.906 158.363 222.773C158.355 223.391 157.965 223.906 157.395 224.039V224.07C158.051 224.172 158.574 224.766 158.582 225.492C158.574 226.414 157.715 227.078 156.504 227.078ZM156.504 226.367C157.238 226.367 157.707 225.984 157.707 225.43C157.707 224.844 157.199 224.422 156.504 224.422C155.801 224.422 155.285 224.844 155.301 225.43C155.285 225.984 155.754 226.367 156.504 226.367ZM156.504 223.742C157.098 223.742 157.52 223.383 157.52 222.852C157.52 222.328 157.105 221.969 156.504 221.969C155.879 221.969 155.473 222.32 155.473 222.852C155.473 223.383 155.902 223.742 156.504 223.742ZM160.035 227H159.121L161.152 221.344H162.145L164.184 227H163.27L162.754 225.508H160.551L160.035 227ZM160.801 224.789H162.504L161.668 222.375H161.629L160.801 224.789ZM165.387 227H164.473L166.504 221.344H167.496L169.535 227H168.621L168.105 225.508H165.902L165.387 227ZM166.152 224.789H167.855L167.02 222.375H166.98L166.152 224.789ZM170.254 227V221.344H173.762V222.086H171.113V223.797H173.512V224.531H171.113V227H170.254ZM176.793 221.344V227H175.926V222.203H175.895L174.543 223.086V222.266L175.949 221.344H176.793Z" fill="black"/>
<path d="M104.641 227V221.344H108.188V222.086H105.5V223.797H108V224.531H105.5V226.258H108.219V227H104.641ZM111.078 227H109.242V221.344H111.133C112.797 221.344 113.797 222.406 113.797 224.164C113.797 225.93 112.797 227 111.078 227ZM110.102 226.25H111.031C112.312 226.25 112.945 225.5 112.945 224.164C112.945 222.836 112.312 222.094 111.078 222.094H110.102V226.25ZM116.656 227.078C115.344 227.078 114.578 226.023 114.578 224.172C114.578 222.336 115.359 221.266 116.656 221.266C117.953 221.266 118.734 222.336 118.734 224.172C118.734 226.023 117.961 227.078 116.656 227.078ZM116.656 226.336C117.422 226.336 117.875 225.586 117.875 224.172C117.875 222.766 117.414 221.992 116.656 221.992C115.898 221.992 115.438 222.766 115.438 224.172C115.438 225.586 115.891 226.336 116.656 226.336ZM121.594 227.078C120.281 227.078 119.516 226.023 119.516 224.172C119.516 222.336 120.297 221.266 121.594 221.266C122.891 221.266 123.672 222.336 123.672 224.172C123.672 226.023 122.898 227.078 121.594 227.078ZM121.594 226.336C122.359 226.336 122.812 225.586 122.812 224.172C122.812 222.766 122.352 221.992 121.594 221.992C120.836 221.992 120.375 222.766 120.375 224.172C120.375 225.586 120.828 226.336 121.594 226.336ZM126.531 227.078C125.219 227.078 124.453 226.023 124.453 224.172C124.453 222.336 125.234 221.266 126.531 221.266C127.828 221.266 128.609 222.336 128.609 224.172C128.609 226.023 127.836 227.078 126.531 227.078ZM126.531 226.336C127.297 226.336 127.75 225.586 127.75 224.172C127.75 222.766 127.289 221.992 126.531 221.992C125.773 221.992 125.312 222.766 125.312 224.172C125.312 225.586 125.766 226.336 126.531 226.336ZM131.469 227.078C130.156 227.078 129.391 226.023 129.391 224.172C129.391 222.336 130.172 221.266 131.469 221.266C132.766 221.266 133.547 222.336 133.547 224.172C133.547 226.023 132.773 227.078 131.469 227.078ZM131.469 226.336C132.234 226.336 132.688 225.586 132.688 224.172C132.688 222.766 132.227 221.992 131.469 221.992C130.711 221.992 130.25 222.766 130.25 224.172C130.25 225.586 130.703 226.336 131.469 226.336Z" fill="black"/>
</svg>
