<svg width="680" height="407" viewBox="0 0 680 407" fill="none" xmlns="http://www.w3.org/2000/svg">
<path d="M46.709 73.8594C46.4512 72.1406 45.1191 71.0879 43.3145 71.0879C40.8867 71.0879 39.2969 72.957 39.2969 76.2227C39.2969 79.5742 40.9082 81.3574 43.293 81.3574C45.0762 81.3574 46.3867 80.3691 46.709 78.6934L49.9746 78.7148C49.6094 81.5938 47.2031 84.2148 43.25 84.2148C39.082 84.2148 36.0098 81.293 36.0098 76.2227C36.0098 71.1523 39.1465 68.2305 43.25 68.2305C46.8379 68.2305 49.5449 70.293 49.9746 73.8594H46.709ZM57.4082 84.2363C53.8848 84.2363 51.6934 81.8086 51.6934 78.1992C51.6934 74.5898 53.8848 72.1836 57.4082 72.1836C60.9316 72.1836 63.1445 74.5898 63.1445 78.1992C63.1445 81.8086 60.9316 84.2363 57.4082 84.2363ZM57.4297 81.7656C59.0625 81.7656 59.9004 80.2402 59.9004 78.1992C59.9004 76.1367 59.0625 74.6113 57.4297 74.6113C55.7754 74.6113 54.916 76.1367 54.916 78.1992C54.916 80.2402 55.7754 81.7656 57.4297 81.7656ZM68.3223 68.4453V84H65.1426V68.4453H68.3223ZM76.0352 84.2363C72.5117 84.2363 70.3203 81.8086 70.3203 78.1992C70.3203 74.5898 72.5117 72.1836 76.0352 72.1836C79.5586 72.1836 81.7715 74.5898 81.7715 78.1992C81.7715 81.8086 79.5586 84.2363 76.0352 84.2363ZM76.0566 81.7656C77.6895 81.7656 78.5273 80.2402 78.5273 78.1992C78.5273 76.1367 77.6895 74.6113 76.0566 74.6113C74.4023 74.6113 73.543 76.1367 73.543 78.1992C73.543 80.2402 74.4023 81.7656 76.0566 81.7656ZM83.7695 84V72.334H86.8418V74.3535H86.9707C87.4004 72.9141 88.4746 72.1621 89.7852 72.1621C90.1074 72.1621 90.5156 72.2051 90.7949 72.2695V75.1055C90.4941 75.0195 89.8926 74.9336 89.4414 74.9336C88.002 74.9336 86.9492 75.9434 86.9492 77.3613V84H83.7695Z" fill="#2D2D2D"/>
<path d="M48.7988 97.6738V113.564H46.8301V97.6738H48.7988ZM44.0527 99.3613C44.0527 104.09 42.2246 108.115 36.6523 110.752L35.6328 109.188C39.79 107.21 41.7236 104.521 42.0664 100.908H36.4414V99.3613H44.0527ZM63.5476 98.3945V99.959H58.9421C59.1091 101.488 61.0603 102.93 64.1277 103.281L63.3894 104.846C60.5417 104.477 58.4411 103.211 57.5886 101.488C56.7361 103.211 54.653 104.477 51.8054 104.846L51.0847 103.281C54.1521 102.93 56.0681 101.471 56.2527 99.959H51.6823V98.3945H63.5476ZM63.2136 111.666V113.248H52.157V108.713H54.1081V111.666H63.2136ZM64.8484 106.041V107.641H50.364V106.041H56.6218V103.703H58.5554V106.041H64.8484ZM82.463 97.6738V107.465H80.5822V97.6738H82.463ZM79.4572 97.9551V107.447H77.6115V106.779H75.0802V105.443H77.6115V97.9551H79.4572ZM68.6466 103.65C70.7736 103.65 74.2716 103.615 76.8732 103.211L76.9963 104.529C76.0207 104.74 74.9572 104.881 73.8849 104.969V107.395H72.0041V105.074C70.8263 105.136 69.7277 105.136 68.84 105.127L68.6466 103.65ZM73.2521 107.992V109.205H80.5119V107.992H82.463V113.371H71.3185V107.992H73.2521ZM73.2521 111.842H80.5119V110.699H73.2521V111.842ZM72.8654 98.2363C74.9396 98.2363 76.3459 99.1328 76.3459 100.592C76.3459 102.033 74.9396 102.965 72.8654 102.965C70.7736 102.965 69.3673 102.033 69.3673 100.592C69.3673 99.1328 70.7736 98.2363 72.8654 98.2363ZM72.8654 99.5898C71.7931 99.5898 71.1427 99.9414 71.1427 100.592C71.1427 101.26 71.7931 101.594 72.8654 101.594C73.9025 101.594 74.588 101.26 74.6056 100.592C74.588 99.9414 73.9025 99.5898 72.8654 99.5898ZM89.2665 101.488C89.2489 104.318 90.6727 107.201 93.1337 108.379L91.9384 109.943C90.2157 109.073 88.9764 107.395 88.2997 105.373C87.6054 107.535 86.3046 109.328 84.4852 110.242L83.2899 108.678C85.8387 107.465 87.2977 104.424 87.3153 101.488V98.957H89.2665V101.488ZM96.0341 97.6738V103.896H98.4774V105.566H96.0341V113.564H94.0829V97.6738H96.0341ZM111.644 97.6738V113.582H109.675V97.6738H111.644ZM103.084 98.834C105.474 98.834 107.214 101.014 107.232 104.441C107.214 107.904 105.474 110.066 103.084 110.066C100.675 110.066 98.9352 107.904 98.9352 104.441C98.9352 101.014 100.675 98.834 103.084 98.834ZM103.084 100.592C101.73 100.592 100.816 102.016 100.816 104.441C100.816 106.885 101.73 108.309 103.084 108.309C104.42 108.309 105.334 106.885 105.334 104.441C105.334 102.016 104.42 100.592 103.084 100.592ZM126.182 106.006V107.553H115.037V98.9219H126.041V100.504H117.024V102.42H125.672V103.949H117.024V106.006H126.182ZM127.782 110.031V111.631H113.262V110.031H127.782ZM133.249 98.7812C135.763 98.7637 137.608 100.363 137.626 102.613C137.608 104.881 135.763 106.463 133.249 106.463C130.753 106.463 128.89 104.881 128.89 102.613C128.89 100.363 130.753 98.7637 133.249 98.7812ZM133.249 100.469C131.86 100.469 130.823 101.295 130.823 102.613C130.823 103.949 131.86 104.758 133.249 104.758C134.655 104.758 135.71 103.949 135.71 102.613C135.71 101.295 134.655 100.469 133.249 100.469ZM141.335 97.6738V113.582H139.384V97.6738H141.335ZM128.169 108.66C131.034 108.66 135.007 108.625 138.435 108.133L138.593 109.557C135.024 110.242 131.21 110.26 128.415 110.26L128.169 108.66ZM150.758 98.834C153.149 98.834 154.872 101.014 154.889 104.441C154.872 107.904 153.149 110.066 150.758 110.066C148.35 110.066 146.61 107.904 146.627 104.441C146.61 101.014 148.35 98.834 150.758 98.834ZM150.758 100.592C149.422 100.592 148.508 102.016 148.508 104.441C148.508 106.885 149.422 108.309 150.758 108.309C152.112 108.309 153.008 106.885 153.008 104.441C153.008 102.016 152.112 100.592 150.758 100.592ZM158.932 97.6738V103.773H161.375V105.426H158.932V113.564H156.981V97.6738H158.932ZM174.542 97.6738V113.582H172.573V97.6738H174.542ZM165.982 98.834C168.372 98.834 170.113 101.014 170.13 104.441C170.113 107.904 168.372 110.066 165.982 110.066C163.573 110.066 161.833 107.904 161.833 104.441C161.833 101.014 163.573 98.834 165.982 98.834ZM165.982 100.592C164.628 100.592 163.714 102.016 163.714 104.441C163.714 106.885 164.628 108.309 165.982 108.309C167.318 108.309 168.232 106.885 168.232 104.441C168.232 102.016 167.318 100.592 165.982 100.592ZM190.68 110.049V111.648H176.16V110.049H182.418V106.955H177.76V98.7285H179.711V101.33H187.076V98.7285H189.027V106.955H184.351V110.049H190.68ZM179.711 105.373H187.076V102.895H179.711V105.373ZM204.233 97.6738V113.582H202.299V97.6738H204.233ZM199.346 99.0625V105.021H193.88V108.221C196.384 108.203 198.547 108.08 201.016 107.658L201.192 109.258C198.485 109.732 196.112 109.82 193.264 109.82H191.876V103.475H197.36V100.645H191.858V99.0625H199.346ZM214.342 100.557C214.342 102.332 215.326 104.09 217.418 104.916L216.363 106.41C214.966 105.848 213.99 104.811 213.428 103.527C212.83 104.969 211.793 106.182 210.281 106.832L209.244 105.32C211.424 104.354 212.443 102.35 212.461 100.557V98.623H214.342V100.557ZM222.973 97.6914V107.307H221.109V103.264H219.527V107.219H217.699V97.9551H219.527V101.646H221.109V97.6914H222.973ZM222.973 108.062V113.564H221.022V109.627H212.092V108.062H222.973ZM229.846 100.205C229.846 102.209 231.147 104.09 233.591 104.863L232.536 106.393C230.822 105.812 229.592 104.652 228.915 103.176C228.212 104.863 226.929 106.19 225.1 106.832L224.046 105.303C226.612 104.406 227.878 102.297 227.895 100.029V98.5176H229.846V100.205ZM236.755 97.6738V101.541H238.97V103.158H236.755V107.184H234.804V97.6738H236.755ZM231.587 107.535C234.874 107.518 236.895 108.643 236.913 110.523C236.895 112.439 234.874 113.547 231.587 113.547C228.264 113.547 226.208 112.439 226.208 110.523C226.208 108.643 228.264 107.518 231.587 107.535ZM231.587 109.064C229.407 109.064 228.159 109.592 228.159 110.523C228.159 111.508 229.407 112 231.587 112C233.766 112 234.979 111.508 234.979 110.523C234.979 109.592 233.766 109.064 231.587 109.064ZM252.769 97.6738V113.564H250.888V97.6738H252.769ZM249.5 97.9551V112.791H247.636V105.232H246.125C245.94 108.326 244.613 110.242 242.644 110.225C240.57 110.242 239.216 108.045 239.216 104.547C239.216 101.049 240.57 98.8867 242.644 98.8867C244.569 98.8867 245.878 100.68 246.107 103.65H247.636V97.9551H249.5ZM242.644 100.732C241.642 100.715 241.009 102.068 241.027 104.547C241.009 107.025 241.642 108.379 242.644 108.361C243.699 108.379 244.332 107.025 244.332 104.547C244.332 102.068 243.699 100.715 242.644 100.732ZM271.966 110.049V111.648H257.446V110.049H263.722V106.393H265.673V110.049H271.966ZM270.718 98.957V100.557H265.708C265.769 102.842 268.125 104.942 271.386 105.426L270.612 106.973C267.923 106.48 265.726 105.065 264.706 103.088C263.678 105.092 261.498 106.56 258.852 107.061L258.079 105.514C261.252 104.978 263.59 102.842 263.651 100.557H258.659V98.957H270.718ZM284.851 97.6738V104.23H287.084V105.865H284.851V113.564H282.882V97.6738H284.851ZM272.09 109.152C273.294 109.152 274.691 109.152 276.15 109.117V107.623C274.419 107.333 273.285 106.243 273.302 104.758C273.285 102.965 274.867 101.77 277.152 101.77C279.402 101.77 281.002 102.965 281.019 104.758C281.002 106.252 279.85 107.342 278.119 107.623V109.047C279.455 108.977 280.791 108.871 282.039 108.695L282.162 110.119C278.752 110.734 275.078 110.77 272.371 110.77L272.09 109.152ZM281.863 99.502V101.049H272.388V99.502H276.15V97.7441H278.119V99.502H281.863ZM277.152 103.264C275.939 103.281 275.148 103.826 275.148 104.758C275.148 105.672 275.939 106.217 277.152 106.199C278.347 106.217 279.138 105.672 279.138 104.758C279.138 103.826 278.347 103.281 277.152 103.264ZM301.621 104.881V106.357H287.102V104.881H301.621ZM299.864 107.307V110.928H290.758V112.035H300.338V113.389H288.807V109.662H297.93V108.678H288.789V107.307H299.864ZM299.829 98.0254V101.611H290.881V102.648H300.11V103.984H288.948V100.346H297.877V99.3789H288.895V98.0254H299.829ZM318.726 97.6738V113.582H316.758V97.6738H318.726ZM310.166 98.834C312.556 98.834 314.297 101.014 314.314 104.441C314.297 107.904 312.556 110.066 310.166 110.066C307.758 110.066 306.017 107.904 306.017 104.441C306.017 101.014 307.758 98.834 310.166 98.834ZM310.166 100.592C308.812 100.592 307.898 102.016 307.898 104.441C307.898 106.885 308.812 108.309 310.166 108.309C311.502 108.309 312.416 106.885 312.416 104.441C312.416 102.016 311.502 100.592 310.166 100.592ZM333.159 98.2188V102.736H324.036V104.318H333.51V105.883H322.067V101.26H331.155V99.8008H322.032V98.2188H333.159ZM334.846 107.236V108.801H328.536V113.582H326.585V108.801H320.327V107.236H334.846ZM348.048 102.174V103.721H337.044V98.2539H338.978V102.174H348.048ZM349.683 105.566V107.113H335.163V105.566H349.683ZM348.154 111.613V113.195H336.904V108.52H338.855V111.613H348.154ZM366.208 99.2207V101.014C366.208 103.141 366.208 105.338 365.628 108.678L363.641 108.502C364.257 105.373 364.257 103.07 364.257 101.014V100.803H355.098V99.2207H366.208ZM368.053 109.785V111.385H353.569V109.785H368.053ZM374.523 99.3262V105.162H370.761V108.15C372.405 108.133 373.96 108.062 375.753 107.729L375.912 109.328C373.785 109.715 371.992 109.768 369.988 109.768H368.88V103.615H372.642V100.891H368.863V99.3262H374.523ZM382.081 97.6738V113.564H380.218V97.6738H382.081ZM378.812 98.0078V112.756H376.966V104.793H375.226V103.193H376.966V98.0078H378.812ZM396.461 97.6738V113.582H394.492V97.6738H396.461ZM387.901 98.834C390.291 98.834 392.031 101.014 392.049 104.441C392.031 107.904 390.291 110.066 387.901 110.066C385.492 110.066 383.752 107.904 383.752 104.441C383.752 101.014 385.492 98.834 387.901 98.834ZM387.901 100.592C386.547 100.592 385.633 102.016 385.633 104.441C385.633 106.885 386.547 108.309 387.901 108.309C389.236 108.309 390.151 106.885 390.151 104.441C390.151 102.016 389.236 100.592 387.901 100.592ZM406.288 99.8535C406.288 102.314 408.696 104.775 412.018 105.355L411.14 106.99C408.476 106.428 406.297 104.819 405.268 102.684C404.214 104.802 402.034 106.419 399.38 106.99L398.518 105.355C401.806 104.758 404.196 102.297 404.214 99.8535V98.6758H406.288V99.8535ZM412.599 109.926V111.543H398.079V109.926H412.599ZM419.964 99.502C419.956 100.996 419.815 102.429 419.455 103.773H421.406V98.0605H423.252V112.809H421.406V105.355H418.875C417.987 107.263 416.493 108.959 414.023 110.348L412.916 109.012C415.078 107.781 416.396 106.349 417.17 104.705L413.197 105.109L412.968 103.422L417.732 103.158C417.89 102.499 417.996 101.805 418.048 101.084H413.742V99.502H419.964ZM426.627 97.6738V113.564H424.763V97.6738H426.627ZM432.252 98.1836C434.66 98.1836 436.453 99.6777 436.471 101.77C436.453 103.879 434.66 105.355 432.252 105.355C429.826 105.355 428.034 103.879 428.034 101.77C428.034 99.6777 429.826 98.1836 432.252 98.1836ZM432.252 99.8008C430.916 99.8008 429.932 100.557 429.932 101.77C429.932 103 430.916 103.773 432.252 103.773C433.588 103.773 434.573 103 434.573 101.77C434.573 100.557 433.588 99.8008 432.252 99.8008ZM440.989 97.6738V105.707H439.02V97.6738H440.989ZM440.989 106.393V110.541H432.393V111.824H441.463V113.371H430.477V109.1H439.037V107.922H430.442V106.393H440.989ZM449.814 97.9199C453.435 97.9199 455.526 98.8867 455.544 100.645C455.526 102.42 453.435 103.369 449.814 103.387C446.192 103.369 444.083 102.42 444.083 100.645C444.083 98.8867 446.192 97.9199 449.814 97.9199ZM449.814 99.3613C447.388 99.3613 446.122 99.8184 446.14 100.645C446.122 101.523 447.388 101.928 449.814 101.928C452.274 101.928 453.522 101.523 453.522 100.645C453.522 99.8184 452.274 99.3613 449.814 99.3613ZM457.073 104.23V105.795H442.589V104.23H457.073ZM455.263 106.867V110.752H446.228V111.93H455.702V113.424H444.312V109.363H453.347V108.309H444.294V106.867H455.263ZM466.813 100.398C466.813 102.332 468.096 104.283 470.557 105.109L469.573 106.621C467.797 106.041 466.54 104.837 465.846 103.352C465.152 105.013 463.825 106.349 461.944 106.973L460.942 105.426C463.473 104.6 464.827 102.49 464.827 100.416V100.205H461.522V98.6406H470.1V100.205H466.813V100.398ZM474.284 107.904V113.564H472.332V109.469H463.456V107.904H474.284ZM474.284 97.6738V107.148H472.332V103.211H469.625V101.611H472.332V97.6738H474.284ZM490.298 105.32V106.885H475.814V105.32H479.189V103.299C477.993 102.798 477.308 101.998 477.308 100.961C477.308 99.0625 479.54 97.9375 483.038 97.9375C486.536 97.9375 488.751 99.0625 488.769 100.961C488.76 102.007 488.074 102.807 486.87 103.299V105.32H490.298ZM483.038 107.852C486.466 107.834 488.523 108.854 488.54 110.682C488.523 112.527 486.466 113.529 483.038 113.529C479.575 113.529 477.501 112.527 477.501 110.682C477.501 108.854 479.575 107.834 483.038 107.852ZM483.038 109.328C480.718 109.328 479.47 109.785 479.487 110.682C479.47 111.578 480.718 112.053 483.038 112.053C485.306 112.053 486.571 111.578 486.589 110.682C486.571 109.785 485.306 109.328 483.038 109.328ZM483.038 99.4492C480.683 99.4492 479.329 99.9766 479.347 100.961C479.329 101.928 480.683 102.438 483.038 102.438C485.376 102.438 486.747 101.928 486.747 100.961C486.747 99.9766 485.376 99.4492 483.038 99.4492ZM481.157 105.32H484.919V103.809C484.348 103.888 483.715 103.932 483.038 103.932C482.362 103.932 481.729 103.888 481.157 103.809V105.32ZM498.402 100.205V101.77H490.615V100.205H493.568V98.1309H495.502V100.205H498.402ZM494.535 102.613C496.557 102.613 497.998 104.143 497.998 106.305C497.998 108.502 496.557 110.049 494.535 110.049C492.531 110.049 491.055 108.502 491.072 106.305C491.055 104.143 492.531 102.613 494.535 102.613ZM494.535 104.23C493.498 104.23 492.777 105.057 492.795 106.305C492.777 107.588 493.498 108.396 494.535 108.379C495.555 108.396 496.275 107.588 496.275 106.305C496.275 105.057 495.555 104.23 494.535 104.23ZM504.309 97.6738V113.564H502.445V105.795H500.898V112.844H499.07V98.0078H500.898V104.213H502.445V97.6738H504.309ZM40.0273 119.184C42.4355 119.184 44.2285 120.678 44.2461 122.77C44.2285 124.879 42.4355 126.355 40.0273 126.355C37.6016 126.355 35.8086 124.879 35.8086 122.77C35.8086 120.678 37.6016 119.184 40.0273 119.184ZM40.0273 120.801C38.6914 120.801 37.707 121.557 37.707 122.77C37.707 124 38.6914 124.773 40.0273 124.773C41.3633 124.773 42.3477 124 42.3477 122.77C42.3477 121.557 41.3633 120.801 40.0273 120.801ZM48.7637 118.674V126.707H46.7949V118.674H48.7637ZM48.7637 127.393V131.541H40.168V132.824H49.2383V134.371H38.252V130.1H46.8125V128.922H38.2168V127.393H48.7637ZM59.2409 119.852V120.801C59.2234 121.891 59.2234 123.455 58.8542 125.477L56.9206 125.301C57.2282 123.657 57.2898 122.444 57.3249 121.469H51.1374V119.852H59.2409ZM55.2331 123.473V126.637C56.8767 126.575 58.5642 126.452 60.1023 126.232L60.2077 127.639C56.903 128.236 53.1589 128.289 50.364 128.307L50.1882 126.742C51.1286 126.733 52.1833 126.725 53.2995 126.707V123.473H55.2331ZM63.0378 118.674V123.631H65.0945V125.266H63.0378V130.574H61.0339V118.674H63.0378ZM63.5476 132.666V134.248H52.5612V129.52H54.53V132.666H63.5476ZM74.4467 123.666V125.23H71.4936V127.023C72.8207 126.971 74.1391 126.883 75.3784 126.76L75.519 128.166C72.144 128.641 68.4877 128.729 65.5346 128.729L65.2709 127.164C66.5805 127.155 68.0307 127.146 69.5248 127.094V125.23H66.642V119.658H74.3237V121.24H68.6108V123.666H74.4467ZM78.4545 118.674V130.609H76.4858V118.674H78.4545ZM78.9116 132.666V134.248H67.8022V129.73H69.7709V132.666H78.9116ZM98.0907 126.9V128.465H91.9559V131.207H90.0223V128.465H83.5712V126.9H98.0907ZM96.4911 132.666V134.248H85.329V129.871H87.2626V132.666H96.4911ZM87.4032 119.184V120.977H94.2587V119.184H96.1923V125.652H85.4696V119.184H87.4032ZM87.4032 124.105H94.2587V122.436H87.4032V124.105ZM103.611 119.377C106.019 119.359 107.777 120.73 107.777 122.717C107.777 124.668 106.019 126.057 103.611 126.039C101.22 126.057 99.4801 124.668 99.4801 122.717C99.4801 120.73 101.22 119.359 103.611 119.377ZM103.611 120.959C102.31 120.941 101.361 121.627 101.379 122.717C101.361 123.789 102.31 124.439 103.611 124.439C104.964 124.439 105.914 123.789 105.914 122.717C105.914 121.627 104.964 120.941 103.611 120.959ZM111.714 118.691V134.547H109.781V118.691H111.714ZM98.443 127.129C101.308 127.129 105.316 127.076 108.744 126.566L108.884 128.008C107.513 128.271 106.089 128.438 104.701 128.535V134.072H102.732V128.658C101.264 128.72 99.8844 128.729 98.6891 128.746L98.443 127.129ZM126.534 118.674V134.564H124.565V118.674H126.534ZM121.787 120.361C121.787 125.09 119.959 129.115 114.387 131.752L113.368 130.188C117.525 128.21 119.458 125.521 119.801 121.908H114.176V120.361H121.787ZM142.601 125.881V127.357H128.081V125.881H142.601ZM140.843 128.307V131.928H131.737V133.035H141.317V134.389H129.786V130.662H138.909V129.678H129.769V128.307H140.843ZM140.808 119.025V122.611H131.86V123.648H141.089V124.984H129.927V121.346H138.856V120.379H129.874V119.025H140.808ZM159.793 118.691V130.346H157.842V126.408H154.063C153.298 127.261 152.173 127.779 150.899 127.779C148.508 127.779 146.698 126.057 146.698 123.719C146.698 121.346 148.508 119.641 150.899 119.641C152.165 119.641 153.281 120.15 154.045 120.994H157.842V118.691H159.793ZM160.198 132.666V134.248H149.37V129.15H151.321V132.666H160.198ZM150.899 121.381C149.528 121.381 148.561 122.295 148.561 123.719C148.561 125.125 149.528 126.039 150.899 126.039C152.2 126.039 153.184 125.125 153.202 123.719C153.184 122.295 152.2 121.381 150.899 121.381ZM154.907 122.576C155.003 122.937 155.065 123.314 155.065 123.719C155.065 124.105 155.012 124.475 154.924 124.826H157.842V122.576H154.907ZM175.773 125.547V126.988H169.515V128.148H173.997V131.875H164.962V132.965H174.437V134.424H163.046V130.539H172.081V129.555H163.029V128.148H167.581V126.988H161.359V125.547H175.773ZM169.515 118.639V119.975H174.384V121.434H169.726C170.104 122.559 171.949 123.402 175.122 123.561L174.542 125.02C171.695 124.844 169.55 124.07 168.548 122.787C167.546 124.07 165.41 124.844 162.536 125.02L161.991 123.561C165.129 123.402 166.975 122.559 167.388 121.434H162.747V119.975H167.581V118.639H169.515ZM188.693 118.674V122.699H190.908V124.334H188.693V128.254H186.742V118.674H188.693ZM188.693 129.01V134.371H178.428V129.01H188.693ZM180.361 130.557V132.789H186.76V130.557H180.361ZM185.6 120.203V121.768H176.178V120.203H179.922V118.568H181.873V120.203H185.6ZM180.889 122.348C183.191 122.348 184.756 123.508 184.773 125.195C184.756 126.9 183.191 128.043 180.889 128.043C178.568 128.043 176.986 126.9 176.986 125.195C176.986 123.508 178.568 122.348 180.889 122.348ZM180.889 123.824C179.676 123.824 178.885 124.334 178.885 125.195C178.885 126.074 179.676 126.584 180.889 126.584C182.101 126.584 182.91 126.074 182.91 125.195C182.91 124.334 182.101 123.824 180.889 123.824Z" fill="#686868"/>
<path d="M39.4336 200.859L43.6328 211.133H43.8086L48.0078 200.859H51.1328V215H48.6914V205.273H48.5547L44.6289 214.961H42.8125L38.8867 205.234H38.7695V215H36.3086V200.859H39.4336ZM52.3445 212.012C52.3445 210.918 52.7124 210.13 53.448 209.648C54.1902 209.16 55.1375 208.88 56.2898 208.809C57.4161 208.73 58.3211 208.678 59.0047 208.652V207.812C59.0047 207.285 58.8387 206.878 58.5066 206.592C58.1746 206.299 57.7026 206.152 57.0906 206.152C56.5503 206.152 56.1076 206.266 55.7625 206.494C55.4174 206.722 55.1961 207.031 55.0984 207.422H52.6961C52.7547 206.816 52.9695 206.276 53.3406 205.801C53.7117 205.319 54.2228 204.941 54.8738 204.668C55.5249 204.395 56.2833 204.258 57.1492 204.258C57.8914 204.258 58.588 204.375 59.2391 204.609C59.8966 204.837 60.4337 205.225 60.8504 205.771C61.2736 206.312 61.4852 207.025 61.4852 207.91V215H59.1023V213.535H59.0242C58.7638 214.03 58.3732 214.434 57.8523 214.746C57.3315 215.059 56.6805 215.215 55.8992 215.215C55.2156 215.215 54.6036 215.091 54.0633 214.844C53.5294 214.596 53.1095 214.232 52.8035 213.75C52.4975 213.268 52.3445 212.689 52.3445 212.012ZM54.7469 211.992C54.7469 212.441 54.9096 212.786 55.2352 213.027C55.5607 213.262 55.9969 213.379 56.5438 213.379C57.032 213.379 57.465 213.281 57.8426 213.086C58.2202 212.891 58.5099 212.627 58.7117 212.295C58.9201 211.956 59.0242 211.589 59.0242 211.191L59.0145 210.322L56.6805 210.469C56.0685 210.521 55.5932 210.674 55.2547 210.928C54.9161 211.182 54.7469 211.536 54.7469 211.992ZM63.0289 204.395H65.5289V215H63.0289V204.395ZM64.2984 202.891C64.0445 202.891 63.8036 202.832 63.5758 202.715C63.3544 202.591 63.1786 202.425 63.0484 202.217C62.9182 202.002 62.8531 201.771 62.8531 201.523C62.8531 201.283 62.9182 201.058 63.0484 200.85C63.1786 200.641 63.3544 200.479 63.5758 200.361C63.8036 200.238 64.0445 200.176 64.2984 200.176C64.5589 200.176 64.7997 200.238 65.0211 200.361C65.2424 200.479 65.4182 200.641 65.5484 200.85C65.6786 201.058 65.7437 201.283 65.7437 201.523C65.7437 201.771 65.6786 202.002 65.5484 202.217C65.4182 202.425 65.2424 202.591 65.0211 202.715C64.7997 202.832 64.5589 202.891 64.2984 202.891ZM69.6117 215H67.1117V204.395H69.4945V206.191H69.6313C69.8786 205.579 70.2693 205.104 70.8031 204.766C71.3435 204.427 72.001 204.258 72.7758 204.258C73.5115 204.258 74.1527 204.414 74.6996 204.727C75.253 205.039 75.6762 205.495 75.9691 206.094C76.2686 206.693 76.4151 207.409 76.4086 208.242V215H73.9281V208.633C73.9281 207.917 73.7458 207.36 73.3813 206.963C73.0167 206.566 72.5089 206.367 71.8578 206.367C71.4151 206.367 71.0245 206.465 70.6859 206.66C70.3474 206.849 70.0837 207.126 69.8949 207.49C69.7061 207.848 69.6117 208.281 69.6117 208.789V215ZM91.5859 205.625C91.4883 205.072 91.2832 204.593 90.9707 204.189C90.6582 203.786 90.2611 203.48 89.7793 203.271C89.304 203.057 88.7799 202.949 88.207 202.949C87.4258 202.949 86.7389 203.145 86.1465 203.535C85.554 203.919 85.0918 204.486 84.7598 205.234C84.4277 205.983 84.2617 206.882 84.2617 207.93C84.2617 208.984 84.4277 209.886 84.7598 210.635C85.0918 211.383 85.554 211.95 86.1465 212.334C86.7454 212.718 87.4323 212.91 88.207 212.91C88.7669 212.91 89.2812 212.809 89.75 212.607C90.2253 212.399 90.6224 212.1 90.9414 211.709C91.2604 211.318 91.4753 210.853 91.5859 210.312H94.1445C94.0143 211.224 93.6855 212.051 93.1582 212.793C92.6374 213.535 91.9473 214.121 91.0879 214.551C90.2285 214.98 89.2552 215.195 88.168 215.195C86.9245 215.195 85.8112 214.906 84.8281 214.326C83.8516 213.74 83.0866 212.9 82.5332 211.807C81.9798 210.706 81.7031 209.414 81.7031 207.93C81.7031 206.439 81.9798 205.146 82.5332 204.053C83.0931 202.959 83.8613 202.122 84.8379 201.543C85.821 200.957 86.931 200.664 88.168 200.664C89.2096 200.664 90.1569 200.863 91.0098 201.26C91.8626 201.65 92.5625 202.22 93.1094 202.969C93.6562 203.711 94.0013 204.596 94.1445 205.625H91.5859ZM100.044 215.215C99.0281 215.215 98.1362 214.987 97.368 214.531C96.5997 214.076 96.0073 213.438 95.5906 212.617C95.174 211.79 94.9656 210.833 94.9656 209.746C94.9656 208.652 95.174 207.692 95.5906 206.865C96.0073 206.038 96.5997 205.397 97.368 204.941C98.1362 204.486 99.0281 204.258 100.044 204.258C101.066 204.258 101.961 204.486 102.729 204.941C103.498 205.397 104.087 206.038 104.497 206.865C104.914 207.692 105.122 208.652 105.122 209.746C105.122 210.833 104.914 211.79 104.497 212.617C104.08 213.444 103.488 214.085 102.72 214.541C101.958 214.99 101.066 215.215 100.044 215.215ZM100.063 213.223C100.61 213.223 101.072 213.07 101.45 212.764C101.834 212.458 102.121 212.041 102.309 211.514C102.505 210.986 102.602 210.391 102.602 209.727C102.602 209.069 102.505 208.477 102.309 207.949C102.121 207.415 101.834 206.995 101.45 206.689C101.072 206.383 100.61 206.23 100.063 206.23C99.5034 206.23 99.0281 206.383 98.6375 206.689C98.2534 206.995 97.9637 207.412 97.7684 207.939C97.5796 208.467 97.4852 209.062 97.4852 209.727C97.4852 210.391 97.5796 210.986 97.7684 211.514C97.9637 212.041 98.2534 212.458 98.6375 212.764C99.0281 213.07 99.5034 213.223 100.063 213.223ZM108.755 215H106.255V200.859H108.755V215ZM114.967 215.215C113.952 215.215 113.06 214.987 112.291 214.531C111.523 214.076 110.931 213.438 110.514 212.617C110.097 211.79 109.889 210.833 109.889 209.746C109.889 208.652 110.097 207.692 110.514 206.865C110.931 206.038 111.523 205.397 112.291 204.941C113.06 204.486 113.952 204.258 114.967 204.258C115.989 204.258 116.885 204.486 117.653 204.941C118.421 205.397 119.01 206.038 119.42 206.865C119.837 207.692 120.045 208.652 120.045 209.746C120.045 210.833 119.837 211.79 119.42 212.617C119.004 213.444 118.411 214.085 117.643 214.541C116.881 214.99 115.989 215.215 114.967 215.215ZM114.987 213.223C115.534 213.223 115.996 213.07 116.373 212.764C116.758 212.458 117.044 212.041 117.233 211.514C117.428 210.986 117.526 210.391 117.526 209.727C117.526 209.069 117.428 208.477 117.233 207.949C117.044 207.415 116.758 206.995 116.373 206.689C115.996 206.383 115.534 206.23 114.987 206.23C114.427 206.23 113.952 206.383 113.561 206.689C113.177 206.995 112.887 207.412 112.692 207.939C112.503 208.467 112.409 209.062 112.409 209.727C112.409 210.391 112.503 210.986 112.692 211.514C112.887 212.041 113.177 212.458 113.561 212.764C113.952 213.07 114.427 213.223 114.987 213.223ZM121.179 204.395H123.601V206.152H123.718C123.9 205.553 124.229 205.085 124.704 204.746C125.18 204.408 125.723 204.238 126.335 204.238C126.7 204.238 126.999 204.258 127.234 204.297V206.602C127.123 206.562 126.954 206.527 126.726 206.494C126.498 206.462 126.283 206.445 126.081 206.445C125.626 206.445 125.215 206.543 124.851 206.738C124.486 206.934 124.2 207.207 123.991 207.559C123.783 207.91 123.679 208.307 123.679 208.75V215H121.179V204.395Z" fill="#2D2D2D"/>
<path d="M277.684 202.988V200.859H288.953V202.988H284.598V215H282.059V202.988H277.684ZM293.192 215.215C289.989 215.215 288.036 213.086 288.036 209.766C288.036 206.484 290.028 204.258 293.055 204.258C295.653 204.258 297.899 205.879 297.899 209.609V210.391H290.497C290.526 212.197 291.591 213.262 293.212 213.262C294.305 213.262 295.048 212.793 295.36 212.168H297.802C297.352 214.004 295.653 215.215 293.192 215.215ZM290.516 208.691H295.516C295.497 207.246 294.54 206.191 293.095 206.191C291.591 206.191 290.595 207.334 290.516 208.691ZM300.849 204.395L302.998 208.32L305.185 204.395H307.822L304.619 209.688L307.88 215H305.263L302.998 211.172L300.791 215H298.134L301.377 209.688L298.212 204.395H300.849ZM314.073 204.395V206.309H311.983V211.816C311.983 212.832 312.491 213.047 313.116 213.047C313.409 213.047 313.897 213.027 314.209 213.008V215.039C313.916 215.098 313.428 215.137 312.803 215.137C310.928 215.137 309.483 214.219 309.502 212.227V206.309H307.979V204.395H309.502V201.855H311.983V204.395H314.073ZM328.781 205.625C328.488 203.926 327.121 202.949 325.402 202.949C323.078 202.949 321.457 204.727 321.457 207.93C321.457 211.172 323.098 212.91 325.402 212.91C327.082 212.91 328.449 211.973 328.781 210.312H331.34C330.949 213.027 328.723 215.195 325.363 215.195C321.633 215.195 318.898 212.48 318.898 207.93C318.898 203.359 321.672 200.664 325.363 200.664C328.488 200.664 330.91 202.48 331.34 205.625H328.781ZM337.239 215.215C334.153 215.215 332.161 213.027 332.161 209.746C332.161 206.445 334.153 204.258 337.239 204.258C340.345 204.258 342.317 206.445 342.317 209.746C342.317 213.027 340.345 215.215 337.239 215.215ZM337.259 213.223C338.958 213.223 339.798 211.68 339.798 209.727C339.798 207.793 338.958 206.23 337.259 206.23C335.52 206.23 334.68 207.793 334.68 209.727C334.68 211.68 335.52 213.223 337.259 213.223ZM345.951 200.859V215H343.451V200.859H345.951ZM352.162 215.215C349.077 215.215 347.084 213.027 347.084 209.746C347.084 206.445 349.077 204.258 352.162 204.258C355.268 204.258 357.241 206.445 357.241 209.746C357.241 213.027 355.268 215.215 352.162 215.215ZM352.182 213.223C353.881 213.223 354.721 211.68 354.721 209.727C354.721 207.793 353.881 206.23 352.182 206.23C350.444 206.23 349.604 207.793 349.604 209.727C349.604 211.68 350.444 213.223 352.182 213.223ZM358.374 215V204.395H360.796V206.152H360.913C361.284 204.941 362.32 204.238 363.53 204.238C363.804 204.238 364.195 204.258 364.429 204.297V206.602C364.214 206.523 363.687 206.445 363.277 206.445C361.89 206.445 360.874 207.402 360.874 208.75V215H358.374Z" fill="#2D2D2D"/>
<rect x="35" y="236" width="60" height="60" rx="12" fill="#F7F5EB"/>
<rect x="277" y="236" width="60" height="60" rx="12" fill="black"/>
<path d="M45.7812 330.371C45.5534 329.609 45.1497 329.017 44.5703 328.594C43.9974 328.164 43.2878 327.949 42.4414 327.949C41.6732 327.949 40.9928 328.145 40.4004 328.535C39.8079 328.919 39.3457 329.486 39.0137 330.234C38.6816 330.983 38.5156 331.875 38.5156 332.91C38.5156 333.965 38.6816 334.87 39.0137 335.625C39.3457 336.374 39.8112 336.943 40.4102 337.334C41.0091 337.718 41.7057 337.91 42.5 337.91C43.2031 337.91 43.8184 337.777 44.3457 337.51C44.873 337.236 45.2832 336.852 45.5762 336.357C45.8691 335.856 46.0221 335.273 46.0352 334.609H42.7539V332.598H48.4961V334.297C48.4961 335.488 48.2389 336.53 47.7246 337.422C47.2168 338.307 46.5104 338.991 45.6055 339.473C44.7005 339.954 43.6654 340.195 42.5 340.195C41.2044 340.195 40.0618 339.902 39.0723 339.316C38.0827 338.724 37.3145 337.881 36.7676 336.787C36.2272 335.693 35.957 334.408 35.957 332.93C35.957 331.452 36.2337 330.166 36.7871 329.072C37.347 327.972 38.1152 327.129 39.0918 326.543C40.0749 325.957 41.1849 325.664 42.4219 325.664C43.4505 325.664 44.3913 325.863 45.2441 326.26C46.097 326.657 46.7969 327.214 47.3438 327.93C47.8906 328.639 48.2357 329.453 48.3789 330.371H45.7812ZM49.8836 329.395H52.3055V331.152H52.4227C52.6049 330.553 52.9337 330.085 53.409 329.746C53.8842 329.408 54.4279 329.238 55.0398 329.238C55.4044 329.238 55.7039 329.258 55.9383 329.297V331.602C55.8276 331.562 55.6583 331.527 55.4305 331.494C55.2026 331.462 54.9878 331.445 54.7859 331.445C54.3302 331.445 53.9201 331.543 53.5555 331.738C53.1909 331.934 52.9044 332.207 52.6961 332.559C52.4878 332.91 52.3836 333.307 52.3836 333.75V340H49.8836V329.395ZM55.9391 337.012C55.9391 335.918 56.3069 335.13 57.0426 334.648C57.7848 334.16 58.732 333.88 59.8844 333.809C61.0107 333.73 61.9156 333.678 62.5992 333.652V332.812C62.5992 332.285 62.4332 331.878 62.1012 331.592C61.7691 331.299 61.2971 331.152 60.6852 331.152C60.1448 331.152 59.7021 331.266 59.357 331.494C59.012 331.722 58.7906 332.031 58.693 332.422H56.2906C56.3492 331.816 56.5641 331.276 56.9352 330.801C57.3062 330.319 57.8173 329.941 58.4684 329.668C59.1194 329.395 59.8779 329.258 60.7437 329.258C61.4859 329.258 62.1826 329.375 62.8336 329.609C63.4911 329.837 64.0283 330.225 64.4449 330.771C64.8681 331.312 65.0797 332.025 65.0797 332.91V340H62.6969V338.535H62.6187C62.3583 339.03 61.9677 339.434 61.4469 339.746C60.926 340.059 60.275 340.215 59.4937 340.215C58.8102 340.215 58.1982 340.091 57.6578 339.844C57.124 339.596 56.704 339.232 56.398 338.75C56.0921 338.268 55.9391 337.689 55.9391 337.012ZM58.3414 336.992C58.3414 337.441 58.5042 337.786 58.8297 338.027C59.1552 338.262 59.5914 338.379 60.1383 338.379C60.6266 338.379 61.0595 338.281 61.4371 338.086C61.8147 337.891 62.1044 337.627 62.3062 337.295C62.5146 336.956 62.6187 336.589 62.6187 336.191L62.609 335.322L60.275 335.469C59.663 335.521 59.1878 335.674 58.8492 335.928C58.5107 336.182 58.3414 336.536 58.3414 336.992ZM67.7367 343.984C67.1898 343.984 66.7602 343.965 66.4477 343.926V341.934C66.8643 341.96 67.2159 341.973 67.5023 341.973C67.7497 341.973 67.9548 341.95 68.1176 341.904C68.2868 341.859 68.4496 341.748 68.6059 341.572C68.7621 341.403 68.9086 341.139 69.0453 340.781L69.2602 340.215L65.393 329.395H68.0297L70.4906 337.402H70.6078L73.0688 329.395H75.7055L71.4477 341.289C71.1352 342.174 70.6794 342.845 70.0805 343.301C69.4815 343.757 68.7003 343.984 67.7367 343.984ZM88.2266 329.746C88.168 329.147 87.8978 328.678 87.416 328.34C86.9408 328.001 86.319 327.832 85.5508 327.832C85.0299 327.832 84.5742 327.91 84.1836 328.066C83.793 328.223 83.4935 328.441 83.2852 328.721C83.0768 329.001 82.9727 329.316 82.9727 329.668C82.9727 330.208 83.1973 330.628 83.6465 330.928C84.0957 331.221 84.6784 331.452 85.3945 331.621L86.7227 331.973C87.9401 332.253 88.9329 332.718 89.7012 333.369C90.4759 334.014 90.8633 334.902 90.8633 336.035C90.8633 336.862 90.6517 337.591 90.2285 338.223C89.8053 338.854 89.1901 339.346 88.3828 339.697C87.582 340.042 86.625 340.215 85.5117 340.215C84.4115 340.215 83.4577 340.046 82.6504 339.707C81.8431 339.362 81.2116 338.864 80.7559 338.213C80.3066 337.555 80.0625 336.764 80.0234 335.84H82.5234C82.582 336.556 82.8815 337.103 83.4219 337.48C83.9688 337.858 84.6589 338.047 85.4922 338.047C86.0456 338.047 86.5371 337.962 86.9668 337.793C87.3965 337.624 87.7285 337.386 87.9629 337.08C88.2038 336.768 88.3242 336.413 88.3242 336.016C88.3242 335.501 88.1094 335.101 87.6797 334.814C87.2565 334.521 86.6185 334.264 85.7656 334.043L84.1641 333.633C81.651 332.975 80.3945 331.706 80.3945 329.824C80.3945 329.004 80.6191 328.281 81.0684 327.656C81.5176 327.025 82.1361 326.536 82.9238 326.191C83.7181 325.84 84.6068 325.664 85.5898 325.664C86.5794 325.664 87.4551 325.84 88.2168 326.191C88.985 326.536 89.5807 327.018 90.0039 327.637C90.4336 328.255 90.6549 328.958 90.668 329.746H88.2266ZM96.6844 340.215C95.6492 340.215 94.7475 339.984 93.9793 339.521C93.2176 339.059 92.6316 338.415 92.2215 337.588C91.8113 336.761 91.6063 335.814 91.6063 334.746C91.6063 333.672 91.8146 332.721 92.2313 331.895C92.6479 331.061 93.2371 330.413 93.9988 329.951C94.7671 329.489 95.6622 329.258 96.6844 329.258C97.5372 329.258 98.2957 329.414 98.9598 329.727C99.6303 330.039 100.161 330.482 100.552 331.055C100.949 331.628 101.177 332.292 101.235 333.047H98.8523C98.7482 332.513 98.5105 332.08 98.1395 331.748C97.7684 331.416 97.2898 331.25 96.7039 331.25C96.1896 331.25 95.7371 331.39 95.3465 331.67C94.9624 331.943 94.6629 332.34 94.448 332.861C94.2332 333.376 94.1258 333.984 94.1258 334.688C94.1258 335.41 94.2299 336.035 94.4383 336.562C94.6531 337.083 94.9526 337.484 95.3367 337.764C95.7273 338.044 96.1831 338.184 96.7039 338.184C97.2638 338.184 97.7358 338.027 98.1199 337.715C98.504 337.402 98.7482 336.96 98.8523 336.387H101.235C101.17 337.135 100.942 337.799 100.552 338.379C100.167 338.958 99.6434 339.411 98.9793 339.736C98.3152 340.055 97.5503 340.215 96.6844 340.215ZM101.822 337.012C101.822 335.918 102.19 335.13 102.925 334.648C103.668 334.16 104.615 333.88 105.767 333.809C106.893 333.73 107.798 333.678 108.482 333.652V332.812C108.482 332.285 108.316 331.878 107.984 331.592C107.652 331.299 107.18 331.152 106.568 331.152C106.028 331.152 105.585 331.266 105.24 331.494C104.895 331.722 104.673 332.031 104.576 332.422H102.173C102.232 331.816 102.447 331.276 102.818 330.801C103.189 330.319 103.7 329.941 104.351 329.668C105.002 329.395 105.761 329.258 106.627 329.258C107.369 329.258 108.065 329.375 108.716 329.609C109.374 329.837 109.911 330.225 110.328 330.771C110.751 331.312 110.963 332.025 110.963 332.91V340H108.58V338.535H108.502C108.241 339.03 107.851 339.434 107.33 339.746C106.809 340.059 106.158 340.215 105.377 340.215C104.693 340.215 104.081 340.091 103.541 339.844C103.007 339.596 102.587 339.232 102.281 338.75C101.975 338.268 101.822 337.689 101.822 337.012ZM104.224 336.992C104.224 337.441 104.387 337.786 104.713 338.027C105.038 338.262 105.474 338.379 106.021 338.379C106.509 338.379 106.942 338.281 107.32 338.086C107.698 337.891 107.987 337.627 108.189 337.295C108.397 336.956 108.502 336.589 108.502 336.191L108.492 335.322L106.158 335.469C105.546 335.521 105.071 335.674 104.732 335.928C104.393 336.182 104.224 336.536 104.224 336.992ZM115.006 340H112.506V325.859H115.006V340ZM121.296 340.215C120.241 340.215 119.323 339.993 118.542 339.551C117.767 339.102 117.172 338.467 116.755 337.646C116.345 336.826 116.14 335.866 116.14 334.766C116.14 333.678 116.348 332.721 116.765 331.895C117.182 331.061 117.767 330.413 118.523 329.951C119.284 329.489 120.163 329.258 121.159 329.258C122.058 329.258 122.872 329.45 123.601 329.834C124.336 330.218 124.919 330.814 125.349 331.621C125.785 332.422 126.003 333.418 126.003 334.609V335.391H118.601C118.607 335.983 118.724 336.497 118.952 336.934C119.18 337.363 119.496 337.692 119.9 337.92C120.303 338.148 120.775 338.262 121.316 338.262C121.843 338.262 122.292 338.161 122.663 337.959C123.034 337.757 123.301 337.493 123.464 337.168H125.905C125.756 337.78 125.473 338.317 125.056 338.779C124.639 339.235 124.109 339.59 123.464 339.844C122.826 340.091 122.103 340.215 121.296 340.215ZM123.62 333.691C123.614 333.21 123.51 332.78 123.308 332.402C123.106 332.025 122.823 331.729 122.458 331.514C122.094 331.299 121.674 331.191 121.198 331.191C120.71 331.191 120.274 331.305 119.89 331.533C119.512 331.755 119.213 332.057 118.991 332.441C118.77 332.819 118.643 333.236 118.611 333.691H123.62Z" fill="#2D2D2D"/>
<rect x="35" y="361" width="40" height="40" rx="8" fill="#4F4A46"/>
<rect x="79" y="361" width="40" height="40" rx="8" fill="#AEAEAE"/>
<rect x="123" y="361" width="40" height="40" rx="8" fill="#B0ABA7"/>
<path d="M51.1445 290V284.344H54.6523V285.086H52.0039V286.797H54.4023V287.531H52.0039V290H51.1445ZM55.7305 290L58.2539 285.125V285.078H55.3398V284.344H59.1445V285.109L56.6289 290H55.7305ZM60.0898 290V284.344H63.5977V285.086H60.9492V286.797H63.3477V287.531H60.9492V290H60.0898ZM66.4023 290.078C65.332 290.078 64.5273 289.422 64.4883 288.523H65.3242C65.3711 289.008 65.832 289.359 66.4023 289.359C67.0898 289.359 67.582 288.859 67.582 288.188C67.582 287.5 67.0742 287 66.3633 286.992C65.9102 286.992 65.5664 287.141 65.3711 287.492H64.5586L64.9258 284.344H68.1289V285.078H65.6367L65.4492 286.664H65.5039C65.7383 286.438 66.1367 286.281 66.5664 286.281C67.6289 286.281 68.418 287.07 68.418 288.164C68.418 289.281 67.582 290.078 66.4023 290.078ZM69.4102 290V284.344H72.957V285.086H70.2695V286.797H72.7695V287.531H70.2695V289.258H72.9883V290H69.4102ZM74.0117 290V284.344H76.082C77.2852 284.344 77.8711 284.992 77.8711 285.828C77.8711 286.531 77.4414 286.891 76.918 287.023V287.078C77.4805 287.109 78.0898 287.602 78.0898 288.477C78.0898 289.344 77.4961 290 76.1758 290H74.0117ZM76.0977 289.266C76.9102 289.266 77.2383 288.906 77.2383 288.438C77.2383 287.898 76.8086 287.461 76.1289 287.461H74.8711V289.266H76.0977ZM76.0117 286.789C76.582 286.789 77.0273 286.438 77.0273 285.898C77.0273 285.43 76.707 285.078 76.0273 285.078H74.8711V286.789H76.0117Z" fill="black"/>
<path d="M293.656 290.078C292.344 290.078 291.578 289.023 291.578 287.172C291.578 285.336 292.359 284.266 293.656 284.266C294.953 284.266 295.734 285.336 295.734 287.172C295.734 289.023 294.961 290.078 293.656 290.078ZM293.656 289.336C294.422 289.336 294.875 288.586 294.875 287.172C294.875 285.766 294.414 284.992 293.656 284.992C292.898 284.992 292.438 285.766 292.438 287.172C292.438 288.586 292.891 289.336 293.656 289.336ZM298.594 290.078C297.281 290.078 296.516 289.023 296.516 287.172C296.516 285.336 297.297 284.266 298.594 284.266C299.891 284.266 300.672 285.336 300.672 287.172C300.672 289.023 299.898 290.078 298.594 290.078ZM298.594 289.336C299.359 289.336 299.812 288.586 299.812 287.172C299.812 285.766 299.352 284.992 298.594 284.992C297.836 284.992 297.375 285.766 297.375 287.172C297.375 288.586 297.828 289.336 298.594 289.336ZM303.531 290.078C302.219 290.078 301.453 289.023 301.453 287.172C301.453 285.336 302.234 284.266 303.531 284.266C304.828 284.266 305.609 285.336 305.609 287.172C305.609 289.023 304.836 290.078 303.531 290.078ZM303.531 289.336C304.297 289.336 304.75 288.586 304.75 287.172C304.75 285.766 304.289 284.992 303.531 284.992C302.773 284.992 302.312 285.766 302.312 287.172C302.312 288.586 302.766 289.336 303.531 289.336ZM308.469 290.078C307.156 290.078 306.391 289.023 306.391 287.172C306.391 285.336 307.172 284.266 308.469 284.266C309.766 284.266 310.547 285.336 310.547 287.172C310.547 289.023 309.773 290.078 308.469 290.078ZM308.469 289.336C309.234 289.336 309.688 288.586 309.688 287.172C309.688 285.766 309.227 284.992 308.469 284.992C307.711 284.992 307.25 285.766 307.25 287.172C307.25 288.586 307.703 289.336 308.469 289.336ZM313.406 290.078C312.094 290.078 311.328 289.023 311.328 287.172C311.328 285.336 312.109 284.266 313.406 284.266C314.703 284.266 315.484 285.336 315.484 287.172C315.484 289.023 314.711 290.078 313.406 290.078ZM313.406 289.336C314.172 289.336 314.625 288.586 314.625 287.172C314.625 285.766 314.164 284.992 313.406 284.992C312.648 284.992 312.188 285.766 312.188 287.172C312.188 288.586 312.641 289.336 313.406 289.336ZM318.344 290.078C317.031 290.078 316.266 289.023 316.266 287.172C316.266 285.336 317.047 284.266 318.344 284.266C319.641 284.266 320.422 285.336 320.422 287.172C320.422 289.023 319.648 290.078 318.344 290.078ZM318.344 289.336C319.109 289.336 319.562 288.586 319.562 287.172C319.562 285.766 319.102 284.992 318.344 284.992C317.586 284.992 317.125 285.766 317.125 287.172C317.125 288.586 317.578 289.336 318.344 289.336Z" fill="white"/>
<path d="M40.8555 394.898V394.203L43.3555 390.344H44.418V394.172H45.1914V394.898H44.418V396H43.6055V394.898H40.8555ZM41.7617 394.172H43.6055V391.367H43.543L41.7617 394.125V394.172ZM46.1367 396V390.344H49.6445V391.086H46.9961V392.797H49.3945V393.531H46.9961V396H46.1367ZM50.4023 394.898V394.203L52.9023 390.344H53.9648V394.172H54.7383V394.898H53.9648V396H53.1523V394.898H50.4023ZM51.3086 394.172H53.1523V391.367H53.0898L51.3086 394.125V394.172ZM56.168 396H55.2539L57.2852 390.344H58.2773L60.3164 396H59.4023L58.8867 394.508H56.6836L56.168 396ZM56.9336 393.789H58.6367L57.8008 391.375H57.7617L56.9336 393.789ZM60.832 394.898V394.203L63.332 390.344H64.3945V394.172H65.168V394.898H64.3945V396H63.582V394.898H60.832ZM61.7383 394.172H63.582V391.367H63.5195L61.7383 394.125V394.172ZM68.082 396.078C67.0352 396.07 65.9414 395.453 65.9414 393.359C65.9414 391.391 66.793 390.266 68.1523 390.266C69.1914 390.266 69.918 390.914 70.0508 391.812H69.1992C69.0898 391.352 68.7227 391.016 68.1523 391.016C67.2773 391.016 66.7695 391.781 66.7695 393.055H66.832C67.1367 392.578 67.668 392.289 68.2852 392.289C69.293 392.289 70.1055 393.062 70.1055 394.148C70.1055 395.242 69.3008 396.086 68.082 396.078ZM68.0742 395.359C68.7617 395.359 69.2695 394.828 69.2695 394.164C69.2695 393.516 68.7773 392.992 68.0977 392.992C67.4023 392.992 66.8789 393.539 66.8711 394.172C66.8789 394.797 67.3789 395.359 68.0742 395.359Z" fill="#F7F5EB"/>
<path d="M85.1328 396H84.2188L86.25 390.344H87.2422L89.2812 396H88.3672L87.8516 394.508H85.6484L85.1328 396ZM85.8984 393.789H87.6016L86.7656 391.375H86.7266L85.8984 393.789ZM90 396V390.344H93.5469V391.086H90.8594V392.797H93.3594V393.531H90.8594V395.258H93.5781V396H90ZM95.0859 396H94.1719L96.2031 390.344H97.1953L99.2344 396H98.3203L97.8047 394.508H95.6016L95.0859 396ZM95.8516 393.789H97.5547L96.7188 391.375H96.6797L95.8516 393.789ZM99.9531 396V390.344H103.5V391.086H100.812V392.797H103.312V393.531H100.812V395.258H103.531V396H99.9531ZM105.039 396H104.125L106.156 390.344H107.148L109.188 396H108.273L107.758 394.508H105.555L105.039 396ZM105.805 393.789H107.508L106.672 391.375H106.633L105.805 393.789ZM109.906 396V390.344H113.453V391.086H110.766V392.797H113.266V393.531H110.766V395.258H113.484V396H109.906Z" fill="#F7F5EB"/>
<path d="M128.02 396V390.344H130.09C131.293 390.344 131.879 390.992 131.879 391.828C131.879 392.531 131.449 392.891 130.926 393.023V393.078C131.488 393.109 132.098 393.602 132.098 394.477C132.098 395.344 131.504 396 130.184 396H128.02ZM130.105 395.266C130.918 395.266 131.246 394.906 131.246 394.438C131.246 393.898 130.816 393.461 130.137 393.461H128.879V395.266H130.105ZM130.02 392.789C130.59 392.789 131.035 392.438 131.035 391.898C131.035 391.43 130.715 391.078 130.035 391.078H128.879V392.789H130.02ZM134.91 396.078C133.598 396.078 132.832 395.023 132.832 393.172C132.832 391.336 133.613 390.266 134.91 390.266C136.207 390.266 136.988 391.336 136.988 393.172C136.988 395.023 136.215 396.078 134.91 396.078ZM134.91 395.336C135.676 395.336 136.129 394.586 136.129 393.172C136.129 391.766 135.668 390.992 134.91 390.992C134.152 390.992 133.691 391.766 133.691 393.172C133.691 394.586 134.145 395.336 134.91 395.336ZM138.441 396H137.527L139.559 390.344H140.551L142.59 396H141.676L141.16 394.508H138.957L138.441 396ZM139.207 393.789H140.91L140.074 391.375H140.035L139.207 393.789ZM143.309 396V390.344H145.379C146.582 390.344 147.168 390.992 147.168 391.828C147.168 392.531 146.738 392.891 146.215 393.023V393.078C146.777 393.109 147.387 393.602 147.387 394.477C147.387 395.344 146.793 396 145.473 396H143.309ZM145.395 395.266C146.207 395.266 146.535 394.906 146.535 394.438C146.535 393.898 146.105 393.461 145.426 393.461H144.168V395.266H145.395ZM145.309 392.789C145.879 392.789 146.324 392.438 146.324 391.898C146.324 391.43 146.004 391.078 145.324 391.078H144.168V392.789H145.309ZM148.793 396H147.879L149.91 390.344H150.902L152.941 396H152.027L151.512 394.508H149.309L148.793 396ZM149.559 393.789H151.262L150.426 391.375H150.387L149.559 393.789ZM153.777 396L156.301 391.125V391.078H153.387V390.344H157.191V391.109L154.676 396H153.777Z" fill="#F7F5EB"/>
</svg>
