<svg width="680" height="407" viewBox="0 0 680 407" fill="none" xmlns="http://www.w3.org/2000/svg">
<path d="M44.3105 84V68.4453H54.5586V71.1094H47.5332V74.8906H53.8926V77.5547H47.5332V84H44.3105ZM61.0039 84.2363C57.4805 84.2363 55.2891 81.8086 55.2891 78.1992C55.2891 74.5898 57.4805 72.1836 61.0039 72.1836C64.5273 72.1836 66.7402 74.5898 66.7402 78.1992C66.7402 81.8086 64.5273 84.2363 61.0039 84.2363ZM61.0254 81.7656C62.6582 81.7656 63.4961 80.2402 63.4961 78.1992C63.4961 76.1367 62.6582 74.6113 61.0254 74.6113C59.3711 74.6113 58.5117 76.1367 58.5117 78.1992C58.5117 80.2402 59.3711 81.7656 61.0254 81.7656ZM71.918 77.2539V84H68.7383V72.334H71.7676V74.375H71.8965C72.4336 73.0215 73.6797 72.1836 75.3984 72.1836C77.8262 72.1836 79.4375 73.8379 79.416 76.5664V84H76.2578V77.125C76.2578 75.6855 75.4629 74.8262 74.1523 74.8262C72.8203 74.8262 71.918 75.707 71.918 77.2539ZM88.0312 72.334V74.7188H85.8398V80.4121C85.8398 81.3359 86.291 81.5723 86.9355 81.5938C87.2578 81.5938 87.8164 81.5723 88.2031 81.5293V84.043C87.8594 84.1074 87.3008 84.1504 86.5059 84.1504C84.207 84.1504 82.6387 83.1191 82.6602 80.8633V74.7188H81.0488V72.334H82.6602V69.541H85.8398V72.334H88.0312Z" fill="#2D2D2D"/>
<path d="M58.0469 109.961V111.578H43.5273V109.961H58.0469ZM47.0781 98.7461V101.471H54.4434V98.7461H56.3945V107.131H45.127V98.7461H47.0781ZM47.0781 105.602H54.4434V103H47.0781V105.602ZM71.9519 97.6914V109.486H70.0886V103.879H68.4362V109.117H66.6081V97.9902H68.4362V102.279H70.0886V97.6914H71.9519ZM72.3913 111.666V113.248H61.3171V108.379H63.2683V111.666H72.3913ZM65.0612 98.9922V103.809H60.9304V105.689C62.7761 105.672 64.1823 105.575 65.7995 105.268L65.9753 106.832C64.0593 107.166 62.4421 107.236 60.1218 107.236H59.032V102.332H63.1804V100.539H59.0144V98.9922H65.0612ZM86.103 105.127V106.691H74.9584V99.0625H85.9799V100.645H76.892V105.127H86.103ZM87.7202 109.926V111.543H73.2006V109.926H87.7202ZM104.895 97.6738V107.113H102.944V103.229H100.237V101.629H102.944V97.6738H104.895ZM99.5165 107.518C102.891 107.518 104.948 108.625 104.948 110.541C104.948 112.457 102.891 113.564 99.5165 113.564C96.1591 113.564 94.1024 112.457 94.12 110.541C94.1024 108.625 96.1591 107.518 99.5165 107.518ZM99.5165 109.012C97.3016 109.012 96.0536 109.539 96.0536 110.541C96.0536 111.525 97.3016 112.053 99.5165 112.053C101.731 112.053 102.997 111.525 102.997 110.541C102.997 109.539 101.731 109.012 99.5165 109.012ZM97.4247 100.398C97.4247 102.332 98.7079 104.283 101.169 105.109L100.184 106.656C98.4179 106.059 97.161 104.846 96.4755 103.352C95.7723 105.048 94.4452 106.401 92.5555 107.078L91.536 105.531C94.0848 104.652 95.4384 102.508 95.4384 100.416V100.293H92.1337V98.7109H100.712V100.293H97.4247V100.398ZM111.277 102.525C111.277 104.986 112.296 107.465 114.511 108.66L113.421 110.102C111.945 109.319 110.943 107.922 110.38 106.252C109.818 108.054 108.816 109.592 107.322 110.471L106.179 108.994C108.429 107.693 109.431 105.039 109.431 102.525V102.033H106.724V100.451H109.431V98.2363H111.277V100.451H113.931V102.033H111.277V102.525ZM120.101 97.6738V113.564H118.238V97.6738H120.101ZM116.867 97.9727V112.791H115.021V105.391H112.947V103.773H115.021V97.9727H116.867ZM127.08 99.959C127.063 102.121 128.328 104.09 130.825 104.881L129.77 106.41C128.038 105.804 126.826 104.652 126.149 103.141C125.446 104.872 124.118 106.234 122.194 106.902L121.157 105.32C123.793 104.459 125.112 102.332 125.112 100.047V98.5352H127.08V99.959ZM134.569 97.6738V107.025H132.618V102.35H129.453V100.75H132.618V97.6738H134.569ZM129.19 107.447C132.565 107.447 134.621 108.572 134.621 110.506C134.621 112.439 132.565 113.547 129.19 113.547C125.832 113.547 123.776 112.439 123.793 110.506C123.776 108.572 125.832 107.447 129.19 107.447ZM129.19 108.959C126.975 108.959 125.727 109.504 125.727 110.506C125.727 111.473 126.975 112.018 129.19 112.018C131.405 112.018 132.67 111.473 132.67 110.506C132.67 109.504 131.405 108.959 129.19 108.959ZM143.323 97.9199C146.944 97.9199 149.036 98.8867 149.054 100.645C149.036 102.42 146.944 103.369 143.323 103.387C139.702 103.369 137.593 102.42 137.593 100.645C137.593 98.8867 139.702 97.9199 143.323 97.9199ZM143.323 99.3613C140.897 99.3613 139.632 99.8184 139.649 100.645C139.632 101.523 140.897 101.928 143.323 101.928C145.784 101.928 147.032 101.523 147.032 100.645C147.032 99.8184 145.784 99.3613 143.323 99.3613ZM150.583 104.23V105.795H136.099V104.23H150.583ZM148.772 106.867V110.752H139.737V111.93H149.212V113.424H137.821V109.363H146.856V108.309H137.804V106.867H148.772ZM168.989 106.586V108.168H165.456V113.564H163.469V108.168H159.954V113.564H157.95V108.168H154.469V106.586H168.989ZM161.694 98.2363C165.069 98.2539 167.424 99.625 167.424 101.787C167.424 103.914 165.069 105.268 161.694 105.268C158.301 105.268 155.981 103.914 155.999 101.787C155.981 99.625 158.301 98.2539 161.694 98.2363ZM161.694 99.8184C159.444 99.8184 157.985 100.539 158.002 101.787C157.985 103 159.444 103.721 161.694 103.721C163.944 103.721 165.403 103 165.403 101.787C165.403 100.539 163.944 99.8184 161.694 99.8184ZM175.318 102.191C175.318 104.793 176.847 107.535 179.413 108.607L178.341 110.154C176.46 109.346 175.089 107.676 174.368 105.654C173.63 107.834 172.241 109.662 170.378 110.541L169.253 109.012C171.767 107.852 173.331 104.898 173.331 102.191V100.855H169.833V99.2383H178.798V100.855H175.318V102.191ZM182.542 97.6738V113.564H180.573V97.6738H182.542ZM196.605 97.6738V104.002H199.049V105.619H196.605V113.564H194.672V97.6738H196.605ZM193.441 100.117V101.682H184.072V100.117H187.834V97.9023H189.785V100.117H193.441ZM188.818 102.719C191.103 102.719 192.809 104.266 192.809 106.463C192.809 108.66 191.103 110.189 188.818 110.189C186.498 110.189 184.793 108.66 184.81 106.463C184.793 104.266 186.498 102.719 188.818 102.719ZM188.818 104.318C187.57 104.318 186.674 105.162 186.674 106.463C186.674 107.764 187.57 108.59 188.818 108.572C190.031 108.59 190.928 107.764 190.945 106.463C190.928 105.162 190.031 104.318 188.818 104.318ZM212.268 97.6738V113.564H210.299V97.6738H212.268ZM207.522 99.3613C207.522 104.09 205.694 108.115 200.122 110.752L199.102 109.188C203.259 107.21 205.193 104.521 205.536 100.908H199.911V99.3613H207.522ZM222.57 98.377C224.979 98.3594 226.736 99.7305 226.736 101.717C226.736 103.668 224.979 105.057 222.57 105.039C220.18 105.057 218.44 103.668 218.44 101.717C218.44 99.7305 220.18 98.3594 222.57 98.377ZM222.57 99.959C221.27 99.9414 220.32 100.627 220.338 101.717C220.32 102.789 221.27 103.439 222.57 103.439C223.924 103.439 224.873 102.789 224.873 101.717C224.873 100.627 223.924 99.9414 222.57 99.959ZM230.674 97.6914V113.547H228.74V97.6914H230.674ZM217.402 106.129C220.268 106.129 224.275 106.076 227.703 105.566L227.844 107.008C226.473 107.271 225.049 107.438 223.66 107.535V113.072H221.691V107.658C220.224 107.72 218.844 107.729 217.649 107.746L217.402 106.129ZM239.973 100.205V101.77H232.186V100.205H235.139V98.1309H237.073V100.205H239.973ZM236.106 102.613C238.128 102.613 239.569 104.143 239.569 106.305C239.569 108.502 238.128 110.049 236.106 110.049C234.102 110.049 232.626 108.502 232.643 106.305C232.626 104.143 234.102 102.613 236.106 102.613ZM236.106 104.23C235.069 104.23 234.348 105.057 234.366 106.305C234.348 107.588 235.069 108.396 236.106 108.379C237.126 108.396 237.846 107.588 237.846 106.305C237.846 105.057 237.126 104.23 236.106 104.23ZM245.88 97.6738V113.564H244.016V105.795H242.47V112.844H240.641V98.0078H242.47V104.213H244.016V97.6738H245.88ZM263.881 97.6738V113.564H261.912V97.6738H263.881ZM259.135 99.3613C259.135 104.09 257.307 108.115 251.735 110.752L250.715 109.188C254.872 107.21 256.806 104.521 257.149 100.908H251.524V99.3613H259.135ZM278.63 98.3945V99.959H274.024C274.191 101.488 276.143 102.93 279.21 103.281L278.472 104.846C275.624 104.477 273.523 103.211 272.671 101.488C271.818 103.211 269.735 104.477 266.888 104.846L266.167 103.281C269.234 102.93 271.15 101.471 271.335 99.959H266.765V98.3945H278.63ZM278.296 111.666V113.248H267.239V108.713H269.19V111.666H278.296ZM279.931 106.041V107.641H265.446V106.041H271.704V103.703H273.638V106.041H279.931ZM297.545 97.6738V107.465H295.664V97.6738H297.545ZM294.539 97.9551V107.447H292.694V106.779H290.163V105.443H292.694V97.9551H294.539ZM283.729 103.65C285.856 103.65 289.354 103.615 291.955 103.211L292.079 104.529C291.103 104.74 290.039 104.881 288.967 104.969V107.395H287.086V105.074C285.909 105.136 284.81 105.136 283.922 105.127L283.729 103.65ZM288.334 107.992V109.205H295.594V107.992H297.545V113.371H286.401V107.992H288.334ZM288.334 111.842H295.594V110.699H288.334V111.842ZM287.948 98.2363C290.022 98.2363 291.428 99.1328 291.428 100.592C291.428 102.033 290.022 102.965 287.948 102.965C285.856 102.965 284.45 102.033 284.45 100.592C284.45 99.1328 285.856 98.2363 287.948 98.2363ZM287.948 99.5898C286.875 99.5898 286.225 99.9414 286.225 100.592C286.225 101.26 286.875 101.594 287.948 101.594C288.985 101.594 289.67 101.26 289.688 100.592C289.67 99.9414 288.985 99.5898 287.948 99.5898ZM304.349 101.488C304.331 104.318 305.755 107.201 308.216 108.379L307.021 109.943C305.298 109.073 304.059 107.395 303.382 105.373C302.688 107.535 301.387 109.328 299.568 110.242L298.372 108.678C300.921 107.465 302.38 104.424 302.398 101.488V98.957H304.349V101.488ZM311.116 97.6738V103.896H313.56V105.566H311.116V113.564H309.165V97.6738H311.116ZM326.726 97.6738V113.582H324.758V97.6738H326.726ZM318.166 98.834C320.556 98.834 322.297 101.014 322.314 104.441C322.297 107.904 320.556 110.066 318.166 110.066C315.758 110.066 314.017 107.904 314.017 104.441C314.017 101.014 315.758 98.834 318.166 98.834ZM318.166 100.592C316.812 100.592 315.898 102.016 315.898 104.441C315.898 106.885 316.812 108.309 318.166 108.309C319.502 108.309 320.416 106.885 320.416 104.441C320.416 102.016 319.502 100.592 318.166 100.592ZM341.264 106.006V107.553H330.12V98.9219H341.124V100.504H332.106V102.42H340.754V103.949H332.106V106.006H341.264ZM342.864 110.031V111.631H328.344V110.031H342.864ZM348.331 98.7812C350.845 98.7637 352.691 100.363 352.708 102.613C352.691 104.881 350.845 106.463 348.331 106.463C345.835 106.463 343.972 104.881 343.972 102.613C343.972 100.363 345.835 98.7637 348.331 98.7812ZM348.331 100.469C346.943 100.469 345.906 101.295 345.906 102.613C345.906 103.949 346.943 104.758 348.331 104.758C349.738 104.758 350.792 103.949 350.792 102.613C350.792 101.295 349.738 100.469 348.331 100.469ZM356.417 97.6738V113.582H354.466V97.6738H356.417ZM343.251 108.66C346.116 108.66 350.089 108.625 353.517 108.133L353.675 109.557C350.107 110.242 346.292 110.26 343.497 110.26L343.251 108.66ZM374.717 98.3066V99.8887H372.538V102.93H374.63V104.459H369.778V106.094H376.053V107.641H361.569V106.094H367.809V104.459H362.958V102.93H365.05V99.8887H362.87V98.3066H374.717ZM374.419 111.666V113.248H363.362V108.783H365.313V111.666H374.419ZM367.001 102.93H370.569V99.8887H367.001V102.93ZM389.326 106.006V107.553H378.181V98.9219H389.185V100.504H380.167V102.42H388.816V103.949H380.167V106.006H389.326ZM390.925 110.031V111.631H376.406V110.031H390.925ZM405.744 104.881V106.357H391.225V104.881H405.744ZM403.986 107.307V110.928H394.881V112.035H404.461V113.389H392.93V109.662H402.053V108.678H392.912V107.307H403.986ZM403.951 98.0254V101.611H395.004V102.648H404.233V103.984H393.07V100.346H402V99.3789H393.018V98.0254H403.951ZM422.269 99.2207V101.014C422.269 103.141 422.269 105.338 421.689 108.678L419.703 108.502C420.318 105.373 420.318 103.07 420.318 101.014V100.803H411.16V99.2207H422.269ZM424.115 109.785V111.385H409.63V109.785H424.115ZM438.143 97.6738V113.564H436.28V105.461H434.487V112.756H432.694V97.9727H434.487V103.896H436.28V97.6738H438.143ZM430.901 99.5547V101.137H426.928V108.203C428.659 108.186 430.083 108.098 431.692 107.799L431.832 109.398C429.916 109.785 428.246 109.838 426.032 109.855H424.959V99.5547H430.901ZM453.823 110.102V111.719H439.304V110.102H445.562V107.518H441.026V102.314H450.167V100.346H440.991V98.7637H452.101V103.861H442.978V105.918H452.47V107.518H447.495V110.102H453.823ZM470.225 97.6914V102.279H472.44V103.896H470.225V109.381H468.274V97.6914H470.225ZM470.858 111.666V113.248H460.047V108.203H461.999V111.666H470.858ZM460.17 98.8164V101.242H463.879V98.8164H465.813V106.797H458.237V98.8164H460.17ZM460.17 105.25H463.879V102.754H460.17V105.25ZM476.941 98.5703C478.224 98.5703 479.331 99.0449 480.087 99.8359H483.884V97.6738H485.835V107.025H483.884V105.004H480.087C479.331 105.795 478.215 106.261 476.941 106.252C474.55 106.27 472.739 104.652 472.739 102.42C472.739 100.17 474.55 98.5703 476.941 98.5703ZM476.941 100.24C475.57 100.24 474.603 101.084 474.603 102.42C474.603 103.721 475.57 104.6 476.941 104.6C478.259 104.6 479.226 103.721 479.243 102.42C479.226 101.084 478.259 100.24 476.941 100.24ZM480.456 107.359C483.796 107.359 485.888 108.502 485.888 110.453C485.888 112.404 483.796 113.547 480.456 113.547C477.134 113.547 475.042 112.404 475.06 110.453C475.042 108.502 477.134 107.359 480.456 107.359ZM480.456 108.854C478.241 108.854 476.958 109.416 476.976 110.453C476.958 111.455 478.241 112.018 480.456 112.018C482.706 112.018 483.972 111.455 483.972 110.453C483.972 109.416 482.706 108.854 480.456 108.854ZM480.966 101.4C481.054 101.726 481.107 102.06 481.107 102.42C481.107 102.771 481.054 103.105 480.984 103.422H483.884V101.4H480.966ZM499.898 97.6738V101.699H502.113V103.334H499.898V107.254H497.947V97.6738H499.898ZM499.898 108.01V113.371H489.633V108.01H499.898ZM491.566 109.557V111.789H497.965V109.557H491.566ZM496.805 99.2031V100.768H487.383V99.2031H491.127V97.5684H493.078V99.2031H496.805ZM492.094 101.348C494.396 101.348 495.961 102.508 495.978 104.195C495.961 105.9 494.396 107.043 492.094 107.043C489.773 107.043 488.191 105.9 488.191 104.195C488.191 102.508 489.773 101.348 492.094 101.348ZM492.094 102.824C490.881 102.824 490.09 103.334 490.09 104.195C490.09 105.074 490.881 105.584 492.094 105.584C493.307 105.584 494.115 105.074 494.115 104.195C494.115 103.334 493.307 102.824 492.094 102.824Z" fill="#686868"/>
<path d="M55.624 207.2C55.0373 207.083 54.472 206.901 53.928 206.656C53.3947 206.411 52.8933 206.117 52.424 205.776C51.9653 205.435 51.5547 205.051 51.192 204.624C50.8293 204.187 50.5307 203.723 50.296 203.232C50.0613 203.723 49.7627 204.187 49.4 204.624C49.0373 205.051 48.6213 205.435 48.152 205.776C47.6933 206.117 47.192 206.411 46.648 206.656C46.1147 206.901 45.5547 207.083 44.968 207.2L44.264 205.84C44.9787 205.712 45.6453 205.483 46.264 205.152C46.8933 204.821 47.4427 204.432 47.912 203.984C48.3813 203.525 48.7493 203.024 49.016 202.48C49.2933 201.925 49.432 201.365 49.432 200.8V199.712H51.176V200.8C51.176 201.376 51.3093 201.941 51.576 202.496C51.8533 203.04 52.2267 203.541 52.696 204C53.1653 204.448 53.7093 204.837 54.328 205.168C54.9573 205.488 55.6293 205.712 56.344 205.84L55.624 207.2ZM56.904 210.016V211.376H43.816V210.016H56.904ZM70.9988 210.16V211.52H57.8787V210.16H63.5747V207.184H59.0147V205.856H61.0947V201.408H58.9667V200.08H69.8308V201.408H67.7028V205.856H69.7987V207.184H65.2227V210.16H70.9988ZM62.7427 205.856H66.0708V201.408H62.7427V205.856ZM85.3495 205.856H83.1575V213.216H81.5095V198.768H83.1575V204.48H85.3495V205.856ZM79.4295 200.224C79.4295 201.301 79.3335 202.347 79.1415 203.36C78.9602 204.363 78.6242 205.317 78.1335 206.224C77.6535 207.131 76.9922 207.984 76.1495 208.784C75.3068 209.573 74.2295 210.299 72.9175 210.96L72.0215 209.68C73.3015 209.04 74.3308 208.352 75.1095 207.616C75.8882 206.869 76.4908 206.043 76.9175 205.136L72.3415 205.584L72.1175 204.16L77.4135 203.824C77.6055 203.12 77.7335 202.368 77.7975 201.568H72.8535V200.224H79.4295ZM97.5344 201.744H89.0064V200.432H92.4464V198.768H94.0944V200.432H97.5344V201.744ZM102.318 203.392V204.752H100.27V209.616H98.6224V198.784H100.27V203.392H102.318ZM96.7664 205.152C96.7664 205.568 96.681 205.947 96.5104 206.288C96.3397 206.619 96.0997 206.907 95.7904 207.152C95.481 207.387 95.113 207.568 94.6864 207.696C94.2597 207.824 93.785 207.888 93.2624 207.888C92.7504 207.888 92.2757 207.824 91.8384 207.696C91.4117 207.568 91.0437 207.387 90.7344 207.152C90.425 206.907 90.185 206.619 90.0144 206.288C89.8437 205.947 89.7584 205.568 89.7584 205.152C89.7584 204.747 89.8437 204.379 90.0144 204.048C90.185 203.707 90.425 203.419 90.7344 203.184C91.0437 202.939 91.4117 202.752 91.8384 202.624C92.2757 202.485 92.7504 202.416 93.2624 202.416C93.785 202.416 94.2597 202.485 94.6864 202.624C95.113 202.752 95.481 202.939 95.7904 203.184C96.0997 203.419 96.3397 203.707 96.5104 204.048C96.681 204.379 96.7664 204.747 96.7664 205.152ZM91.3424 205.152C91.3424 205.611 91.5184 205.968 91.8704 206.224C92.2224 206.48 92.6864 206.608 93.2624 206.608C93.8384 206.608 94.3024 206.48 94.6544 206.224C95.017 205.968 95.1984 205.611 95.1984 205.152C95.1984 204.693 95.017 204.336 94.6544 204.08C94.3024 203.824 93.8384 203.696 93.2624 203.696C92.6864 203.696 92.2224 203.824 91.8704 204.08C91.5184 204.336 91.3424 204.693 91.3424 205.152ZM92.7824 211.616H100.846V212.96H91.1184V208.784H92.7824V211.616ZM116.397 203.104V204.464H114.349V209.424H112.701V198.768H114.349V203.104H116.397ZM110.749 207.168C109.949 206.891 109.261 206.48 108.685 205.936C108.109 205.381 107.661 204.752 107.341 204.048C107.032 204.848 106.584 205.541 105.997 206.128C105.41 206.715 104.685 207.163 103.821 207.472L102.925 206.192C103.501 206 104.008 205.739 104.445 205.408C104.893 205.077 105.266 204.699 105.565 204.272C105.864 203.845 106.088 203.381 106.237 202.88C106.397 202.379 106.477 201.867 106.477 201.344V199.664H108.141V201.36C108.141 201.84 108.216 202.309 108.365 202.768C108.525 203.227 108.749 203.653 109.037 204.048C109.336 204.443 109.698 204.795 110.125 205.104C110.552 205.413 111.037 205.664 111.581 205.856L110.749 207.168ZM106.877 211.616H114.925V212.96H105.229V208.4H106.877V211.616ZM128.956 207.2C128.369 207.083 127.804 206.901 127.26 206.656C126.727 206.411 126.225 206.117 125.756 205.776C125.297 205.435 124.887 205.051 124.524 204.624C124.161 204.187 123.863 203.723 123.628 203.232C123.393 203.723 123.095 204.187 122.732 204.624C122.369 205.051 121.953 205.435 121.484 205.776C121.025 206.117 120.524 206.411 119.98 206.656C119.447 206.901 118.887 207.083 118.3 207.2L117.596 205.84C118.311 205.712 118.977 205.483 119.596 205.152C120.225 204.821 120.775 204.432 121.244 203.984C121.713 203.525 122.081 203.024 122.348 202.48C122.625 201.925 122.764 201.365 122.764 200.8V199.712H124.508V200.8C124.508 201.376 124.641 201.941 124.908 202.496C125.185 203.04 125.559 203.541 126.028 204C126.497 204.448 127.041 204.837 127.66 205.168C128.289 205.488 128.961 205.712 129.676 205.84L128.956 207.2ZM130.236 210.016V211.376H117.148V210.016H130.236ZM146.517 198.768V213.232H144.933V198.768H146.517ZM141.877 199.072H143.413V212.544H141.877V204.848H138.805V203.504H141.877V199.072ZM136.421 208.256C137.157 208.235 137.866 208.197 138.549 208.144C139.242 208.091 139.973 207.989 140.741 207.84L140.949 209.216C140.031 209.397 139.162 209.52 138.341 209.584C137.519 209.637 136.661 209.664 135.765 209.664H134.789V200.24H136.421V208.256ZM161.331 210.112V211.456H148.243V210.112H153.939V207.344C153.278 207.28 152.67 207.147 152.115 206.944C151.571 206.731 151.102 206.464 150.707 206.144C150.313 205.813 150.003 205.429 149.779 204.992C149.566 204.544 149.459 204.048 149.459 203.504C149.459 202.907 149.593 202.373 149.859 201.904C150.126 201.424 150.494 201.019 150.963 200.688C151.433 200.347 151.993 200.085 152.643 199.904C153.294 199.723 154.003 199.632 154.771 199.632C155.539 199.632 156.243 199.723 156.883 199.904C157.534 200.085 158.094 200.347 158.563 200.688C159.043 201.019 159.417 201.424 159.683 201.904C159.95 202.373 160.083 202.907 160.083 203.504C160.083 204.037 159.971 204.528 159.747 204.976C159.534 205.424 159.225 205.813 158.819 206.144C158.425 206.475 157.95 206.747 157.395 206.96C156.851 207.163 156.249 207.296 155.587 207.36V210.112H161.331ZM151.059 203.504C151.059 203.899 151.15 204.256 151.331 204.576C151.523 204.885 151.779 205.152 152.099 205.376C152.43 205.6 152.819 205.771 153.267 205.888C153.726 206.005 154.227 206.064 154.771 206.064C155.305 206.064 155.795 206.005 156.243 205.888C156.702 205.771 157.097 205.6 157.427 205.376C157.758 205.152 158.014 204.885 158.195 204.576C158.377 204.256 158.467 203.899 158.467 203.504C158.467 203.109 158.377 202.757 158.195 202.448C158.014 202.128 157.758 201.856 157.427 201.632C157.097 201.408 156.702 201.237 156.243 201.12C155.795 201.003 155.305 200.944 154.771 200.944C154.227 200.944 153.726 201.003 153.267 201.12C152.819 201.237 152.43 201.408 152.099 201.632C151.779 201.856 151.523 202.128 151.331 202.448C151.15 202.757 151.059 203.109 151.059 203.504Z" fill="#2D2D2D"/>
<path d="M47.284 240.182C46.5747 240.182 45.9027 240.051 45.268 239.79C44.6427 239.519 44.092 239.146 43.616 238.67L44.568 237.55C44.9413 237.923 45.366 238.222 45.842 238.446C46.318 238.661 46.808 238.768 47.312 238.768C47.9373 238.768 48.418 238.637 48.754 238.376C49.09 238.115 49.258 237.76 49.258 237.312C49.258 237.079 49.216 236.883 49.132 236.724C49.0573 236.556 48.9453 236.411 48.796 236.29C48.6467 236.169 48.4693 236.061 48.264 235.968C48.068 235.865 47.8487 235.763 47.606 235.66L46.178 235.044C45.926 234.941 45.674 234.815 45.422 234.666C45.1793 234.507 44.9553 234.321 44.75 234.106C44.554 233.882 44.3907 233.625 44.26 233.336C44.1387 233.047 44.078 232.715 44.078 232.342C44.078 231.931 44.162 231.553 44.33 231.208C44.498 230.863 44.7313 230.564 45.03 230.312C45.338 230.06 45.6973 229.864 46.108 229.724C46.528 229.575 46.9807 229.5 47.466 229.5C48.082 229.5 48.656 229.617 49.188 229.85C49.7293 230.083 50.196 230.401 50.588 230.802L49.734 231.838C49.4073 231.549 49.062 231.325 48.698 231.166C48.334 230.998 47.9233 230.914 47.466 230.914C46.934 230.914 46.5093 231.031 46.192 231.264C45.884 231.497 45.73 231.824 45.73 232.244C45.73 232.468 45.7767 232.659 45.87 232.818C45.9727 232.967 46.0987 233.103 46.248 233.224C46.4067 233.345 46.584 233.453 46.78 233.546C46.9853 233.63 47.1907 233.714 47.396 233.798L48.81 234.4C49.118 234.531 49.398 234.68 49.65 234.848C49.9113 235.007 50.1353 235.198 50.322 235.422C50.5087 235.646 50.6533 235.903 50.756 236.192C50.8587 236.472 50.91 236.803 50.91 237.186C50.91 237.597 50.826 237.984 50.658 238.348C50.49 238.712 50.2473 239.029 49.93 239.3C49.622 239.571 49.244 239.785 48.796 239.944C48.348 240.103 47.844 240.182 47.284 240.182ZM52.1756 232.3H53.4916L53.6176 233.14H53.6596C53.9956 232.86 54.3642 232.617 54.7656 232.412C55.1762 232.207 55.5962 232.104 56.0256 232.104C56.5202 232.104 56.9542 232.197 57.3276 232.384C57.7102 232.571 58.0276 232.837 58.2796 233.182C58.5409 233.518 58.7369 233.929 58.8676 234.414C59.0076 234.899 59.0776 235.436 59.0776 236.024C59.0776 236.677 58.9842 237.265 58.7976 237.788C58.6202 238.301 58.3776 238.735 58.0696 239.09C57.7616 239.445 57.4069 239.715 57.0056 239.902C56.6136 240.089 56.1982 240.182 55.7596 240.182C55.4142 240.182 55.0689 240.107 54.7236 239.958C54.3876 239.809 54.0562 239.594 53.7296 239.314L53.7716 240.63V243.122H52.1756V232.3ZM55.4516 238.852C56.0116 238.852 56.4782 238.614 56.8516 238.138C57.2249 237.653 57.4116 236.957 57.4116 236.052C57.4116 235.231 57.2716 234.591 56.9916 234.134C56.7116 233.677 56.2496 233.448 55.6056 233.448C55.3069 233.448 55.0082 233.527 54.7096 233.686C54.4109 233.835 54.0982 234.069 53.7716 234.386V238.152C54.0702 238.413 54.3642 238.595 54.6536 238.698C54.9429 238.801 55.2089 238.852 55.4516 238.852ZM63.5139 240.182C63.0379 240.182 62.5806 240.093 62.1419 239.916C61.7033 239.729 61.3159 239.468 60.9799 239.132C60.6533 238.787 60.3873 238.367 60.1819 237.872C59.9859 237.368 59.8879 236.799 59.8879 236.164C59.8879 235.52 59.9859 234.946 60.1819 234.442C60.3873 233.938 60.6533 233.513 60.9799 233.168C61.3159 232.823 61.7033 232.561 62.1419 232.384C62.5806 232.197 63.0379 232.104 63.5139 232.104C63.9899 232.104 64.4473 232.197 64.8859 232.384C65.3246 232.561 65.7073 232.823 66.0339 233.168C66.3699 233.513 66.6359 233.938 66.8319 234.442C67.0373 234.946 67.1399 235.52 67.1399 236.164C67.1399 236.799 67.0373 237.368 66.8319 237.872C66.6359 238.367 66.3699 238.787 66.0339 239.132C65.7073 239.468 65.3246 239.729 64.8859 239.916C64.4473 240.093 63.9899 240.182 63.5139 240.182ZM63.5139 238.866C63.8219 238.866 64.0973 238.801 64.3399 238.67C64.5826 238.539 64.7879 238.357 64.9559 238.124C65.1239 237.891 65.2546 237.606 65.3479 237.27C65.4413 236.934 65.4879 236.565 65.4879 236.164C65.4879 235.343 65.3106 234.685 64.9559 234.19C64.6106 233.686 64.1299 233.434 63.5139 233.434C62.8979 233.434 62.4173 233.686 62.0719 234.19C61.7266 234.685 61.5539 235.343 61.5539 236.164C61.5539 236.565 61.6006 236.934 61.6939 237.27C61.7873 237.606 61.9179 237.891 62.0859 238.124C62.2539 238.357 62.4593 238.539 62.7019 238.67C62.9446 238.801 63.2153 238.866 63.5139 238.866ZM73.2615 240.504L73.3315 239.174C73.0329 239.463 72.6969 239.706 72.3235 239.902C71.9502 240.089 71.5535 240.182 71.1335 240.182C70.1442 240.182 69.3649 239.841 68.7955 239.16C68.2355 238.469 67.9555 237.471 67.9555 236.164C67.9555 235.529 68.0442 234.965 68.2215 234.47C68.4082 233.966 68.6555 233.541 68.9635 233.196C69.2715 232.841 69.6215 232.571 70.0135 232.384C70.4149 232.197 70.8302 232.104 71.2595 232.104C71.7075 232.104 72.0949 232.183 72.4215 232.342C72.7482 232.501 73.0749 232.734 73.4015 233.042H73.4575L73.5975 232.3H74.8715V243.122H73.2615V240.504ZM71.5115 238.852C72.1369 238.852 72.7202 238.539 73.2615 237.914V234.148C72.9722 233.887 72.6875 233.705 72.4075 233.602C72.1369 233.499 71.8569 233.448 71.5675 233.448C71.2969 233.448 71.0402 233.513 70.7975 233.644C70.5642 233.765 70.3589 233.943 70.1815 234.176C70.0135 234.4 69.8782 234.68 69.7755 235.016C69.6729 235.343 69.6215 235.716 69.6215 236.136C69.6215 237.013 69.7802 237.685 70.0975 238.152C70.4242 238.619 70.8955 238.852 71.5115 238.852ZM78.5379 240.182C78.2019 240.182 77.8939 240.131 77.6139 240.028C77.3432 239.925 77.1052 239.776 76.8999 239.58C76.7039 239.384 76.5499 239.151 76.4379 238.88C76.3259 238.6 76.2699 238.292 76.2699 237.956C76.2699 237.527 76.3492 237.116 76.5079 236.724C76.6666 236.332 76.9466 236.015 77.3479 235.772C77.7399 235.557 78.2252 235.408 78.8039 235.324C79.3919 235.231 80.0826 235.156 80.8759 235.1C80.8759 234.876 80.8526 234.661 80.8059 234.456C80.7592 234.251 80.6799 234.073 80.5679 233.924C80.4559 233.765 80.3019 233.644 80.1059 233.56C79.9192 233.467 79.6859 233.42 79.4059 233.42C78.9859 233.42 78.5752 233.504 78.1739 233.672C77.7726 233.831 77.4086 234.017 77.0819 234.232L76.6059 233.056C77.0072 232.804 77.4646 232.585 77.9779 232.398C78.5006 232.202 79.0699 232.104 79.6859 232.104C80.6472 232.104 81.3519 232.389 81.7999 232.958C82.2572 233.518 82.4859 234.321 82.4859 235.366V240H81.1699L81.0299 239.16H80.9879C80.6332 239.459 80.2552 239.706 79.8539 239.902C79.4526 240.089 79.0139 240.182 78.5379 240.182ZM79.0279 238.908C79.3639 238.908 79.6766 238.838 79.9659 238.698C80.2552 238.558 80.5586 238.343 80.8759 238.054V236.15C80.5026 236.197 80.1759 236.234 79.8959 236.262C79.6159 236.29 79.3686 236.327 79.1539 236.374C78.9392 236.411 78.7526 236.463 78.5939 236.528C78.4352 236.584 78.2952 236.668 78.1739 236.78C77.9686 236.967 77.8566 237.153 77.8379 237.34C77.8286 237.517 77.8239 237.685 77.8239 237.844C77.8239 238.236 77.9359 238.511 78.1599 238.67C78.3932 238.829 78.6826 238.908 79.0279 238.908ZM86.9355 229.696H88.5595V233.896H92.9695V229.696H94.5935V240H92.9695V235.31H88.5595V240H86.9355V229.696ZM98.4048 240.182C98.0688 240.182 97.7608 240.131 97.4808 240.028C97.2101 239.925 96.9721 239.776 96.7668 239.58C96.5708 239.384 96.4168 239.151 96.3048 238.88C96.1928 238.6 96.1368 238.292 96.1368 237.956C96.1368 237.527 96.2161 237.116 96.3748 236.724C96.5334 236.332 96.8134 236.015 97.2148 235.772C97.6068 235.557 98.0921 235.408 98.6708 235.324C99.2588 235.231 99.9494 235.156 100.743 235.1C100.743 234.876 100.719 234.661 100.673 234.456C100.626 234.251 100.547 234.073 100.435 233.924C100.323 233.765 100.169 233.644 99.9728 233.56C99.7861 233.467 99.5528 233.42 99.2728 233.42C98.8528 233.42 98.4421 233.504 98.0408 233.672C97.6394 233.831 97.2754 234.017 96.9488 234.232L96.4728 233.056C96.8741 232.804 97.3314 232.585 97.8448 232.398C98.3674 232.202 98.9368 232.104 99.5528 232.104C100.514 232.104 101.219 232.389 101.667 232.958C102.124 233.518 102.353 234.321 102.353 235.366V240H101.037L100.897 239.16H100.855C100.5 239.459 100.122 239.706 99.7208 239.902C99.3194 240.089 98.8808 240.182 98.4048 240.182ZM98.8948 238.908C99.2308 238.908 99.5434 238.838 99.8328 238.698C100.122 238.558 100.425 238.343 100.743 238.054V236.15C100.369 236.197 100.043 236.234 99.7628 236.262C99.4828 236.29 99.2355 236.327 99.0208 236.374C98.8061 236.411 98.6194 236.463 98.4608 236.528C98.3021 236.584 98.1621 236.668 98.0408 236.78C97.8354 236.967 97.7234 237.153 97.7048 237.34C97.6954 237.517 97.6908 237.685 97.6908 237.844C97.6908 238.236 97.8028 238.511 98.0268 238.67C98.2601 238.829 98.5494 238.908 98.8948 238.908ZM104.078 232.3H105.394L105.52 233.364H105.562C105.916 233.019 106.299 232.725 106.71 232.482C107.12 232.23 107.587 232.104 108.11 232.104C108.931 232.104 109.528 232.365 109.902 232.888C110.284 233.411 110.476 234.167 110.476 235.156V240H108.866V235.352C108.866 234.68 108.763 234.204 108.558 233.924C108.352 233.635 108.021 233.49 107.564 233.49C107.209 233.49 106.892 233.579 106.612 233.756C106.332 233.933 106.019 234.195 105.674 234.54V240H104.078V232.3ZM117.905 240.182C117.195 240.182 116.523 240.051 115.889 239.79C115.263 239.519 114.713 239.146 114.237 238.67L115.189 237.55C115.562 237.923 115.987 238.222 116.463 238.446C116.939 238.661 117.429 238.768 117.933 238.768C118.558 238.768 119.039 238.637 119.375 238.376C119.711 238.115 119.879 237.76 119.879 237.312C119.879 237.079 119.837 236.883 119.753 236.724C119.678 236.556 119.566 236.411 119.417 236.29C119.267 236.169 119.09 236.061 118.885 235.968C118.689 235.865 118.469 235.763 118.227 235.66L116.799 235.044C116.547 234.941 116.295 234.815 116.043 234.666C115.8 234.507 115.576 234.321 115.371 234.106C115.175 233.882 115.011 233.625 114.881 233.336C114.759 233.047 114.699 232.715 114.699 232.342C114.699 231.931 114.783 231.553 114.951 231.208C115.119 230.863 115.352 230.564 115.651 230.312C115.959 230.06 116.318 229.864 116.729 229.724C117.149 229.575 117.601 229.5 118.087 229.5C118.703 229.5 119.277 229.617 119.809 229.85C120.35 230.083 120.817 230.401 121.209 230.802L120.355 231.838C120.028 231.549 119.683 231.325 119.319 231.166C118.955 230.998 118.544 230.914 118.087 230.914C117.555 230.914 117.13 231.031 116.813 231.264C116.505 231.497 116.351 231.824 116.351 232.244C116.351 232.468 116.397 232.659 116.491 232.818C116.593 232.967 116.719 233.103 116.869 233.224C117.027 233.345 117.205 233.453 117.401 233.546C117.606 233.63 117.811 233.714 118.017 233.798L119.431 234.4C119.739 234.531 120.019 234.68 120.271 234.848C120.532 235.007 120.756 235.198 120.943 235.422C121.129 235.646 121.274 235.903 121.377 236.192C121.479 236.472 121.531 236.803 121.531 237.186C121.531 237.597 121.447 237.984 121.279 238.348C121.111 238.712 120.868 239.029 120.551 239.3C120.243 239.571 119.865 239.785 119.417 239.944C118.969 240.103 118.465 240.182 117.905 240.182ZM124.602 240.182C124.266 240.182 123.958 240.131 123.678 240.028C123.408 239.925 123.17 239.776 122.964 239.58C122.768 239.384 122.614 239.151 122.502 238.88C122.39 238.6 122.334 238.292 122.334 237.956C122.334 237.527 122.414 237.116 122.572 236.724C122.731 236.332 123.011 236.015 123.412 235.772C123.804 235.557 124.29 235.408 124.868 235.324C125.456 235.231 126.147 235.156 126.94 235.1C126.94 234.876 126.917 234.661 126.87 234.456C126.824 234.251 126.744 234.073 126.632 233.924C126.52 233.765 126.366 233.644 126.17 233.56C125.984 233.467 125.75 233.42 125.47 233.42C125.05 233.42 124.64 233.504 124.238 233.672C123.837 233.831 123.473 234.017 123.146 234.232L122.67 233.056C123.072 232.804 123.529 232.585 124.042 232.398C124.565 232.202 125.134 232.104 125.75 232.104C126.712 232.104 127.416 232.389 127.864 232.958C128.322 233.518 128.55 234.321 128.55 235.366V240H127.234L127.094 239.16H127.052C126.698 239.459 126.32 239.706 125.918 239.902C125.517 240.089 125.078 240.182 124.602 240.182ZM125.092 238.908C125.428 238.908 125.741 238.838 126.03 238.698C126.32 238.558 126.623 238.343 126.94 238.054V236.15C126.567 236.197 126.24 236.234 125.96 236.262C125.68 236.29 125.433 236.327 125.218 236.374C125.004 236.411 124.817 236.463 124.658 236.528C124.5 236.584 124.36 236.668 124.238 236.78C124.033 236.967 123.921 237.153 123.902 237.34C123.893 237.517 123.888 237.685 123.888 237.844C123.888 238.236 124 238.511 124.224 238.67C124.458 238.829 124.747 238.908 125.092 238.908ZM130.275 232.3H131.591L131.717 233.364H131.759C132.114 233.019 132.496 232.725 132.907 232.482C133.318 232.23 133.784 232.104 134.307 232.104C135.128 232.104 135.726 232.365 136.099 232.888C136.482 233.411 136.673 234.167 136.673 235.156V240H135.063V235.352C135.063 234.68 134.96 234.204 134.755 233.924C134.55 233.635 134.218 233.49 133.761 233.49C133.406 233.49 133.089 233.579 132.809 233.756C132.529 233.933 132.216 234.195 131.871 234.54V240H130.275V232.3ZM140.551 240.182C140.019 240.182 139.497 240.084 138.983 239.888C138.47 239.683 138.027 239.426 137.653 239.118L138.409 238.082C138.755 238.353 139.1 238.567 139.445 238.726C139.791 238.885 140.173 238.964 140.593 238.964C141.069 238.964 141.415 238.866 141.629 238.67C141.844 238.474 141.951 238.227 141.951 237.928C141.951 237.751 141.9 237.597 141.797 237.466C141.704 237.335 141.573 237.223 141.405 237.13C141.247 237.027 141.065 236.934 140.859 236.85C140.663 236.766 140.458 236.682 140.243 236.598C139.991 236.495 139.735 236.383 139.473 236.262C139.212 236.141 138.974 235.996 138.759 235.828C138.554 235.651 138.381 235.445 138.241 235.212C138.111 234.969 138.045 234.685 138.045 234.358C138.045 234.031 138.106 233.733 138.227 233.462C138.358 233.191 138.54 232.953 138.773 232.748C139.007 232.543 139.291 232.384 139.627 232.272C139.973 232.16 140.355 232.104 140.775 232.104C141.307 232.104 141.779 232.197 142.189 232.384C142.6 232.561 142.964 232.771 143.281 233.014L142.525 234.008C142.255 233.812 141.979 233.653 141.699 233.532C141.429 233.401 141.13 233.336 140.803 233.336C140.383 233.336 140.071 233.429 139.865 233.616C139.669 233.793 139.571 234.017 139.571 234.288C139.571 234.456 139.618 234.601 139.711 234.722C139.805 234.834 139.926 234.937 140.075 235.03C140.225 235.123 140.397 235.207 140.593 235.282C140.799 235.357 141.004 235.431 141.209 235.506C141.48 235.609 141.751 235.721 142.021 235.842C142.292 235.963 142.535 236.113 142.749 236.29C142.964 236.458 143.137 236.668 143.267 236.92C143.407 237.172 143.477 237.48 143.477 237.844C143.477 238.161 143.412 238.465 143.281 238.754C143.16 239.034 142.973 239.281 142.721 239.496C142.479 239.711 142.175 239.879 141.811 240C141.447 240.121 141.027 240.182 140.551 240.182ZM147.343 229.696H149.009L152.425 235.744L153.503 237.928H153.573C153.526 237.396 153.479 236.831 153.433 236.234C153.386 235.637 153.363 235.058 153.363 234.498V229.696H154.903V240H153.237L149.821 233.924L148.743 231.768H148.673C148.719 232.3 148.766 232.855 148.813 233.434C148.859 234.013 148.883 234.582 148.883 235.142V240H147.343V229.696ZM160.116 240.182C159.593 240.182 159.103 240.093 158.646 239.916C158.189 239.729 157.792 239.468 157.456 239.132C157.12 238.787 156.854 238.367 156.658 237.872C156.462 237.368 156.364 236.799 156.364 236.164C156.364 235.529 156.462 234.965 156.658 234.47C156.854 233.966 157.115 233.541 157.442 233.196C157.769 232.841 158.142 232.571 158.562 232.384C158.991 232.197 159.43 232.104 159.878 232.104C160.391 232.104 160.839 232.193 161.222 232.37C161.614 232.547 161.941 232.795 162.202 233.112C162.473 233.429 162.673 233.812 162.804 234.26C162.944 234.708 163.014 235.207 163.014 235.758C163.014 235.926 163.005 236.08 162.986 236.22C162.977 236.351 162.963 236.467 162.944 236.57H157.946C158.011 237.307 158.254 237.886 158.674 238.306C159.103 238.717 159.654 238.922 160.326 238.922C160.671 238.922 160.993 238.875 161.292 238.782C161.591 238.679 161.88 238.535 162.16 238.348L162.72 239.37C162.365 239.613 161.969 239.809 161.53 239.958C161.091 240.107 160.62 240.182 160.116 240.182ZM161.628 235.464C161.628 234.792 161.479 234.274 161.18 233.91C160.891 233.546 160.466 233.364 159.906 233.364C159.673 233.364 159.444 233.411 159.22 233.504C158.996 233.597 158.795 233.733 158.618 233.91C158.441 234.087 158.291 234.307 158.17 234.568C158.049 234.829 157.969 235.128 157.932 235.464H161.628ZM167.36 240.182C166.884 240.182 166.427 240.093 165.988 239.916C165.549 239.729 165.162 239.468 164.826 239.132C164.499 238.787 164.233 238.367 164.028 237.872C163.832 237.368 163.734 236.799 163.734 236.164C163.734 235.52 163.832 234.946 164.028 234.442C164.233 233.938 164.499 233.513 164.826 233.168C165.162 232.823 165.549 232.561 165.988 232.384C166.427 232.197 166.884 232.104 167.36 232.104C167.836 232.104 168.293 232.197 168.732 232.384C169.171 232.561 169.553 232.823 169.88 233.168C170.216 233.513 170.482 233.938 170.678 234.442C170.883 234.946 170.986 235.52 170.986 236.164C170.986 236.799 170.883 237.368 170.678 237.872C170.482 238.367 170.216 238.787 169.88 239.132C169.553 239.468 169.171 239.729 168.732 239.916C168.293 240.093 167.836 240.182 167.36 240.182ZM167.36 238.866C167.668 238.866 167.943 238.801 168.186 238.67C168.429 238.539 168.634 238.357 168.802 238.124C168.97 237.891 169.101 237.606 169.194 237.27C169.287 236.934 169.334 236.565 169.334 236.164C169.334 235.343 169.157 234.685 168.802 234.19C168.457 233.686 167.976 233.434 167.36 233.434C166.744 233.434 166.263 233.686 165.918 234.19C165.573 234.685 165.4 235.343 165.4 236.164C165.4 236.565 165.447 236.934 165.54 237.27C165.633 237.606 165.764 237.891 165.932 238.124C166.1 238.357 166.305 238.539 166.548 238.67C166.791 238.801 167.061 238.866 167.36 238.866Z" fill="#2D2D2D"/>
<path d="M271.22 219.96H263V247.56H256.82V193.38H263V214.8H271.22V219.96ZM248.84 199.14C248.84 203.06 248.4 206.86 247.52 210.54C246.64 214.22 245.22 217.7 243.26 220.98C241.3 224.26 238.78 227.32 235.7 230.16C232.62 232.96 228.86 235.48 224.42 237.72L221 232.98C234.2 226.18 241.42 216.58 242.66 204.18H223.7V199.14H248.84Z" fill="#2D2D2D"/>
<path d="M307.16 230.4H291.8L288.02 243H280.94L295.58 198.84H303.62L318.26 243H310.88L307.16 230.4ZM305.48 224.94L303.74 219C302.98 216.6 302.26 214.18 301.58 211.74C300.9 209.3 300.22 206.82 299.54 204.3H299.3C298.66 206.82 298 209.3 297.32 211.74C296.64 214.18 295.94 216.6 295.22 219L293.42 224.94H305.48ZM332.69 243.78C331.25 243.78 329.93 243.56 328.73 243.12C327.57 242.68 326.55 242.04 325.67 241.2C324.83 240.36 324.17 239.36 323.69 238.2C323.21 237 322.97 235.68 322.97 234.24C322.97 232.4 323.31 230.64 323.99 228.96C324.67 227.28 325.87 225.92 327.59 224.88C329.27 223.96 331.35 223.32 333.83 222.96C336.35 222.56 339.31 222.24 342.71 222C342.71 221.04 342.61 220.12 342.41 219.24C342.21 218.36 341.87 217.6 341.39 216.96C340.91 216.28 340.25 215.76 339.41 215.4C338.61 215 337.61 214.8 336.41 214.8C334.61 214.8 332.85 215.16 331.13 215.88C329.41 216.56 327.85 217.36 326.45 218.28L324.41 213.24C326.13 212.16 328.09 211.22 330.29 210.42C332.53 209.58 334.97 209.16 337.61 209.16C341.73 209.16 344.75 210.38 346.67 212.82C348.63 215.22 349.61 218.66 349.61 223.14V243H343.97L343.37 239.4H343.19C341.67 240.68 340.05 241.74 338.33 242.58C336.61 243.38 334.73 243.78 332.69 243.78ZM334.79 238.32C336.23 238.32 337.57 238.02 338.81 237.42C340.05 236.82 341.35 235.9 342.71 234.66V226.5C341.11 226.7 339.71 226.86 338.51 226.98C337.31 227.1 336.25 227.26 335.33 227.46C334.41 227.62 333.61 227.84 332.93 228.12C332.25 228.36 331.65 228.72 331.13 229.2C330.25 230 329.77 230.8 329.69 231.6C329.65 232.36 329.63 233.08 329.63 233.76C329.63 235.44 330.11 236.62 331.07 237.3C332.07 237.98 333.31 238.32 334.79 238.32Z" fill="#2D2D2D"/>
<path d="M394.78 200.2V206.02H400.38V200.2H403.32V215H400.38V208.6H394.78V215H391.82V200.2H394.78ZM411.577 215.28C410.803 215.28 410.077 215.147 409.397 214.88C408.717 214.613 408.123 214.233 407.617 213.74C407.123 213.233 406.73 212.62 406.437 211.9C406.157 211.167 406.017 210.34 406.017 209.42C406.017 208.513 406.163 207.7 406.457 206.98C406.75 206.247 407.137 205.627 407.617 205.12C408.11 204.6 408.67 204.207 409.297 203.94C409.923 203.66 410.57 203.52 411.237 203.52C412.01 203.52 412.683 203.653 413.257 203.92C413.843 204.187 414.33 204.56 414.717 205.04C415.117 205.52 415.417 206.087 415.617 206.74C415.817 207.393 415.917 208.107 415.917 208.88C415.917 209.147 415.903 209.407 415.877 209.66C415.85 209.9 415.817 210.087 415.777 210.22H408.877C408.997 211.14 409.33 211.84 409.877 212.32C410.437 212.787 411.137 213.02 411.977 213.02C412.443 213.02 412.877 212.953 413.277 212.82C413.69 212.687 414.097 212.493 414.497 212.24L415.497 214.04C414.937 214.427 414.323 214.733 413.657 214.96C412.99 215.173 412.297 215.28 411.577 215.28ZM413.397 208.28C413.397 207.52 413.223 206.92 412.877 206.48C412.53 206.027 411.997 205.8 411.277 205.8C410.69 205.8 410.163 206.013 409.697 206.44C409.23 206.853 408.943 207.467 408.837 208.28H413.397ZM421.098 215.2C420.604 215.2 420.151 215.127 419.738 214.98C419.324 214.82 418.971 214.6 418.678 214.32C418.398 214.027 418.178 213.68 418.018 213.28C417.858 212.88 417.778 212.44 417.778 211.96C417.711 210.587 418.184 209.573 419.198 208.92C420.224 208.253 421.898 207.887 424.218 207.82C424.271 207.353 424.184 206.88 423.958 206.4C423.718 206.053 423.171 205.88 422.318 205.88C421.798 205.88 421.251 205.973 420.678 206.16C420.118 206.347 419.584 206.607 419.078 206.94L418.198 204.84C418.811 204.467 419.518 204.153 420.318 203.9C421.131 203.647 421.978 203.52 422.858 203.52C425.724 203.52 427.158 205.167 427.158 208.46V215H424.758L424.538 213.86H424.478C423.998 214.273 423.471 214.6 422.898 214.84C422.338 215.08 421.738 215.2 421.098 215.2ZM421.998 212.96C422.424 212.947 422.811 212.853 423.158 212.68C423.518 212.493 423.871 212.227 424.218 211.88V209.62C423.871 209.647 423.524 209.68 423.178 209.72C422.844 209.747 422.518 209.787 422.198 209.84C421.558 209.933 421.104 210.127 420.838 210.42C420.584 210.713 420.464 211.06 420.478 211.46C420.491 211.927 420.638 212.293 420.918 212.56C421.211 212.827 421.571 212.96 421.998 212.96ZM434.094 215.28C433.401 215.28 432.768 215.147 432.194 214.88C431.634 214.613 431.154 214.227 430.754 213.72C430.354 213.213 430.048 212.6 429.834 211.88C429.621 211.16 429.514 210.34 429.514 209.42C429.514 208.5 429.641 207.68 429.894 206.96C430.161 206.227 430.514 205.607 430.954 205.1C431.394 204.593 431.894 204.207 432.454 203.94C433.028 203.66 433.614 203.52 434.214 203.52C434.854 203.52 435.388 203.633 435.814 203.86C436.241 204.073 436.654 204.367 437.054 204.74L436.934 202.98V199.04H439.874V215H437.494L437.254 213.84H437.194C436.781 214.24 436.308 214.58 435.774 214.86C435.254 215.14 434.694 215.28 434.094 215.28ZM434.854 212.86C435.241 212.86 435.601 212.773 435.934 212.6C436.281 212.427 436.614 212.127 436.934 211.7V206.78C436.588 206.473 436.241 206.26 435.894 206.14C435.548 206.007 435.201 205.94 434.854 205.94C434.534 205.94 434.234 206.013 433.954 206.16C433.674 206.307 433.428 206.527 433.214 206.82C433.014 207.113 432.848 207.473 432.714 207.9C432.594 208.327 432.534 208.82 432.534 209.38C432.534 211.7 433.308 212.86 434.854 212.86ZM443.025 199.04H445.945V215H443.025V199.04ZM449.074 202V199.16H451.994V202H449.074ZM449.054 203.8H451.974V215H449.054V203.8ZM457.261 203.8L457.461 205.28H457.541C458.035 204.8 458.575 204.387 459.161 204.04C459.748 203.693 460.421 203.52 461.181 203.52C462.395 203.52 463.275 203.92 463.821 204.72C464.368 205.507 464.641 206.607 464.641 208.02V215H461.701V208.38C461.701 207.513 461.575 206.907 461.321 206.56C461.081 206.213 460.681 206.04 460.121 206.04C459.655 206.04 459.255 206.147 458.921 206.36C458.588 206.573 458.208 206.887 457.781 207.3V215H454.861V203.8H457.261ZM472.534 215.28C471.76 215.28 471.034 215.147 470.354 214.88C469.674 214.613 469.08 214.233 468.574 213.74C468.08 213.233 467.687 212.62 467.394 211.9C467.114 211.167 466.974 210.34 466.974 209.42C466.974 208.513 467.12 207.7 467.414 206.98C467.707 206.247 468.094 205.627 468.574 205.12C469.067 204.6 469.627 204.207 470.254 203.94C470.88 203.66 471.527 203.52 472.194 203.52C472.967 203.52 473.64 203.653 474.214 203.92C474.8 204.187 475.287 204.56 475.674 205.04C476.074 205.52 476.374 206.087 476.574 206.74C476.774 207.393 476.874 208.107 476.874 208.88C476.874 209.147 476.86 209.407 476.834 209.66C476.807 209.9 476.774 210.087 476.734 210.22H469.834C469.954 211.14 470.287 211.84 470.834 212.32C471.394 212.787 472.094 213.02 472.934 213.02C473.4 213.02 473.834 212.953 474.234 212.82C474.647 212.687 475.054 212.493 475.454 212.24L476.454 214.04C475.894 214.427 475.28 214.733 474.614 214.96C473.947 215.173 473.254 215.28 472.534 215.28ZM474.354 208.28C474.354 207.52 474.18 206.92 473.834 206.48C473.487 206.027 472.954 205.8 472.234 205.8C471.647 205.8 471.12 206.013 470.654 206.44C470.187 206.853 469.9 207.467 469.794 208.28H474.354ZM482.846 202.66V200.2H494.166V202.66H489.966V215H487.006V202.66H482.846ZM499.526 215.28C498.753 215.28 498.026 215.147 497.346 214.88C496.666 214.613 496.073 214.233 495.566 213.74C495.073 213.233 494.679 212.62 494.386 211.9C494.106 211.167 493.966 210.34 493.966 209.42C493.966 208.513 494.113 207.7 494.406 206.98C494.699 206.247 495.086 205.627 495.566 205.12C496.059 204.6 496.619 204.207 497.246 203.94C497.873 203.66 498.519 203.52 499.186 203.52C499.959 203.52 500.633 203.653 501.206 203.92C501.793 204.187 502.279 204.56 502.666 205.04C503.066 205.52 503.366 206.087 503.566 206.74C503.766 207.393 503.866 208.107 503.866 208.88C503.866 209.147 503.853 209.407 503.826 209.66C503.799 209.9 503.766 210.087 503.726 210.22H496.826C496.946 211.14 497.279 211.84 497.826 212.32C498.386 212.787 499.086 213.02 499.926 213.02C500.393 213.02 500.826 212.953 501.226 212.82C501.639 212.687 502.046 212.493 502.446 212.24L503.446 214.04C502.886 214.427 502.273 214.733 501.606 214.96C500.939 215.173 500.246 215.28 499.526 215.28ZM501.346 208.28C501.346 207.52 501.173 206.92 500.826 206.48C500.479 206.027 499.946 205.8 499.226 205.8C498.639 205.8 498.113 206.013 497.646 206.44C497.179 206.853 496.893 207.467 496.786 208.28H501.346ZM504.935 203.8H508.095L509.215 205.8C509.388 206.12 509.555 206.44 509.715 206.76C509.875 207.067 510.041 207.373 510.215 207.68H510.295C510.428 207.373 510.561 207.06 510.695 206.74C510.841 206.42 510.981 206.107 511.115 205.8L512.055 203.8H515.095L511.815 209.5L515.315 215H512.155L510.915 212.96C510.728 212.627 510.548 212.293 510.375 211.96C510.201 211.627 510.021 211.3 509.835 210.98H509.735C509.575 211.3 509.415 211.627 509.255 211.96C509.108 212.28 508.955 212.613 508.795 212.96L507.755 215H504.715L508.215 209.16L504.935 203.8ZM520.68 215.28C520.013 215.28 519.447 215.18 518.98 214.98C518.513 214.78 518.133 214.5 517.84 214.14C517.547 213.767 517.333 213.32 517.2 212.8C517.067 212.28 517 211.707 517 211.08V206.12H515.42V203.94L517.14 203.8L517.48 200.8H519.94V203.8H522.7V206.12H519.94V211.08C519.94 212.333 520.447 212.96 521.46 212.96C521.647 212.96 521.84 212.94 522.04 212.9C522.24 212.847 522.413 212.787 522.56 212.72L523.04 214.86C522.733 214.967 522.387 215.06 522 215.14C521.613 215.233 521.173 215.28 520.68 215.28ZM536.01 206.48V208.58H528.91V206.48H536.01ZM546.284 200.2V206.02H551.884V200.2H554.824V215H551.884V208.6H546.284V215H543.324V200.2H546.284ZM564.801 212.78H567.381V215H559.141V212.78H562.061V204.64L562.141 203.34L559.701 205.56L558.121 203.76L562.441 200.04H564.801V212.78Z" fill="#2D2D2D"/>
<path d="M394.302 233.68V238.918H399.342V233.68H401.988V247H399.342V241.24H394.302V247H391.638V233.68H394.302ZM409.419 247.252C408.723 247.252 408.069 247.132 407.457 246.892C406.845 246.652 406.311 246.31 405.855 245.866C405.411 245.41 405.057 244.858 404.793 244.21C404.541 243.55 404.415 242.806 404.415 241.978C404.415 241.162 404.547 240.43 404.811 239.782C405.075 239.122 405.423 238.564 405.855 238.108C406.299 237.64 406.803 237.286 407.367 237.046C407.931 236.794 408.513 236.668 409.113 236.668C409.809 236.668 410.415 236.788 410.931 237.028C411.459 237.268 411.897 237.604 412.245 238.036C412.605 238.468 412.875 238.978 413.055 239.566C413.235 240.154 413.325 240.796 413.325 241.492C413.325 241.732 413.313 241.966 413.289 242.194C413.265 242.41 413.235 242.578 413.199 242.698H406.989C407.097 243.526 407.397 244.156 407.889 244.588C408.393 245.008 409.023 245.218 409.779 245.218C410.199 245.218 410.589 245.158 410.949 245.038C411.321 244.918 411.687 244.744 412.047 244.516L412.947 246.136C412.443 246.484 411.891 246.76 411.291 246.964C410.691 247.156 410.067 247.252 409.419 247.252ZM411.057 240.952C411.057 240.268 410.901 239.728 410.589 239.332C410.277 238.924 409.797 238.72 409.149 238.72C408.621 238.72 408.147 238.912 407.727 239.296C407.307 239.668 407.049 240.22 406.953 240.952H411.057ZM417.988 247.18C417.544 247.18 417.136 247.114 416.764 246.982C416.392 246.838 416.074 246.64 415.81 246.388C415.558 246.124 415.36 245.812 415.216 245.452C415.072 245.092 415 244.696 415 244.264C414.94 243.028 415.366 242.116 416.278 241.528C417.202 240.928 418.708 240.598 420.796 240.538C420.844 240.118 420.766 239.692 420.562 239.26C420.346 238.948 419.854 238.792 419.086 238.792C418.618 238.792 418.126 238.876 417.61 239.044C417.106 239.212 416.626 239.446 416.17 239.746L415.378 237.856C415.93 237.52 416.566 237.238 417.286 237.01C418.018 236.782 418.78 236.668 419.572 236.668C422.152 236.668 423.442 238.15 423.442 241.114V247H421.282L421.084 245.974H421.03C420.598 246.346 420.124 246.64 419.608 246.856C419.104 247.072 418.564 247.18 417.988 247.18ZM418.798 245.164C419.182 245.152 419.53 245.068 419.842 244.912C420.166 244.744 420.484 244.504 420.796 244.192V242.158C420.484 242.182 420.172 242.212 419.86 242.248C419.56 242.272 419.266 242.308 418.978 242.356C418.402 242.44 417.994 242.614 417.754 242.878C417.526 243.142 417.418 243.454 417.43 243.814C417.442 244.234 417.574 244.564 417.826 244.804C418.09 245.044 418.414 245.164 418.798 245.164ZM429.685 247.252C429.061 247.252 428.491 247.132 427.975 246.892C427.471 246.652 427.039 246.304 426.679 245.848C426.319 245.392 426.043 244.84 425.851 244.192C425.659 243.544 425.563 242.806 425.563 241.978C425.563 241.15 425.677 240.412 425.905 239.764C426.145 239.104 426.463 238.546 426.859 238.09C427.255 237.634 427.705 237.286 428.209 237.046C428.725 236.794 429.253 236.668 429.793 236.668C430.369 236.668 430.849 236.77 431.233 236.974C431.617 237.166 431.989 237.43 432.349 237.766L432.241 236.182V232.636H434.887V247H432.745L432.529 245.956H432.475C432.103 246.316 431.677 246.622 431.197 246.874C430.729 247.126 430.225 247.252 429.685 247.252ZM430.369 245.074C430.717 245.074 431.041 244.996 431.341 244.84C431.653 244.684 431.953 244.414 432.241 244.03V239.602C431.929 239.326 431.617 239.134 431.305 239.026C430.993 238.906 430.681 238.846 430.369 238.846C430.081 238.846 429.811 238.912 429.559 239.044C429.307 239.176 429.085 239.374 428.893 239.638C428.713 239.902 428.563 240.226 428.443 240.61C428.335 240.994 428.281 241.438 428.281 241.942C428.281 244.03 428.977 245.074 430.369 245.074ZM437.723 232.636H440.351V247H437.723V232.636ZM443.167 235.3V232.744H445.795V235.3H443.167ZM443.149 236.92H445.777V247H443.149V236.92ZM450.535 236.92L450.715 238.252H450.787C451.231 237.82 451.717 237.448 452.245 237.136C452.773 236.824 453.379 236.668 454.063 236.668C455.155 236.668 455.947 237.028 456.439 237.748C456.931 238.456 457.177 239.446 457.177 240.718V247H454.531V241.042C454.531 240.262 454.417 239.716 454.189 239.404C453.973 239.092 453.613 238.936 453.109 238.936C452.689 238.936 452.329 239.032 452.029 239.224C451.729 239.416 451.387 239.698 451.003 240.07V247H448.375V236.92H450.535ZM464.28 247.252C463.584 247.252 462.93 247.132 462.318 246.892C461.706 246.652 461.172 246.31 460.716 245.866C460.272 245.41 459.918 244.858 459.654 244.21C459.402 243.55 459.276 242.806 459.276 241.978C459.276 241.162 459.408 240.43 459.672 239.782C459.936 239.122 460.284 238.564 460.716 238.108C461.16 237.64 461.664 237.286 462.228 237.046C462.792 236.794 463.374 236.668 463.974 236.668C464.67 236.668 465.276 236.788 465.792 237.028C466.32 237.268 466.758 237.604 467.106 238.036C467.466 238.468 467.736 238.978 467.916 239.566C468.096 240.154 468.186 240.796 468.186 241.492C468.186 241.732 468.174 241.966 468.15 242.194C468.126 242.41 468.096 242.578 468.06 242.698H461.85C461.958 243.526 462.258 244.156 462.75 244.588C463.254 245.008 463.884 245.218 464.64 245.218C465.06 245.218 465.45 245.158 465.81 245.038C466.182 244.918 466.548 244.744 466.908 244.516L467.808 246.136C467.304 246.484 466.752 246.76 466.152 246.964C465.552 247.156 464.928 247.252 464.28 247.252ZM465.918 240.952C465.918 240.268 465.762 239.728 465.45 239.332C465.138 238.924 464.658 238.72 464.01 238.72C463.482 238.72 463.008 238.912 462.588 239.296C462.168 239.668 461.91 240.22 461.814 240.952H465.918ZM473.561 235.894V233.68H483.749V235.894H479.969V247H477.305V235.894H473.561ZM488.573 247.252C487.877 247.252 487.223 247.132 486.611 246.892C485.999 246.652 485.465 246.31 485.009 245.866C484.565 245.41 484.211 244.858 483.947 244.21C483.695 243.55 483.569 242.806 483.569 241.978C483.569 241.162 483.701 240.43 483.965 239.782C484.229 239.122 484.577 238.564 485.009 238.108C485.453 237.64 485.957 237.286 486.521 237.046C487.085 236.794 487.667 236.668 488.267 236.668C488.963 236.668 489.569 236.788 490.085 237.028C490.613 237.268 491.051 237.604 491.399 238.036C491.759 238.468 492.029 238.978 492.209 239.566C492.389 240.154 492.479 240.796 492.479 241.492C492.479 241.732 492.467 241.966 492.443 242.194C492.419 242.41 492.389 242.578 492.353 242.698H486.143C486.251 243.526 486.551 244.156 487.043 244.588C487.547 245.008 488.177 245.218 488.933 245.218C489.353 245.218 489.743 245.158 490.103 245.038C490.475 244.918 490.841 244.744 491.201 244.516L492.101 246.136C491.597 246.484 491.045 246.76 490.445 246.964C489.845 247.156 489.221 247.252 488.573 247.252ZM490.211 240.952C490.211 240.268 490.055 239.728 489.743 239.332C489.431 238.924 488.951 238.72 488.303 238.72C487.775 238.72 487.301 238.912 486.881 239.296C486.461 239.668 486.203 240.22 486.107 240.952H490.211ZM493.441 236.92H496.285L497.293 238.72C497.449 239.008 497.599 239.296 497.743 239.584C497.887 239.86 498.037 240.136 498.193 240.412H498.265C498.385 240.136 498.505 239.854 498.625 239.566C498.757 239.278 498.883 238.996 499.003 238.72L499.849 236.92H502.585L499.633 242.05L502.783 247H499.939L498.823 245.164C498.655 244.864 498.493 244.564 498.337 244.264C498.181 243.964 498.019 243.67 497.851 243.382H497.761C497.617 243.67 497.473 243.964 497.329 244.264C497.197 244.552 497.059 244.852 496.915 245.164L495.979 247H493.243L496.393 241.744L493.441 236.92ZM507.612 247.252C507.012 247.252 506.502 247.162 506.082 246.982C505.662 246.802 505.32 246.55 505.056 246.226C504.792 245.89 504.6 245.488 504.48 245.02C504.36 244.552 504.3 244.036 504.3 243.472V239.008H502.878V237.046L504.426 236.92L504.732 234.22H506.946V236.92H509.43V239.008H506.946V243.472C506.946 244.6 507.402 245.164 508.314 245.164C508.482 245.164 508.656 245.146 508.836 245.11C509.016 245.062 509.172 245.008 509.304 244.948L509.736 246.874C509.46 246.97 509.148 247.054 508.8 247.126C508.452 247.21 508.056 247.252 507.612 247.252ZM521.409 239.332V241.222H515.019V239.332H521.409ZM530.656 233.68V238.918H535.696V233.68H538.342V247H535.696V241.24H530.656V247H527.992V233.68H530.656ZM545.629 233.32C546.253 233.32 546.823 233.416 547.339 233.608C547.867 233.8 548.317 234.07 548.689 234.418C549.061 234.754 549.349 235.162 549.553 235.642C549.769 236.122 549.877 236.65 549.877 237.226C549.865 237.694 549.775 238.15 549.607 238.594C549.451 239.026 549.247 239.44 548.995 239.836C548.743 240.232 548.455 240.616 548.131 240.988C547.819 241.36 547.495 241.72 547.159 242.068L544.369 244.876C544.609 244.816 544.837 244.78 545.053 244.768C545.281 244.744 545.497 244.732 545.701 244.732H550.021V247H540.643V245.56L545.161 241.114C545.845 240.43 546.385 239.794 546.781 239.206C547.177 238.618 547.375 237.976 547.375 237.28C547.375 236.656 547.201 236.188 546.853 235.876C546.517 235.552 546.055 235.39 545.467 235.39C544.963 235.39 544.537 235.54 544.189 235.84C543.841 236.128 543.595 236.47 543.451 236.866C543.403 236.998 543.367 237.136 543.343 237.28C543.331 237.424 543.319 237.586 543.307 237.766L540.949 237.37C541.165 235.99 541.687 234.97 542.515 234.31C543.355 233.65 544.393 233.32 545.629 233.32Z" fill="#2D2D2D"/>
<path d="M393.824 264.16V268.816H398.304V264.16H400.656V276H398.304V270.88H393.824V276H391.456V264.16H393.824ZM407.261 276.224C406.643 276.224 406.061 276.117 405.517 275.904C404.973 275.691 404.499 275.387 404.093 274.992C403.699 274.587 403.384 274.096 403.149 273.52C402.925 272.933 402.813 272.272 402.813 271.536C402.813 270.811 402.931 270.16 403.165 269.584C403.4 268.997 403.709 268.501 404.093 268.096C404.488 267.68 404.936 267.365 405.437 267.152C405.939 266.928 406.456 266.816 406.989 266.816C407.608 266.816 408.147 266.923 408.605 267.136C409.075 267.349 409.464 267.648 409.773 268.032C410.093 268.416 410.333 268.869 410.493 269.392C410.653 269.915 410.733 270.485 410.733 271.104C410.733 271.317 410.723 271.525 410.701 271.728C410.68 271.92 410.653 272.069 410.621 272.176H405.101C405.197 272.912 405.464 273.472 405.901 273.856C406.349 274.229 406.909 274.416 407.581 274.416C407.955 274.416 408.301 274.363 408.621 274.256C408.952 274.149 409.277 273.995 409.597 273.792L410.397 275.232C409.949 275.541 409.459 275.787 408.925 275.968C408.392 276.139 407.837 276.224 407.261 276.224ZM408.717 270.624C408.717 270.016 408.579 269.536 408.301 269.184C408.024 268.821 407.597 268.64 407.021 268.64C406.552 268.64 406.131 268.811 405.757 269.152C405.384 269.483 405.155 269.973 405.069 270.624H408.717ZM414.878 276.16C414.484 276.16 414.121 276.101 413.79 275.984C413.46 275.856 413.177 275.68 412.942 275.456C412.718 275.221 412.542 274.944 412.414 274.624C412.286 274.304 412.222 273.952 412.222 273.568C412.169 272.469 412.548 271.659 413.358 271.136C414.18 270.603 415.518 270.309 417.374 270.256C417.417 269.883 417.348 269.504 417.166 269.12C416.974 268.843 416.537 268.704 415.854 268.704C415.438 268.704 415.001 268.779 414.542 268.928C414.094 269.077 413.668 269.285 413.262 269.552L412.558 267.872C413.049 267.573 413.614 267.323 414.254 267.12C414.905 266.917 415.582 266.816 416.286 266.816C418.58 266.816 419.726 268.133 419.726 270.768V276H417.806L417.63 275.088H417.582C417.198 275.419 416.777 275.68 416.318 275.872C415.87 276.064 415.39 276.16 414.878 276.16ZM415.598 274.368C415.94 274.357 416.249 274.283 416.526 274.144C416.814 273.995 417.097 273.781 417.374 273.504V271.696C417.097 271.717 416.82 271.744 416.542 271.776C416.276 271.797 416.014 271.829 415.758 271.872C415.246 271.947 414.884 272.101 414.67 272.336C414.468 272.571 414.372 272.848 414.382 273.168C414.393 273.541 414.51 273.835 414.734 274.048C414.969 274.261 415.257 274.368 415.598 274.368ZM425.275 276.224C424.721 276.224 424.214 276.117 423.755 275.904C423.307 275.691 422.923 275.381 422.603 274.976C422.283 274.571 422.038 274.08 421.867 273.504C421.697 272.928 421.611 272.272 421.611 271.536C421.611 270.8 421.713 270.144 421.915 269.568C422.129 268.981 422.411 268.485 422.763 268.08C423.115 267.675 423.515 267.365 423.963 267.152C424.422 266.928 424.891 266.816 425.371 266.816C425.883 266.816 426.31 266.907 426.651 267.088C426.993 267.259 427.323 267.493 427.643 267.792L427.547 266.384V263.232H429.899V276H427.995L427.803 275.072H427.755C427.425 275.392 427.046 275.664 426.619 275.888C426.203 276.112 425.755 276.224 425.275 276.224ZM425.883 274.288C426.193 274.288 426.481 274.219 426.747 274.08C427.025 273.941 427.291 273.701 427.547 273.36V269.424C427.27 269.179 426.993 269.008 426.715 268.912C426.438 268.805 426.161 268.752 425.883 268.752C425.627 268.752 425.387 268.811 425.163 268.928C424.939 269.045 424.742 269.221 424.571 269.456C424.411 269.691 424.278 269.979 424.171 270.32C424.075 270.661 424.027 271.056 424.027 271.504C424.027 273.36 424.646 274.288 425.883 274.288ZM432.42 263.232H434.756V276H432.42V263.232ZM437.259 265.6V263.328H439.595V265.6H437.259ZM437.243 267.04H439.579V276H437.243V267.04ZM443.809 267.04L443.969 268.224H444.033C444.428 267.84 444.86 267.509 445.329 267.232C445.798 266.955 446.337 266.816 446.945 266.816C447.916 266.816 448.62 267.136 449.057 267.776C449.494 268.405 449.713 269.285 449.713 270.416V276H447.361V270.704C447.361 270.011 447.26 269.525 447.057 269.248C446.865 268.971 446.545 268.832 446.097 268.832C445.724 268.832 445.404 268.917 445.137 269.088C444.87 269.259 444.566 269.509 444.225 269.84V276H441.889V267.04H443.809ZM456.027 276.224C455.408 276.224 454.827 276.117 454.283 275.904C453.739 275.691 453.264 275.387 452.859 274.992C452.464 274.587 452.15 274.096 451.915 273.52C451.691 272.933 451.579 272.272 451.579 271.536C451.579 270.811 451.696 270.16 451.931 269.584C452.166 268.997 452.475 268.501 452.859 268.096C453.254 267.68 453.702 267.365 454.203 267.152C454.704 266.928 455.222 266.816 455.755 266.816C456.374 266.816 456.912 266.923 457.371 267.136C457.84 267.349 458.23 267.648 458.539 268.032C458.859 268.416 459.099 268.869 459.259 269.392C459.419 269.915 459.499 270.485 459.499 271.104C459.499 271.317 459.488 271.525 459.467 271.728C459.446 271.92 459.419 272.069 459.387 272.176H453.867C453.963 272.912 454.23 273.472 454.667 273.856C455.115 274.229 455.675 274.416 456.347 274.416C456.72 274.416 457.067 274.363 457.387 274.256C457.718 274.149 458.043 273.995 458.363 273.792L459.163 275.232C458.715 275.541 458.224 275.787 457.691 275.968C457.158 276.139 456.603 276.224 456.027 276.224ZM457.483 270.624C457.483 270.016 457.344 269.536 457.067 269.184C456.79 268.821 456.363 268.64 455.787 268.64C455.318 268.64 454.896 268.811 454.523 269.152C454.15 269.483 453.92 269.973 453.835 270.624H457.483ZM464.277 266.128V264.16H473.333V266.128H469.973V276H467.605V266.128H464.277ZM477.621 276.224C477.002 276.224 476.421 276.117 475.877 275.904C475.333 275.691 474.858 275.387 474.453 274.992C474.058 274.587 473.743 274.096 473.509 273.52C473.285 272.933 473.173 272.272 473.173 271.536C473.173 270.811 473.29 270.16 473.525 269.584C473.759 268.997 474.069 268.501 474.453 268.096C474.847 267.68 475.295 267.365 475.797 267.152C476.298 266.928 476.815 266.816 477.349 266.816C477.967 266.816 478.506 266.923 478.965 267.136C479.434 267.349 479.823 267.648 480.133 268.032C480.453 268.416 480.693 268.869 480.853 269.392C481.013 269.915 481.093 270.485 481.093 271.104C481.093 271.317 481.082 271.525 481.061 271.728C481.039 271.92 481.013 272.069 480.981 272.176H475.461C475.557 272.912 475.823 273.472 476.261 273.856C476.709 274.229 477.269 274.416 477.941 274.416C478.314 274.416 478.661 274.363 478.981 274.256C479.311 274.149 479.637 273.995 479.957 273.792L480.757 275.232C480.309 275.541 479.818 275.787 479.285 275.968C478.751 276.139 478.197 276.224 477.621 276.224ZM479.077 270.624C479.077 270.016 478.938 269.536 478.661 269.184C478.383 268.821 477.957 268.64 477.381 268.64C476.911 268.64 476.49 268.811 476.117 269.152C475.743 269.483 475.514 269.973 475.429 270.624H479.077ZM481.948 267.04H484.476L485.372 268.64C485.51 268.896 485.644 269.152 485.772 269.408C485.9 269.653 486.033 269.899 486.172 270.144H486.236C486.342 269.899 486.449 269.648 486.556 269.392C486.673 269.136 486.785 268.885 486.892 268.64L487.644 267.04H490.076L487.452 271.6L490.252 276H487.724L486.732 274.368C486.582 274.101 486.438 273.835 486.3 273.568C486.161 273.301 486.017 273.04 485.868 272.784H485.788C485.66 273.04 485.532 273.301 485.404 273.568C485.286 273.824 485.164 274.091 485.036 274.368L484.204 276H481.772L484.572 271.328L481.948 267.04ZM494.544 276.224C494.011 276.224 493.557 276.144 493.184 275.984C492.811 275.824 492.507 275.6 492.272 275.312C492.037 275.013 491.867 274.656 491.76 274.24C491.653 273.824 491.6 273.365 491.6 272.864V268.896H490.336V267.152L491.712 267.04L491.984 264.64H493.952V267.04H496.16V268.896H493.952V272.864C493.952 273.867 494.357 274.368 495.168 274.368C495.317 274.368 495.472 274.352 495.632 274.32C495.792 274.277 495.931 274.229 496.048 274.176L496.432 275.888C496.187 275.973 495.909 276.048 495.6 276.112C495.291 276.187 494.939 276.224 494.544 276.224ZM506.808 269.184V270.864H501.128V269.184H506.808ZM515.027 264.16V268.816H519.507V264.16H521.859V276H519.507V270.88H515.027V276H512.659V264.16H515.027ZM528.417 263.84C528.982 263.851 529.489 263.941 529.937 264.112C530.395 264.283 530.785 264.512 531.105 264.8C531.435 265.088 531.686 265.424 531.857 265.808C532.027 266.192 532.107 266.608 532.097 267.056C532.097 267.739 531.921 268.293 531.569 268.72C531.227 269.136 530.806 269.467 530.305 269.712C531.009 269.979 531.515 270.347 531.825 270.816C532.145 271.275 532.305 271.856 532.305 272.56C532.294 273.168 532.171 273.707 531.937 274.176C531.702 274.645 531.393 275.04 531.009 275.36C530.625 275.669 530.177 275.904 529.665 276.064C529.163 276.224 528.63 276.304 528.065 276.304C527.457 276.304 526.923 276.229 526.465 276.08C526.006 275.931 525.601 275.717 525.249 275.44C524.907 275.152 524.619 274.805 524.385 274.4C524.15 273.984 523.953 273.515 523.793 272.992L525.745 272.224C525.809 272.48 525.91 272.736 526.049 272.992C526.187 273.248 526.358 273.483 526.561 273.696C526.763 273.899 526.987 274.064 527.233 274.192C527.478 274.32 527.745 274.384 528.033 274.384C528.385 274.384 528.689 274.336 528.945 274.24C529.211 274.133 529.43 274 529.601 273.84C529.782 273.669 529.915 273.477 530.001 273.264C530.086 273.051 530.129 272.832 530.129 272.608C530.129 272.331 530.097 272.075 530.033 271.84C529.979 271.605 529.857 271.408 529.665 271.248C529.473 271.077 529.19 270.949 528.817 270.864C528.454 270.768 527.958 270.72 527.329 270.72V269.12C527.862 269.109 528.294 269.061 528.625 268.976C528.966 268.891 529.233 268.773 529.425 268.624C529.617 268.464 529.75 268.283 529.825 268.08C529.899 267.867 529.937 267.632 529.937 267.376C529.947 266.821 529.803 266.411 529.505 266.144C529.217 265.867 528.811 265.728 528.289 265.728C527.947 265.728 527.659 265.781 527.424 265.888C527.19 265.995 526.993 266.139 526.833 266.32C526.683 266.501 526.561 266.72 526.465 266.976C526.379 267.221 526.31 267.488 526.257 267.776C525.915 267.723 525.569 267.664 525.217 267.6C524.875 267.525 524.529 267.461 524.177 267.408C524.411 266.181 524.891 265.28 525.617 264.704C526.353 264.128 527.286 263.84 528.417 263.84Z" fill="#2D2D2D"/>
<path d="M391.552 292.224H395.2C395.808 292.224 396.363 292.277 396.864 292.384C397.376 292.48 397.813 292.645 398.176 292.88C398.549 293.104 398.837 293.403 399.04 293.776C399.253 294.139 399.36 294.587 399.36 295.12C399.36 295.685 399.211 296.208 398.912 296.688C398.624 297.157 398.213 297.483 397.68 297.664V297.744C398.352 297.893 398.907 298.197 399.344 298.656C399.781 299.115 400 299.744 400 300.544C400 301.131 399.888 301.643 399.664 302.08C399.44 302.507 399.125 302.864 398.72 303.152C398.325 303.44 397.851 303.653 397.296 303.792C396.752 303.931 396.149 304 395.488 304H391.552V292.224ZM394.992 297.136C395.888 297.136 396.533 296.981 396.928 296.672C397.333 296.352 397.536 295.915 397.536 295.36C397.536 294.741 397.328 294.304 396.912 294.048C396.496 293.792 395.872 293.664 395.04 293.664H393.408V297.136H394.992ZM395.28 302.544C396.219 302.544 396.933 302.379 397.424 302.048C397.925 301.717 398.176 301.184 398.176 300.448C398.176 299.776 397.925 299.291 397.424 298.992C396.933 298.693 396.219 298.544 395.28 298.544H393.408V302.544H395.28ZM405.584 304.208C405.04 304.208 404.517 304.107 404.016 303.904C403.515 303.691 403.072 303.392 402.688 303.008C402.315 302.613 402.011 302.133 401.776 301.568C401.552 300.992 401.44 300.341 401.44 299.616C401.44 298.88 401.552 298.224 401.776 297.648C402.011 297.072 402.315 296.587 402.688 296.192C403.072 295.797 403.515 295.499 404.016 295.296C404.517 295.083 405.04 294.976 405.584 294.976C406.128 294.976 406.651 295.083 407.152 295.296C407.653 295.499 408.091 295.797 408.464 296.192C408.848 296.587 409.152 297.072 409.376 297.648C409.611 298.224 409.728 298.88 409.728 299.616C409.728 300.341 409.611 300.992 409.376 301.568C409.152 302.133 408.848 302.613 408.464 303.008C408.091 303.392 407.653 303.691 407.152 303.904C406.651 304.107 406.128 304.208 405.584 304.208ZM405.584 302.704C405.936 302.704 406.251 302.629 406.528 302.48C406.805 302.331 407.04 302.123 407.232 301.856C407.424 301.589 407.573 301.264 407.68 300.88C407.787 300.496 407.84 300.075 407.84 299.616C407.84 298.677 407.637 297.925 407.232 297.36C406.837 296.784 406.288 296.496 405.584 296.496C404.88 296.496 404.331 296.784 403.936 297.36C403.541 297.925 403.344 298.677 403.344 299.616C403.344 300.075 403.397 300.496 403.504 300.88C403.611 301.264 403.76 301.589 403.952 301.856C404.144 302.123 404.379 302.331 404.656 302.48C404.933 302.629 405.243 302.704 405.584 302.704ZM414.932 304.208C413.801 304.208 412.911 303.819 412.26 303.04C411.62 302.251 411.3 301.109 411.3 299.616C411.3 298.891 411.401 298.245 411.604 297.68C411.817 297.104 412.1 296.619 412.452 296.224C412.804 295.819 413.204 295.509 413.652 295.296C414.111 295.083 414.585 294.976 415.076 294.976C415.588 294.976 416.02 295.067 416.372 295.248C416.724 295.419 417.081 295.659 417.444 295.968L417.364 294.512V291.248H419.204V304H417.7L417.54 303.008H417.492C417.161 303.349 416.777 303.637 416.34 303.872C415.913 304.096 415.444 304.208 414.932 304.208ZM415.364 302.688C416.079 302.688 416.745 302.331 417.364 301.616V297.312C417.033 297.013 416.708 296.805 416.388 296.688C416.079 296.571 415.759 296.512 415.428 296.512C415.119 296.512 414.825 296.587 414.548 296.736C414.281 296.875 414.047 297.077 413.844 297.344C413.652 297.6 413.497 297.92 413.38 298.304C413.263 298.677 413.204 299.104 413.204 299.584C413.204 300.587 413.385 301.355 413.748 301.888C414.121 302.421 414.66 302.688 415.364 302.688ZM424.754 307.68H423.01L424.274 303.936L420.786 295.2H422.674L424.306 299.728C424.434 300.123 424.562 300.533 424.69 300.96C424.829 301.387 424.967 301.803 425.106 302.208H425.186L425.874 299.728L427.282 295.2H429.074L424.754 307.68ZM434.395 292.224H436.251V302.432H441.227V304H434.395V292.224ZM445.222 304.208C444.838 304.208 444.486 304.149 444.166 304.032C443.856 303.915 443.584 303.744 443.35 303.52C443.126 303.296 442.95 303.029 442.822 302.72C442.694 302.4 442.63 302.048 442.63 301.664C442.63 301.173 442.72 300.704 442.902 300.256C443.083 299.808 443.403 299.445 443.862 299.168C444.31 298.923 444.864 298.752 445.526 298.656C446.198 298.549 446.987 298.464 447.894 298.4C447.894 298.144 447.867 297.899 447.814 297.664C447.76 297.429 447.67 297.227 447.542 297.056C447.414 296.875 447.238 296.736 447.014 296.64C446.8 296.533 446.534 296.48 446.214 296.48C445.734 296.48 445.264 296.576 444.806 296.768C444.347 296.949 443.931 297.163 443.558 297.408L443.014 296.064C443.472 295.776 443.995 295.525 444.582 295.312C445.179 295.088 445.83 294.976 446.534 294.976C447.632 294.976 448.438 295.301 448.95 295.952C449.472 296.592 449.734 297.509 449.734 298.704V304H448.23L448.07 303.04H448.022C447.616 303.381 447.184 303.664 446.726 303.888C446.267 304.101 445.766 304.208 445.222 304.208ZM445.782 302.752C446.166 302.752 446.523 302.672 446.854 302.512C447.184 302.352 447.531 302.107 447.894 301.776V299.6C447.467 299.653 447.094 299.696 446.774 299.728C446.454 299.76 446.171 299.803 445.926 299.856C445.68 299.899 445.467 299.957 445.286 300.032C445.104 300.096 444.944 300.192 444.806 300.32C444.571 300.533 444.443 300.747 444.422 300.96C444.411 301.163 444.406 301.355 444.406 301.536C444.406 301.984 444.534 302.299 444.79 302.48C445.056 302.661 445.387 302.752 445.782 302.752ZM452.345 295.2H453.849L453.993 296.784H454.041C454.35 296.208 454.723 295.765 455.161 295.456C455.598 295.136 456.057 294.976 456.537 294.976C456.75 294.976 456.931 294.992 457.081 295.024C457.241 295.056 457.39 295.104 457.529 295.168L457.193 296.768C457.043 296.715 456.905 296.677 456.777 296.656C456.649 296.635 456.494 296.624 456.313 296.624C455.95 296.624 455.571 296.768 455.177 297.056C454.782 297.333 454.446 297.819 454.169 298.512V304H452.345V295.2ZM461.728 307.952C461.205 307.952 460.72 307.904 460.272 307.808C459.824 307.712 459.434 307.563 459.104 307.36C458.784 307.168 458.533 306.928 458.352 306.64C458.17 306.352 458.08 306.016 458.08 305.632C458.08 305.259 458.192 304.907 458.416 304.576C458.64 304.245 458.954 303.957 459.36 303.712V303.632C459.136 303.493 458.944 303.307 458.784 303.072C458.634 302.837 458.56 302.539 458.56 302.176C458.56 301.835 458.661 301.525 458.864 301.248C459.066 300.96 459.29 300.725 459.536 300.544V300.48C459.237 300.245 458.97 299.931 458.736 299.536C458.501 299.131 458.384 298.667 458.384 298.144C458.384 297.643 458.474 297.2 458.656 296.816C458.848 296.421 459.098 296.091 459.408 295.824C459.717 295.547 460.074 295.339 460.48 295.2C460.896 295.051 461.333 294.976 461.792 294.976C462.037 294.976 462.266 294.997 462.48 295.04C462.704 295.083 462.901 295.136 463.072 295.2H466.192V296.576H464.512C464.682 296.757 464.821 296.987 464.928 297.264C465.034 297.541 465.088 297.851 465.088 298.192C465.088 298.672 465.002 299.099 464.832 299.472C464.661 299.845 464.426 300.165 464.128 300.432C463.829 300.688 463.477 300.885 463.072 301.024C462.677 301.152 462.25 301.216 461.792 301.216C461.429 301.216 461.018 301.125 460.56 300.944C460.41 301.072 460.293 301.205 460.208 301.344C460.122 301.483 460.08 301.659 460.08 301.872C460.08 302.139 460.181 302.352 460.384 302.512C460.597 302.661 460.986 302.736 461.552 302.736H463.168C464.234 302.736 465.029 302.901 465.552 303.232C466.074 303.563 466.336 304.112 466.336 304.88C466.336 305.307 466.229 305.707 466.016 306.08C465.802 306.453 465.493 306.779 465.088 307.056C464.693 307.333 464.208 307.552 463.632 307.712C463.066 307.872 462.432 307.952 461.728 307.952ZM461.792 300.032C462.25 300.032 462.64 299.867 462.96 299.536C463.29 299.195 463.456 298.731 463.456 298.144C463.456 297.536 463.296 297.072 462.976 296.752C462.666 296.432 462.272 296.272 461.792 296.272C461.312 296.272 460.912 296.432 460.592 296.752C460.282 297.072 460.128 297.536 460.128 298.144C460.128 298.731 460.288 299.195 460.608 299.536C460.938 299.867 461.333 300.032 461.792 300.032ZM462 306.736C462.384 306.736 462.73 306.693 463.04 306.608C463.36 306.523 463.632 306.405 463.856 306.256C464.08 306.117 464.25 305.952 464.368 305.76C464.496 305.579 464.56 305.381 464.56 305.168C464.56 304.795 464.421 304.539 464.144 304.4C463.866 304.272 463.456 304.208 462.912 304.208H461.584C461.381 304.208 461.184 304.197 460.992 304.176C460.8 304.155 460.602 304.123 460.4 304.08C460.133 304.272 459.941 304.475 459.824 304.688C459.706 304.912 459.648 305.136 459.648 305.36C459.648 305.808 459.856 306.149 460.272 306.384C460.688 306.619 461.264 306.736 462 306.736ZM471.368 304.208C470.771 304.208 470.211 304.107 469.688 303.904C469.165 303.691 468.712 303.392 468.328 303.008C467.944 302.613 467.64 302.133 467.416 301.568C467.192 300.992 467.08 300.341 467.08 299.616C467.08 298.891 467.192 298.245 467.416 297.68C467.64 297.104 467.939 296.619 468.312 296.224C468.685 295.819 469.112 295.509 469.592 295.296C470.083 295.083 470.584 294.976 471.096 294.976C471.683 294.976 472.195 295.077 472.632 295.28C473.08 295.483 473.453 295.765 473.752 296.128C474.061 296.491 474.291 296.928 474.44 297.44C474.6 297.952 474.68 298.523 474.68 299.152C474.68 299.344 474.669 299.52 474.648 299.68C474.637 299.829 474.621 299.963 474.6 300.08H468.888C468.963 300.923 469.24 301.584 469.72 302.064C470.211 302.533 470.84 302.768 471.608 302.768C472.003 302.768 472.371 302.715 472.712 302.608C473.053 302.491 473.384 302.325 473.704 302.112L474.344 303.28C473.939 303.557 473.485 303.781 472.984 303.952C472.483 304.123 471.944 304.208 471.368 304.208ZM473.096 298.816C473.096 298.048 472.925 297.456 472.584 297.04C472.253 296.624 471.768 296.416 471.128 296.416C470.861 296.416 470.6 296.469 470.344 296.576C470.088 296.683 469.859 296.837 469.656 297.04C469.453 297.243 469.283 297.493 469.144 297.792C469.005 298.091 468.915 298.432 468.872 298.816H473.096Z" fill="#2D2D2D"/>
<path d="M391.358 322.696H394.55C395.082 322.696 395.567 322.743 396.006 322.836C396.454 322.92 396.837 323.065 397.154 323.27C397.481 323.466 397.733 323.727 397.91 324.054C398.097 324.371 398.19 324.763 398.19 325.23C398.19 325.725 398.059 326.182 397.798 326.602C397.546 327.013 397.187 327.297 396.72 327.456V327.526C397.308 327.657 397.793 327.923 398.176 328.324C398.559 328.725 398.75 329.276 398.75 329.976C398.75 330.489 398.652 330.937 398.456 331.32C398.26 331.693 397.985 332.006 397.63 332.258C397.285 332.51 396.869 332.697 396.384 332.818C395.908 332.939 395.381 333 394.802 333H391.358V322.696ZM394.368 326.994C395.152 326.994 395.717 326.859 396.062 326.588C396.417 326.308 396.594 325.925 396.594 325.44C396.594 324.899 396.412 324.516 396.048 324.292C395.684 324.068 395.138 323.956 394.41 323.956H392.982V326.994H394.368ZM394.62 331.726C395.441 331.726 396.067 331.581 396.496 331.292C396.935 331.003 397.154 330.536 397.154 329.892C397.154 329.304 396.935 328.879 396.496 328.618C396.067 328.357 395.441 328.226 394.62 328.226H392.982V331.726H394.62ZM403.636 333.182C403.16 333.182 402.703 333.093 402.264 332.916C401.825 332.729 401.438 332.468 401.102 332.132C400.775 331.787 400.509 331.367 400.304 330.872C400.108 330.368 400.01 329.799 400.01 329.164C400.01 328.52 400.108 327.946 400.304 327.442C400.509 326.938 400.775 326.513 401.102 326.168C401.438 325.823 401.825 325.561 402.264 325.384C402.703 325.197 403.16 325.104 403.636 325.104C404.112 325.104 404.569 325.197 405.008 325.384C405.447 325.561 405.829 325.823 406.156 326.168C406.492 326.513 406.758 326.938 406.954 327.442C407.159 327.946 407.262 328.52 407.262 329.164C407.262 329.799 407.159 330.368 406.954 330.872C406.758 331.367 406.492 331.787 406.156 332.132C405.829 332.468 405.447 332.729 405.008 332.916C404.569 333.093 404.112 333.182 403.636 333.182ZM403.636 331.866C403.944 331.866 404.219 331.801 404.462 331.67C404.705 331.539 404.91 331.357 405.078 331.124C405.246 330.891 405.377 330.606 405.47 330.27C405.563 329.934 405.61 329.565 405.61 329.164C405.61 328.343 405.433 327.685 405.078 327.19C404.733 326.686 404.252 326.434 403.636 326.434C403.02 326.434 402.539 326.686 402.194 327.19C401.849 327.685 401.676 328.343 401.676 329.164C401.676 329.565 401.723 329.934 401.816 330.27C401.909 330.606 402.04 330.891 402.208 331.124C402.376 331.357 402.581 331.539 402.824 331.67C403.067 331.801 403.337 331.866 403.636 331.866ZM411.816 333.182C410.826 333.182 410.047 332.841 409.478 332.16C408.918 331.469 408.638 330.471 408.638 329.164C408.638 328.529 408.726 327.965 408.904 327.47C409.09 326.966 409.338 326.541 409.646 326.196C409.954 325.841 410.304 325.571 410.696 325.384C411.097 325.197 411.512 325.104 411.942 325.104C412.39 325.104 412.768 325.183 413.076 325.342C413.384 325.491 413.696 325.701 414.014 325.972L413.944 324.698V321.842H415.554V333H414.238L414.098 332.132H414.056C413.766 332.431 413.43 332.683 413.048 332.888C412.674 333.084 412.264 333.182 411.816 333.182ZM412.194 331.852C412.819 331.852 413.402 331.539 413.944 330.914V327.148C413.654 326.887 413.37 326.705 413.09 326.602C412.819 326.499 412.539 326.448 412.25 326.448C411.979 326.448 411.722 326.513 411.48 326.644C411.246 326.765 411.041 326.943 410.864 327.176C410.696 327.4 410.56 327.68 410.458 328.016C410.355 328.343 410.304 328.716 410.304 329.136C410.304 330.013 410.462 330.685 410.78 331.152C411.106 331.619 411.578 331.852 412.194 331.852ZM420.41 336.22H418.884L419.99 332.944L416.938 325.3H418.59L420.018 329.262C420.13 329.607 420.242 329.967 420.354 330.34C420.475 330.713 420.597 331.077 420.718 331.432H420.788L421.39 329.262L422.622 325.3H424.19L420.41 336.22ZM428.86 322.696H430.722L432.612 327.904C432.733 328.249 432.845 328.595 432.948 328.94C433.06 329.285 433.177 329.635 433.298 329.99H433.368C433.489 329.635 433.601 329.285 433.704 328.94C433.807 328.595 433.919 328.249 434.04 327.904L435.902 322.696H437.778V333H436.266V327.904C436.266 327.671 436.271 327.419 436.28 327.148C436.299 326.877 436.317 326.602 436.336 326.322C436.364 326.033 436.387 325.753 436.406 325.482C436.434 325.202 436.457 324.945 436.476 324.712H436.42L435.594 327.092L433.802 332.006H432.794L430.988 327.092L430.176 324.712H430.12C430.139 324.945 430.157 325.202 430.176 325.482C430.204 325.753 430.227 326.033 430.246 326.322C430.265 326.602 430.279 326.877 430.288 327.148C430.307 327.419 430.316 327.671 430.316 327.904V333H428.86V322.696ZM443.533 333.182C443.01 333.182 442.52 333.093 442.063 332.916C441.606 332.729 441.209 332.468 440.873 332.132C440.537 331.787 440.271 331.367 440.075 330.872C439.879 330.368 439.781 329.799 439.781 329.164C439.781 328.529 439.879 327.965 440.075 327.47C440.271 326.966 440.532 326.541 440.859 326.196C441.186 325.841 441.559 325.571 441.979 325.384C442.408 325.197 442.847 325.104 443.295 325.104C443.808 325.104 444.256 325.193 444.639 325.37C445.031 325.547 445.358 325.795 445.619 326.112C445.89 326.429 446.09 326.812 446.221 327.26C446.361 327.708 446.431 328.207 446.431 328.758C446.431 328.926 446.422 329.08 446.403 329.22C446.394 329.351 446.38 329.467 446.361 329.57H441.363C441.428 330.307 441.671 330.886 442.091 331.306C442.52 331.717 443.071 331.922 443.743 331.922C444.088 331.922 444.41 331.875 444.709 331.782C445.008 331.679 445.297 331.535 445.577 331.348L446.137 332.37C445.782 332.613 445.386 332.809 444.947 332.958C444.508 333.107 444.037 333.182 443.533 333.182ZM445.045 328.464C445.045 327.792 444.896 327.274 444.597 326.91C444.308 326.546 443.883 326.364 443.323 326.364C443.09 326.364 442.861 326.411 442.637 326.504C442.413 326.597 442.212 326.733 442.035 326.91C441.858 327.087 441.708 327.307 441.587 327.568C441.466 327.829 441.386 328.128 441.349 328.464H445.045ZM450.917 333.182C449.928 333.182 449.148 332.841 448.579 332.16C448.019 331.469 447.739 330.471 447.739 329.164C447.739 328.529 447.828 327.965 448.005 327.47C448.192 326.966 448.439 326.541 448.747 326.196C449.055 325.841 449.405 325.571 449.797 325.384C450.198 325.197 450.614 325.104 451.043 325.104C451.491 325.104 451.869 325.183 452.177 325.342C452.485 325.491 452.798 325.701 453.115 325.972L453.045 324.698V321.842H454.655V333H453.339L453.199 332.132H453.157C452.868 332.431 452.532 332.683 452.149 332.888C451.776 333.084 451.365 333.182 450.917 333.182ZM451.295 331.852C451.92 331.852 452.504 331.539 453.045 330.914V327.148C452.756 326.887 452.471 326.705 452.191 326.602C451.92 326.499 451.64 326.448 451.351 326.448C451.08 326.448 450.824 326.513 450.581 326.644C450.348 326.765 450.142 326.943 449.965 327.176C449.797 327.4 449.662 327.68 449.559 328.016C449.456 328.343 449.405 328.716 449.405 329.136C449.405 330.013 449.564 330.685 449.881 331.152C450.208 331.619 450.679 331.852 451.295 331.852ZM458.503 322.038V323.774H456.851V322.038H458.503ZM456.865 333V325.3H458.461V333H456.865ZM462.925 333.182C462.103 333.182 461.506 332.925 461.133 332.412C460.759 331.889 460.573 331.133 460.573 330.144V325.3H462.183V329.948C462.183 330.62 462.281 331.096 462.477 331.376C462.682 331.656 463.013 331.796 463.471 331.796C463.825 331.796 464.143 331.707 464.423 331.53C464.703 331.343 465.001 331.049 465.319 330.648V325.3H466.929V333H465.613L465.487 331.838H465.445C465.09 332.258 464.712 332.589 464.311 332.832C463.919 333.065 463.457 333.182 462.925 333.182ZM469.366 325.3H470.682L470.808 326.378H470.85C471.177 326.023 471.536 325.725 471.928 325.482C472.32 325.23 472.754 325.104 473.23 325.104C473.818 325.104 474.276 325.23 474.602 325.482C474.938 325.725 475.19 326.07 475.358 326.518C475.75 326.098 476.142 325.757 476.534 325.496C476.936 325.235 477.379 325.104 477.864 325.104C478.686 325.104 479.283 325.365 479.656 325.888C480.039 326.411 480.23 327.167 480.23 328.156V333H478.62V328.352C478.62 327.68 478.518 327.204 478.312 326.924C478.107 326.635 477.78 326.49 477.332 326.49C476.819 326.49 476.24 326.84 475.596 327.54V333H473.986V328.352C473.986 327.68 473.884 327.204 473.678 326.924C473.473 326.635 473.146 326.49 472.698 326.49C472.185 326.49 471.606 326.84 470.962 327.54V333H469.366V325.3Z" fill="#2D2D2D"/>
<path d="M393.684 352.252C394.124 352.252 394.524 352.296 394.884 352.384C395.244 352.464 395.548 352.592 395.796 352.768C396.052 352.936 396.248 353.156 396.384 353.428C396.528 353.692 396.6 354.008 396.6 354.376C396.6 354.832 396.484 355.232 396.252 355.576C396.028 355.912 395.696 356.148 395.256 356.284V356.344C395.832 356.44 396.288 356.664 396.624 357.016C396.96 357.368 397.128 357.844 397.128 358.444C397.128 358.868 397.048 359.24 396.888 359.56C396.736 359.88 396.516 360.148 396.228 360.364C395.948 360.572 395.608 360.732 395.208 360.844C394.808 360.948 394.36 361 393.864 361H391.272V352.252H393.684ZM393.456 356.068C394.32 356.068 394.94 355.924 395.316 355.636C395.692 355.348 395.88 354.956 395.88 354.46C395.88 353.868 395.68 353.452 395.28 353.212C394.888 352.964 394.304 352.84 393.528 352.84H391.992V356.068H393.456ZM393.696 360.4C394.544 360.4 395.208 360.244 395.688 359.932C396.176 359.62 396.42 359.124 396.42 358.444C396.42 357.82 396.184 357.364 395.712 357.076C395.24 356.788 394.568 356.644 393.696 356.644H391.992V360.4H393.696ZM401.263 361.156C400.879 361.156 400.511 361.084 400.159 360.94C399.807 360.788 399.499 360.568 399.235 360.28C398.971 359.992 398.759 359.64 398.599 359.224C398.447 358.808 398.371 358.336 398.371 357.808C398.371 357.272 398.447 356.796 398.599 356.38C398.759 355.964 398.971 355.612 399.235 355.324C399.499 355.036 399.807 354.816 400.159 354.664C400.511 354.512 400.879 354.436 401.263 354.436C401.647 354.436 402.015 354.512 402.367 354.664C402.719 354.816 403.027 355.036 403.291 355.324C403.555 355.612 403.763 355.964 403.915 356.38C404.075 356.796 404.155 357.272 404.155 357.808C404.155 358.336 404.075 358.808 403.915 359.224C403.763 359.64 403.555 359.992 403.291 360.28C403.027 360.568 402.719 360.788 402.367 360.94C402.015 361.084 401.647 361.156 401.263 361.156ZM401.263 360.556C401.575 360.556 401.863 360.492 402.127 360.364C402.391 360.228 402.619 360.04 402.811 359.8C403.011 359.552 403.163 359.26 403.267 358.924C403.379 358.588 403.435 358.216 403.435 357.808C403.435 357.4 403.379 357.028 403.267 356.692C403.163 356.348 403.011 356.056 402.811 355.816C402.619 355.576 402.391 355.388 402.127 355.252C401.863 355.116 401.575 355.048 401.263 355.048C400.951 355.048 400.663 355.116 400.399 355.252C400.135 355.388 399.907 355.576 399.715 355.816C399.523 356.056 399.371 356.348 399.259 356.692C399.155 357.028 399.103 357.4 399.103 357.808C399.103 358.216 399.155 358.588 399.259 358.924C399.371 359.26 399.523 359.552 399.715 359.8C399.907 360.04 400.135 360.228 400.399 360.364C400.663 360.492 400.951 360.556 401.263 360.556ZM408.148 361.156C407.324 361.156 406.676 360.872 406.204 360.304C405.732 359.736 405.496 358.904 405.496 357.808C405.496 357.288 405.572 356.824 405.724 356.416C405.876 356 406.08 355.644 406.336 355.348C406.6 355.052 406.904 354.828 407.248 354.676C407.592 354.516 407.952 354.436 408.328 354.436C408.712 354.436 409.048 354.504 409.336 354.64C409.624 354.776 409.924 354.968 410.236 355.216L410.188 354.064V351.46H410.884V361H410.308L410.224 360.196H410.2C409.944 360.452 409.64 360.676 409.288 360.868C408.944 361.06 408.564 361.156 408.148 361.156ZM408.268 360.544C408.612 360.544 408.936 360.46 409.24 360.292C409.552 360.124 409.868 359.872 410.188 359.536V355.84C409.852 355.552 409.544 355.348 409.264 355.228C408.992 355.108 408.704 355.048 408.4 355.048C408.096 355.048 407.812 355.12 407.548 355.264C407.284 355.4 407.056 355.592 406.864 355.84C406.672 356.088 406.52 356.38 406.408 356.716C406.296 357.052 406.24 357.416 406.24 357.808C406.24 358.224 406.284 358.6 406.372 358.936C406.46 359.272 406.592 359.56 406.768 359.8C406.944 360.04 407.156 360.224 407.404 360.352C407.66 360.48 407.948 360.544 408.268 360.544ZM414.862 361.072L412.246 354.604H413.002L414.49 358.516C414.594 358.796 414.702 359.092 414.814 359.404C414.934 359.708 415.05 360.004 415.162 360.292H415.222C415.318 360.004 415.414 359.708 415.51 359.404C415.614 359.092 415.71 358.796 415.798 358.516L417.106 354.604H417.814L414.55 363.88H413.806L414.862 361.072ZM424.221 361.156C423.573 361.156 423.005 361.036 422.517 360.796C422.029 360.556 421.605 360.24 421.245 359.848L421.689 359.344C422.009 359.704 422.385 359.988 422.817 360.196C423.249 360.404 423.717 360.508 424.221 360.508C424.869 360.508 425.381 360.356 425.757 360.052C426.133 359.74 426.321 359.332 426.321 358.828C426.321 358.564 426.281 358.344 426.201 358.168C426.121 357.984 426.009 357.828 425.865 357.7C425.729 357.564 425.565 357.448 425.373 357.352C425.189 357.248 424.989 357.148 424.773 357.052L423.465 356.476C423.273 356.388 423.069 356.284 422.853 356.164C422.645 356.044 422.453 355.9 422.277 355.732C422.109 355.564 421.969 355.364 421.857 355.132C421.745 354.892 421.689 354.612 421.689 354.292C421.689 353.964 421.753 353.668 421.881 353.404C422.017 353.132 422.197 352.9 422.421 352.708C422.653 352.516 422.929 352.368 423.249 352.264C423.569 352.152 423.913 352.096 424.281 352.096C424.809 352.096 425.281 352.196 425.697 352.396C426.121 352.596 426.473 352.848 426.753 353.152L426.345 353.62C426.089 353.356 425.789 353.144 425.445 352.984C425.101 352.824 424.713 352.744 424.281 352.744C423.721 352.744 423.269 352.88 422.925 353.152C422.589 353.416 422.421 353.776 422.421 354.232C422.421 354.48 422.469 354.692 422.565 354.868C422.661 355.044 422.781 355.196 422.925 355.324C423.069 355.444 423.229 355.548 423.405 355.636C423.581 355.724 423.749 355.804 423.909 355.876L425.217 356.452C425.473 356.564 425.709 356.688 425.925 356.824C426.149 356.952 426.345 357.108 426.513 357.292C426.681 357.468 426.813 357.676 426.909 357.916C427.005 358.156 427.053 358.444 427.053 358.78C427.053 359.116 426.985 359.428 426.849 359.716C426.713 360.004 426.521 360.256 426.273 360.472C426.033 360.688 425.737 360.856 425.385 360.976C425.041 361.096 424.653 361.156 424.221 361.156ZM429.37 354.604L429.454 355.576H429.478C429.766 355.256 430.082 354.988 430.426 354.772C430.778 354.548 431.134 354.436 431.494 354.436C432.006 354.436 432.398 354.556 432.67 354.796C432.95 355.028 433.146 355.34 433.258 355.732C433.618 355.34 433.97 355.028 434.314 354.796C434.666 354.556 435.034 354.436 435.418 354.436C436.698 354.436 437.338 355.26 437.338 356.908V361H436.642V357.004C436.642 356.324 436.53 355.832 436.306 355.528C436.09 355.216 435.742 355.06 435.262 355.06C434.974 355.06 434.678 355.156 434.374 355.348C434.078 355.54 433.758 355.828 433.414 356.212V361H432.718V357.004C432.718 356.324 432.606 355.832 432.382 355.528C432.166 355.216 431.818 355.06 431.338 355.06C430.778 355.06 430.162 355.444 429.49 356.212V361H428.794V354.604H429.37ZM441.061 361.084C440.805 361.084 440.561 361.052 440.329 360.988C440.105 360.916 439.909 360.808 439.741 360.664C439.573 360.52 439.441 360.34 439.345 360.124C439.249 359.9 439.201 359.64 439.201 359.344C439.209 358.664 439.485 358.108 440.029 357.676C440.565 357.26 441.649 357.008 443.281 356.92C443.289 356.696 443.273 356.468 443.233 356.236C443.201 355.996 443.125 355.776 443.005 355.576C442.877 355.384 442.721 355.244 442.537 355.156C442.353 355.068 442.113 355.02 441.817 355.012C441.377 355.02 440.985 355.096 440.641 355.24C440.305 355.384 440.021 355.544 439.789 355.72L439.489 355.168C439.873 354.92 440.257 354.736 440.641 354.616C441.033 354.496 441.457 354.436 441.913 354.436C442.297 354.436 442.617 354.5 442.873 354.628C443.137 354.756 443.349 354.932 443.509 355.156C443.677 355.38 443.797 355.648 443.869 355.96C443.941 356.264 443.977 356.592 443.977 356.944V361H443.389L443.317 360.16H443.293C442.957 360.432 442.601 360.656 442.225 360.832C441.857 361 441.469 361.084 441.061 361.084ZM441.205 360.496C441.565 360.488 441.905 360.416 442.225 360.28C442.545 360.144 442.897 359.908 443.281 359.572V357.436C442.649 357.468 442.117 357.528 441.685 357.616C441.253 357.696 440.905 357.828 440.641 358.012C440.369 358.196 440.177 358.4 440.065 358.624C439.953 358.84 439.897 359.072 439.897 359.32C439.897 359.536 439.929 359.72 439.993 359.872C440.065 360.024 440.161 360.148 440.281 360.244C440.401 360.332 440.541 360.396 440.701 360.436C440.861 360.476 441.029 360.496 441.205 360.496ZM446.208 351.46H446.904V361H446.208V351.46ZM449.29 351.46H449.986V361H449.29V351.46Z" fill="#2D2D2D"/>
<path d="M394.524 386.156C393.98 386.156 393.472 386.052 393 385.844C392.536 385.636 392.132 385.34 391.788 384.956C391.452 384.564 391.184 384.088 390.984 383.528C390.792 382.96 390.696 382.32 390.696 381.608C390.696 380.896 390.792 380.26 390.984 379.7C391.184 379.132 391.456 378.652 391.8 378.26C392.152 377.86 392.564 377.556 393.036 377.348C393.516 377.14 394.036 377.036 394.596 377.036C394.86 377.036 395.112 377.068 395.352 377.132C395.592 377.188 395.812 377.268 396.012 377.372C396.22 377.476 396.404 377.592 396.564 377.72C396.732 377.848 396.88 377.984 397.008 378.128L396.408 378.848C396.176 378.6 395.912 378.4 395.616 378.248C395.328 378.088 394.992 378.008 394.608 378.008C394.192 378.008 393.812 378.092 393.468 378.26C393.132 378.42 392.84 378.656 392.592 378.968C392.352 379.272 392.164 379.644 392.028 380.084C391.9 380.524 391.836 381.02 391.836 381.572C391.836 382.124 391.9 382.624 392.028 383.072C392.156 383.52 392.336 383.9 392.568 384.212C392.808 384.524 393.096 384.764 393.432 384.932C393.776 385.1 394.156 385.184 394.572 385.184C395.004 385.184 395.38 385.096 395.7 384.92C396.028 384.744 396.332 384.504 396.612 384.2L397.224 384.896C396.864 385.304 396.468 385.616 396.036 385.832C395.604 386.048 395.1 386.156 394.524 386.156ZM400.244 386.156C399.972 386.156 399.72 386.112 399.488 386.024C399.256 385.936 399.056 385.812 398.888 385.652C398.72 385.484 398.588 385.284 398.492 385.052C398.396 384.812 398.348 384.544 398.348 384.248C398.348 383.408 398.692 382.808 399.38 382.448C400.076 382.08 401.068 381.888 402.356 381.872C402.356 381.664 402.336 381.46 402.296 381.26C402.256 381.06 402.184 380.884 402.08 380.732C401.984 380.58 401.848 380.46 401.672 380.372C401.496 380.276 401.276 380.228 401.012 380.228C400.628 380.228 400.26 380.292 399.908 380.42C399.556 380.54 399.252 380.688 398.996 380.864L398.564 380.084C398.868 379.892 399.248 379.716 399.704 379.556C400.168 379.396 400.664 379.316 401.192 379.316C401.592 379.316 401.932 379.38 402.212 379.508C402.5 379.636 402.732 379.82 402.908 380.06C403.092 380.292 403.228 380.572 403.316 380.9C403.404 381.228 403.448 381.592 403.448 381.992V386H402.548L402.452 385.304H402.416C402.104 385.56 401.764 385.768 401.396 385.928C401.036 386.08 400.652 386.156 400.244 386.156ZM400.556 385.28C400.876 385.28 401.176 385.224 401.456 385.112C401.736 385 402.036 384.804 402.356 384.524V382.592C401.78 382.632 401.3 382.692 400.916 382.772C400.54 382.844 400.24 382.944 400.016 383.072C399.792 383.192 399.636 383.344 399.548 383.528C399.46 383.704 399.416 383.92 399.416 384.176C399.416 384.56 399.52 384.84 399.728 385.016C399.944 385.192 400.22 385.28 400.556 385.28ZM406.43 379.484L406.526 380.228H406.562C406.858 379.988 407.182 379.776 407.534 379.592C407.886 379.408 408.254 379.316 408.638 379.316C409.062 379.316 409.434 379.396 409.754 379.556C410.074 379.716 410.342 379.94 410.558 380.228C410.782 380.516 410.95 380.864 411.062 381.272C411.174 381.68 411.23 382.136 411.23 382.64C411.23 383.2 411.15 383.7 410.99 384.14C410.838 384.572 410.63 384.94 410.366 385.244C410.11 385.54 409.81 385.768 409.466 385.928C409.13 386.08 408.774 386.156 408.398 386.156C408.102 386.156 407.802 386.092 407.498 385.964C407.194 385.828 406.894 385.64 406.598 385.4L406.622 386.54V388.748H405.53V379.484H406.43ZM408.218 385.244C408.49 385.244 408.738 385.184 408.962 385.064C409.194 384.944 409.394 384.776 409.562 384.56C409.73 384.336 409.858 384.064 409.946 383.744C410.042 383.424 410.09 383.06 410.09 382.652C410.09 382.292 410.058 381.964 409.994 381.668C409.93 381.372 409.83 381.12 409.694 380.912C409.558 380.696 409.382 380.532 409.166 380.42C408.95 380.3 408.686 380.24 408.374 380.24C408.094 380.24 407.81 380.316 407.522 380.468C407.242 380.62 406.942 380.844 406.622 381.14V384.56C406.918 384.816 407.202 384.996 407.474 385.1C407.754 385.196 408.002 385.244 408.218 385.244ZM414.801 386.156C414.457 386.156 414.165 386.104 413.925 386C413.685 385.896 413.493 385.752 413.349 385.568C413.205 385.376 413.101 385.148 413.037 384.884C412.973 384.612 412.941 384.312 412.941 383.984V380.372H411.969V379.544L412.989 379.484L413.121 377.66H414.033V379.484H415.797V380.372H414.033V384.008C414.033 384.416 414.105 384.728 414.249 384.944C414.393 385.16 414.657 385.268 415.041 385.268C415.153 385.268 415.277 385.252 415.413 385.22C415.549 385.18 415.673 385.14 415.785 385.1L416.001 385.916C415.817 385.98 415.621 386.036 415.413 386.084C415.205 386.132 415.001 386.156 414.801 386.156ZM417.08 378.14V377.012H418.172V378.14H417.08ZM417.068 379.484H418.16V386H417.068V379.484ZM422.699 386.156C422.299 386.156 421.915 386.08 421.547 385.928C421.187 385.776 420.867 385.556 420.587 385.268C420.307 384.972 420.083 384.612 419.915 384.188C419.755 383.764 419.675 383.284 419.675 382.748C419.675 382.204 419.755 381.72 419.915 381.296C420.083 380.872 420.307 380.512 420.587 380.216C420.867 379.92 421.187 379.696 421.547 379.544C421.915 379.392 422.299 379.316 422.699 379.316C423.099 379.316 423.479 379.392 423.839 379.544C424.207 379.696 424.531 379.92 424.811 380.216C425.091 380.512 425.311 380.872 425.471 381.296C425.639 381.72 425.723 382.204 425.723 382.748C425.723 383.284 425.639 383.764 425.471 384.188C425.311 384.612 425.091 384.972 424.811 385.268C424.531 385.556 424.207 385.776 423.839 385.928C423.479 386.08 423.099 386.156 422.699 386.156ZM422.699 385.244C422.979 385.244 423.235 385.184 423.467 385.064C423.699 384.944 423.899 384.776 424.067 384.56C424.235 384.344 424.363 384.084 424.451 383.78C424.547 383.468 424.595 383.124 424.595 382.748C424.595 382.372 424.547 382.032 424.451 381.728C424.363 381.416 424.235 381.148 424.067 380.924C423.899 380.7 423.699 380.528 423.467 380.408C423.235 380.288 422.979 380.228 422.699 380.228C422.419 380.228 422.163 380.288 421.931 380.408C421.699 380.528 421.499 380.7 421.331 380.924C421.171 381.148 421.043 381.416 420.947 381.728C420.859 382.032 420.815 382.372 420.815 382.748C420.815 383.124 420.859 383.468 420.947 383.78C421.043 384.084 421.171 384.344 421.331 384.56C421.499 384.776 421.699 384.944 421.931 385.064C422.163 385.184 422.419 385.244 422.699 385.244ZM428.344 379.484L428.44 380.42H428.476C428.788 380.116 429.116 379.856 429.46 379.64C429.812 379.424 430.212 379.316 430.66 379.316C431.364 379.316 431.872 379.532 432.184 379.964C432.496 380.388 432.652 381.024 432.652 381.872V386H431.56V382.016C431.56 381.392 431.46 380.948 431.26 380.684C431.068 380.412 430.756 380.276 430.324 380.276C429.988 380.276 429.688 380.36 429.424 380.528C429.16 380.696 428.864 380.944 428.536 381.272V386H427.444V379.484H428.344Z" fill="#2D2D2D"/>
</svg>
